<?xml version="1.0" encoding="UTF-8" standalone="no"?>
<!DOCTYPE svg PUBLIC "-//W3C//DTD SVG 1.1//EN"
 "http://www.w3.org/Graphics/SVG/1.1/DTD/svg11.dtd">
<!-- Generated by graphviz version 2.43.0 (0)
 -->
<!-- Title: ABLModulatedPowerLaw.H Pages: 1 -->
<svg width="1567pt" height="151pt"
 viewBox="0.00 0.00 1566.50 151.00" xmlns="http://www.w3.org/2000/svg" xmlns:xlink="http://www.w3.org/1999/xlink">
<g id="graph0" class="graph" transform="scale(1 1) rotate(0) translate(4 147)">
<title>ABLModulatedPowerLaw.H</title>
<polygon fill="white" stroke="transparent" points="-4,4 -4,-147 1562.5,-147 1562.5,4 -4,4"/>
<!-- Node1 -->
<g id="node1" class="node">
<title>Node1</title>
<g id="a_node1"><a xlink:title=" ">
<polygon fill="#bfbfbf" stroke="black" points="1284.5,-123.5 1284.5,-142.5 1430.5,-142.5 1430.5,-123.5 1284.5,-123.5"/>
<text text-anchor="middle" x="1357.5" y="-130.5" font-family="Helvetica,sans-Serif" font-size="10.00">ABLModulatedPowerLaw.H</text>
</a>
</g>
</g>
<!-- Node2 -->
<g id="node2" class="node">
<title>Node2</title>
<g id="a_node2"><a xlink:href="_a_b_l_8_h.html" target="_top" xlink:title=" ">
<polygon fill="white" stroke="black" points="774.5,-67.5 774.5,-86.5 820.5,-86.5 820.5,-67.5 774.5,-67.5"/>
<text text-anchor="middle" x="797.5" y="-74.5" font-family="Helvetica,sans-Serif" font-size="10.00">ABL.H</text>
</a>
</g>
</g>
<!-- Node1&#45;&gt;Node2 -->
<g id="edge1" class="edge">
<title>Node1&#45;&gt;Node2</title>
<path fill="none" stroke="midnightblue" d="M1274.31,-123.98C1143.54,-111.37 896.92,-87.59 820.6,-80.23"/>
<polygon fill="midnightblue" stroke="midnightblue" points="1274,-127.46 1284.29,-124.94 1274.67,-120.5 1274,-127.46"/>
</g>
<!-- Node14 -->
<g id="node14" class="node">
<title>Node14</title>
<g id="a_node14"><a xlink:href="_a_b_l_fill_m_p_l_8_h.html" target="_top" xlink:title=" ">
<polygon fill="white" stroke="black" points="1317.5,-67.5 1317.5,-86.5 1397.5,-86.5 1397.5,-67.5 1317.5,-67.5"/>
<text text-anchor="middle" x="1357.5" y="-74.5" font-family="Helvetica,sans-Serif" font-size="10.00">ABLFillMPL.H</text>
</a>
</g>
</g>
<!-- Node1&#45;&gt;Node14 -->
<g id="edge13" class="edge">
<title>Node1&#45;&gt;Node14</title>
<path fill="none" stroke="midnightblue" d="M1357.5,-112.8C1357.5,-103.91 1357.5,-93.78 1357.5,-86.75"/>
<polygon fill="midnightblue" stroke="midnightblue" points="1354,-113.08 1357.5,-123.08 1361,-113.08 1354,-113.08"/>
</g>
<!-- Node16 -->
<g id="node16" class="node">
<title>Node16</title>
<g id="a_node16"><a xlink:href="_a_b_l_modulated_power_law_8cpp.html" target="_top" xlink:title=" ">
<polygon fill="white" stroke="black" points="1402.5,-6 1402.5,-25 1558.5,-25 1558.5,-6 1402.5,-6"/>
<text text-anchor="middle" x="1480.5" y="-13" font-family="Helvetica,sans-Serif" font-size="10.00">ABLModulatedPowerLaw.cpp</text>
</a>
</g>
</g>
<!-- Node1&#45;&gt;Node16 -->
<g id="edge16" class="edge">
<title>Node1&#45;&gt;Node16</title>
<path fill="none" stroke="midnightblue" d="M1374.51,-116.52C1383.97,-107.87 1395.93,-96.89 1406.5,-87 1430.08,-64.94 1457.54,-38.61 1471.44,-25.24"/>
<polygon fill="midnightblue" stroke="midnightblue" points="1371.97,-114.1 1366.94,-123.42 1376.69,-119.27 1371.97,-114.1"/>
</g>
<!-- Node3 -->
<g id="node3" class="node">
<title>Node3</title>
<g id="a_node3"><a xlink:href="_a_b_l_forcing_8cpp.html" target="_top" xlink:title=" ">
<polygon fill="white" stroke="black" points="0,-6 0,-25 91,-25 91,-6 0,-6"/>
<text text-anchor="middle" x="45.5" y="-13" font-family="Helvetica,sans-Serif" font-size="10.00">ABLForcing.cpp</text>
</a>
</g>
</g>
<!-- Node2&#45;&gt;Node3 -->
<g id="edge2" class="edge">
<title>Node2&#45;&gt;Node3</title>
<path fill="none" stroke="midnightblue" d="M764.3,-76.12C663.67,-76.01 353.4,-72.1 100.5,-31 91.63,-29.56 82.12,-27.31 73.54,-25.01"/>
<polygon fill="midnightblue" stroke="midnightblue" points="764.46,-79.62 774.46,-76.12 764.46,-72.62 764.46,-79.62"/>
</g>
<!-- Node4 -->
<g id="node4" class="node">
<title>Node4</title>
<g id="a_node4"><a xlink:href="_a_b_l_mean_boussinesq_8cpp.html" target="_top" xlink:title=" ">
<polygon fill="white" stroke="black" points="109.5,-6 109.5,-25 247.5,-25 247.5,-6 109.5,-6"/>
<text text-anchor="middle" x="178.5" y="-13" font-family="Helvetica,sans-Serif" font-size="10.00">ABLMeanBoussinesq.cpp</text>
</a>
</g>
</g>
<!-- Node2&#45;&gt;Node4 -->
<g id="edge3" class="edge">
<title>Node2&#45;&gt;Node4</title>
<path fill="none" stroke="midnightblue" d="M764.42,-74.41C679.68,-70.09 447.98,-56.69 256.5,-31 244.62,-29.41 231.81,-27.22 220.07,-25.03"/>
<polygon fill="midnightblue" stroke="midnightblue" points="764.31,-77.91 774.47,-74.92 764.66,-70.92 764.31,-77.91"/>
</g>
<!-- Node5 -->
<g id="node5" class="node">
<title>Node5</title>
<g id="a_node5"><a xlink:href="_a_b_l_meso_forcing_mom_8cpp.html" target="_top" xlink:title=" ">
<polygon fill="white" stroke="black" points="265.5,-6 265.5,-25 407.5,-25 407.5,-6 265.5,-6"/>
<text text-anchor="middle" x="336.5" y="-13" font-family="Helvetica,sans-Serif" font-size="10.00">ABLMesoForcingMom.cpp</text>
</a>
</g>
</g>
<!-- Node2&#45;&gt;Node5 -->
<g id="edge4" class="edge">
<title>Node2&#45;&gt;Node5</title>
<path fill="none" stroke="midnightblue" d="M763.96,-72.74C697.5,-66.13 544.42,-50.13 416.5,-31 404.91,-29.27 392.43,-27.13 380.85,-25.04"/>
<polygon fill="midnightblue" stroke="midnightblue" points="763.94,-76.26 774.24,-73.76 764.63,-69.29 763.94,-76.26"/>
</g>
<!-- Node6 -->
<g id="node6" class="node">
<title>Node6</title>
<g id="a_node6"><a xlink:href="_hurricane_forcing_8cpp.html" target="_top" xlink:title=" ">
<polygon fill="white" stroke="black" points="426,-6 426,-25 545,-25 545,-6 426,-6"/>
<text text-anchor="middle" x="485.5" y="-13" font-family="Helvetica,sans-Serif" font-size="10.00">HurricaneForcing.cpp</text>
</a>
</g>
</g>
<!-- Node2&#45;&gt;Node6 -->
<g id="edge5" class="edge">
<title>Node2&#45;&gt;Node6</title>
<path fill="none" stroke="midnightblue" d="M764.32,-70.18C717.33,-61.87 628.72,-45.95 553.5,-31 544.15,-29.14 534.09,-27.05 524.66,-25.04"/>
<polygon fill="midnightblue" stroke="midnightblue" points="763.79,-73.64 774.25,-71.93 765.01,-66.75 763.79,-73.64"/>
</g>
<!-- Node7 -->
<g id="node7" class="node">
<title>Node7</title>
<g id="a_node7"><a xlink:href="_a_b_l_meso_forcing_temp_8cpp.html" target="_top" xlink:title=" ">
<polygon fill="white" stroke="black" points="563,-6 563,-25 706,-25 706,-6 563,-6"/>
<text text-anchor="middle" x="634.5" y="-13" font-family="Helvetica,sans-Serif" font-size="10.00">ABLMesoForcingTemp.cpp</text>
</a>
</g>
</g>
<!-- Node2&#45;&gt;Node7 -->
<g id="edge6" class="edge">
<title>Node2&#45;&gt;Node7</title>
<path fill="none" stroke="midnightblue" d="M764.81,-64.07C733.16,-52.52 685.98,-35.29 657.92,-25.05"/>
<polygon fill="midnightblue" stroke="midnightblue" points="763.9,-67.46 774.49,-67.6 766.3,-60.88 763.9,-67.46"/>
</g>
<!-- Node8 -->
<g id="node8" class="node">
<title>Node8</title>
<g id="a_node8"><a xlink:href="helics_8cpp.html" target="_top" xlink:title=" ">
<polygon fill="white" stroke="black" points="724,-6 724,-25 789,-25 789,-6 724,-6"/>
<text text-anchor="middle" x="756.5" y="-13" font-family="Helvetica,sans-Serif" font-size="10.00">helics.cpp</text>
</a>
</g>
</g>
<!-- Node2&#45;&gt;Node8 -->
<g id="edge7" class="edge">
<title>Node2&#45;&gt;Node8</title>
<path fill="none" stroke="midnightblue" d="M785.79,-59.01C778.13,-47.89 768.45,-33.84 762.36,-25.01"/>
<polygon fill="midnightblue" stroke="midnightblue" points="783.07,-61.23 791.63,-67.48 788.83,-57.25 783.07,-61.23"/>
</g>
<!-- Node9 -->
<g id="node9" class="node">
<title>Node9</title>
<g id="a_node9"><a xlink:href="incflo_8cpp.html" target="_top" xlink:title=" ">
<polygon fill="white" stroke="black" points="807,-6 807,-25 870,-25 870,-6 807,-6"/>
<text text-anchor="middle" x="838.5" y="-13" font-family="Helvetica,sans-Serif" font-size="10.00">incflo.cpp</text>
</a>
</g>
</g>
<!-- Node2&#45;&gt;Node9 -->
<g id="edge8" class="edge">
<title>Node2&#45;&gt;Node9</title>
<path fill="none" stroke="midnightblue" d="M809.21,-59.01C816.87,-47.89 826.55,-33.84 832.64,-25.01"/>
<polygon fill="midnightblue" stroke="midnightblue" points="806.17,-57.25 803.37,-67.48 811.93,-61.23 806.17,-57.25"/>
</g>
<!-- Node10 -->
<g id="node10" class="node">
<title>Node10</title>
<g id="a_node10"><a xlink:href="incflo__apply__nodal__projection_8cpp.html" target="_top" xlink:title=" ">
<polygon fill="white" stroke="black" points="888,-0.5 888,-30.5 995,-30.5 995,-0.5 888,-0.5"/>
<text text-anchor="start" x="896" y="-18.5" font-family="Helvetica,sans-Serif" font-size="10.00">incflo_apply_nodal</text>
<text text-anchor="middle" x="941.5" y="-7.5" font-family="Helvetica,sans-Serif" font-size="10.00">_projection.cpp</text>
</a>
</g>
</g>
<!-- Node2&#45;&gt;Node10 -->
<g id="edge9" class="edge">
<title>Node2&#45;&gt;Node10</title>
<path fill="none" stroke="midnightblue" d="M827.53,-63.59C850.88,-53.94 883.28,-40.56 907.56,-30.52"/>
<polygon fill="midnightblue" stroke="midnightblue" points="826.04,-60.42 818.13,-67.48 828.71,-66.89 826.04,-60.42"/>
</g>
<!-- Node11 -->
<g id="node11" class="node">
<title>Node11</title>
<g id="a_node11"><a xlink:href="init_8cpp.html" target="_top" xlink:title=" ">
<polygon fill="white" stroke="black" points="1013,-6 1013,-25 1066,-25 1066,-6 1013,-6"/>
<text text-anchor="middle" x="1039.5" y="-13" font-family="Helvetica,sans-Serif" font-size="10.00">init.cpp</text>
</a>
</g>
</g>
<!-- Node2&#45;&gt;Node11 -->
<g id="edge10" class="edge">
<title>Node2&#45;&gt;Node11</title>
<path fill="none" stroke="midnightblue" d="M830.69,-70.52C871.77,-63.34 943.64,-49.45 1003.5,-31 1008.91,-29.33 1014.64,-27.2 1019.91,-25.08"/>
<polygon fill="midnightblue" stroke="midnightblue" points="829.95,-67.1 820.69,-72.24 831.14,-74 829.95,-67.1"/>
</g>
<!-- Node12 -->
<g id="node12" class="node">
<title>Node12</title>
<g id="a_node12"><a xlink:href="_a_b_l_8cpp.html" target="_top" xlink:title=" ">
<polygon fill="white" stroke="black" points="1084.5,-6 1084.5,-25 1140.5,-25 1140.5,-6 1084.5,-6"/>
<text text-anchor="middle" x="1112.5" y="-13" font-family="Helvetica,sans-Serif" font-size="10.00">ABL.cpp</text>
</a>
</g>
</g>
<!-- Node2&#45;&gt;Node12 -->
<g id="edge11" class="edge">
<title>Node2&#45;&gt;Node12</title>
<path fill="none" stroke="midnightblue" d="M830.91,-72.79C883.43,-67.26 988.23,-54.21 1074.5,-31 1080.36,-29.42 1086.58,-27.27 1092.24,-25.1"/>
<polygon fill="midnightblue" stroke="midnightblue" points="830.41,-69.33 820.82,-73.83 831.12,-76.29 830.41,-69.33"/>
</g>
<!-- Node13 -->
<g id="node13" class="node">
<title>Node13</title>
<g id="a_node13"><a xlink:href="_a_b_l_wall_function_8cpp.html" target="_top" xlink:title=" ">
<polygon fill="white" stroke="black" points="1159,-6 1159,-25 1276,-25 1276,-6 1159,-6"/>
<text text-anchor="middle" x="1217.5" y="-13" font-family="Helvetica,sans-Serif" font-size="10.00">ABLWallFunction.cpp</text>
</a>
</g>
</g>
<!-- Node2&#45;&gt;Node13 -->
<g id="edge12" class="edge">
<title>Node2&#45;&gt;Node13</title>
<path fill="none" stroke="midnightblue" d="M830.73,-72.68C893.34,-66.22 1032.95,-50.84 1149.5,-31 1159.5,-29.3 1170.25,-27.15 1180.2,-25.04"/>
<polygon fill="midnightblue" stroke="midnightblue" points="830.25,-69.21 820.66,-73.71 830.97,-76.18 830.25,-69.21"/>
</g>
<!-- Node15 -->
<g id="node15" class="node">
<title>Node15</title>
<g id="a_node15"><a xlink:href="_a_b_l_fill_m_p_l_8cpp.html" target="_top" xlink:title=" ">
<polygon fill="white" stroke="black" points="1294.5,-6 1294.5,-25 1384.5,-25 1384.5,-6 1294.5,-6"/>
<text text-anchor="middle" x="1339.5" y="-13" font-family="Helvetica,sans-Serif" font-size="10.00">ABLFillMPL.cpp</text>
</a>
</g>
</g>
<!-- Node14&#45;&gt;Node15 -->
<g id="edge14" class="edge">
<title>Node14&#45;&gt;Node15</title>
<path fill="none" stroke="midnightblue" d="M1351.95,-57.66C1348.66,-46.77 1344.64,-33.49 1342.07,-25.01"/>
<polygon fill="midnightblue" stroke="midnightblue" points="1348.68,-58.92 1354.92,-67.48 1355.38,-56.89 1348.68,-58.92"/>
</g>
<!-- Node14&#45;&gt;Node16 -->
<g id="edge15" class="edge">
<title>Node14&#45;&gt;Node16</title>
<path fill="none" stroke="midnightblue" d="M1384.33,-63.02C1408.19,-51.48 1442.37,-34.94 1462.91,-25.01"/>
<polygon fill="midnightblue" stroke="midnightblue" points="1382.6,-59.97 1375.12,-67.48 1385.65,-66.27 1382.6,-59.97"/>
</g>
</g>
</svg>
