<?xml version="1.0" encoding="UTF-8" standalone="no"?>
<!DOCTYPE svg PUBLIC "-//W3C//DTD SVG 1.1//EN"
 "http://www.w3.org/Graphics/SVG/1.1/DTD/svg11.dtd">
<!-- Generated by graphviz version 2.43.0 (0)
 -->
<!-- Title: ABLFieldInit.H Pages: 1 -->
<svg width="1284pt" height="151pt"
 viewBox="0.00 0.00 1283.50 151.00" xmlns="http://www.w3.org/2000/svg" xmlns:xlink="http://www.w3.org/1999/xlink">
<g id="graph0" class="graph" transform="scale(1 1) rotate(0) translate(4 147)">
<title>ABLFieldInit.H</title>
<polygon fill="white" stroke="transparent" points="-4,4 -4,-147 1279.5,-147 1279.5,4 -4,4"/>
<!-- Node1 -->
<g id="node1" class="node">
<title>Node1</title>
<g id="a_node1"><a xlink:title=" ">
<polygon fill="#bfbfbf" stroke="black" points="591.5,-123.5 591.5,-142.5 676.5,-142.5 676.5,-123.5 591.5,-123.5"/>
<text text-anchor="middle" x="634" y="-130.5" font-family="Helvetica,sans-Serif" font-size="10.00">ABLFieldInit.H</text>
</a>
</g>
</g>
<!-- Node2 -->
<g id="node2" class="node">
<title>Node2</title>
<g id="a_node2"><a xlink:href="_a_b_l_8cpp.html" target="_top" xlink:title=" ">
<polygon fill="white" stroke="black" points="0,-6 0,-25 56,-25 56,-6 0,-6"/>
<text text-anchor="middle" x="28" y="-13" font-family="Helvetica,sans-Serif" font-size="10.00">ABL.cpp</text>
</a>
</g>
</g>
<!-- Node1&#45;&gt;Node2 -->
<g id="edge1" class="edge">
<title>Node1&#45;&gt;Node2</title>
<path fill="none" stroke="midnightblue" d="M581.25,-126.18C479.85,-114.21 251.26,-83.47 65,-31 59.29,-29.39 53.24,-27.23 47.72,-25.06"/>
<polygon fill="midnightblue" stroke="midnightblue" points="580.9,-129.66 591.24,-127.34 581.71,-122.71 580.9,-129.66"/>
</g>
<!-- Node3 -->
<g id="node3" class="node">
<title>Node3</title>
<g id="a_node3"><a xlink:href="_a_b_l_8_h.html" target="_top" xlink:title=" ">
<polygon fill="white" stroke="black" points="611,-67.5 611,-86.5 657,-86.5 657,-67.5 611,-67.5"/>
<text text-anchor="middle" x="634" y="-74.5" font-family="Helvetica,sans-Serif" font-size="10.00">ABL.H</text>
</a>
</g>
</g>
<!-- Node1&#45;&gt;Node3 -->
<g id="edge2" class="edge">
<title>Node1&#45;&gt;Node3</title>
<path fill="none" stroke="midnightblue" d="M634,-112.8C634,-103.91 634,-93.78 634,-86.75"/>
<polygon fill="midnightblue" stroke="midnightblue" points="630.5,-113.08 634,-123.08 637.5,-113.08 630.5,-113.08"/>
</g>
<!-- Node14 -->
<g id="node14" class="node">
<title>Node14</title>
<g id="a_node14"><a xlink:href="_a_b_l_field_init_8cpp.html" target="_top" xlink:title=" ">
<polygon fill="white" stroke="black" points="675.5,-67.5 675.5,-86.5 770.5,-86.5 770.5,-67.5 675.5,-67.5"/>
<text text-anchor="middle" x="723" y="-74.5" font-family="Helvetica,sans-Serif" font-size="10.00">ABLFieldInit.cpp</text>
</a>
</g>
</g>
<!-- Node1&#45;&gt;Node14 -->
<g id="edge14" class="edge">
<title>Node1&#45;&gt;Node14</title>
<path fill="none" stroke="midnightblue" d="M657.24,-117.9C673.56,-108 694.87,-95.07 708.74,-86.65"/>
<polygon fill="midnightblue" stroke="midnightblue" points="655.03,-115.14 648.3,-123.32 658.66,-121.13 655.03,-115.14"/>
</g>
<!-- Node3&#45;&gt;Node2 -->
<g id="edge12" class="edge">
<title>Node3&#45;&gt;Node2</title>
<path fill="none" stroke="midnightblue" d="M600.92,-74.66C495.48,-70.2 168.17,-54.74 65,-31 58.95,-29.61 52.58,-27.4 46.86,-25.13"/>
<polygon fill="midnightblue" stroke="midnightblue" points="600.85,-78.16 610.98,-75.08 601.14,-71.17 600.85,-78.16"/>
</g>
<!-- Node4 -->
<g id="node4" class="node">
<title>Node4</title>
<g id="a_node4"><a xlink:href="_a_b_l_forcing_8cpp.html" target="_top" xlink:title=" ">
<polygon fill="white" stroke="black" points="74.5,-6 74.5,-25 165.5,-25 165.5,-6 74.5,-6"/>
<text text-anchor="middle" x="120" y="-13" font-family="Helvetica,sans-Serif" font-size="10.00">ABLForcing.cpp</text>
</a>
</g>
</g>
<!-- Node3&#45;&gt;Node4 -->
<g id="edge3" class="edge">
<title>Node3&#45;&gt;Node4</title>
<path fill="none" stroke="midnightblue" d="M600.52,-74.56C524.41,-70.87 332.74,-59.34 175,-31 166.45,-29.46 157.28,-27.27 148.92,-25.05"/>
<polygon fill="midnightblue" stroke="midnightblue" points="600.74,-78.07 610.9,-75.04 601.07,-71.08 600.74,-78.07"/>
</g>
<!-- Node5 -->
<g id="node5" class="node">
<title>Node5</title>
<g id="a_node5"><a xlink:href="_a_b_l_mean_boussinesq_8cpp.html" target="_top" xlink:title=" ">
<polygon fill="white" stroke="black" points="184,-6 184,-25 322,-25 322,-6 184,-6"/>
<text text-anchor="middle" x="253" y="-13" font-family="Helvetica,sans-Serif" font-size="10.00">ABLMeanBoussinesq.cpp</text>
</a>
</g>
</g>
<!-- Node3&#45;&gt;Node5 -->
<g id="edge4" class="edge">
<title>Node3&#45;&gt;Node5</title>
<path fill="none" stroke="midnightblue" d="M600.74,-71.46C544.91,-63.76 428.82,-47.35 331,-31 320.13,-29.18 308.44,-27.09 297.5,-25.06"/>
<polygon fill="midnightblue" stroke="midnightblue" points="600.38,-74.95 610.77,-72.84 601.34,-68.01 600.38,-74.95"/>
</g>
<!-- Node6 -->
<g id="node6" class="node">
<title>Node6</title>
<g id="a_node6"><a xlink:href="_a_b_l_meso_forcing_mom_8cpp.html" target="_top" xlink:title=" ">
<polygon fill="white" stroke="black" points="340,-6 340,-25 482,-25 482,-6 340,-6"/>
<text text-anchor="middle" x="411" y="-13" font-family="Helvetica,sans-Serif" font-size="10.00">ABLMesoForcingMom.cpp</text>
</a>
</g>
</g>
<!-- Node3&#45;&gt;Node6 -->
<g id="edge5" class="edge">
<title>Node3&#45;&gt;Node6</title>
<path fill="none" stroke="midnightblue" d="M601.14,-67.23C558.71,-55.91 485.31,-36.33 443.2,-25.09"/>
<polygon fill="midnightblue" stroke="midnightblue" points="600.41,-70.66 610.98,-69.86 602.22,-63.9 600.41,-70.66"/>
</g>
<!-- Node7 -->
<g id="node7" class="node">
<title>Node7</title>
<g id="a_node7"><a xlink:href="_hurricane_forcing_8cpp.html" target="_top" xlink:title=" ">
<polygon fill="white" stroke="black" points="500.5,-6 500.5,-25 619.5,-25 619.5,-6 500.5,-6"/>
<text text-anchor="middle" x="560" y="-13" font-family="Helvetica,sans-Serif" font-size="10.00">HurricaneForcing.cpp</text>
</a>
</g>
</g>
<!-- Node3&#45;&gt;Node7 -->
<g id="edge6" class="edge">
<title>Node3&#45;&gt;Node7</title>
<path fill="none" stroke="midnightblue" d="M615.31,-60.97C601.16,-49.59 582.22,-34.37 570.58,-25.01"/>
<polygon fill="midnightblue" stroke="midnightblue" points="613.41,-63.94 623.4,-67.48 617.8,-58.48 613.41,-63.94"/>
</g>
<!-- Node8 -->
<g id="node8" class="node">
<title>Node8</title>
<g id="a_node8"><a xlink:href="_a_b_l_meso_forcing_temp_8cpp.html" target="_top" xlink:title=" ">
<polygon fill="white" stroke="black" points="637.5,-6 637.5,-25 780.5,-25 780.5,-6 637.5,-6"/>
<text text-anchor="middle" x="709" y="-13" font-family="Helvetica,sans-Serif" font-size="10.00">ABLMesoForcingTemp.cpp</text>
</a>
</g>
</g>
<!-- Node3&#45;&gt;Node8 -->
<g id="edge7" class="edge">
<title>Node3&#45;&gt;Node8</title>
<path fill="none" stroke="midnightblue" d="M652.94,-60.97C667.29,-49.59 686.48,-34.37 698.27,-25.01"/>
<polygon fill="midnightblue" stroke="midnightblue" points="650.4,-58.52 644.75,-67.48 654.76,-64 650.4,-58.52"/>
</g>
<!-- Node9 -->
<g id="node9" class="node">
<title>Node9</title>
<g id="a_node9"><a xlink:href="helics_8cpp.html" target="_top" xlink:title=" ">
<polygon fill="white" stroke="black" points="798.5,-6 798.5,-25 863.5,-25 863.5,-6 798.5,-6"/>
<text text-anchor="middle" x="831" y="-13" font-family="Helvetica,sans-Serif" font-size="10.00">helics.cpp</text>
</a>
</g>
</g>
<!-- Node3&#45;&gt;Node9 -->
<g id="edge8" class="edge">
<title>Node3&#45;&gt;Node9</title>
<path fill="none" stroke="midnightblue" d="M666.76,-66.8C705.34,-55.91 767.09,-38.35 790,-31 795.75,-29.16 801.91,-27.05 807.66,-25.02"/>
<polygon fill="midnightblue" stroke="midnightblue" points="665.69,-63.46 657.01,-69.54 667.59,-70.2 665.69,-63.46"/>
</g>
<!-- Node10 -->
<g id="node10" class="node">
<title>Node10</title>
<g id="a_node10"><a xlink:href="incflo_8cpp.html" target="_top" xlink:title=" ">
<polygon fill="white" stroke="black" points="881.5,-6 881.5,-25 944.5,-25 944.5,-6 881.5,-6"/>
<text text-anchor="middle" x="913" y="-13" font-family="Helvetica,sans-Serif" font-size="10.00">incflo.cpp</text>
</a>
</g>
</g>
<!-- Node3&#45;&gt;Node10 -->
<g id="edge9" class="edge">
<title>Node3&#45;&gt;Node10</title>
<path fill="none" stroke="midnightblue" d="M666.7,-67.07C666.8,-67.05 666.9,-67.02 667,-67 757.71,-46.75 783.19,-54.93 873,-31 879.14,-29.36 885.67,-27.19 891.63,-25.03"/>
<polygon fill="midnightblue" stroke="midnightblue" points="665.9,-63.66 657.01,-69.43 667.56,-70.46 665.9,-63.66"/>
</g>
<!-- Node11 -->
<g id="node11" class="node">
<title>Node11</title>
<g id="a_node11"><a xlink:href="incflo__apply__nodal__projection_8cpp.html" target="_top" xlink:title=" ">
<polygon fill="white" stroke="black" points="962.5,-0.5 962.5,-30.5 1069.5,-30.5 1069.5,-0.5 962.5,-0.5"/>
<text text-anchor="start" x="970.5" y="-18.5" font-family="Helvetica,sans-Serif" font-size="10.00">incflo_apply_nodal</text>
<text text-anchor="middle" x="1016" y="-7.5" font-family="Helvetica,sans-Serif" font-size="10.00">_projection.cpp</text>
</a>
</g>
</g>
<!-- Node3&#45;&gt;Node11 -->
<g id="edge10" class="edge">
<title>Node3&#45;&gt;Node11</title>
<path fill="none" stroke="midnightblue" d="M667.49,-67.2C794.91,-42.59 830.67,-53.09 954,-31 956.72,-30.51 959.5,-29.98 962.3,-29.42"/>
<polygon fill="midnightblue" stroke="midnightblue" points="666.48,-63.83 657.34,-69.2 667.83,-70.7 666.48,-63.83"/>
</g>
<!-- Node12 -->
<g id="node12" class="node">
<title>Node12</title>
<g id="a_node12"><a xlink:href="init_8cpp.html" target="_top" xlink:title=" ">
<polygon fill="white" stroke="black" points="1087.5,-6 1087.5,-25 1140.5,-25 1140.5,-6 1087.5,-6"/>
<text text-anchor="middle" x="1114" y="-13" font-family="Helvetica,sans-Serif" font-size="10.00">init.cpp</text>
</a>
</g>
</g>
<!-- Node3&#45;&gt;Node12 -->
<g id="edge11" class="edge">
<title>Node3&#45;&gt;Node12</title>
<path fill="none" stroke="midnightblue" d="M667.24,-67.34C849.83,-36.07 903.6,-73.92 1079,-31 1084.75,-29.59 1090.78,-27.38 1096.19,-25.11"/>
<polygon fill="midnightblue" stroke="midnightblue" points="666.56,-63.91 657.32,-69.09 667.77,-70.8 666.56,-63.91"/>
</g>
<!-- Node13 -->
<g id="node13" class="node">
<title>Node13</title>
<g id="a_node13"><a xlink:href="_a_b_l_wall_function_8cpp.html" target="_top" xlink:title=" ">
<polygon fill="white" stroke="black" points="1158.5,-6 1158.5,-25 1275.5,-25 1275.5,-6 1158.5,-6"/>
<text text-anchor="middle" x="1217" y="-13" font-family="Helvetica,sans-Serif" font-size="10.00">ABLWallFunction.cpp</text>
</a>
</g>
</g>
<!-- Node3&#45;&gt;Node13 -->
<g id="edge13" class="edge">
<title>Node3&#45;&gt;Node13</title>
<path fill="none" stroke="midnightblue" d="M667.27,-67.35C880.93,-31.45 940.18,-61.37 1150,-31 1160.48,-29.48 1171.77,-27.27 1182.05,-25.02"/>
<polygon fill="midnightblue" stroke="midnightblue" points="666.58,-63.91 657.31,-69.05 667.76,-70.81 666.58,-63.91"/>
</g>
</g>
</svg>
