<?xml version="1.0" encoding="UTF-8" standalone="no"?>
<!DOCTYPE svg PUBLIC "-//W3C//DTD SVG 1.1//EN"
 "http://www.w3.org/Graphics/SVG/1.1/DTD/svg11.dtd">
<!-- Generated by graphviz version 2.43.0 (0)
 -->
<!-- Title: ABLWallFunction.H Pages: 1 -->
<svg width="1383pt" height="207pt"
 viewBox="0.00 0.00 1382.50 207.00" xmlns="http://www.w3.org/2000/svg" xmlns:xlink="http://www.w3.org/1999/xlink">
<g id="graph0" class="graph" transform="scale(1 1) rotate(0) translate(4 203)">
<title>ABLWallFunction.H</title>
<polygon fill="white" stroke="transparent" points="-4,4 -4,-203 1378.5,-203 1378.5,4 -4,4"/>
<!-- Node1 -->
<g id="node1" class="node">
<title>Node1</title>
<g id="a_node1"><a xlink:title=" ">
<polygon fill="#bfbfbf" stroke="black" points="611,-179.5 611,-198.5 718,-198.5 718,-179.5 611,-179.5"/>
<text text-anchor="middle" x="664.5" y="-186.5" font-family="Helvetica,sans-Serif" font-size="10.00">ABLWallFunction.H</text>
</a>
</g>
</g>
<!-- Node2 -->
<g id="node2" class="node">
<title>Node2</title>
<g id="a_node2"><a xlink:href="_boussinesq_bubble_8cpp.html" target="_top" xlink:title=" ">
<polygon fill="white" stroke="black" points="472.5,-123.5 472.5,-142.5 598.5,-142.5 598.5,-123.5 472.5,-123.5"/>
<text text-anchor="middle" x="535.5" y="-130.5" font-family="Helvetica,sans-Serif" font-size="10.00">BoussinesqBubble.cpp</text>
</a>
</g>
</g>
<!-- Node1&#45;&gt;Node2 -->
<g id="edge1" class="edge">
<title>Node1&#45;&gt;Node2</title>
<path fill="none" stroke="midnightblue" d="M634.65,-175.5C610.46,-165.38 577.04,-151.39 555.84,-142.52"/>
<polygon fill="midnightblue" stroke="midnightblue" points="633.48,-178.81 644.06,-179.44 636.19,-172.35 633.48,-178.81"/>
</g>
<!-- Node3 -->
<g id="node3" class="node">
<title>Node3</title>
<g id="a_node3"><a xlink:href="_a_b_l_8_h.html" target="_top" xlink:title=" ">
<polygon fill="white" stroke="black" points="685.5,-67.5 685.5,-86.5 731.5,-86.5 731.5,-67.5 685.5,-67.5"/>
<text text-anchor="middle" x="708.5" y="-74.5" font-family="Helvetica,sans-Serif" font-size="10.00">ABL.H</text>
</a>
</g>
</g>
<!-- Node1&#45;&gt;Node3 -->
<g id="edge2" class="edge">
<title>Node1&#45;&gt;Node3</title>
<path fill="none" stroke="midnightblue" d="M668.72,-169.59C672.02,-156.36 677.13,-138.26 683.5,-123 689.01,-109.81 697.4,-95.53 702.92,-86.67"/>
<polygon fill="midnightblue" stroke="midnightblue" points="665.3,-168.84 666.37,-179.38 672.1,-170.47 665.3,-168.84"/>
</g>
<!-- Node14 -->
<g id="node14" class="node">
<title>Node14</title>
<g id="a_node14"><a xlink:href="_a_b_l_wall_function_8cpp.html" target="_top" xlink:title=" ">
<polygon fill="white" stroke="black" points="0,-6 0,-25 117,-25 117,-6 0,-6"/>
<text text-anchor="middle" x="58.5" y="-13" font-family="Helvetica,sans-Serif" font-size="10.00">ABLWallFunction.cpp</text>
</a>
</g>
</g>
<!-- Node1&#45;&gt;Node14 -->
<g id="edge19" class="edge">
<title>Node1&#45;&gt;Node14</title>
<path fill="none" stroke="midnightblue" d="M653.84,-170.32C643.81,-155.28 627.37,-134.38 607.5,-123 418.61,-14.87 339.83,-74.14 126.5,-31 117.27,-29.13 107.35,-27.06 98.02,-25.08"/>
<polygon fill="midnightblue" stroke="midnightblue" points="651.16,-172.63 659.48,-179.19 657.07,-168.87 651.16,-172.63"/>
</g>
<!-- Node15 -->
<g id="node15" class="node">
<title>Node15</title>
<g id="a_node15"><a xlink:href="_a_b_l_stats_8_h.html" target="_top" xlink:title=" ">
<polygon fill="white" stroke="black" points="781,-67.5 781,-86.5 852,-86.5 852,-67.5 781,-67.5"/>
<text text-anchor="middle" x="816.5" y="-74.5" font-family="Helvetica,sans-Serif" font-size="10.00">ABLStats.H</text>
</a>
</g>
</g>
<!-- Node1&#45;&gt;Node15 -->
<g id="edge14" class="edge">
<title>Node1&#45;&gt;Node15</title>
<path fill="none" stroke="midnightblue" d="M728.11,-178.95C752.33,-172.55 778.42,-161.63 796.5,-143 811.63,-127.41 815.34,-100.65 816.23,-86.83"/>
<polygon fill="midnightblue" stroke="midnightblue" points="727.12,-175.59 718.23,-181.34 728.77,-182.39 727.12,-175.59"/>
</g>
<!-- Node17 -->
<g id="node17" class="node">
<title>Node17</title>
<g id="a_node17"><a xlink:href="_a_b_l_stats_base_8_h.html" target="_top" xlink:title=" ">
<polygon fill="white" stroke="black" points="693,-123.5 693,-142.5 788,-142.5 788,-123.5 693,-123.5"/>
<text text-anchor="middle" x="740.5" y="-130.5" font-family="Helvetica,sans-Serif" font-size="10.00">ABLStatsBase.H</text>
</a>
</g>
</g>
<!-- Node1&#45;&gt;Node17 -->
<g id="edge16" class="edge">
<title>Node1&#45;&gt;Node17</title>
<path fill="none" stroke="midnightblue" d="M685.08,-173.38C698.81,-163.62 716.43,-151.11 728.07,-142.83"/>
<polygon fill="midnightblue" stroke="midnightblue" points="682.84,-170.68 676.71,-179.32 686.89,-176.38 682.84,-170.68"/>
</g>
<!-- Node4 -->
<g id="node4" class="node">
<title>Node4</title>
<g id="a_node4"><a xlink:href="_a_b_l_forcing_8cpp.html" target="_top" xlink:title=" ">
<polygon fill="white" stroke="black" points="1029,-6 1029,-25 1120,-25 1120,-6 1029,-6"/>
<text text-anchor="middle" x="1074.5" y="-13" font-family="Helvetica,sans-Serif" font-size="10.00">ABLForcing.cpp</text>
</a>
</g>
</g>
<!-- Node3&#45;&gt;Node4 -->
<g id="edge3" class="edge">
<title>Node3&#45;&gt;Node4</title>
<path fill="none" stroke="midnightblue" d="M742.15,-71.18C821.22,-59.85 1012.72,-32.38 1019.5,-31 1027.73,-29.33 1036.55,-27.17 1044.67,-25.03"/>
<polygon fill="midnightblue" stroke="midnightblue" points="741.17,-67.79 731.77,-72.67 742.17,-74.72 741.17,-67.79"/>
</g>
<!-- Node5 -->
<g id="node5" class="node">
<title>Node5</title>
<g id="a_node5"><a xlink:href="_a_b_l_mean_boussinesq_8cpp.html" target="_top" xlink:title=" ">
<polygon fill="white" stroke="black" points="1138.5,-6 1138.5,-25 1276.5,-25 1276.5,-6 1138.5,-6"/>
<text text-anchor="middle" x="1207.5" y="-13" font-family="Helvetica,sans-Serif" font-size="10.00">ABLMeanBoussinesq.cpp</text>
</a>
</g>
</g>
<!-- Node3&#45;&gt;Node5 -->
<g id="edge4" class="edge">
<title>Node3&#45;&gt;Node5</title>
<path fill="none" stroke="midnightblue" d="M741.54,-71.02C751.18,-69.63 761.75,-68.19 771.5,-67 930.24,-47.69 971.2,-53.63 1129.5,-31 1141.09,-29.34 1153.58,-27.19 1165.1,-25.05"/>
<polygon fill="midnightblue" stroke="midnightblue" points="740.9,-67.57 731.51,-72.48 741.91,-74.5 740.9,-67.57"/>
</g>
<!-- Node6 -->
<g id="node6" class="node">
<title>Node6</title>
<g id="a_node6"><a xlink:href="_a_b_l_meso_forcing_mom_8cpp.html" target="_top" xlink:title=" ">
<polygon fill="white" stroke="black" points="135.5,-6 135.5,-25 277.5,-25 277.5,-6 135.5,-6"/>
<text text-anchor="middle" x="206.5" y="-13" font-family="Helvetica,sans-Serif" font-size="10.00">ABLMesoForcingMom.cpp</text>
</a>
</g>
</g>
<!-- Node3&#45;&gt;Node6 -->
<g id="edge5" class="edge">
<title>Node3&#45;&gt;Node6</title>
<path fill="none" stroke="midnightblue" d="M675.14,-71.38C664.12,-69.91 651.79,-68.32 640.5,-67 483.43,-48.62 443.09,-53.12 286.5,-31 274.62,-29.32 261.81,-27.16 250,-25.02"/>
<polygon fill="midnightblue" stroke="midnightblue" points="674.85,-74.87 685.23,-72.74 675.79,-67.94 674.85,-74.87"/>
</g>
<!-- Node7 -->
<g id="node7" class="node">
<title>Node7</title>
<g id="a_node7"><a xlink:href="_hurricane_forcing_8cpp.html" target="_top" xlink:title=" ">
<polygon fill="white" stroke="black" points="296,-6 296,-25 415,-25 415,-6 296,-6"/>
<text text-anchor="middle" x="355.5" y="-13" font-family="Helvetica,sans-Serif" font-size="10.00">HurricaneForcing.cpp</text>
</a>
</g>
</g>
<!-- Node3&#45;&gt;Node7 -->
<g id="edge6" class="edge">
<title>Node3&#45;&gt;Node7</title>
<path fill="none" stroke="midnightblue" d="M675.24,-71.34C621.96,-63.74 514.23,-47.82 423.5,-31 413.89,-29.22 403.55,-27.11 393.91,-25.06"/>
<polygon fill="midnightblue" stroke="midnightblue" points="674.76,-74.8 685.15,-72.75 675.75,-67.87 674.76,-74.8"/>
</g>
<!-- Node8 -->
<g id="node8" class="node">
<title>Node8</title>
<g id="a_node8"><a xlink:href="_a_b_l_meso_forcing_temp_8cpp.html" target="_top" xlink:title=" ">
<polygon fill="white" stroke="black" points="433,-6 433,-25 576,-25 576,-6 433,-6"/>
<text text-anchor="middle" x="504.5" y="-13" font-family="Helvetica,sans-Serif" font-size="10.00">ABLMesoForcingTemp.cpp</text>
</a>
</g>
</g>
<!-- Node3&#45;&gt;Node8 -->
<g id="edge7" class="edge">
<title>Node3&#45;&gt;Node8</title>
<path fill="none" stroke="midnightblue" d="M675.87,-66.48C636.61,-55.03 571.29,-35.98 533.65,-25"/>
<polygon fill="midnightblue" stroke="midnightblue" points="674.92,-69.85 685.5,-69.29 676.88,-63.13 674.92,-69.85"/>
</g>
<!-- Node9 -->
<g id="node9" class="node">
<title>Node9</title>
<g id="a_node9"><a xlink:href="helics_8cpp.html" target="_top" xlink:title=" ">
<polygon fill="white" stroke="black" points="594,-6 594,-25 659,-25 659,-6 594,-6"/>
<text text-anchor="middle" x="626.5" y="-13" font-family="Helvetica,sans-Serif" font-size="10.00">helics.cpp</text>
</a>
</g>
</g>
<!-- Node3&#45;&gt;Node9 -->
<g id="edge8" class="edge">
<title>Node3&#45;&gt;Node9</title>
<path fill="none" stroke="midnightblue" d="M688.23,-61.29C672.5,-49.88 651.25,-34.46 638.23,-25.01"/>
<polygon fill="midnightblue" stroke="midnightblue" points="686.6,-64.43 696.75,-67.48 690.71,-58.77 686.6,-64.43"/>
</g>
<!-- Node10 -->
<g id="node10" class="node">
<title>Node10</title>
<g id="a_node10"><a xlink:href="incflo_8cpp.html" target="_top" xlink:title=" ">
<polygon fill="white" stroke="black" points="677,-6 677,-25 740,-25 740,-6 677,-6"/>
<text text-anchor="middle" x="708.5" y="-13" font-family="Helvetica,sans-Serif" font-size="10.00">incflo.cpp</text>
</a>
</g>
</g>
<!-- Node3&#45;&gt;Node10 -->
<g id="edge9" class="edge">
<title>Node3&#45;&gt;Node10</title>
<path fill="none" stroke="midnightblue" d="M708.5,-57.32C708.5,-46.5 708.5,-33.4 708.5,-25.01"/>
<polygon fill="midnightblue" stroke="midnightblue" points="705,-57.48 708.5,-67.48 712,-57.48 705,-57.48"/>
</g>
<!-- Node11 -->
<g id="node11" class="node">
<title>Node11</title>
<g id="a_node11"><a xlink:href="incflo__apply__nodal__projection_8cpp.html" target="_top" xlink:title=" ">
<polygon fill="white" stroke="black" points="758,-0.5 758,-30.5 865,-30.5 865,-0.5 758,-0.5"/>
<text text-anchor="start" x="766" y="-18.5" font-family="Helvetica,sans-Serif" font-size="10.00">incflo_apply_nodal</text>
<text text-anchor="middle" x="811.5" y="-7.5" font-family="Helvetica,sans-Serif" font-size="10.00">_projection.cpp</text>
</a>
</g>
</g>
<!-- Node3&#45;&gt;Node11 -->
<g id="edge10" class="edge">
<title>Node3&#45;&gt;Node11</title>
<path fill="none" stroke="midnightblue" d="M732.26,-62.28C748.74,-52.75 770.63,-40.11 787.22,-30.52"/>
<polygon fill="midnightblue" stroke="midnightblue" points="730.17,-59.44 723.26,-67.48 733.67,-65.5 730.17,-59.44"/>
</g>
<!-- Node12 -->
<g id="node12" class="node">
<title>Node12</title>
<g id="a_node12"><a xlink:href="init_8cpp.html" target="_top" xlink:title=" ">
<polygon fill="white" stroke="black" points="883,-6 883,-25 936,-25 936,-6 883,-6"/>
<text text-anchor="middle" x="909.5" y="-13" font-family="Helvetica,sans-Serif" font-size="10.00">init.cpp</text>
</a>
</g>
</g>
<!-- Node3&#45;&gt;Node12 -->
<g id="edge11" class="edge">
<title>Node3&#45;&gt;Node12</title>
<path fill="none" stroke="midnightblue" d="M741.46,-68.22C775.01,-60.01 828.36,-46.19 873.5,-31 878.74,-29.24 884.31,-27.12 889.47,-25.05"/>
<polygon fill="midnightblue" stroke="midnightblue" points="740.61,-64.82 731.71,-70.58 742.25,-71.62 740.61,-64.82"/>
</g>
<!-- Node13 -->
<g id="node13" class="node">
<title>Node13</title>
<g id="a_node13"><a xlink:href="_a_b_l_8cpp.html" target="_top" xlink:title=" ">
<polygon fill="white" stroke="black" points="954.5,-6 954.5,-25 1010.5,-25 1010.5,-6 954.5,-6"/>
<text text-anchor="middle" x="982.5" y="-13" font-family="Helvetica,sans-Serif" font-size="10.00">ABL.cpp</text>
</a>
</g>
</g>
<!-- Node3&#45;&gt;Node13 -->
<g id="edge12" class="edge">
<title>Node3&#45;&gt;Node13</title>
<path fill="none" stroke="midnightblue" d="M741.87,-70.45C797.72,-61.04 907.69,-41.89 945.5,-31 951.2,-29.36 957.25,-27.18 962.76,-25.02"/>
<polygon fill="midnightblue" stroke="midnightblue" points="741.07,-67.04 731.78,-72.15 742.23,-73.94 741.07,-67.04"/>
</g>
<!-- Node3&#45;&gt;Node14 -->
<g id="edge13" class="edge">
<title>Node3&#45;&gt;Node14</title>
<path fill="none" stroke="midnightblue" d="M675.17,-71.17C664.15,-69.69 651.81,-68.14 640.5,-67 412.66,-43.97 353.26,-62.96 126.5,-31 115.86,-29.5 104.4,-27.29 93.98,-25.05"/>
<polygon fill="midnightblue" stroke="midnightblue" points="674.87,-74.66 685.25,-72.56 675.82,-67.73 674.87,-74.66"/>
</g>
<!-- Node16 -->
<g id="node16" class="node">
<title>Node16</title>
<g id="a_node16"><a xlink:href="_a_b_l_stats_8cpp.html" target="_top" xlink:title=" ">
<polygon fill="white" stroke="black" points="1294.5,-6 1294.5,-25 1374.5,-25 1374.5,-6 1294.5,-6"/>
<text text-anchor="middle" x="1334.5" y="-13" font-family="Helvetica,sans-Serif" font-size="10.00">ABLStats.cpp</text>
</a>
</g>
</g>
<!-- Node15&#45;&gt;Node16 -->
<g id="edge15" class="edge">
<title>Node15&#45;&gt;Node16</title>
<path fill="none" stroke="midnightblue" d="M862.15,-74.53C946.48,-71.17 1132.1,-60.77 1285.5,-31 1293.25,-29.5 1301.54,-27.28 1309.04,-25.04"/>
<polygon fill="midnightblue" stroke="midnightblue" points="861.99,-71.03 852.13,-74.91 862.26,-78.03 861.99,-71.03"/>
</g>
<!-- Node17&#45;&gt;Node3 -->
<g id="edge17" class="edge">
<title>Node17&#45;&gt;Node3</title>
<path fill="none" stroke="midnightblue" d="M730,-114.27C724.53,-105.05 718.08,-94.17 713.69,-86.75"/>
<polygon fill="midnightblue" stroke="midnightblue" points="727.11,-116.26 735.22,-123.08 733.13,-112.7 727.11,-116.26"/>
</g>
<!-- Node17&#45;&gt;Node15 -->
<g id="edge18" class="edge">
<title>Node17&#45;&gt;Node15</title>
<path fill="none" stroke="midnightblue" d="M761.08,-117.38C774.81,-107.62 792.43,-95.11 804.07,-86.83"/>
<polygon fill="midnightblue" stroke="midnightblue" points="758.84,-114.68 752.71,-123.32 762.89,-120.38 758.84,-114.68"/>
</g>
</g>
</svg>
