<?xml version="1.0" encoding="UTF-8" standalone="no"?>
<!DOCTYPE svg PUBLIC "-//W3C//DTD SVG 1.1//EN"
 "http://www.w3.org/Graphics/SVG/1.1/DTD/svg11.dtd">
<!-- Generated by graphviz version 2.43.0 (0)
 -->
<!-- Title: ABLBoundaryPlane.H Pages: 1 -->
<svg width="1547pt" height="151pt"
 viewBox="0.00 0.00 1547.00 151.00" xmlns="http://www.w3.org/2000/svg" xmlns:xlink="http://www.w3.org/1999/xlink">
<g id="graph0" class="graph" transform="scale(1 1) rotate(0) translate(4 147)">
<title>ABLBoundaryPlane.H</title>
<polygon fill="white" stroke="transparent" points="-4,4 -4,-147 1543,-147 1543,4 -4,4"/>
<!-- Node1 -->
<g id="node1" class="node">
<title>Node1</title>
<g id="a_node1"><a xlink:title=" ">
<polygon fill="#bfbfbf" stroke="black" points="998.5,-123.5 998.5,-142.5 1117.5,-142.5 1117.5,-123.5 998.5,-123.5"/>
<text text-anchor="middle" x="1058" y="-130.5" font-family="Helvetica,sans-Serif" font-size="10.00">ABLBoundaryPlane.H</text>
</a>
</g>
</g>
<!-- Node2 -->
<g id="node2" class="node">
<title>Node2</title>
<g id="a_node2"><a xlink:href="_a_b_l_8cpp.html" target="_top" xlink:title=" ">
<polygon fill="white" stroke="black" points="0,-6 0,-25 56,-25 56,-6 0,-6"/>
<text text-anchor="middle" x="28" y="-13" font-family="Helvetica,sans-Serif" font-size="10.00">ABL.cpp</text>
</a>
</g>
</g>
<!-- Node1&#45;&gt;Node2 -->
<g id="edge1" class="edge">
<title>Node1&#45;&gt;Node2</title>
<path fill="none" stroke="midnightblue" d="M987.88,-131.38C823.99,-128.52 404.09,-113.06 65,-31 58.96,-29.54 52.6,-27.31 46.88,-25.04"/>
<polygon fill="midnightblue" stroke="midnightblue" points="988.24,-134.88 998.3,-131.55 988.35,-127.88 988.24,-134.88"/>
</g>
<!-- Node3 -->
<g id="node3" class="node">
<title>Node3</title>
<g id="a_node3"><a xlink:href="_a_b_l_8_h.html" target="_top" xlink:title=" ">
<polygon fill="white" stroke="black" points="747,-67.5 747,-86.5 793,-86.5 793,-67.5 747,-67.5"/>
<text text-anchor="middle" x="770" y="-74.5" font-family="Helvetica,sans-Serif" font-size="10.00">ABL.H</text>
</a>
</g>
</g>
<!-- Node1&#45;&gt;Node3 -->
<g id="edge2" class="edge">
<title>Node1&#45;&gt;Node3</title>
<path fill="none" stroke="midnightblue" d="M1002.52,-121.6C939.08,-109.7 838.18,-90.78 793.09,-82.33"/>
<polygon fill="midnightblue" stroke="midnightblue" points="1001.89,-125.04 1012.37,-123.44 1003.18,-118.16 1001.89,-125.04"/>
</g>
<!-- Node14 -->
<g id="node14" class="node">
<title>Node14</title>
<g id="a_node14"><a xlink:href="_a_b_l_boundary_plane_8cpp.html" target="_top" xlink:title=" ">
<polygon fill="white" stroke="black" points="1293.5,-6 1293.5,-25 1422.5,-25 1422.5,-6 1293.5,-6"/>
<text text-anchor="middle" x="1358" y="-13" font-family="Helvetica,sans-Serif" font-size="10.00">ABLBoundaryPlane.cpp</text>
</a>
</g>
</g>
<!-- Node1&#45;&gt;Node14 -->
<g id="edge14" class="edge">
<title>Node1&#45;&gt;Node14</title>
<path fill="none" stroke="midnightblue" d="M1090.07,-119.65C1151.2,-96.12 1282.95,-45.39 1335.6,-25.12"/>
<polygon fill="midnightblue" stroke="midnightblue" points="1088.62,-116.46 1080.55,-123.32 1091.14,-122.99 1088.62,-116.46"/>
</g>
<!-- Node15 -->
<g id="node15" class="node">
<title>Node15</title>
<g id="a_node15"><a xlink:href="_a_b_l_fill_inflow_8_h.html" target="_top" xlink:title=" ">
<polygon fill="white" stroke="black" points="1313.5,-67.5 1313.5,-86.5 1402.5,-86.5 1402.5,-67.5 1313.5,-67.5"/>
<text text-anchor="middle" x="1358" y="-74.5" font-family="Helvetica,sans-Serif" font-size="10.00">ABLFillInflow.H</text>
</a>
</g>
</g>
<!-- Node1&#45;&gt;Node15 -->
<g id="edge15" class="edge">
<title>Node1&#45;&gt;Node15</title>
<path fill="none" stroke="midnightblue" d="M1115.57,-121.64C1173.15,-111.27 1260.51,-95.55 1313.14,-86.08"/>
<polygon fill="midnightblue" stroke="midnightblue" points="1114.76,-118.23 1105.54,-123.44 1116,-125.12 1114.76,-118.23"/>
</g>
<!-- Node3&#45;&gt;Node2 -->
<g id="edge12" class="edge">
<title>Node3&#45;&gt;Node2</title>
<path fill="none" stroke="midnightblue" d="M736.51,-75.23C614.68,-72.23 195.45,-59.98 65,-31 58.8,-29.62 52.28,-27.36 46.47,-25.03"/>
<polygon fill="midnightblue" stroke="midnightblue" points="736.63,-78.74 746.71,-75.48 736.8,-71.74 736.63,-78.74"/>
</g>
<!-- Node4 -->
<g id="node4" class="node">
<title>Node4</title>
<g id="a_node4"><a xlink:href="_a_b_l_forcing_8cpp.html" target="_top" xlink:title=" ">
<polygon fill="white" stroke="black" points="74.5,-6 74.5,-25 165.5,-25 165.5,-6 74.5,-6"/>
<text text-anchor="middle" x="120" y="-13" font-family="Helvetica,sans-Serif" font-size="10.00">ABLForcing.cpp</text>
</a>
</g>
</g>
<!-- Node3&#45;&gt;Node4 -->
<g id="edge3" class="edge">
<title>Node3&#45;&gt;Node4</title>
<path fill="none" stroke="midnightblue" d="M736.62,-75.6C645.78,-74.06 386.8,-66.62 175,-31 166.24,-29.53 156.84,-27.3 148.33,-25.02"/>
<polygon fill="midnightblue" stroke="midnightblue" points="736.79,-79.1 746.85,-75.76 736.9,-72.11 736.79,-79.1"/>
</g>
<!-- Node5 -->
<g id="node5" class="node">
<title>Node5</title>
<g id="a_node5"><a xlink:href="_a_b_l_mean_boussinesq_8cpp.html" target="_top" xlink:title=" ">
<polygon fill="white" stroke="black" points="184,-6 184,-25 322,-25 322,-6 184,-6"/>
<text text-anchor="middle" x="253" y="-13" font-family="Helvetica,sans-Serif" font-size="10.00">ABLMeanBoussinesq.cpp</text>
</a>
</g>
</g>
<!-- Node3&#45;&gt;Node5 -->
<g id="edge4" class="edge">
<title>Node3&#45;&gt;Node5</title>
<path fill="none" stroke="midnightblue" d="M736.54,-73.51C662.97,-67.82 481.7,-52.69 331,-31 319.41,-29.33 306.92,-27.17 295.4,-25.03"/>
<polygon fill="midnightblue" stroke="midnightblue" points="736.36,-77 746.6,-74.28 736.89,-70.02 736.36,-77"/>
</g>
<!-- Node6 -->
<g id="node6" class="node">
<title>Node6</title>
<g id="a_node6"><a xlink:href="_a_b_l_meso_forcing_mom_8cpp.html" target="_top" xlink:title=" ">
<polygon fill="white" stroke="black" points="340,-6 340,-25 482,-25 482,-6 340,-6"/>
<text text-anchor="middle" x="411" y="-13" font-family="Helvetica,sans-Serif" font-size="10.00">ABLMesoForcingMom.cpp</text>
</a>
</g>
</g>
<!-- Node3&#45;&gt;Node6 -->
<g id="edge5" class="edge">
<title>Node3&#45;&gt;Node6</title>
<path fill="none" stroke="midnightblue" d="M736.78,-70.86C684.46,-62.7 579.68,-46.19 491,-31 480.01,-29.12 468.18,-27.02 457.08,-25.01"/>
<polygon fill="midnightblue" stroke="midnightblue" points="736.41,-74.34 746.83,-72.42 737.48,-67.42 736.41,-74.34"/>
</g>
<!-- Node7 -->
<g id="node7" class="node">
<title>Node7</title>
<g id="a_node7"><a xlink:href="_hurricane_forcing_8cpp.html" target="_top" xlink:title=" ">
<polygon fill="white" stroke="black" points="500.5,-6 500.5,-25 619.5,-25 619.5,-6 500.5,-6"/>
<text text-anchor="middle" x="560" y="-13" font-family="Helvetica,sans-Serif" font-size="10.00">HurricaneForcing.cpp</text>
</a>
</g>
</g>
<!-- Node3&#45;&gt;Node7 -->
<g id="edge6" class="edge">
<title>Node3&#45;&gt;Node7</title>
<path fill="none" stroke="midnightblue" d="M736.85,-66.61C696.53,-55.18 629.05,-36.06 590.14,-25.04"/>
<polygon fill="midnightblue" stroke="midnightblue" points="736.15,-70.05 746.72,-69.41 738.06,-63.31 736.15,-70.05"/>
</g>
<!-- Node8 -->
<g id="node8" class="node">
<title>Node8</title>
<g id="a_node8"><a xlink:href="_a_b_l_meso_forcing_temp_8cpp.html" target="_top" xlink:title=" ">
<polygon fill="white" stroke="black" points="637.5,-6 637.5,-25 780.5,-25 780.5,-6 637.5,-6"/>
<text text-anchor="middle" x="709" y="-13" font-family="Helvetica,sans-Serif" font-size="10.00">ABLMesoForcingTemp.cpp</text>
</a>
</g>
</g>
<!-- Node3&#45;&gt;Node8 -->
<g id="edge7" class="edge">
<title>Node3&#45;&gt;Node8</title>
<path fill="none" stroke="midnightblue" d="M753.93,-60.32C742.34,-49.02 727.14,-34.19 717.72,-25.01"/>
<polygon fill="midnightblue" stroke="midnightblue" points="751.66,-63 761.26,-67.48 756.55,-57.99 751.66,-63"/>
</g>
<!-- Node9 -->
<g id="node9" class="node">
<title>Node9</title>
<g id="a_node9"><a xlink:href="helics_8cpp.html" target="_top" xlink:title=" ">
<polygon fill="white" stroke="black" points="798.5,-6 798.5,-25 863.5,-25 863.5,-6 798.5,-6"/>
<text text-anchor="middle" x="831" y="-13" font-family="Helvetica,sans-Serif" font-size="10.00">helics.cpp</text>
</a>
</g>
</g>
<!-- Node3&#45;&gt;Node9 -->
<g id="edge8" class="edge">
<title>Node3&#45;&gt;Node9</title>
<path fill="none" stroke="midnightblue" d="M786.07,-60.32C797.66,-49.02 812.86,-34.19 822.28,-25.01"/>
<polygon fill="midnightblue" stroke="midnightblue" points="783.45,-57.99 778.74,-67.48 788.34,-63 783.45,-57.99"/>
</g>
<!-- Node10 -->
<g id="node10" class="node">
<title>Node10</title>
<g id="a_node10"><a xlink:href="incflo_8cpp.html" target="_top" xlink:title=" ">
<polygon fill="white" stroke="black" points="881.5,-6 881.5,-25 944.5,-25 944.5,-6 881.5,-6"/>
<text text-anchor="middle" x="913" y="-13" font-family="Helvetica,sans-Serif" font-size="10.00">incflo.cpp</text>
</a>
</g>
</g>
<!-- Node3&#45;&gt;Node10 -->
<g id="edge9" class="edge">
<title>Node3&#45;&gt;Node10</title>
<path fill="none" stroke="midnightblue" d="M799.73,-63.63C827.51,-52.07 868.25,-35.12 892.55,-25.01"/>
<polygon fill="midnightblue" stroke="midnightblue" points="798.38,-60.4 790.49,-67.48 801.07,-66.86 798.38,-60.4"/>
</g>
<!-- Node11 -->
<g id="node11" class="node">
<title>Node11</title>
<g id="a_node11"><a xlink:href="incflo__apply__nodal__projection_8cpp.html" target="_top" xlink:title=" ">
<polygon fill="white" stroke="black" points="962.5,-0.5 962.5,-30.5 1069.5,-30.5 1069.5,-0.5 962.5,-0.5"/>
<text text-anchor="start" x="970.5" y="-18.5" font-family="Helvetica,sans-Serif" font-size="10.00">incflo_apply_nodal</text>
<text text-anchor="middle" x="1016" y="-7.5" font-family="Helvetica,sans-Serif" font-size="10.00">_projection.cpp</text>
</a>
</g>
</g>
<!-- Node3&#45;&gt;Node11 -->
<g id="edge10" class="edge">
<title>Node3&#45;&gt;Node11</title>
<path fill="none" stroke="midnightblue" d="M803.09,-68C843.84,-58.14 913.61,-41.27 962.13,-29.53"/>
<polygon fill="midnightblue" stroke="midnightblue" points="802.04,-64.65 793.14,-70.4 803.69,-71.45 802.04,-64.65"/>
</g>
<!-- Node12 -->
<g id="node12" class="node">
<title>Node12</title>
<g id="a_node12"><a xlink:href="init_8cpp.html" target="_top" xlink:title=" ">
<polygon fill="white" stroke="black" points="1087.5,-6 1087.5,-25 1140.5,-25 1140.5,-6 1087.5,-6"/>
<text text-anchor="middle" x="1114" y="-13" font-family="Helvetica,sans-Serif" font-size="10.00">init.cpp</text>
</a>
</g>
</g>
<!-- Node3&#45;&gt;Node12 -->
<g id="edge11" class="edge">
<title>Node3&#45;&gt;Node12</title>
<path fill="none" stroke="midnightblue" d="M803.42,-73.73C860.53,-69.28 980.23,-57.43 1078,-31 1083.72,-29.45 1089.77,-27.26 1095.23,-25.04"/>
<polygon fill="midnightblue" stroke="midnightblue" points="802.89,-70.26 793.18,-74.5 803.41,-77.24 802.89,-70.26"/>
</g>
<!-- Node13 -->
<g id="node13" class="node">
<title>Node13</title>
<g id="a_node13"><a xlink:href="_a_b_l_wall_function_8cpp.html" target="_top" xlink:title=" ">
<polygon fill="white" stroke="black" points="1158.5,-6 1158.5,-25 1275.5,-25 1275.5,-6 1158.5,-6"/>
<text text-anchor="middle" x="1217" y="-13" font-family="Helvetica,sans-Serif" font-size="10.00">ABLWallFunction.cpp</text>
</a>
</g>
</g>
<!-- Node3&#45;&gt;Node13 -->
<g id="edge13" class="edge">
<title>Node3&#45;&gt;Node13</title>
<path fill="none" stroke="midnightblue" d="M803.41,-73.07C869.62,-67.05 1022.06,-52.02 1149,-31 1159.12,-29.32 1170.02,-27.16 1180.06,-25.02"/>
<polygon fill="midnightblue" stroke="midnightblue" points="802.82,-69.61 793.18,-74 803.45,-76.58 802.82,-69.61"/>
</g>
<!-- Node15&#45;&gt;Node14 -->
<g id="edge16" class="edge">
<title>Node15&#45;&gt;Node14</title>
<path fill="none" stroke="midnightblue" d="M1358,-57.32C1358,-46.5 1358,-33.4 1358,-25.01"/>
<polygon fill="midnightblue" stroke="midnightblue" points="1354.5,-57.48 1358,-67.48 1361.5,-57.48 1354.5,-57.48"/>
</g>
<!-- Node16 -->
<g id="node16" class="node">
<title>Node16</title>
<g id="a_node16"><a xlink:href="_a_b_l_fill_inflow_8cpp.html" target="_top" xlink:title=" ">
<polygon fill="white" stroke="black" points="1441,-6 1441,-25 1539,-25 1539,-6 1441,-6"/>
<text text-anchor="middle" x="1490" y="-13" font-family="Helvetica,sans-Serif" font-size="10.00">ABLFillInflow.cpp</text>
</a>
</g>
</g>
<!-- Node15&#45;&gt;Node16 -->
<g id="edge17" class="edge">
<title>Node15&#45;&gt;Node16</title>
<path fill="none" stroke="midnightblue" d="M1386.11,-63.33C1411.74,-51.78 1448.89,-35.03 1471.12,-25.01"/>
<polygon fill="midnightblue" stroke="midnightblue" points="1384.59,-60.17 1376.91,-67.48 1387.47,-66.56 1384.59,-60.17"/>
</g>
</g>
</svg>
