<?xml version="1.0" encoding="UTF-8" standalone="no"?>
<!DOCTYPE svg PUBLIC "-//W3C//DTD SVG 1.1//EN"
 "http://www.w3.org/Graphics/SVG/1.1/DTD/svg11.dtd">
<!-- Generated by graphviz version 2.43.0 (0)
 -->
<!-- Title: ABL.H Pages: 1 -->
<svg width="1284pt" height="95pt"
 viewBox="0.00 0.00 1284.00 95.00" xmlns="http://www.w3.org/2000/svg" xmlns:xlink="http://www.w3.org/1999/xlink">
<g id="graph0" class="graph" transform="scale(1 1) rotate(0) translate(4 91)">
<title>ABL.H</title>
<polygon fill="white" stroke="transparent" points="-4,4 -4,-91 1280,-91 1280,4 -4,4"/>
<!-- Node1 -->
<g id="node1" class="node">
<title>Node1</title>
<g id="a_node1"><a xlink:title=" ">
<polygon fill="#bfbfbf" stroke="black" points="733.5,-67.5 733.5,-86.5 779.5,-86.5 779.5,-67.5 733.5,-67.5"/>
<text text-anchor="middle" x="756.5" y="-74.5" font-family="Helvetica,sans-Serif" font-size="10.00">ABL.H</text>
</a>
</g>
</g>
<!-- Node2 -->
<g id="node2" class="node">
<title>Node2</title>
<g id="a_node2"><a xlink:href="_a_b_l_forcing_8cpp.html" target="_top" xlink:title=" ">
<polygon fill="white" stroke="black" points="0,-6 0,-25 91,-25 91,-6 0,-6"/>
<text text-anchor="middle" x="45.5" y="-13" font-family="Helvetica,sans-Serif" font-size="10.00">ABLForcing.cpp</text>
</a>
</g>
</g>
<!-- Node1&#45;&gt;Node2 -->
<g id="edge1" class="edge">
<title>Node1&#45;&gt;Node2</title>
<path fill="none" stroke="midnightblue" d="M723.32,-75.93C626.61,-75.27 336.91,-69.91 100.5,-31 91.73,-29.56 82.33,-27.34 73.82,-25.06"/>
<polygon fill="midnightblue" stroke="midnightblue" points="723.35,-79.43 733.37,-75.99 723.39,-72.43 723.35,-79.43"/>
</g>
<!-- Node3 -->
<g id="node3" class="node">
<title>Node3</title>
<g id="a_node3"><a xlink:href="_a_b_l_mean_boussinesq_8cpp.html" target="_top" xlink:title=" ">
<polygon fill="white" stroke="black" points="109.5,-6 109.5,-25 247.5,-25 247.5,-6 109.5,-6"/>
<text text-anchor="middle" x="178.5" y="-13" font-family="Helvetica,sans-Serif" font-size="10.00">ABLMeanBoussinesq.cpp</text>
</a>
</g>
</g>
<!-- Node1&#45;&gt;Node3 -->
<g id="edge2" class="edge">
<title>Node1&#45;&gt;Node3</title>
<path fill="none" stroke="midnightblue" d="M723.49,-74.11C643.25,-69.27 431.68,-55.11 256.5,-31 244.77,-29.38 232.11,-27.22 220.48,-25.05"/>
<polygon fill="midnightblue" stroke="midnightblue" points="723.3,-77.6 733.49,-74.7 723.71,-70.61 723.3,-77.6"/>
</g>
<!-- Node4 -->
<g id="node4" class="node">
<title>Node4</title>
<g id="a_node4"><a xlink:href="_a_b_l_meso_forcing_mom_8cpp.html" target="_top" xlink:title=" ">
<polygon fill="white" stroke="black" points="265.5,-6 265.5,-25 407.5,-25 407.5,-6 265.5,-6"/>
<text text-anchor="middle" x="336.5" y="-13" font-family="Helvetica,sans-Serif" font-size="10.00">ABLMesoForcingMom.cpp</text>
</a>
</g>
</g>
<!-- Node1&#45;&gt;Node4 -->
<g id="edge3" class="edge">
<title>Node1&#45;&gt;Node4</title>
<path fill="none" stroke="midnightblue" d="M723.18,-72.13C662.2,-64.91 528.6,-48.57 416.5,-31 405.07,-29.21 392.75,-27.08 381.29,-25.01"/>
<polygon fill="midnightblue" stroke="midnightblue" points="723.02,-75.63 733.36,-73.32 723.84,-68.68 723.02,-75.63"/>
</g>
<!-- Node5 -->
<g id="node5" class="node">
<title>Node5</title>
<g id="a_node5"><a xlink:href="_hurricane_forcing_8cpp.html" target="_top" xlink:title=" ">
<polygon fill="white" stroke="black" points="426,-6 426,-25 545,-25 545,-6 426,-6"/>
<text text-anchor="middle" x="485.5" y="-13" font-family="Helvetica,sans-Serif" font-size="10.00">HurricaneForcing.cpp</text>
</a>
</g>
</g>
<!-- Node1&#45;&gt;Node5 -->
<g id="edge4" class="edge">
<title>Node1&#45;&gt;Node5</title>
<path fill="none" stroke="midnightblue" d="M723.39,-68.73C673.17,-57.7 577.94,-36.8 524.46,-25.05"/>
<polygon fill="midnightblue" stroke="midnightblue" points="722.88,-72.2 733.39,-70.93 724.38,-65.36 722.88,-72.2"/>
</g>
<!-- Node6 -->
<g id="node6" class="node">
<title>Node6</title>
<g id="a_node6"><a xlink:href="_a_b_l_meso_forcing_temp_8cpp.html" target="_top" xlink:title=" ">
<polygon fill="white" stroke="black" points="563,-6 563,-25 706,-25 706,-6 563,-6"/>
<text text-anchor="middle" x="634.5" y="-13" font-family="Helvetica,sans-Serif" font-size="10.00">ABLMesoForcingTemp.cpp</text>
</a>
</g>
</g>
<!-- Node1&#45;&gt;Node6 -->
<g id="edge5" class="edge">
<title>Node1&#45;&gt;Node6</title>
<path fill="none" stroke="midnightblue" d="M729.89,-63.02C706.23,-51.48 672.32,-34.94 651.95,-25.01"/>
<polygon fill="midnightblue" stroke="midnightblue" points="728.5,-66.24 739.02,-67.48 731.57,-59.95 728.5,-66.24"/>
</g>
<!-- Node7 -->
<g id="node7" class="node">
<title>Node7</title>
<g id="a_node7"><a xlink:href="helics_8cpp.html" target="_top" xlink:title=" ">
<polygon fill="white" stroke="black" points="724,-6 724,-25 789,-25 789,-6 724,-6"/>
<text text-anchor="middle" x="756.5" y="-13" font-family="Helvetica,sans-Serif" font-size="10.00">helics.cpp</text>
</a>
</g>
</g>
<!-- Node1&#45;&gt;Node7 -->
<g id="edge6" class="edge">
<title>Node1&#45;&gt;Node7</title>
<path fill="none" stroke="midnightblue" d="M756.5,-57.32C756.5,-46.5 756.5,-33.4 756.5,-25.01"/>
<polygon fill="midnightblue" stroke="midnightblue" points="753,-57.48 756.5,-67.48 760,-57.48 753,-57.48"/>
</g>
<!-- Node8 -->
<g id="node8" class="node">
<title>Node8</title>
<g id="a_node8"><a xlink:href="incflo_8cpp.html" target="_top" xlink:title=" ">
<polygon fill="white" stroke="black" points="807,-6 807,-25 870,-25 870,-6 807,-6"/>
<text text-anchor="middle" x="838.5" y="-13" font-family="Helvetica,sans-Serif" font-size="10.00">incflo.cpp</text>
</a>
</g>
</g>
<!-- Node1&#45;&gt;Node8 -->
<g id="edge7" class="edge">
<title>Node1&#45;&gt;Node8</title>
<path fill="none" stroke="midnightblue" d="M776.77,-61.29C792.5,-49.88 813.75,-34.46 826.77,-25.01"/>
<polygon fill="midnightblue" stroke="midnightblue" points="774.29,-58.77 768.25,-67.48 778.4,-64.43 774.29,-58.77"/>
</g>
<!-- Node9 -->
<g id="node9" class="node">
<title>Node9</title>
<g id="a_node9"><a xlink:href="incflo__apply__nodal__projection_8cpp.html" target="_top" xlink:title=" ">
<polygon fill="white" stroke="black" points="888,-0.5 888,-30.5 995,-30.5 995,-0.5 888,-0.5"/>
<text text-anchor="start" x="896" y="-18.5" font-family="Helvetica,sans-Serif" font-size="10.00">incflo_apply_nodal</text>
<text text-anchor="middle" x="941.5" y="-7.5" font-family="Helvetica,sans-Serif" font-size="10.00">_projection.cpp</text>
</a>
</g>
</g>
<!-- Node1&#45;&gt;Node9 -->
<g id="edge8" class="edge">
<title>Node1&#45;&gt;Node9</title>
<path fill="none" stroke="midnightblue" d="M789.17,-65.49C819.33,-55.79 864.33,-41.32 897.61,-30.61"/>
<polygon fill="midnightblue" stroke="midnightblue" points="788,-62.19 779.56,-68.58 790.15,-68.85 788,-62.19"/>
</g>
<!-- Node10 -->
<g id="node10" class="node">
<title>Node10</title>
<g id="a_node10"><a xlink:href="init_8cpp.html" target="_top" xlink:title=" ">
<polygon fill="white" stroke="black" points="1013,-6 1013,-25 1066,-25 1066,-6 1013,-6"/>
<text text-anchor="middle" x="1039.5" y="-13" font-family="Helvetica,sans-Serif" font-size="10.00">init.cpp</text>
</a>
</g>
</g>
<!-- Node1&#45;&gt;Node10 -->
<g id="edge9" class="edge">
<title>Node1&#45;&gt;Node10</title>
<path fill="none" stroke="midnightblue" d="M789.95,-72.23C838.08,-66.29 929.37,-53.1 1004.5,-31 1009.93,-29.4 1015.66,-27.24 1020.87,-25.08"/>
<polygon fill="midnightblue" stroke="midnightblue" points="789.3,-68.78 779.79,-73.46 790.14,-75.73 789.3,-68.78"/>
</g>
<!-- Node11 -->
<g id="node11" class="node">
<title>Node11</title>
<g id="a_node11"><a xlink:href="_a_b_l_8cpp.html" target="_top" xlink:title=" ">
<polygon fill="white" stroke="black" points="1084.5,-6 1084.5,-25 1140.5,-25 1140.5,-6 1084.5,-6"/>
<text text-anchor="middle" x="1112.5" y="-13" font-family="Helvetica,sans-Serif" font-size="10.00">ABL.cpp</text>
</a>
</g>
</g>
<!-- Node1&#45;&gt;Node11 -->
<g id="edge10" class="edge">
<title>Node1&#45;&gt;Node11</title>
<path fill="none" stroke="midnightblue" d="M789.84,-73.87C848.44,-69.55 973.39,-57.82 1075.5,-31 1081.37,-29.46 1087.58,-27.26 1093.2,-25.05"/>
<polygon fill="midnightblue" stroke="midnightblue" points="789.41,-70.39 779.69,-74.59 789.91,-77.37 789.41,-70.39"/>
</g>
<!-- Node12 -->
<g id="node12" class="node">
<title>Node12</title>
<g id="a_node12"><a xlink:href="_a_b_l_wall_function_8cpp.html" target="_top" xlink:title=" ">
<polygon fill="white" stroke="black" points="1159,-6 1159,-25 1276,-25 1276,-6 1159,-6"/>
<text text-anchor="middle" x="1217.5" y="-13" font-family="Helvetica,sans-Serif" font-size="10.00">ABLWallFunction.cpp</text>
</a>
</g>
</g>
<!-- Node1&#45;&gt;Node12 -->
<g id="edge11" class="edge">
<title>Node1&#45;&gt;Node12</title>
<path fill="none" stroke="midnightblue" d="M789.73,-73.28C857.61,-67.49 1016.97,-52.67 1149.5,-31 1159.63,-29.34 1170.52,-27.19 1180.57,-25.05"/>
<polygon fill="midnightblue" stroke="midnightblue" points="789.31,-69.8 779.64,-74.13 789.9,-76.78 789.31,-69.8"/>
</g>
</g>
</svg>
