<?xml version="1.0" encoding="UTF-8" standalone="no"?>
<!DOCTYPE svg PUBLIC "-//W3C//DTD SVG 1.1//EN"
 "http://www.w3.org/Graphics/SVG/1.1/DTD/svg11.dtd">
<!-- Generated by graphviz version 2.43.0 (0)
 -->
<!-- Title: DirectionSelector.H Pages: 1 -->
<!--zoomable 319 -->
<svg id="main" version="1.1" xmlns="http://www.w3.org/2000/svg" xmlns:xlink="http://www.w3.org/1999/xlink" xml:space="preserve" onload="init(evt)">
<style type="text/css"><![CDATA[
.edge:hover path { stroke: red; }
.edge:hover polygon { stroke: red; fill: red; }
]]></style>
<script type="text/javascript"><![CDATA[
var edges = document.getElementsByTagName('g');
if (edges && edges.length) {
  for (var i=0;i<edges.length;i++) {
    if (edges[i].id.substr(0,4)=='edge') {
      edges[i].setAttribute('class','edge');
    }
  }
}
]]></script>
        <defs>
                <circle id="rim" cx="0" cy="0" r="7"/>
                <circle id="rim2" cx="0" cy="0" r="3.5"/>
                <g id="zoomPlus">
                        <use xlink:href="#rim" fill="#404040">
                                <set attributeName="fill" to="#808080" begin="zoomplus.mouseover" end="zoomplus.mouseout"/>
                        </use>
                        <path d="M-4,0h8M0,-4v8" fill="none" stroke="white" stroke-width="1.5" pointer-events="none"/>
                </g>
                <g id="zoomMin">
                        <use xlink:href="#rim" fill="#404040">
                                <set attributeName="fill" to="#808080" begin="zoomminus.mouseover" end="zoomminus.mouseout"/>
                        </use>
                        <path d="M-4,0h8" fill="none" stroke="white" stroke-width="1.5" pointer-events="none"/>
                </g>
                <g id="dirArrow">
                        <path fill="none" stroke="white" stroke-width="1.5" d="M0,-3.0v7 M-2.5,-0.5L0,-3.0L2.5,-0.5"/>
                </g>
               <g id="resetDef">
                       <use xlink:href="#rim2" fill="#404040">
                               <set attributeName="fill" to="#808080" begin="reset.mouseover" end="reset.mouseout"/>
                       </use>
               </g>
        </defs>

<script type="text/javascript">
var viewWidth = 1994;
var viewHeight = 319;
var sectionId = 'dynsection-1';
</script>
<script xlink:href="svgpan.js"/>
<svg id="graph" class="graph">
<g id="viewport">
<title>DirectionSelector.H</title>
<polygon fill="white" stroke="transparent" points="-4,4 -4,-315 1989.5,-315 1989.5,4 -4,4"/>
<!-- Node1 -->
<g id="node1" class="node">
<title>Node1</title>
<g id="a_node1"><a xlink:title=" ">
<polygon fill="#bfbfbf" stroke="black" points="303,-291.5 303,-310.5 413,-310.5 413,-291.5 303,-291.5"/>
<text text-anchor="middle" x="358" y="-298.5" font-family="Helvetica,sans-Serif" font-size="10.00">DirectionSelector.H</text>
</a>
</g>
</g>
<!-- Node2 -->
<g id="node2" class="node">
<title>Node2</title>
<g id="a_node2"><a xlink:href="_channel_flow_8cpp.html" target="_top" xlink:title=" ">
<polygon fill="white" stroke="black" points="154.5,-67.5 154.5,-86.5 253.5,-86.5 253.5,-67.5 154.5,-67.5"/>
<text text-anchor="middle" x="204" y="-74.5" font-family="Helvetica,sans-Serif" font-size="10.00">ChannelFlow.cpp</text>
</a>
</g>
</g>
<!-- Node1&#45;&gt;Node2 -->
<g id="edge1" class="edge">
<title>Node1&#45;&gt;Node2</title>
<path fill="none" stroke="midnightblue" d="M292.79,-291.15C215,-276.41 91.13,-238.32 57,-143 41.62,-100.05 105.85,-85.45 154.27,-80.5"/>
<polygon fill="midnightblue" stroke="midnightblue" points="292.52,-294.66 302.98,-293 293.77,-287.77 292.52,-294.66"/>
</g>
<!-- Node3 -->
<g id="node3" class="node">
<title>Node3</title>
<g id="a_node3"><a xlink:href="_field_plane_averaging_8_h.html" target="_top" xlink:title=" ">
<polygon fill="white" stroke="black" points="977,-235.5 977,-254.5 1103,-254.5 1103,-235.5 977,-235.5"/>
<text text-anchor="middle" x="1040" y="-242.5" font-family="Helvetica,sans-Serif" font-size="10.00">FieldPlaneAveraging.H</text>
</a>
</g>
</g>
<!-- Node1&#45;&gt;Node3 -->
<g id="edge2" class="edge">
<title>Node1&#45;&gt;Node3</title>
<path fill="none" stroke="midnightblue" d="M423.52,-294.81C554.65,-284.43 847.79,-261.22 976.9,-251"/>
<polygon fill="midnightblue" stroke="midnightblue" points="422.93,-291.35 413.23,-295.63 423.48,-298.33 422.93,-291.35"/>
</g>
<!-- Node10 -->
<g id="node10" class="node">
<title>Node10</title>
<g id="a_node10"><a xlink:href="_second_moment_averaging_8_h.html" target="_top" xlink:title=" ">
<polygon fill="white" stroke="black" points="112,-179.5 112,-198.5 264,-198.5 264,-179.5 112,-179.5"/>
<text text-anchor="middle" x="188" y="-186.5" font-family="Helvetica,sans-Serif" font-size="10.00">SecondMomentAveraging.H</text>
</a>
</g>
</g>
<!-- Node1&#45;&gt;Node10 -->
<g id="edge54" class="edge">
<title>Node1&#45;&gt;Node10</title>
<path fill="none" stroke="midnightblue" d="M335.92,-285.71C300.1,-262.53 230.39,-217.43 201.28,-198.59"/>
<polygon fill="midnightblue" stroke="midnightblue" points="334.36,-288.87 344.66,-291.37 338.17,-283 334.36,-288.87"/>
</g>
<!-- Node13 -->
<g id="node13" class="node">
<title>Node13</title>
<g id="a_node13"><a xlink:href="_a_b_l_stats_8cpp.html" target="_top" xlink:title=" ">
<polygon fill="white" stroke="black" points="611,-6 611,-25 691,-25 691,-6 611,-6"/>
<text text-anchor="middle" x="651" y="-13" font-family="Helvetica,sans-Serif" font-size="10.00">ABLStats.cpp</text>
</a>
</g>
</g>
<!-- Node1&#45;&gt;Node13 -->
<g id="edge56" class="edge">
<title>Node1&#45;&gt;Node13</title>
<path fill="none" stroke="midnightblue" d="M292.83,-293.45C189.59,-281.23 0,-250.57 0,-190 0,-190 0,-190 0,-132 0,-61.38 76.76,-85.19 145,-67 313.91,-21.99 524.23,-16.39 610.86,-16.17"/>
<polygon fill="midnightblue" stroke="midnightblue" points="292.51,-296.93 302.85,-294.61 293.32,-289.98 292.51,-296.93"/>
</g>
<!-- Node14 -->
<g id="node14" class="node">
<title>Node14</title>
<g id="a_node14"><a xlink:href="_third_moment_averaging_8_h.html" target="_top" xlink:title=" ">
<polygon fill="white" stroke="black" points="389.5,-179.5 389.5,-198.5 530.5,-198.5 530.5,-179.5 389.5,-179.5"/>
<text text-anchor="middle" x="460" y="-186.5" font-family="Helvetica,sans-Serif" font-size="10.00">ThirdMomentAveraging.H</text>
</a>
</g>
</g>
<!-- Node1&#45;&gt;Node14 -->
<g id="edge55" class="edge">
<title>Node1&#45;&gt;Node14</title>
<path fill="none" stroke="midnightblue" d="M372.93,-283.9C394.86,-260.25 435.01,-216.95 452.03,-198.59"/>
<polygon fill="midnightblue" stroke="midnightblue" points="370.24,-281.66 366,-291.37 375.37,-286.42 370.24,-281.66"/>
</g>
<!-- Node28 -->
<g id="node28" class="node">
<title>Node28</title>
<g id="a_node28"><a xlink:href="_field_plane_averaging_fine_8_h.html" target="_top" xlink:title=" ">
<polygon fill="white" stroke="black" points="660,-235.5 660,-254.5 806,-254.5 806,-235.5 660,-235.5"/>
<text text-anchor="middle" x="733" y="-242.5" font-family="Helvetica,sans-Serif" font-size="10.00">FieldPlaneAveragingFine.H</text>
</a>
</g>
</g>
<!-- Node1&#45;&gt;Node28 -->
<g id="edge38" class="edge">
<title>Node1&#45;&gt;Node28</title>
<path fill="none" stroke="midnightblue" d="M423.45,-290.58C494.08,-280.4 605.58,-264.35 673.72,-254.54"/>
<polygon fill="midnightblue" stroke="midnightblue" points="422.73,-287.14 413.33,-292.03 423.73,-294.07 422.73,-287.14"/>
</g>
<!-- Node4 -->
<g id="node4" class="node">
<title>Node4</title>
<g id="a_node4"><a xlink:href="_a_b_l_mean_boussinesq_8_h.html" target="_top" xlink:title=" ">
<polygon fill="white" stroke="black" points="1285,-67.5 1285,-86.5 1413,-86.5 1413,-67.5 1285,-67.5"/>
<text text-anchor="middle" x="1349" y="-74.5" font-family="Helvetica,sans-Serif" font-size="10.00">ABLMeanBoussinesq.H</text>
</a>
</g>
</g>
<!-- Node3&#45;&gt;Node4 -->
<g id="edge3" class="edge">
<title>Node3&#45;&gt;Node4</title>
<path fill="none" stroke="midnightblue" d="M1085.81,-232.8C1113.34,-225.16 1148.62,-213.76 1178,-199 1244.62,-165.53 1314.2,-108.07 1339.28,-86.51"/>
<polygon fill="midnightblue" stroke="midnightblue" points="1084.78,-229.45 1076.04,-235.44 1086.61,-236.21 1084.78,-229.45"/>
</g>
<!-- Node7 -->
<g id="node7" class="node">
<title>Node7</title>
<g id="a_node7"><a xlink:href="_hurricane_forcing_8_h.html" target="_top" xlink:title=" ">
<polygon fill="white" stroke="black" points="1431,-67.5 1431,-86.5 1541,-86.5 1541,-67.5 1431,-67.5"/>
<text text-anchor="middle" x="1486" y="-74.5" font-family="Helvetica,sans-Serif" font-size="10.00">HurricaneForcing.H</text>
</a>
</g>
</g>
<!-- Node3&#45;&gt;Node7 -->
<g id="edge6" class="edge">
<title>Node3&#45;&gt;Node7</title>
<path fill="none" stroke="midnightblue" d="M1088.92,-233.05C1122.99,-224.93 1169.26,-212.88 1209,-199 1310.07,-163.7 1425.96,-107.82 1468.87,-86.58"/>
<polygon fill="midnightblue" stroke="midnightblue" points="1087.69,-229.75 1078.76,-235.45 1089.3,-236.56 1087.69,-229.75"/>
</g>
<!-- Node9 -->
<g id="node9" class="node">
<title>Node9</title>
<g id="a_node9"><a xlink:href="_field_plane_averaging_8cpp.html" target="_top" xlink:title=" ">
<polygon fill="white" stroke="black" points="1361,-179.5 1361,-198.5 1497,-198.5 1497,-179.5 1361,-179.5"/>
<text text-anchor="middle" x="1429" y="-186.5" font-family="Helvetica,sans-Serif" font-size="10.00">FieldPlaneAveraging.cpp</text>
</a>
</g>
</g>
<!-- Node3&#45;&gt;Node9 -->
<g id="edge9" class="edge">
<title>Node3&#45;&gt;Node9</title>
<path fill="none" stroke="midnightblue" d="M1111.73,-234.04C1185.2,-223.84 1298.2,-208.16 1367.65,-198.52"/>
<polygon fill="midnightblue" stroke="midnightblue" points="1111.06,-230.6 1101.64,-235.44 1112.02,-237.54 1111.06,-230.6"/>
</g>
<!-- Node3&#45;&gt;Node10 -->
<g id="edge10" class="edge">
<title>Node3&#45;&gt;Node10</title>
<path fill="none" stroke="midnightblue" d="M966.45,-240.83C829.74,-234.69 527.27,-219.91 273,-199 270.19,-198.77 267.33,-198.52 264.44,-198.26"/>
<polygon fill="midnightblue" stroke="midnightblue" points="966.65,-244.35 976.79,-241.3 966.96,-237.35 966.65,-244.35"/>
</g>
<!-- Node12 -->
<g id="node12" class="node">
<title>Node12</title>
<g id="a_node12"><a xlink:href="_a_b_l_stats_8_h.html" target="_top" xlink:title=" ">
<polygon fill="white" stroke="black" points="652.5,-67.5 652.5,-86.5 723.5,-86.5 723.5,-67.5 652.5,-67.5"/>
<text text-anchor="middle" x="688" y="-74.5" font-family="Helvetica,sans-Serif" font-size="10.00">ABLStats.H</text>
</a>
</g>
</g>
<!-- Node3&#45;&gt;Node12 -->
<g id="edge29" class="edge">
<title>Node3&#45;&gt;Node12</title>
<path fill="none" stroke="midnightblue" d="M1012.17,-230.87C942.86,-198.19 763.97,-113.83 706.25,-86.61"/>
<polygon fill="midnightblue" stroke="midnightblue" points="1011.03,-234.21 1021.57,-235.31 1014.02,-227.88 1011.03,-234.21"/>
</g>
<!-- Node3&#45;&gt;Node14 -->
<g id="edge14" class="edge">
<title>Node3&#45;&gt;Node14</title>
<path fill="none" stroke="midnightblue" d="M966.77,-237.92C869.3,-229.72 691.59,-214.35 540,-199 536.94,-198.69 533.82,-198.37 530.66,-198.04"/>
<polygon fill="midnightblue" stroke="midnightblue" points="966.56,-241.42 976.81,-238.77 967.14,-234.44 966.56,-241.42"/>
</g>
<!-- Node16 -->
<g id="node16" class="node">
<title>Node16</title>
<g id="a_node16"><a xlink:href="_a_b_l_8_h.html" target="_top" xlink:title=" ">
<polygon fill="white" stroke="black" points="1221,-67.5 1221,-86.5 1267,-86.5 1267,-67.5 1221,-67.5"/>
<text text-anchor="middle" x="1244" y="-74.5" font-family="Helvetica,sans-Serif" font-size="10.00">ABL.H</text>
</a>
</g>
</g>
<!-- Node3&#45;&gt;Node16 -->
<g id="edge17" class="edge">
<title>Node3&#45;&gt;Node16</title>
<path fill="none" stroke="midnightblue" d="M1076.51,-231.94C1116.57,-216.97 1180.31,-187.82 1219,-143 1233.54,-126.16 1240.09,-99.95 1242.63,-86.54"/>
<polygon fill="midnightblue" stroke="midnightblue" points="1075.07,-228.73 1066.86,-235.44 1077.46,-235.31 1075.07,-228.73"/>
</g>
<!-- Node25 -->
<g id="node25" class="node">
<title>Node25</title>
<g id="a_node25"><a xlink:href="_a_b_l_wall_function_8_h.html" target="_top" xlink:title=" ">
<polygon fill="white" stroke="black" points="986.5,-179.5 986.5,-198.5 1093.5,-198.5 1093.5,-179.5 986.5,-179.5"/>
<text text-anchor="middle" x="1040" y="-186.5" font-family="Helvetica,sans-Serif" font-size="10.00">ABLWallFunction.H</text>
</a>
</g>
</g>
<!-- Node3&#45;&gt;Node25 -->
<g id="edge30" class="edge">
<title>Node3&#45;&gt;Node25</title>
<path fill="none" stroke="midnightblue" d="M1040,-224.8C1040,-215.91 1040,-205.78 1040,-198.75"/>
<polygon fill="midnightblue" stroke="midnightblue" points="1036.5,-225.08 1040,-235.08 1043.5,-225.08 1036.5,-225.08"/>
</g>
<!-- Node5 -->
<g id="node5" class="node">
<title>Node5</title>
<g id="a_node5"><a xlink:href="_a_b_l_mean_boussinesq_8cpp.html" target="_top" xlink:title=" ">
<polygon fill="white" stroke="black" points="1710,-6 1710,-25 1848,-25 1848,-6 1710,-6"/>
<text text-anchor="middle" x="1779" y="-13" font-family="Helvetica,sans-Serif" font-size="10.00">ABLMeanBoussinesq.cpp</text>
</a>
</g>
</g>
<!-- Node4&#45;&gt;Node5 -->
<g id="edge4" class="edge">
<title>Node4&#45;&gt;Node5</title>
<path fill="none" stroke="midnightblue" d="M1423.44,-66.71C1518.59,-54.8 1674.28,-35.19 1701,-31 1712.16,-29.25 1724.17,-27.13 1735.35,-25.07"/>
<polygon fill="midnightblue" stroke="midnightblue" points="1422.78,-63.27 1413.29,-67.98 1423.65,-70.21 1422.78,-63.27"/>
</g>
<!-- Node6 -->
<g id="node6" class="node">
<title>Node6</title>
<g id="a_node6"><a xlink:href="_a_b_l_8cpp.html" target="_top" xlink:title=" ">
<polygon fill="white" stroke="black" points="1247,-6 1247,-25 1303,-25 1303,-6 1247,-6"/>
<text text-anchor="middle" x="1275" y="-13" font-family="Helvetica,sans-Serif" font-size="10.00">ABL.cpp</text>
</a>
</g>
</g>
<!-- Node4&#45;&gt;Node6 -->
<g id="edge5" class="edge">
<title>Node4&#45;&gt;Node6</title>
<path fill="none" stroke="midnightblue" d="M1330.31,-60.97C1316.16,-49.59 1297.22,-34.37 1285.58,-25.01"/>
<polygon fill="midnightblue" stroke="midnightblue" points="1328.41,-63.94 1338.4,-67.48 1332.8,-58.48 1328.41,-63.94"/>
</g>
<!-- Node7&#45;&gt;Node6 -->
<g id="edge8" class="edge">
<title>Node7&#45;&gt;Node6</title>
<path fill="none" stroke="midnightblue" d="M1438.26,-65.08C1403.29,-56.72 1354.84,-44.38 1313,-31 1307.48,-29.24 1301.6,-27.11 1296.16,-25.05"/>
<polygon fill="midnightblue" stroke="midnightblue" points="1437.66,-68.53 1448.2,-67.44 1439.28,-61.72 1437.66,-68.53"/>
</g>
<!-- Node8 -->
<g id="node8" class="node">
<title>Node8</title>
<g id="a_node8"><a xlink:href="_hurricane_forcing_8cpp.html" target="_top" xlink:title=" ">
<polygon fill="white" stroke="black" points="1866.5,-6 1866.5,-25 1985.5,-25 1985.5,-6 1866.5,-6"/>
<text text-anchor="middle" x="1926" y="-13" font-family="Helvetica,sans-Serif" font-size="10.00">HurricaneForcing.cpp</text>
</a>
</g>
</g>
<!-- Node7&#45;&gt;Node8 -->
<g id="edge7" class="edge">
<title>Node7&#45;&gt;Node8</title>
<path fill="none" stroke="midnightblue" d="M1551.35,-69.8C1625.66,-62.35 1750.47,-48.62 1857,-31 1867.14,-29.32 1878.06,-27.18 1888.15,-25.07"/>
<polygon fill="midnightblue" stroke="midnightblue" points="1550.82,-66.33 1541.21,-70.81 1551.51,-73.3 1550.82,-66.33"/>
</g>
<!-- Node11 -->
<g id="node11" class="node">
<title>Node11</title>
<g id="a_node11"><a xlink:href="_second_moment_averaging_8cpp.html" target="_top" xlink:title=" ">
<polygon fill="white" stroke="black" points="66.5,-123.5 66.5,-142.5 227.5,-142.5 227.5,-123.5 66.5,-123.5"/>
<text text-anchor="middle" x="147" y="-130.5" font-family="Helvetica,sans-Serif" font-size="10.00">SecondMomentAveraging.cpp</text>
</a>
</g>
</g>
<!-- Node10&#45;&gt;Node11 -->
<g id="edge11" class="edge">
<title>Node10&#45;&gt;Node11</title>
<path fill="none" stroke="midnightblue" d="M174.98,-170.86C167.88,-161.5 159.4,-150.33 153.64,-142.75"/>
<polygon fill="midnightblue" stroke="midnightblue" points="172.39,-173.24 181.23,-179.08 177.97,-169 172.39,-173.24"/>
</g>
<!-- Node10&#45;&gt;Node12 -->
<g id="edge12" class="edge">
<title>Node10&#45;&gt;Node12</title>
<path fill="none" stroke="midnightblue" d="M203.66,-172.12C219.93,-156.71 246.91,-134.06 275,-123 343.45,-96.05 565.07,-83.48 652.27,-79.48"/>
<polygon fill="midnightblue" stroke="midnightblue" points="200.89,-169.94 196.17,-179.43 205.77,-174.95 200.89,-169.94"/>
</g>
<!-- Node12&#45;&gt;Node13 -->
<g id="edge13" class="edge">
<title>Node12&#45;&gt;Node13</title>
<path fill="none" stroke="midnightblue" d="M677.22,-58.67C670.34,-47.61 661.73,-33.75 656.29,-25.01"/>
<polygon fill="midnightblue" stroke="midnightblue" points="674.45,-60.83 682.7,-67.48 680.39,-57.13 674.45,-60.83"/>
</g>
<!-- Node14&#45;&gt;Node12 -->
<g id="edge16" class="edge">
<title>Node14&#45;&gt;Node12</title>
<path fill="none" stroke="midnightblue" d="M523.19,-177.75C580.7,-167.88 658.23,-153.02 669,-143 685.01,-128.11 687.79,-100.54 688.11,-86.58"/>
<polygon fill="midnightblue" stroke="midnightblue" points="522.34,-174.34 513.06,-179.47 523.51,-181.24 522.34,-174.34"/>
</g>
<!-- Node15 -->
<g id="node15" class="node">
<title>Node15</title>
<g id="a_node15"><a xlink:href="_third_moment_averaging_8cpp.html" target="_top" xlink:title=" ">
<polygon fill="white" stroke="black" points="508.5,-123.5 508.5,-142.5 659.5,-142.5 659.5,-123.5 508.5,-123.5"/>
<text text-anchor="middle" x="584" y="-130.5" font-family="Helvetica,sans-Serif" font-size="10.00">ThirdMomentAveraging.cpp</text>
</a>
</g>
</g>
<!-- Node14&#45;&gt;Node15 -->
<g id="edge15" class="edge">
<title>Node14&#45;&gt;Node15</title>
<path fill="none" stroke="midnightblue" d="M489.01,-175.37C512.23,-165.26 544.16,-151.35 564.44,-142.52"/>
<polygon fill="midnightblue" stroke="midnightblue" points="487.42,-172.24 479.65,-179.44 490.21,-178.66 487.42,-172.24"/>
</g>
<!-- Node16&#45;&gt;Node5 -->
<g id="edge19" class="edge">
<title>Node16&#45;&gt;Node5</title>
<path fill="none" stroke="midnightblue" d="M1277.18,-67.12C1464.3,-33.96 1516.35,-55.92 1701,-31 1712.88,-29.4 1725.69,-27.21 1737.43,-25.02"/>
<polygon fill="midnightblue" stroke="midnightblue" points="1276.52,-63.68 1267.3,-68.9 1277.76,-70.57 1276.52,-63.68"/>
</g>
<!-- Node16&#45;&gt;Node6 -->
<g id="edge27" class="edge">
<title>Node16&#45;&gt;Node6</title>
<path fill="none" stroke="midnightblue" d="M1253.2,-58.33C1258.94,-47.33 1266.06,-33.66 1270.57,-25.01"/>
<polygon fill="midnightblue" stroke="midnightblue" points="1249.96,-56.99 1248.44,-67.48 1256.17,-60.22 1249.96,-56.99"/>
</g>
<!-- Node16&#45;&gt;Node8 -->
<g id="edge21" class="edge">
<title>Node16&#45;&gt;Node8</title>
<path fill="none" stroke="midnightblue" d="M1277.24,-67.16C1532.87,-24.79 1603.87,-65.25 1857,-31 1867.92,-29.52 1879.69,-27.29 1890.36,-25.02"/>
<polygon fill="midnightblue" stroke="midnightblue" points="1276.57,-63.72 1267.29,-68.83 1277.73,-70.62 1276.57,-63.72"/>
</g>
<!-- Node17 -->
<g id="node17" class="node">
<title>Node17</title>
<g id="a_node17"><a xlink:href="_a_b_l_forcing_8cpp.html" target="_top" xlink:title=" ">
<polygon fill="white" stroke="black" points="1517.5,-6 1517.5,-25 1608.5,-25 1608.5,-6 1517.5,-6"/>
<text text-anchor="middle" x="1563" y="-13" font-family="Helvetica,sans-Serif" font-size="10.00">ABLForcing.cpp</text>
</a>
</g>
</g>
<!-- Node16&#45;&gt;Node17 -->
<g id="edge18" class="edge">
<title>Node16&#45;&gt;Node17</title>
<path fill="none" stroke="midnightblue" d="M1277.2,-66.96C1380.17,-45.22 1409.57,-51.96 1509,-31 1516.98,-29.32 1525.54,-27.18 1533.43,-25.06"/>
<polygon fill="midnightblue" stroke="midnightblue" points="1276.38,-63.56 1267.34,-69.08 1277.85,-70.4 1276.38,-63.56"/>
</g>
<!-- Node18 -->
<g id="node18" class="node">
<title>Node18</title>
<g id="a_node18"><a xlink:href="_a_b_l_meso_forcing_mom_8cpp.html" target="_top" xlink:title=" ">
<polygon fill="white" stroke="black" points="709,-6 709,-25 851,-25 851,-6 709,-6"/>
<text text-anchor="middle" x="780" y="-13" font-family="Helvetica,sans-Serif" font-size="10.00">ABLMesoForcingMom.cpp</text>
</a>
</g>
</g>
<!-- Node16&#45;&gt;Node18 -->
<g id="edge20" class="edge">
<title>Node16&#45;&gt;Node18</title>
<path fill="none" stroke="midnightblue" d="M1210.29,-72.73C1143.48,-66.09 989.61,-50.05 861,-31 849.27,-29.26 836.63,-27.13 824.91,-25.04"/>
<polygon fill="midnightblue" stroke="midnightblue" points="1210.32,-76.25 1220.62,-73.75 1211.01,-69.28 1210.32,-76.25"/>
</g>
<!-- Node19 -->
<g id="node19" class="node">
<title>Node19</title>
<g id="a_node19"><a xlink:href="_a_b_l_meso_forcing_temp_8cpp.html" target="_top" xlink:title=" ">
<polygon fill="white" stroke="black" points="869.5,-6 869.5,-25 1012.5,-25 1012.5,-6 869.5,-6"/>
<text text-anchor="middle" x="941" y="-13" font-family="Helvetica,sans-Serif" font-size="10.00">ABLMesoForcingTemp.cpp</text>
</a>
</g>
</g>
<!-- Node16&#45;&gt;Node19 -->
<g id="edge22" class="edge">
<title>Node16&#45;&gt;Node19</title>
<path fill="none" stroke="midnightblue" d="M1210.8,-69.48C1155.74,-58.67 1045.58,-37.04 984.43,-25.03"/>
<polygon fill="midnightblue" stroke="midnightblue" points="1210.24,-72.94 1220.73,-71.43 1211.59,-66.07 1210.24,-72.94"/>
</g>
<!-- Node20 -->
<g id="node20" class="node">
<title>Node20</title>
<g id="a_node20"><a xlink:href="helics_8cpp.html" target="_top" xlink:title=" ">
<polygon fill="white" stroke="black" points="1626.5,-6 1626.5,-25 1691.5,-25 1691.5,-6 1626.5,-6"/>
<text text-anchor="middle" x="1659" y="-13" font-family="Helvetica,sans-Serif" font-size="10.00">helics.cpp</text>
</a>
</g>
</g>
<!-- Node16&#45;&gt;Node20 -->
<g id="edge23" class="edge">
<title>Node16&#45;&gt;Node20</title>
<path fill="none" stroke="midnightblue" d="M1277.39,-67.05C1427.99,-39.32 1472.13,-63.99 1618,-31 1624.48,-29.53 1631.35,-27.36 1637.58,-25.14"/>
<polygon fill="midnightblue" stroke="midnightblue" points="1276.49,-63.66 1267.31,-68.95 1277.79,-70.53 1276.49,-63.66"/>
</g>
<!-- Node21 -->
<g id="node21" class="node">
<title>Node21</title>
<g id="a_node21"><a xlink:href="incflo_8cpp.html" target="_top" xlink:title=" ">
<polygon fill="white" stroke="black" points="1165.5,-6 1165.5,-25 1228.5,-25 1228.5,-6 1165.5,-6"/>
<text text-anchor="middle" x="1197" y="-13" font-family="Helvetica,sans-Serif" font-size="10.00">incflo.cpp</text>
</a>
</g>
</g>
<!-- Node16&#45;&gt;Node21 -->
<g id="edge24" class="edge">
<title>Node16&#45;&gt;Node21</title>
<path fill="none" stroke="midnightblue" d="M1230.84,-59.34C1222.02,-48.17 1210.77,-33.93 1203.72,-25.01"/>
<polygon fill="midnightblue" stroke="midnightblue" points="1228.32,-61.8 1237.27,-67.48 1233.81,-57.46 1228.32,-61.8"/>
</g>
<!-- Node22 -->
<g id="node22" class="node">
<title>Node22</title>
<g id="a_node22"><a xlink:href="incflo__apply__nodal__projection_8cpp.html" target="_top" xlink:title=" ">
<polygon fill="white" stroke="black" points="1321.5,-0.5 1321.5,-30.5 1428.5,-30.5 1428.5,-0.5 1321.5,-0.5"/>
<text text-anchor="start" x="1329.5" y="-18.5" font-family="Helvetica,sans-Serif" font-size="10.00">incflo_apply_nodal</text>
<text text-anchor="middle" x="1375" y="-7.5" font-family="Helvetica,sans-Serif" font-size="10.00">_projection.cpp</text>
</a>
</g>
</g>
<!-- Node16&#45;&gt;Node22 -->
<g id="edge25" class="edge">
<title>Node16&#45;&gt;Node22</title>
<path fill="none" stroke="midnightblue" d="M1271.89,-63.33C1293.09,-53.7 1322.23,-40.47 1344.13,-30.52"/>
<polygon fill="midnightblue" stroke="midnightblue" points="1270.43,-60.15 1262.77,-67.48 1273.32,-66.53 1270.43,-60.15"/>
</g>
<!-- Node23 -->
<g id="node23" class="node">
<title>Node23</title>
<g id="a_node23"><a xlink:href="init_8cpp.html" target="_top" xlink:title=" ">
<polygon fill="white" stroke="black" points="1446.5,-6 1446.5,-25 1499.5,-25 1499.5,-6 1446.5,-6"/>
<text text-anchor="middle" x="1473" y="-13" font-family="Helvetica,sans-Serif" font-size="10.00">init.cpp</text>
</a>
</g>
</g>
<!-- Node16&#45;&gt;Node23 -->
<g id="edge26" class="edge">
<title>Node16&#45;&gt;Node23</title>
<path fill="none" stroke="midnightblue" d="M1277.08,-66.87C1349.35,-49.32 1370.69,-52.24 1438,-31 1443.27,-29.34 1448.85,-27.2 1453.97,-25.09"/>
<polygon fill="midnightblue" stroke="midnightblue" points="1275.9,-63.55 1267.03,-69.36 1277.58,-70.35 1275.9,-63.55"/>
</g>
<!-- Node24 -->
<g id="node24" class="node">
<title>Node24</title>
<g id="a_node24"><a xlink:href="_a_b_l_wall_function_8cpp.html" target="_top" xlink:title=" ">
<polygon fill="white" stroke="black" points="1030.5,-6 1030.5,-25 1147.5,-25 1147.5,-6 1030.5,-6"/>
<text text-anchor="middle" x="1089" y="-13" font-family="Helvetica,sans-Serif" font-size="10.00">ABLWallFunction.cpp</text>
</a>
</g>
</g>
<!-- Node16&#45;&gt;Node24 -->
<g id="edge28" class="edge">
<title>Node16&#45;&gt;Node24</title>
<path fill="none" stroke="midnightblue" d="M1212.17,-63.78C1182.05,-52.22 1137.62,-35.16 1111.17,-25.01"/>
<polygon fill="midnightblue" stroke="midnightblue" points="1211.2,-67.16 1221.79,-67.48 1213.71,-60.62 1211.2,-67.16"/>
</g>
<!-- Node25&#45;&gt;Node12 -->
<g id="edge33" class="edge">
<title>Node25&#45;&gt;Node12</title>
<path fill="none" stroke="midnightblue" d="M1002.81,-176.38C931.77,-154.18 778.28,-106.21 715.55,-86.61"/>
<polygon fill="midnightblue" stroke="midnightblue" points="1002.08,-179.82 1012.67,-179.46 1004.17,-173.14 1002.08,-179.82"/>
</g>
<!-- Node25&#45;&gt;Node16 -->
<g id="edge32" class="edge">
<title>Node25&#45;&gt;Node16</title>
<path fill="none" stroke="midnightblue" d="M1103.41,-179.11C1133.17,-172.66 1167.95,-161.65 1195,-143 1216.64,-128.08 1232.7,-100.53 1239.87,-86.57"/>
<polygon fill="midnightblue" stroke="midnightblue" points="1102.62,-175.7 1093.53,-181.13 1104.02,-182.55 1102.62,-175.7"/>
</g>
<!-- Node25&#45;&gt;Node24 -->
<g id="edge37" class="edge">
<title>Node25&#45;&gt;Node24</title>
<path fill="none" stroke="midnightblue" d="M1103.42,-179.71C1125.69,-173.41 1148.51,-162.36 1162,-143 1191.43,-100.77 1128.28,-45.97 1100.88,-25.09"/>
<polygon fill="midnightblue" stroke="midnightblue" points="1102.42,-176.35 1093.6,-182.21 1104.15,-183.14 1102.42,-176.35"/>
</g>
<!-- Node26 -->
<g id="node26" class="node">
<title>Node26</title>
<g id="a_node26"><a xlink:href="_boussinesq_bubble_8cpp.html" target="_top" xlink:title=" ">
<polygon fill="white" stroke="black" points="913,-123.5 913,-142.5 1039,-142.5 1039,-123.5 913,-123.5"/>
<text text-anchor="middle" x="976" y="-130.5" font-family="Helvetica,sans-Serif" font-size="10.00">BoussinesqBubble.cpp</text>
</a>
</g>
</g>
<!-- Node25&#45;&gt;Node26 -->
<g id="edge31" class="edge">
<title>Node25&#45;&gt;Node26</title>
<path fill="none" stroke="midnightblue" d="M1022.01,-172.82C1010.54,-163.15 996.09,-150.95 986.47,-142.83"/>
<polygon fill="midnightblue" stroke="midnightblue" points="1019.82,-175.55 1029.72,-179.32 1024.33,-170.2 1019.82,-175.55"/>
</g>
<!-- Node27 -->
<g id="node27" class="node">
<title>Node27</title>
<g id="a_node27"><a xlink:href="_a_b_l_stats_base_8_h.html" target="_top" xlink:title=" ">
<polygon fill="white" stroke="black" points="1057.5,-123.5 1057.5,-142.5 1152.5,-142.5 1152.5,-123.5 1057.5,-123.5"/>
<text text-anchor="middle" x="1105" y="-130.5" font-family="Helvetica,sans-Serif" font-size="10.00">ABLStatsBase.H</text>
</a>
</g>
</g>
<!-- Node25&#45;&gt;Node27 -->
<g id="edge34" class="edge">
<title>Node25&#45;&gt;Node27</title>
<path fill="none" stroke="midnightblue" d="M1058.27,-172.82C1069.92,-163.15 1084.6,-150.95 1094.37,-142.83"/>
<polygon fill="midnightblue" stroke="midnightblue" points="1055.9,-170.24 1050.44,-179.32 1060.37,-175.63 1055.9,-170.24"/>
</g>
<!-- Node27&#45;&gt;Node12 -->
<g id="edge36" class="edge">
<title>Node27&#45;&gt;Node12</title>
<path fill="none" stroke="midnightblue" d="M1047.14,-122.95C906.62,-104.22 868.95,-108.32 733,-87 730.01,-86.53 726.91,-86 723.81,-85.44"/>
<polygon fill="midnightblue" stroke="midnightblue" points="1047.06,-126.47 1057.44,-124.33 1047.99,-119.53 1047.06,-126.47"/>
</g>
<!-- Node27&#45;&gt;Node16 -->
<g id="edge35" class="edge">
<title>Node27&#45;&gt;Node16</title>
<path fill="none" stroke="midnightblue" d="M1136.48,-119.77C1162.59,-109.63 1199.04,-95.47 1222.08,-86.52"/>
<polygon fill="midnightblue" stroke="midnightblue" points="1135.08,-116.56 1127.02,-123.44 1137.61,-123.08 1135.08,-116.56"/>
</g>
<!-- Node28&#45;&gt;Node12 -->
<g id="edge52" class="edge">
<title>Node28&#45;&gt;Node12</title>
<path fill="none" stroke="midnightblue" d="M727.96,-225.39C718.25,-189.59 697.31,-112.34 690.32,-86.57"/>
<polygon fill="midnightblue" stroke="midnightblue" points="724.59,-226.34 730.58,-235.08 731.34,-224.51 724.59,-226.34"/>
</g>
<!-- Node28&#45;&gt;Node25 -->
<g id="edge53" class="edge">
<title>Node28&#45;&gt;Node25</title>
<path fill="none" stroke="midnightblue" d="M791.76,-233.66C849.78,-223.46 937.45,-208.04 991.58,-198.52"/>
<polygon fill="midnightblue" stroke="midnightblue" points="790.89,-230.26 781.65,-235.44 792.1,-237.16 790.89,-230.26"/>
</g>
<!-- Node29 -->
<g id="node29" class="node">
<title>Node29</title>
<g id="a_node29"><a xlink:href="_wall_function_8_h.html" target="_top" xlink:title=" ">
<polygon fill="white" stroke="black" points="282.5,-179.5 282.5,-198.5 371.5,-198.5 371.5,-179.5 282.5,-179.5"/>
<text text-anchor="middle" x="327" y="-186.5" font-family="Helvetica,sans-Serif" font-size="10.00">WallFunction.H</text>
</a>
</g>
</g>
<!-- Node28&#45;&gt;Node29 -->
<g id="edge39" class="edge">
<title>Node28&#45;&gt;Node29</title>
<path fill="none" stroke="midnightblue" d="M649.8,-234.27C578.4,-225.7 472.79,-212.51 381,-199 377.99,-198.56 374.89,-198.08 371.77,-197.6"/>
<polygon fill="midnightblue" stroke="midnightblue" points="649.74,-237.78 660.08,-235.5 650.57,-230.83 649.74,-237.78"/>
</g>
<!-- Node32 -->
<g id="node32" class="node">
<title>Node32</title>
<g id="a_node32"><a xlink:href="_a_b_l_meso_forcing_mom_8_h.html" target="_top" xlink:title=" ">
<polygon fill="white" stroke="black" points="742,-67.5 742,-86.5 874,-86.5 874,-67.5 742,-67.5"/>
<text text-anchor="middle" x="808" y="-74.5" font-family="Helvetica,sans-Serif" font-size="10.00">ABLMesoForcingMom.H</text>
</a>
</g>
</g>
<!-- Node28&#45;&gt;Node32 -->
<g id="edge43" class="edge">
<title>Node28&#45;&gt;Node32</title>
<path fill="none" stroke="midnightblue" d="M741.2,-225.86C757.28,-190.25 792.43,-112.45 804.13,-86.57"/>
<polygon fill="midnightblue" stroke="midnightblue" points="737.96,-224.52 737.03,-235.08 744.34,-227.4 737.96,-224.52"/>
</g>
<!-- Node33 -->
<g id="node33" class="node">
<title>Node33</title>
<g id="a_node33"><a xlink:href="_a_b_l_meso_forcing_temp_8_h.html" target="_top" xlink:title=" ">
<polygon fill="white" stroke="black" points="892,-67.5 892,-86.5 1026,-86.5 1026,-67.5 892,-67.5"/>
<text text-anchor="middle" x="959" y="-74.5" font-family="Helvetica,sans-Serif" font-size="10.00">ABLMesoForcingTemp.H</text>
</a>
</g>
</g>
<!-- Node28&#45;&gt;Node33 -->
<g id="edge47" class="edge">
<title>Node28&#45;&gt;Node33</title>
<path fill="none" stroke="midnightblue" d="M753.11,-229.23C799.12,-195.44 910.83,-113.38 947.28,-86.61"/>
<polygon fill="midnightblue" stroke="midnightblue" points="750.82,-226.57 744.83,-235.31 754.96,-232.21 750.82,-226.57"/>
</g>
<!-- Node34 -->
<g id="node34" class="node">
<title>Node34</title>
<g id="a_node34"><a xlink:href="_field_plane_averaging_fine_8cpp.html" target="_top" xlink:title=" ">
<polygon fill="white" stroke="black" points="549,-179.5 549,-198.5 705,-198.5 705,-179.5 549,-179.5"/>
<text text-anchor="middle" x="627" y="-186.5" font-family="Helvetica,sans-Serif" font-size="10.00">FieldPlaneAveragingFine.cpp</text>
</a>
</g>
</g>
<!-- Node28&#45;&gt;Node34 -->
<g id="edge51" class="edge">
<title>Node28&#45;&gt;Node34</title>
<path fill="none" stroke="midnightblue" d="M706.94,-230.73C687.32,-220.73 660.97,-207.31 643.99,-198.65"/>
<polygon fill="midnightblue" stroke="midnightblue" points="705.47,-233.9 715.97,-235.32 708.65,-227.67 705.47,-233.9"/>
</g>
<!-- Node30 -->
<g id="node30" class="node">
<title>Node30</title>
<g id="a_node30"><a xlink:href="_wall_function_8cpp.html" target="_top" xlink:title=" ">
<polygon fill="white" stroke="black" points="391.5,-123.5 391.5,-142.5 490.5,-142.5 490.5,-123.5 391.5,-123.5"/>
<text text-anchor="middle" x="441" y="-130.5" font-family="Helvetica,sans-Serif" font-size="10.00">WallFunction.cpp</text>
</a>
</g>
</g>
<!-- Node29&#45;&gt;Node30 -->
<g id="edge40" class="edge">
<title>Node29&#45;&gt;Node30</title>
<path fill="none" stroke="midnightblue" d="M354.24,-175.1C375.54,-165.01 404.54,-151.27 423.02,-142.52"/>
<polygon fill="midnightblue" stroke="midnightblue" points="352.6,-172 345.06,-179.44 355.6,-178.33 352.6,-172"/>
</g>
<!-- Node31 -->
<g id="node31" class="node">
<title>Node31</title>
<g id="a_node31"><a xlink:href="_channel_flow_8_h.html" target="_top" xlink:title=" ">
<polygon fill="white" stroke="black" points="284.5,-123.5 284.5,-142.5 373.5,-142.5 373.5,-123.5 284.5,-123.5"/>
<text text-anchor="middle" x="329" y="-130.5" font-family="Helvetica,sans-Serif" font-size="10.00">ChannelFlow.H</text>
</a>
</g>
</g>
<!-- Node29&#45;&gt;Node31 -->
<g id="edge41" class="edge">
<title>Node29&#45;&gt;Node31</title>
<path fill="none" stroke="midnightblue" d="M327.71,-168.8C328.04,-159.91 328.42,-149.78 328.68,-142.75"/>
<polygon fill="midnightblue" stroke="midnightblue" points="324.2,-168.96 327.33,-179.08 331.2,-169.22 324.2,-168.96"/>
</g>
<!-- Node31&#45;&gt;Node2 -->
<g id="edge42" class="edge">
<title>Node31&#45;&gt;Node2</title>
<path fill="none" stroke="midnightblue" d="M299.76,-119.37C276.35,-109.26 244.16,-95.35 223.71,-86.52"/>
<polygon fill="midnightblue" stroke="midnightblue" points="298.63,-122.69 309.19,-123.44 301.4,-116.26 298.63,-122.69"/>
</g>
<!-- Node32&#45;&gt;Node6 -->
<g id="edge45" class="edge">
<title>Node32&#45;&gt;Node6</title>
<path fill="none" stroke="midnightblue" d="M884.33,-66.9C1042.44,-50.3 1087.02,-67.51 1238,-31 1244.04,-29.54 1250.4,-27.31 1256.12,-25.04"/>
<polygon fill="midnightblue" stroke="midnightblue" points="883.81,-63.43 874.25,-67.98 884.56,-70.39 883.81,-63.43"/>
</g>
<!-- Node32&#45;&gt;Node13 -->
<g id="edge46" class="edge">
<title>Node32&#45;&gt;Node13</title>
<path fill="none" stroke="midnightblue" d="M775.76,-63.78C745.25,-52.22 700.25,-35.16 673.45,-25.01"/>
<polygon fill="midnightblue" stroke="midnightblue" points="774.91,-67.2 785.51,-67.48 777.4,-60.66 774.91,-67.2"/>
</g>
<!-- Node32&#45;&gt;Node18 -->
<g id="edge44" class="edge">
<title>Node32&#45;&gt;Node18</title>
<path fill="none" stroke="midnightblue" d="M799.69,-58.33C794.51,-47.33 788.08,-33.66 784,-25.01"/>
<polygon fill="midnightblue" stroke="midnightblue" points="796.56,-59.92 803.99,-67.48 802.9,-56.94 796.56,-59.92"/>
</g>
<!-- Node33&#45;&gt;Node6 -->
<g id="edge49" class="edge">
<title>Node33&#45;&gt;Node6</title>
<path fill="none" stroke="midnightblue" d="M1036.03,-68.06C1092.59,-61.16 1170.92,-49.33 1238,-31 1243.72,-29.44 1249.78,-27.29 1255.29,-25.12"/>
<polygon fill="midnightblue" stroke="midnightblue" points="1035.6,-64.59 1026.09,-69.25 1036.43,-71.54 1035.6,-64.59"/>
</g>
<!-- Node33&#45;&gt;Node13 -->
<g id="edge50" class="edge">
<title>Node33&#45;&gt;Node13</title>
<path fill="none" stroke="midnightblue" d="M887.98,-65.93C835.68,-57.96 763.01,-45.75 700,-31 692.74,-29.3 684.97,-27.16 677.81,-25.04"/>
<polygon fill="midnightblue" stroke="midnightblue" points="887.75,-69.43 898.16,-67.46 888.79,-62.51 887.75,-69.43"/>
</g>
<!-- Node33&#45;&gt;Node19 -->
<g id="edge48" class="edge">
<title>Node33&#45;&gt;Node19</title>
<path fill="none" stroke="midnightblue" d="M953.45,-57.66C950.16,-46.77 946.14,-33.49 943.57,-25.01"/>
<polygon fill="midnightblue" stroke="midnightblue" points="950.18,-58.92 956.42,-67.48 956.88,-56.89 950.18,-58.92"/>
</g>
</g>
</svg>
        <g id="navigator" transform="translate(0 0)" fill="#404254">
                <rect fill="#f2f5e9" fill-opacity="0.5" stroke="#606060" stroke-width=".5" x="0" y="0" width="60" height="60"/>
                <use id="zoomplus" xlink:href="#zoomPlus" x="17" y="9" onmousedown="handleZoom(evt,'in')"/>
                <use id="zoomminus" xlink:href="#zoomMin" x="42" y="9" onmousedown="handleZoom(evt,'out')"/>
                <use id="reset" xlink:href="#resetDef" x="30" y="36" onmousedown="handleReset()"/>
                <g id="arrowUp" xlink:href="#dirArrow" transform="translate(30 24)" onmousedown="handlePan(0,-1)">
                  <use xlink:href="#rim" fill="#404040">
                        <set attributeName="fill" to="#808080" begin="arrowUp.mouseover" end="arrowUp.mouseout"/>
                  </use>
                  <path fill="none" stroke="white" stroke-width="1.5" d="M0,-3.0v7 M-2.5,-0.5L0,-3.0L2.5,-0.5"/>
                </g>
                <g id="arrowRight" xlink:href="#dirArrow" transform="rotate(90) translate(36 -43)" onmousedown="handlePan(1,0)">
                  <use xlink:href="#rim" fill="#404040">
                        <set attributeName="fill" to="#808080" begin="arrowRight.mouseover" end="arrowRight.mouseout"/>
                  </use>
                  <path fill="none" stroke="white" stroke-width="1.5" d="M0,-3.0v7 M-2.5,-0.5L0,-3.0L2.5,-0.5"/>
                </g>
                <g id="arrowDown" xlink:href="#dirArrow" transform="rotate(180) translate(-30 -48)" onmousedown="handlePan(0,1)">
                  <use xlink:href="#rim" fill="#404040">
                        <set attributeName="fill" to="#808080" begin="arrowDown.mouseover" end="arrowDown.mouseout"/>
                  </use>
                  <path fill="none" stroke="white" stroke-width="1.5" d="M0,-3.0v7 M-2.5,-0.5L0,-3.0L2.5,-0.5"/>
                </g>
                <g id="arrowLeft" xlink:href="#dirArrow" transform="rotate(270) translate(-36 17)" onmousedown="handlePan(-1,0)">
                  <use xlink:href="#rim" fill="#404040">
                        <set attributeName="fill" to="#808080" begin="arrowLeft.mouseover" end="arrowLeft.mouseout"/>
                  </use>
                  <path fill="none" stroke="white" stroke-width="1.5" d="M0,-3.0v7 M-2.5,-0.5L0,-3.0L2.5,-0.5"/>
                </g>
        </g>
        <svg viewBox="0 0 15 15" width="100%" height="30px" preserveAspectRatio="xMaxYMin meet">
         <g id="arrow_out" transform="scale(0.3 0.3)">
          <a xlink:href="_direction_selector_8_h__dep__incl_org.svg" target="_base">
           <rect id="button" ry="5" rx="5" y="6" x="6" height="38" width="38"
                fill="#f2f5e9" fill-opacity="0.5" stroke="#606060" stroke-width="1.0"/>
           <path id="arrow"
             d="M 11.500037,31.436501 C 11.940474,20.09759 22.043105,11.32322 32.158766,21.979434 L 37.068811,17.246167 C 37.068811,17.246167 37.088388,32 37.088388,32 L 22.160133,31.978069 C 22.160133,31.978069 26.997745,27.140456 26.997745,27.140456 C 18.528582,18.264221 13.291696,25.230495 11.500037,31.436501 z"
             style="fill:#404040;"/>
          </a>
         </g>
        </svg>
</svg>
