<?xml version="1.0" encoding="UTF-8" standalone="no"?>
<!DOCTYPE svg PUBLIC "-//W3C//DTD SVG 1.1//EN"
 "http://www.w3.org/Graphics/SVG/1.1/DTD/svg11.dtd">
<!-- Generated by graphviz version 2.43.0 (0)
 -->
<!-- Title: FieldPlaneAveragingFine.H Pages: 1 -->
<!--zoomable 263 -->
<svg id="main" version="1.1" xmlns="http://www.w3.org/2000/svg" xmlns:xlink="http://www.w3.org/1999/xlink" xml:space="preserve" onload="init(evt)">
<style type="text/css"><![CDATA[
.edge:hover path { stroke: red; }
.edge:hover polygon { stroke: red; fill: red; }
]]></style>
<script type="text/javascript"><![CDATA[
var edges = document.getElementsByTagName('g');
if (edges && edges.length) {
  for (var i=0;i<edges.length;i++) {
    if (edges[i].id.substr(0,4)=='edge') {
      edges[i].setAttribute('class','edge');
    }
  }
}
]]></script>
        <defs>
                <circle id="rim" cx="0" cy="0" r="7"/>
                <circle id="rim2" cx="0" cy="0" r="3.5"/>
                <g id="zoomPlus">
                        <use xlink:href="#rim" fill="#404040">
                                <set attributeName="fill" to="#808080" begin="zoomplus.mouseover" end="zoomplus.mouseout"/>
                        </use>
                        <path d="M-4,0h8M0,-4v8" fill="none" stroke="white" stroke-width="1.5" pointer-events="none"/>
                </g>
                <g id="zoomMin">
                        <use xlink:href="#rim" fill="#404040">
                                <set attributeName="fill" to="#808080" begin="zoomminus.mouseover" end="zoomminus.mouseout"/>
                        </use>
                        <path d="M-4,0h8" fill="none" stroke="white" stroke-width="1.5" pointer-events="none"/>
                </g>
                <g id="dirArrow">
                        <path fill="none" stroke="white" stroke-width="1.5" d="M0,-3.0v7 M-2.5,-0.5L0,-3.0L2.5,-0.5"/>
                </g>
               <g id="resetDef">
                       <use xlink:href="#rim2" fill="#404040">
                               <set attributeName="fill" to="#808080" begin="reset.mouseover" end="reset.mouseout"/>
                       </use>
               </g>
        </defs>

<script type="text/javascript">
var viewWidth = 1529;
var viewHeight = 263;
var sectionId = 'dynsection-1';
</script>
<script xlink:href="svgpan.js"/>
<svg id="graph" class="graph">
<g id="viewport">
<title>FieldPlaneAveragingFine.H</title>
<polygon fill="white" stroke="transparent" points="-4,4 -4,-259 1525,-259 1525,4 -4,4"/>
<!-- Node1 -->
<g id="node1" class="node">
<title>Node1</title>
<g id="a_node1"><a xlink:title=" ">
<polygon fill="#bfbfbf" stroke="black" points="304.5,-235.5 304.5,-254.5 450.5,-254.5 450.5,-235.5 304.5,-235.5"/>
<text text-anchor="middle" x="377.5" y="-242.5" font-family="Helvetica,sans-Serif" font-size="10.00">FieldPlaneAveragingFine.H</text>
</a>
</g>
</g>
<!-- Node2 -->
<g id="node2" class="node">
<title>Node2</title>
<g id="a_node2"><a xlink:href="_wall_function_8_h.html" target="_top" xlink:title=" ">
<polygon fill="white" stroke="black" points="117,-179.5 117,-198.5 206,-198.5 206,-179.5 117,-179.5"/>
<text text-anchor="middle" x="161.5" y="-186.5" font-family="Helvetica,sans-Serif" font-size="10.00">WallFunction.H</text>
</a>
</g>
</g>
<!-- Node1&#45;&gt;Node2 -->
<g id="edge1" class="edge">
<title>Node1&#45;&gt;Node2</title>
<path fill="none" stroke="midnightblue" d="M333.34,-232.96C292.54,-222.76 232.79,-207.82 195.57,-198.52"/>
<polygon fill="midnightblue" stroke="midnightblue" points="332.72,-236.41 343.27,-235.44 334.42,-229.62 332.72,-236.41"/>
</g>
<!-- Node6 -->
<g id="node6" class="node">
<title>Node6</title>
<g id="a_node6"><a xlink:href="_a_b_l_meso_forcing_mom_8_h.html" target="_top" xlink:title=" ">
<polygon fill="white" stroke="black" points="292.5,-67.5 292.5,-86.5 424.5,-86.5 424.5,-67.5 292.5,-67.5"/>
<text text-anchor="middle" x="358.5" y="-74.5" font-family="Helvetica,sans-Serif" font-size="10.00">ABLMesoForcingMom.H</text>
</a>
</g>
</g>
<!-- Node1&#45;&gt;Node6 -->
<g id="edge5" class="edge">
<title>Node1&#45;&gt;Node6</title>
<path fill="none" stroke="midnightblue" d="M375.32,-224.93C371.2,-188.92 362.42,-112.23 359.48,-86.57"/>
<polygon fill="midnightblue" stroke="midnightblue" points="371.86,-225.54 376.48,-235.08 378.82,-224.74 371.86,-225.54"/>
</g>
<!-- Node10 -->
<g id="node10" class="node">
<title>Node10</title>
<g id="a_node10"><a xlink:href="_a_b_l_meso_forcing_temp_8_h.html" target="_top" xlink:title=" ">
<polygon fill="white" stroke="black" points="442.5,-67.5 442.5,-86.5 576.5,-86.5 576.5,-67.5 442.5,-67.5"/>
<text text-anchor="middle" x="509.5" y="-74.5" font-family="Helvetica,sans-Serif" font-size="10.00">ABLMesoForcingTemp.H</text>
</a>
</g>
</g>
<!-- Node1&#45;&gt;Node10 -->
<g id="edge9" class="edge">
<title>Node1&#45;&gt;Node10</title>
<path fill="none" stroke="midnightblue" d="M379.37,-225.29C382.86,-199.44 392.54,-152.65 418.5,-123 434.29,-104.97 458.99,-93.39 478.67,-86.51"/>
<polygon fill="midnightblue" stroke="midnightblue" points="375.89,-224.92 378.2,-235.26 382.84,-225.74 375.89,-224.92"/>
</g>
<!-- Node12 -->
<g id="node12" class="node">
<title>Node12</title>
<g id="a_node12"><a xlink:href="_field_plane_averaging_fine_8cpp.html" target="_top" xlink:title=" ">
<polygon fill="white" stroke="black" points="550.5,-179.5 550.5,-198.5 706.5,-198.5 706.5,-179.5 550.5,-179.5"/>
<text text-anchor="middle" x="628.5" y="-186.5" font-family="Helvetica,sans-Serif" font-size="10.00">FieldPlaneAveragingFine.cpp</text>
</a>
</g>
</g>
<!-- Node1&#45;&gt;Node12 -->
<g id="edge13" class="edge">
<title>Node1&#45;&gt;Node12</title>
<path fill="none" stroke="midnightblue" d="M427.32,-233.28C474.75,-223.08 545.2,-207.92 588.91,-198.52"/>
<polygon fill="midnightblue" stroke="midnightblue" points="426.31,-229.92 417.27,-235.44 427.78,-236.76 426.31,-229.92"/>
</g>
<!-- Node13 -->
<g id="node13" class="node">
<title>Node13</title>
<g id="a_node13"><a xlink:href="_a_b_l_stats_8_h.html" target="_top" xlink:title=" ">
<polygon fill="white" stroke="black" points="203,-67.5 203,-86.5 274,-86.5 274,-67.5 203,-67.5"/>
<text text-anchor="middle" x="238.5" y="-74.5" font-family="Helvetica,sans-Serif" font-size="10.00">ABLStats.H</text>
</a>
</g>
</g>
<!-- Node1&#45;&gt;Node13 -->
<g id="edge14" class="edge">
<title>Node1&#45;&gt;Node13</title>
<path fill="none" stroke="midnightblue" d="M363.44,-227.21C334.18,-192.26 267.63,-112.79 245.67,-86.57"/>
<polygon fill="midnightblue" stroke="midnightblue" points="360.92,-229.66 370.03,-235.08 366.29,-225.16 360.92,-229.66"/>
</g>
<!-- Node14 -->
<g id="node14" class="node">
<title>Node14</title>
<g id="a_node14"><a xlink:href="_a_b_l_wall_function_8_h.html" target="_top" xlink:title=" ">
<polygon fill="white" stroke="black" points="425,-179.5 425,-198.5 532,-198.5 532,-179.5 425,-179.5"/>
<text text-anchor="middle" x="478.5" y="-186.5" font-family="Helvetica,sans-Serif" font-size="10.00">ABLWallFunction.H</text>
</a>
</g>
</g>
<!-- Node1&#45;&gt;Node14 -->
<g id="edge16" class="edge">
<title>Node1&#45;&gt;Node14</title>
<path fill="none" stroke="midnightblue" d="M402.58,-230.59C421.26,-220.61 446.2,-207.27 462.31,-198.65"/>
<polygon fill="midnightblue" stroke="midnightblue" points="400.9,-227.52 393.73,-235.32 404.2,-233.7 400.9,-227.52"/>
</g>
<!-- Node3 -->
<g id="node3" class="node">
<title>Node3</title>
<g id="a_node3"><a xlink:href="_wall_function_8cpp.html" target="_top" xlink:title=" ">
<polygon fill="white" stroke="black" points="0,-123.5 0,-142.5 99,-142.5 99,-123.5 0,-123.5"/>
<text text-anchor="middle" x="49.5" y="-130.5" font-family="Helvetica,sans-Serif" font-size="10.00">WallFunction.cpp</text>
</a>
</g>
</g>
<!-- Node2&#45;&gt;Node3 -->
<g id="edge2" class="edge">
<title>Node2&#45;&gt;Node3</title>
<path fill="none" stroke="midnightblue" d="M134.25,-174.86C113.48,-164.85 85.48,-151.35 67.45,-142.65"/>
<polygon fill="midnightblue" stroke="midnightblue" points="132.98,-178.13 143.51,-179.32 136.02,-171.83 132.98,-178.13"/>
</g>
<!-- Node4 -->
<g id="node4" class="node">
<title>Node4</title>
<g id="a_node4"><a xlink:href="_channel_flow_8_h.html" target="_top" xlink:title=" ">
<polygon fill="white" stroke="black" points="117,-123.5 117,-142.5 206,-142.5 206,-123.5 117,-123.5"/>
<text text-anchor="middle" x="161.5" y="-130.5" font-family="Helvetica,sans-Serif" font-size="10.00">ChannelFlow.H</text>
</a>
</g>
</g>
<!-- Node2&#45;&gt;Node4 -->
<g id="edge3" class="edge">
<title>Node2&#45;&gt;Node4</title>
<path fill="none" stroke="midnightblue" d="M161.5,-168.8C161.5,-159.91 161.5,-149.78 161.5,-142.75"/>
<polygon fill="midnightblue" stroke="midnightblue" points="158,-169.08 161.5,-179.08 165,-169.08 158,-169.08"/>
</g>
<!-- Node5 -->
<g id="node5" class="node">
<title>Node5</title>
<g id="a_node5"><a xlink:href="_channel_flow_8cpp.html" target="_top" xlink:title=" ">
<polygon fill="white" stroke="black" points="86,-67.5 86,-86.5 185,-86.5 185,-67.5 86,-67.5"/>
<text text-anchor="middle" x="135.5" y="-74.5" font-family="Helvetica,sans-Serif" font-size="10.00">ChannelFlow.cpp</text>
</a>
</g>
</g>
<!-- Node4&#45;&gt;Node5 -->
<g id="edge4" class="edge">
<title>Node4&#45;&gt;Node5</title>
<path fill="none" stroke="midnightblue" d="M152.83,-113.98C148.41,-104.82 143.25,-94.09 139.71,-86.75"/>
<polygon fill="midnightblue" stroke="midnightblue" points="149.71,-115.59 157.21,-123.08 156.02,-112.55 149.71,-115.59"/>
</g>
<!-- Node7 -->
<g id="node7" class="node">
<title>Node7</title>
<g id="a_node7"><a xlink:href="_a_b_l_meso_forcing_mom_8cpp.html" target="_top" xlink:title=" ">
<polygon fill="white" stroke="black" points="245.5,-6 245.5,-25 387.5,-25 387.5,-6 245.5,-6"/>
<text text-anchor="middle" x="316.5" y="-13" font-family="Helvetica,sans-Serif" font-size="10.00">ABLMesoForcingMom.cpp</text>
</a>
</g>
</g>
<!-- Node6&#45;&gt;Node7 -->
<g id="edge6" class="edge">
<title>Node6&#45;&gt;Node7</title>
<path fill="none" stroke="midnightblue" d="M346.5,-59.01C338.66,-47.89 328.74,-33.84 322.51,-25.01"/>
<polygon fill="midnightblue" stroke="midnightblue" points="343.86,-61.32 352.48,-67.48 349.57,-57.29 343.86,-61.32"/>
</g>
<!-- Node8 -->
<g id="node8" class="node">
<title>Node8</title>
<g id="a_node8"><a xlink:href="_a_b_l_8cpp.html" target="_top" xlink:title=" ">
<polygon fill="white" stroke="black" points="405.5,-6 405.5,-25 461.5,-25 461.5,-6 405.5,-6"/>
<text text-anchor="middle" x="433.5" y="-13" font-family="Helvetica,sans-Serif" font-size="10.00">ABL.cpp</text>
</a>
</g>
</g>
<!-- Node6&#45;&gt;Node8 -->
<g id="edge7" class="edge">
<title>Node6&#45;&gt;Node8</title>
<path fill="none" stroke="midnightblue" d="M377.44,-60.97C391.79,-49.59 410.98,-34.37 422.77,-25.01"/>
<polygon fill="midnightblue" stroke="midnightblue" points="374.9,-58.52 369.25,-67.48 379.26,-64 374.9,-58.52"/>
</g>
<!-- Node9 -->
<g id="node9" class="node">
<title>Node9</title>
<g id="a_node9"><a xlink:href="_a_b_l_stats_8cpp.html" target="_top" xlink:title=" ">
<polygon fill="white" stroke="black" points="147.5,-6 147.5,-25 227.5,-25 227.5,-6 147.5,-6"/>
<text text-anchor="middle" x="187.5" y="-13" font-family="Helvetica,sans-Serif" font-size="10.00">ABLStats.cpp</text>
</a>
</g>
</g>
<!-- Node6&#45;&gt;Node9 -->
<g id="edge8" class="edge">
<title>Node6&#45;&gt;Node9</title>
<path fill="none" stroke="midnightblue" d="M324.25,-64.08C291.01,-52.52 241.39,-35.25 211.95,-25.01"/>
<polygon fill="midnightblue" stroke="midnightblue" points="323.41,-67.49 334,-67.48 325.71,-60.88 323.41,-67.49"/>
</g>
<!-- Node10&#45;&gt;Node8 -->
<g id="edge11" class="edge">
<title>Node10&#45;&gt;Node8</title>
<path fill="none" stroke="midnightblue" d="M490.72,-61.29C476.14,-49.88 456.44,-34.46 444.37,-25.01"/>
<polygon fill="midnightblue" stroke="midnightblue" points="488.58,-64.07 498.61,-67.48 492.89,-58.55 488.58,-64.07"/>
</g>
<!-- Node10&#45;&gt;Node9 -->
<g id="edge12" class="edge">
<title>Node10&#45;&gt;Node9</title>
<path fill="none" stroke="midnightblue" d="M433.66,-66.08C378.6,-58.26 302.5,-46.14 236.5,-31 229.15,-29.31 221.28,-27.15 214.04,-25.01"/>
<polygon fill="midnightblue" stroke="midnightblue" points="433.3,-69.56 443.69,-67.49 434.27,-62.63 433.3,-69.56"/>
</g>
<!-- Node11 -->
<g id="node11" class="node">
<title>Node11</title>
<g id="a_node11"><a xlink:href="_a_b_l_meso_forcing_temp_8cpp.html" target="_top" xlink:title=" ">
<polygon fill="white" stroke="black" points="480,-6 480,-25 623,-25 623,-6 480,-6"/>
<text text-anchor="middle" x="551.5" y="-13" font-family="Helvetica,sans-Serif" font-size="10.00">ABLMesoForcingTemp.cpp</text>
</a>
</g>
</g>
<!-- Node10&#45;&gt;Node11 -->
<g id="edge10" class="edge">
<title>Node10&#45;&gt;Node11</title>
<path fill="none" stroke="midnightblue" d="M521.5,-59.01C529.34,-47.89 539.26,-33.84 545.49,-25.01"/>
<polygon fill="midnightblue" stroke="midnightblue" points="518.43,-57.29 515.52,-67.48 524.14,-61.32 518.43,-57.29"/>
</g>
<!-- Node13&#45;&gt;Node9 -->
<g id="edge15" class="edge">
<title>Node13&#45;&gt;Node9</title>
<path fill="none" stroke="midnightblue" d="M224.5,-59.67C214.89,-48.45 202.51,-34.02 194.79,-25.01"/>
<polygon fill="midnightblue" stroke="midnightblue" points="222.03,-62.16 231.19,-67.48 227.34,-57.6 222.03,-62.16"/>
</g>
<!-- Node14&#45;&gt;Node13 -->
<g id="edge30" class="edge">
<title>Node14&#45;&gt;Node13</title>
<path fill="none" stroke="midnightblue" d="M450.49,-175.16C400.97,-152.47 299.22,-105.83 257.24,-86.59"/>
<polygon fill="midnightblue" stroke="midnightblue" points="449.12,-178.38 459.67,-179.37 452.04,-172.02 449.12,-178.38"/>
</g>
<!-- Node15 -->
<g id="node15" class="node">
<title>Node15</title>
<g id="a_node15"><a xlink:href="_boussinesq_bubble_8cpp.html" target="_top" xlink:title=" ">
<polygon fill="white" stroke="black" points="579.5,-123.5 579.5,-142.5 705.5,-142.5 705.5,-123.5 579.5,-123.5"/>
<text text-anchor="middle" x="642.5" y="-130.5" font-family="Helvetica,sans-Serif" font-size="10.00">BoussinesqBubble.cpp</text>
</a>
</g>
</g>
<!-- Node14&#45;&gt;Node15 -->
<g id="edge17" class="edge">
<title>Node14&#45;&gt;Node15</title>
<path fill="none" stroke="midnightblue" d="M514.02,-176.3C544.92,-166.13 588.97,-151.62 616.64,-142.52"/>
<polygon fill="midnightblue" stroke="midnightblue" points="512.89,-172.99 504.49,-179.44 515.08,-179.64 512.89,-172.99"/>
</g>
<!-- Node16 -->
<g id="node16" class="node">
<title>Node16</title>
<g id="a_node16"><a xlink:href="_a_b_l_8_h.html" target="_top" xlink:title=" ">
<polygon fill="white" stroke="black" points="796.5,-67.5 796.5,-86.5 842.5,-86.5 842.5,-67.5 796.5,-67.5"/>
<text text-anchor="middle" x="819.5" y="-74.5" font-family="Helvetica,sans-Serif" font-size="10.00">ABL.H</text>
</a>
</g>
</g>
<!-- Node14&#45;&gt;Node16 -->
<g id="edge18" class="edge">
<title>Node14&#45;&gt;Node16</title>
<path fill="none" stroke="midnightblue" d="M495.21,-172.74C512.67,-157.66 541.52,-135.15 570.5,-123 648.89,-90.14 751.04,-81.24 796.24,-78.86"/>
<polygon fill="midnightblue" stroke="midnightblue" points="492.77,-170.22 487.6,-179.46 497.41,-175.46 492.77,-170.22"/>
</g>
<!-- Node24 -->
<g id="node24" class="node">
<title>Node24</title>
<g id="a_node24"><a xlink:href="_a_b_l_wall_function_8cpp.html" target="_top" xlink:title=" ">
<polygon fill="white" stroke="black" points="1404,-6 1404,-25 1521,-25 1521,-6 1404,-6"/>
<text text-anchor="middle" x="1462.5" y="-13" font-family="Helvetica,sans-Serif" font-size="10.00">ABLWallFunction.cpp</text>
</a>
</g>
</g>
<!-- Node14&#45;&gt;Node24 -->
<g id="edge34" class="edge">
<title>Node14&#45;&gt;Node24</title>
<path fill="none" stroke="midnightblue" d="M542.05,-178.1C691.35,-154.62 1075.99,-92.9 1395.5,-31 1404.85,-29.19 1414.9,-27.09 1424.29,-25.07"/>
<polygon fill="midnightblue" stroke="midnightblue" points="541.47,-174.65 532.14,-179.65 542.56,-181.56 541.47,-174.65"/>
</g>
<!-- Node25 -->
<g id="node25" class="node">
<title>Node25</title>
<g id="a_node25"><a xlink:href="_a_b_l_stats_base_8_h.html" target="_top" xlink:title=" ">
<polygon fill="white" stroke="black" points="428,-123.5 428,-142.5 523,-142.5 523,-123.5 428,-123.5"/>
<text text-anchor="middle" x="475.5" y="-130.5" font-family="Helvetica,sans-Serif" font-size="10.00">ABLStatsBase.H</text>
</a>
</g>
</g>
<!-- Node14&#45;&gt;Node25 -->
<g id="edge31" class="edge">
<title>Node14&#45;&gt;Node25</title>
<path fill="none" stroke="midnightblue" d="M477.43,-168.8C476.94,-159.91 476.38,-149.78 475.99,-142.75"/>
<polygon fill="midnightblue" stroke="midnightblue" points="473.96,-169.29 478,-179.08 480.94,-168.9 473.96,-169.29"/>
</g>
<!-- Node16&#45;&gt;Node7 -->
<g id="edge21" class="edge">
<title>Node16&#45;&gt;Node7</title>
<path fill="none" stroke="midnightblue" d="M785.8,-73.26C714.02,-67.24 540.78,-51.72 396.5,-31 384.76,-29.31 372.12,-27.17 360.42,-25.06"/>
<polygon fill="midnightblue" stroke="midnightblue" points="785.78,-76.77 796.04,-74.11 786.36,-69.8 785.78,-76.77"/>
</g>
<!-- Node16&#45;&gt;Node8 -->
<g id="edge28" class="edge">
<title>Node16&#45;&gt;Node8</title>
<path fill="none" stroke="midnightblue" d="M786.17,-74.42C723.48,-70.86 584.06,-60.1 470.5,-31 464.62,-29.49 458.41,-27.31 452.79,-25.09"/>
<polygon fill="midnightblue" stroke="midnightblue" points="786.09,-77.92 796.27,-74.97 786.47,-70.93 786.09,-77.92"/>
</g>
<!-- Node16&#45;&gt;Node11 -->
<g id="edge23" class="edge">
<title>Node16&#45;&gt;Node11</title>
<path fill="none" stroke="midnightblue" d="M786.25,-68.62C736.4,-57.55 642.54,-36.71 589.86,-25.02"/>
<polygon fill="midnightblue" stroke="midnightblue" points="785.66,-72.07 796.19,-70.82 787.18,-65.24 785.66,-72.07"/>
</g>
<!-- Node17 -->
<g id="node17" class="node">
<title>Node17</title>
<g id="a_node17"><a xlink:href="_a_b_l_forcing_8cpp.html" target="_top" xlink:title=" ">
<polygon fill="white" stroke="black" points="641,-6 641,-25 732,-25 732,-6 641,-6"/>
<text text-anchor="middle" x="686.5" y="-13" font-family="Helvetica,sans-Serif" font-size="10.00">ABLForcing.cpp</text>
</a>
</g>
</g>
<!-- Node16&#45;&gt;Node17 -->
<g id="edge19" class="edge">
<title>Node16&#45;&gt;Node17</title>
<path fill="none" stroke="midnightblue" d="M791.17,-63.33C765.35,-51.78 727.92,-35.03 705.52,-25.01"/>
<polygon fill="midnightblue" stroke="midnightblue" points="789.89,-66.59 800.44,-67.48 792.75,-60.2 789.89,-66.59"/>
</g>
<!-- Node18 -->
<g id="node18" class="node">
<title>Node18</title>
<g id="a_node18"><a xlink:href="_a_b_l_mean_boussinesq_8cpp.html" target="_top" xlink:title=" ">
<polygon fill="white" stroke="black" points="750.5,-6 750.5,-25 888.5,-25 888.5,-6 750.5,-6"/>
<text text-anchor="middle" x="819.5" y="-13" font-family="Helvetica,sans-Serif" font-size="10.00">ABLMeanBoussinesq.cpp</text>
</a>
</g>
</g>
<!-- Node16&#45;&gt;Node18 -->
<g id="edge20" class="edge">
<title>Node16&#45;&gt;Node18</title>
<path fill="none" stroke="midnightblue" d="M819.5,-57.32C819.5,-46.5 819.5,-33.4 819.5,-25.01"/>
<polygon fill="midnightblue" stroke="midnightblue" points="816,-57.48 819.5,-67.48 823,-57.48 816,-57.48"/>
</g>
<!-- Node19 -->
<g id="node19" class="node">
<title>Node19</title>
<g id="a_node19"><a xlink:href="_hurricane_forcing_8cpp.html" target="_top" xlink:title=" ">
<polygon fill="white" stroke="black" points="907,-6 907,-25 1026,-25 1026,-6 907,-6"/>
<text text-anchor="middle" x="966.5" y="-13" font-family="Helvetica,sans-Serif" font-size="10.00">HurricaneForcing.cpp</text>
</a>
</g>
</g>
<!-- Node16&#45;&gt;Node19 -->
<g id="edge22" class="edge">
<title>Node16&#45;&gt;Node19</title>
<path fill="none" stroke="midnightblue" d="M850.06,-63.63C878.62,-52.07 920.5,-35.12 945.48,-25.01"/>
<polygon fill="midnightblue" stroke="midnightblue" points="848.52,-60.48 840.56,-67.48 851.14,-66.97 848.52,-60.48"/>
</g>
<!-- Node20 -->
<g id="node20" class="node">
<title>Node20</title>
<g id="a_node20"><a xlink:href="helics_8cpp.html" target="_top" xlink:title=" ">
<polygon fill="white" stroke="black" points="1044,-6 1044,-25 1109,-25 1109,-6 1044,-6"/>
<text text-anchor="middle" x="1076.5" y="-13" font-family="Helvetica,sans-Serif" font-size="10.00">helics.cpp</text>
</a>
</g>
</g>
<!-- Node16&#45;&gt;Node20 -->
<g id="edge24" class="edge">
<title>Node16&#45;&gt;Node20</title>
<path fill="none" stroke="midnightblue" d="M852.88,-70.49C895.6,-63.1 971.73,-48.83 1035.5,-31 1041.61,-29.29 1048.12,-27.14 1054.12,-25.03"/>
<polygon fill="midnightblue" stroke="midnightblue" points="852.03,-67.08 842.76,-72.21 853.21,-73.98 852.03,-67.08"/>
</g>
<!-- Node21 -->
<g id="node21" class="node">
<title>Node21</title>
<g id="a_node21"><a xlink:href="incflo_8cpp.html" target="_top" xlink:title=" ">
<polygon fill="white" stroke="black" points="1127,-6 1127,-25 1190,-25 1190,-6 1127,-6"/>
<text text-anchor="middle" x="1158.5" y="-13" font-family="Helvetica,sans-Serif" font-size="10.00">incflo.cpp</text>
</a>
</g>
</g>
<!-- Node16&#45;&gt;Node21 -->
<g id="edge25" class="edge">
<title>Node16&#45;&gt;Node21</title>
<path fill="none" stroke="midnightblue" d="M852.68,-73.17C908.31,-67.96 1023.62,-55.08 1118.5,-31 1124.66,-29.44 1131.19,-27.29 1137.16,-25.12"/>
<polygon fill="midnightblue" stroke="midnightblue" points="852.33,-69.69 842.69,-74.09 852.97,-76.66 852.33,-69.69"/>
</g>
<!-- Node22 -->
<g id="node22" class="node">
<title>Node22</title>
<g id="a_node22"><a xlink:href="incflo__apply__nodal__projection_8cpp.html" target="_top" xlink:title=" ">
<polygon fill="white" stroke="black" points="1208,-0.5 1208,-30.5 1315,-30.5 1315,-0.5 1208,-0.5"/>
<text text-anchor="start" x="1216" y="-18.5" font-family="Helvetica,sans-Serif" font-size="10.00">incflo_apply_nodal</text>
<text text-anchor="middle" x="1261.5" y="-7.5" font-family="Helvetica,sans-Serif" font-size="10.00">_projection.cpp</text>
</a>
</g>
</g>
<!-- Node16&#45;&gt;Node22 -->
<g id="edge26" class="edge">
<title>Node16&#45;&gt;Node22</title>
<path fill="none" stroke="midnightblue" d="M853.04,-73.3C919.49,-67.67 1072.44,-53.31 1199.5,-31 1202.22,-30.52 1205,-30 1207.81,-29.44"/>
<polygon fill="midnightblue" stroke="midnightblue" points="852.44,-69.84 842.76,-74.16 853.02,-76.81 852.44,-69.84"/>
</g>
<!-- Node23 -->
<g id="node23" class="node">
<title>Node23</title>
<g id="a_node23"><a xlink:href="init_8cpp.html" target="_top" xlink:title=" ">
<polygon fill="white" stroke="black" points="1333,-6 1333,-25 1386,-25 1386,-6 1333,-6"/>
<text text-anchor="middle" x="1359.5" y="-13" font-family="Helvetica,sans-Serif" font-size="10.00">init.cpp</text>
</a>
</g>
</g>
<!-- Node16&#45;&gt;Node23 -->
<g id="edge27" class="edge">
<title>Node16&#45;&gt;Node23</title>
<path fill="none" stroke="midnightblue" d="M852.71,-76.49C934.32,-76.95 1150.66,-73.69 1324.5,-31 1330.25,-29.59 1336.28,-27.38 1341.69,-25.1"/>
<polygon fill="midnightblue" stroke="midnightblue" points="852.58,-72.99 842.55,-76.41 852.53,-79.99 852.58,-72.99"/>
</g>
<!-- Node16&#45;&gt;Node24 -->
<g id="edge29" class="edge">
<title>Node16&#45;&gt;Node24</title>
<path fill="none" stroke="midnightblue" d="M852.93,-74.97C941.72,-71.89 1190.67,-61.03 1395.5,-31 1405.86,-29.48 1417.02,-27.29 1427.2,-25.08"/>
<polygon fill="midnightblue" stroke="midnightblue" points="852.55,-71.48 842.67,-75.31 852.78,-78.47 852.55,-71.48"/>
</g>
<!-- Node25&#45;&gt;Node13 -->
<g id="edge33" class="edge">
<title>Node25&#45;&gt;Node13</title>
<path fill="none" stroke="midnightblue" d="M428.06,-121.19C382.71,-110.86 315.35,-95.51 274.33,-86.16"/>
<polygon fill="midnightblue" stroke="midnightblue" points="427.42,-124.63 437.95,-123.44 428.97,-117.81 427.42,-124.63"/>
</g>
<!-- Node25&#45;&gt;Node16 -->
<g id="edge32" class="edge">
<title>Node25&#45;&gt;Node16</title>
<path fill="none" stroke="midnightblue" d="M533.35,-122.92C610.35,-110.83 742.99,-90.01 796.31,-81.64"/>
<polygon fill="midnightblue" stroke="midnightblue" points="532.67,-119.48 523.33,-124.49 533.75,-126.4 532.67,-119.48"/>
</g>
</g>
</svg>
        <g id="navigator" transform="translate(0 0)" fill="#404254">
                <rect fill="#f2f5e9" fill-opacity="0.5" stroke="#606060" stroke-width=".5" x="0" y="0" width="60" height="60"/>
                <use id="zoomplus" xlink:href="#zoomPlus" x="17" y="9" onmousedown="handleZoom(evt,'in')"/>
                <use id="zoomminus" xlink:href="#zoomMin" x="42" y="9" onmousedown="handleZoom(evt,'out')"/>
                <use id="reset" xlink:href="#resetDef" x="30" y="36" onmousedown="handleReset()"/>
                <g id="arrowUp" xlink:href="#dirArrow" transform="translate(30 24)" onmousedown="handlePan(0,-1)">
                  <use xlink:href="#rim" fill="#404040">
                        <set attributeName="fill" to="#808080" begin="arrowUp.mouseover" end="arrowUp.mouseout"/>
                  </use>
                  <path fill="none" stroke="white" stroke-width="1.5" d="M0,-3.0v7 M-2.5,-0.5L0,-3.0L2.5,-0.5"/>
                </g>
                <g id="arrowRight" xlink:href="#dirArrow" transform="rotate(90) translate(36 -43)" onmousedown="handlePan(1,0)">
                  <use xlink:href="#rim" fill="#404040">
                        <set attributeName="fill" to="#808080" begin="arrowRight.mouseover" end="arrowRight.mouseout"/>
                  </use>
                  <path fill="none" stroke="white" stroke-width="1.5" d="M0,-3.0v7 M-2.5,-0.5L0,-3.0L2.5,-0.5"/>
                </g>
                <g id="arrowDown" xlink:href="#dirArrow" transform="rotate(180) translate(-30 -48)" onmousedown="handlePan(0,1)">
                  <use xlink:href="#rim" fill="#404040">
                        <set attributeName="fill" to="#808080" begin="arrowDown.mouseover" end="arrowDown.mouseout"/>
                  </use>
                  <path fill="none" stroke="white" stroke-width="1.5" d="M0,-3.0v7 M-2.5,-0.5L0,-3.0L2.5,-0.5"/>
                </g>
                <g id="arrowLeft" xlink:href="#dirArrow" transform="rotate(270) translate(-36 17)" onmousedown="handlePan(-1,0)">
                  <use xlink:href="#rim" fill="#404040">
                        <set attributeName="fill" to="#808080" begin="arrowLeft.mouseover" end="arrowLeft.mouseout"/>
                  </use>
                  <path fill="none" stroke="white" stroke-width="1.5" d="M0,-3.0v7 M-2.5,-0.5L0,-3.0L2.5,-0.5"/>
                </g>
        </g>
        <svg viewBox="0 0 15 15" width="100%" height="30px" preserveAspectRatio="xMaxYMin meet">
         <g id="arrow_out" transform="scale(0.3 0.3)">
          <a xlink:href="_field_plane_averaging_fine_8_h__dep__incl_org.svg" target="_base">
           <rect id="button" ry="5" rx="5" y="6" x="6" height="38" width="38"
                fill="#f2f5e9" fill-opacity="0.5" stroke="#606060" stroke-width="1.0"/>
           <path id="arrow"
             d="M 11.500037,31.436501 C 11.940474,20.09759 22.043105,11.32322 32.158766,21.979434 L 37.068811,17.246167 C 37.068811,17.246167 37.088388,32 37.088388,32 L 22.160133,31.978069 C 22.160133,31.978069 26.997745,27.140456 26.997745,27.140456 C 18.528582,18.264221 13.291696,25.230495 11.500037,31.436501 z"
             style="fill:#404040;"/>
          </a>
         </g>
        </svg>
</svg>
