<?xml version="1.0" encoding="UTF-8" standalone="no"?>
<!DOCTYPE svg PUBLIC "-//W3C//DTD SVG 1.1//EN"
 "http://www.w3.org/Graphics/SVG/1.1/DTD/svg11.dtd">
<!-- Generated by graphviz version 2.43.0 (0)
 -->
<!-- Title: FieldPlaneAveraging.H Pages: 1 -->
<!--zoomable 263 -->
<svg id="main" version="1.1" xmlns="http://www.w3.org/2000/svg" xmlns:xlink="http://www.w3.org/1999/xlink" xml:space="preserve" onload="init(evt)">
<style type="text/css"><![CDATA[
.edge:hover path { stroke: red; }
.edge:hover polygon { stroke: red; fill: red; }
]]></style>
<script type="text/javascript"><![CDATA[
var edges = document.getElementsByTagName('g');
if (edges && edges.length) {
  for (var i=0;i<edges.length;i++) {
    if (edges[i].id.substr(0,4)=='edge') {
      edges[i].setAttribute('class','edge');
    }
  }
}
]]></script>
        <defs>
                <circle id="rim" cx="0" cy="0" r="7"/>
                <circle id="rim2" cx="0" cy="0" r="3.5"/>
                <g id="zoomPlus">
                        <use xlink:href="#rim" fill="#404040">
                                <set attributeName="fill" to="#808080" begin="zoomplus.mouseover" end="zoomplus.mouseout"/>
                        </use>
                        <path d="M-4,0h8M0,-4v8" fill="none" stroke="white" stroke-width="1.5" pointer-events="none"/>
                </g>
                <g id="zoomMin">
                        <use xlink:href="#rim" fill="#404040">
                                <set attributeName="fill" to="#808080" begin="zoomminus.mouseover" end="zoomminus.mouseout"/>
                        </use>
                        <path d="M-4,0h8" fill="none" stroke="white" stroke-width="1.5" pointer-events="none"/>
                </g>
                <g id="dirArrow">
                        <path fill="none" stroke="white" stroke-width="1.5" d="M0,-3.0v7 M-2.5,-0.5L0,-3.0L2.5,-0.5"/>
                </g>
               <g id="resetDef">
                       <use xlink:href="#rim2" fill="#404040">
                               <set attributeName="fill" to="#808080" begin="reset.mouseover" end="reset.mouseout"/>
                       </use>
               </g>
        </defs>

<script type="text/javascript">
var viewWidth = 1476;
var viewHeight = 263;
var sectionId = 'dynsection-1';
</script>
<script xlink:href="svgpan.js"/>
<svg id="graph" class="graph">
<g id="viewport">
<title>FieldPlaneAveraging.H</title>
<polygon fill="white" stroke="transparent" points="-4,4 -4,-259 1472,-259 1472,4 -4,4"/>
<!-- Node1 -->
<g id="node1" class="node">
<title>Node1</title>
<g id="a_node1"><a xlink:title=" ">
<polygon fill="#bfbfbf" stroke="black" points="863,-235.5 863,-254.5 989,-254.5 989,-235.5 863,-235.5"/>
<text text-anchor="middle" x="926" y="-242.5" font-family="Helvetica,sans-Serif" font-size="10.00">FieldPlaneAveraging.H</text>
</a>
</g>
</g>
<!-- Node2 -->
<g id="node2" class="node">
<title>Node2</title>
<g id="a_node2"><a xlink:href="_a_b_l_mean_boussinesq_8_h.html" target="_top" xlink:title=" ">
<polygon fill="white" stroke="black" points="104,-67.5 104,-86.5 232,-86.5 232,-67.5 104,-67.5"/>
<text text-anchor="middle" x="168" y="-74.5" font-family="Helvetica,sans-Serif" font-size="10.00">ABLMeanBoussinesq.H</text>
</a>
</g>
</g>
<!-- Node1&#45;&gt;Node2 -->
<g id="edge1" class="edge">
<title>Node1&#45;&gt;Node2</title>
<path fill="none" stroke="midnightblue" d="M852.58,-238.12C780.97,-231.56 669.22,-219.14 574,-199 426.13,-167.73 254.04,-108.69 191.9,-86.62"/>
<polygon fill="midnightblue" stroke="midnightblue" points="852.58,-241.63 862.85,-239.04 853.21,-234.66 852.58,-241.63"/>
</g>
<!-- Node5 -->
<g id="node5" class="node">
<title>Node5</title>
<g id="a_node5"><a xlink:href="_hurricane_forcing_8_h.html" target="_top" xlink:title=" ">
<polygon fill="white" stroke="black" points="250,-67.5 250,-86.5 360,-86.5 360,-67.5 250,-67.5"/>
<text text-anchor="middle" x="305" y="-74.5" font-family="Helvetica,sans-Serif" font-size="10.00">HurricaneForcing.H</text>
</a>
</g>
</g>
<!-- Node1&#45;&gt;Node5 -->
<g id="edge4" class="edge">
<title>Node1&#45;&gt;Node5</title>
<path fill="none" stroke="midnightblue" d="M852.78,-235.85C796.07,-228.67 715.84,-216.58 647,-199 521.6,-166.98 377.15,-108.4 325.04,-86.53"/>
<polygon fill="midnightblue" stroke="midnightblue" points="852.37,-239.33 862.73,-237.1 853.24,-232.38 852.37,-239.33"/>
</g>
<!-- Node7 -->
<g id="node7" class="node">
<title>Node7</title>
<g id="a_node7"><a xlink:href="_field_plane_averaging_8cpp.html" target="_top" xlink:title=" ">
<polygon fill="white" stroke="black" points="1332,-179.5 1332,-198.5 1468,-198.5 1468,-179.5 1332,-179.5"/>
<text text-anchor="middle" x="1400" y="-186.5" font-family="Helvetica,sans-Serif" font-size="10.00">FieldPlaneAveraging.cpp</text>
</a>
</g>
</g>
<!-- Node1&#45;&gt;Node7 -->
<g id="edge7" class="edge">
<title>Node1&#45;&gt;Node7</title>
<path fill="none" stroke="midnightblue" d="M999.69,-235.73C1079.4,-226.76 1210.23,-211.98 1323,-199 1325.94,-198.66 1328.95,-198.31 1331.98,-197.96"/>
<polygon fill="midnightblue" stroke="midnightblue" points="998.81,-232.3 989.26,-236.9 999.59,-239.26 998.81,-232.3"/>
</g>
<!-- Node8 -->
<g id="node8" class="node">
<title>Node8</title>
<g id="a_node8"><a xlink:href="_second_moment_averaging_8_h.html" target="_top" xlink:title=" ">
<polygon fill="white" stroke="black" points="1002,-179.5 1002,-198.5 1154,-198.5 1154,-179.5 1002,-179.5"/>
<text text-anchor="middle" x="1078" y="-186.5" font-family="Helvetica,sans-Serif" font-size="10.00">SecondMomentAveraging.H</text>
</a>
</g>
</g>
<!-- Node1&#45;&gt;Node8 -->
<g id="edge8" class="edge">
<title>Node1&#45;&gt;Node8</title>
<path fill="none" stroke="midnightblue" d="M959.67,-232.04C988.27,-221.88 1028.61,-207.55 1054.03,-198.52"/>
<polygon fill="midnightblue" stroke="midnightblue" points="958.34,-228.8 950.08,-235.44 960.68,-235.39 958.34,-228.8"/>
</g>
<!-- Node10 -->
<g id="node10" class="node">
<title>Node10</title>
<g id="a_node10"><a xlink:href="_a_b_l_stats_8_h.html" target="_top" xlink:title=" ">
<polygon fill="white" stroke="black" points="964.5,-67.5 964.5,-86.5 1035.5,-86.5 1035.5,-67.5 964.5,-67.5"/>
<text text-anchor="middle" x="1000" y="-74.5" font-family="Helvetica,sans-Serif" font-size="10.00">ABLStats.H</text>
</a>
</g>
</g>
<!-- Node1&#45;&gt;Node10 -->
<g id="edge27" class="edge">
<title>Node1&#45;&gt;Node10</title>
<path fill="none" stroke="midnightblue" d="M934.09,-225.86C949.96,-190.25 984.64,-112.45 996.18,-86.57"/>
<polygon fill="midnightblue" stroke="midnightblue" points="930.85,-224.52 929.98,-235.08 937.25,-227.37 930.85,-224.52"/>
</g>
<!-- Node12 -->
<g id="node12" class="node">
<title>Node12</title>
<g id="a_node12"><a xlink:href="_third_moment_averaging_8_h.html" target="_top" xlink:title=" ">
<polygon fill="white" stroke="black" points="1172.5,-179.5 1172.5,-198.5 1313.5,-198.5 1313.5,-179.5 1172.5,-179.5"/>
<text text-anchor="middle" x="1243" y="-186.5" font-family="Helvetica,sans-Serif" font-size="10.00">ThirdMomentAveraging.H</text>
</a>
</g>
</g>
<!-- Node1&#45;&gt;Node12 -->
<g id="edge12" class="edge">
<title>Node1&#45;&gt;Node12</title>
<path fill="none" stroke="midnightblue" d="M986.3,-233.73C1046.21,-223.52 1136.99,-208.06 1193.01,-198.52"/>
<polygon fill="midnightblue" stroke="midnightblue" points="985.5,-230.31 976.23,-235.44 986.68,-237.21 985.5,-230.31"/>
</g>
<!-- Node14 -->
<g id="node14" class="node">
<title>Node14</title>
<g id="a_node14"><a xlink:href="_a_b_l_8_h.html" target="_top" xlink:title=" ">
<polygon fill="white" stroke="black" points="586,-67.5 586,-86.5 632,-86.5 632,-67.5 586,-67.5"/>
<text text-anchor="middle" x="609" y="-74.5" font-family="Helvetica,sans-Serif" font-size="10.00">ABL.H</text>
</a>
</g>
</g>
<!-- Node1&#45;&gt;Node14 -->
<g id="edge15" class="edge">
<title>Node1&#45;&gt;Node14</title>
<path fill="none" stroke="midnightblue" d="M852.59,-243.22C778.42,-238.05 667.02,-217.37 611,-143 598.5,-126.41 602.94,-100.09 606.42,-86.6"/>
<polygon fill="midnightblue" stroke="midnightblue" points="852.6,-246.72 862.8,-243.85 853.04,-239.74 852.6,-246.72"/>
</g>
<!-- Node23 -->
<g id="node23" class="node">
<title>Node23</title>
<g id="a_node23"><a xlink:href="_a_b_l_wall_function_8_h.html" target="_top" xlink:title=" ">
<polygon fill="white" stroke="black" points="803.5,-179.5 803.5,-198.5 910.5,-198.5 910.5,-179.5 803.5,-179.5"/>
<text text-anchor="middle" x="857" y="-186.5" font-family="Helvetica,sans-Serif" font-size="10.00">ABLWallFunction.H</text>
</a>
</g>
</g>
<!-- Node1&#45;&gt;Node23 -->
<g id="edge28" class="edge">
<title>Node1&#45;&gt;Node23</title>
<path fill="none" stroke="midnightblue" d="M906.96,-229.1C894.54,-219.38 878.76,-207.03 868.29,-198.83"/>
<polygon fill="midnightblue" stroke="midnightblue" points="904.88,-231.92 914.91,-235.32 909.2,-226.4 904.88,-231.92"/>
</g>
<!-- Node3 -->
<g id="node3" class="node">
<title>Node3</title>
<g id="a_node3"><a xlink:href="_a_b_l_mean_boussinesq_8cpp.html" target="_top" xlink:title=" ">
<polygon fill="white" stroke="black" points="0,-6 0,-25 138,-25 138,-6 0,-6"/>
<text text-anchor="middle" x="69" y="-13" font-family="Helvetica,sans-Serif" font-size="10.00">ABLMeanBoussinesq.cpp</text>
</a>
</g>
</g>
<!-- Node2&#45;&gt;Node3 -->
<g id="edge2" class="edge">
<title>Node2&#45;&gt;Node3</title>
<path fill="none" stroke="midnightblue" d="M145.11,-62.24C125.99,-50.75 99.32,-34.72 83.16,-25.01"/>
<polygon fill="midnightblue" stroke="midnightblue" points="143.44,-65.32 153.82,-67.48 147.05,-59.32 143.44,-65.32"/>
</g>
<!-- Node4 -->
<g id="node4" class="node">
<title>Node4</title>
<g id="a_node4"><a xlink:href="_a_b_l_8cpp.html" target="_top" xlink:title=" ">
<polygon fill="white" stroke="black" points="156,-6 156,-25 212,-25 212,-6 156,-6"/>
<text text-anchor="middle" x="184" y="-13" font-family="Helvetica,sans-Serif" font-size="10.00">ABL.cpp</text>
</a>
</g>
</g>
<!-- Node2&#45;&gt;Node4 -->
<g id="edge3" class="edge">
<title>Node2&#45;&gt;Node4</title>
<path fill="none" stroke="midnightblue" d="M172.93,-57.66C175.86,-46.77 179.43,-33.49 181.71,-25.01"/>
<polygon fill="midnightblue" stroke="midnightblue" points="169.51,-56.91 170.29,-67.48 176.27,-58.73 169.51,-56.91"/>
</g>
<!-- Node5&#45;&gt;Node4 -->
<g id="edge6" class="edge">
<title>Node5&#45;&gt;Node4</title>
<path fill="none" stroke="midnightblue" d="M278.61,-63.02C255.14,-51.48 221.51,-34.94 201.3,-25.01"/>
<polygon fill="midnightblue" stroke="midnightblue" points="277.15,-66.2 287.66,-67.48 280.23,-59.92 277.15,-66.2"/>
</g>
<!-- Node6 -->
<g id="node6" class="node">
<title>Node6</title>
<g id="a_node6"><a xlink:href="_hurricane_forcing_8cpp.html" target="_top" xlink:title=" ">
<polygon fill="white" stroke="black" points="230.5,-6 230.5,-25 349.5,-25 349.5,-6 230.5,-6"/>
<text text-anchor="middle" x="290" y="-13" font-family="Helvetica,sans-Serif" font-size="10.00">HurricaneForcing.cpp</text>
</a>
</g>
</g>
<!-- Node5&#45;&gt;Node6 -->
<g id="edge5" class="edge">
<title>Node5&#45;&gt;Node6</title>
<path fill="none" stroke="midnightblue" d="M300.38,-57.66C297.63,-46.77 294.28,-33.49 292.15,-25.01"/>
<polygon fill="midnightblue" stroke="midnightblue" points="297.01,-58.63 302.85,-67.48 303.8,-56.92 297.01,-58.63"/>
</g>
<!-- Node9 -->
<g id="node9" class="node">
<title>Node9</title>
<g id="a_node9"><a xlink:href="_second_moment_averaging_8cpp.html" target="_top" xlink:title=" ">
<polygon fill="white" stroke="black" points="1047.5,-123.5 1047.5,-142.5 1208.5,-142.5 1208.5,-123.5 1047.5,-123.5"/>
<text text-anchor="middle" x="1128" y="-130.5" font-family="Helvetica,sans-Serif" font-size="10.00">SecondMomentAveraging.cpp</text>
</a>
</g>
</g>
<!-- Node8&#45;&gt;Node9 -->
<g id="edge9" class="edge">
<title>Node8&#45;&gt;Node9</title>
<path fill="none" stroke="midnightblue" d="M1093.08,-171.72C1101.89,-162.2 1112.67,-150.56 1119.9,-142.75"/>
<polygon fill="midnightblue" stroke="midnightblue" points="1090.48,-169.37 1086.26,-179.08 1095.62,-174.12 1090.48,-169.37"/>
</g>
<!-- Node8&#45;&gt;Node10 -->
<g id="edge10" class="edge">
<title>Node8&#45;&gt;Node10</title>
<path fill="none" stroke="midnightblue" d="M1062.84,-171.9C1055.31,-163.56 1046.28,-153.04 1039,-143 1025.1,-123.82 1011.46,-99.48 1004.59,-86.71"/>
<polygon fill="midnightblue" stroke="midnightblue" points="1060.41,-174.42 1069.76,-179.41 1065.56,-169.68 1060.41,-174.42"/>
</g>
<!-- Node11 -->
<g id="node11" class="node">
<title>Node11</title>
<g id="a_node11"><a xlink:href="_a_b_l_stats_8cpp.html" target="_top" xlink:title=" ">
<polygon fill="white" stroke="black" points="1294,-6 1294,-25 1374,-25 1374,-6 1294,-6"/>
<text text-anchor="middle" x="1334" y="-13" font-family="Helvetica,sans-Serif" font-size="10.00">ABLStats.cpp</text>
</a>
</g>
</g>
<!-- Node10&#45;&gt;Node11 -->
<g id="edge11" class="edge">
<title>Node10&#45;&gt;Node11</title>
<path fill="none" stroke="midnightblue" d="M1045.89,-70.64C1102.51,-63.59 1201.51,-49.86 1285,-31 1292.36,-29.34 1300.23,-27.18 1307.46,-25.04"/>
<polygon fill="midnightblue" stroke="midnightblue" points="1045.33,-67.18 1035.83,-71.87 1046.18,-74.13 1045.33,-67.18"/>
</g>
<!-- Node12&#45;&gt;Node10 -->
<g id="edge14" class="edge">
<title>Node12&#45;&gt;Node10</title>
<path fill="none" stroke="midnightblue" d="M1240.7,-169.3C1237.89,-154.55 1231.66,-134.59 1218,-123 1190.89,-100 1090.13,-86.81 1035.6,-81.22"/>
<polygon fill="midnightblue" stroke="midnightblue" points="1237.27,-170 1242.26,-179.34 1244.19,-168.92 1237.27,-170"/>
</g>
<!-- Node13 -->
<g id="node13" class="node">
<title>Node13</title>
<g id="a_node13"><a xlink:href="_third_moment_averaging_8cpp.html" target="_top" xlink:title=" ">
<polygon fill="white" stroke="black" points="1265.5,-123.5 1265.5,-142.5 1416.5,-142.5 1416.5,-123.5 1265.5,-123.5"/>
<text text-anchor="middle" x="1341" y="-130.5" font-family="Helvetica,sans-Serif" font-size="10.00">ThirdMomentAveraging.cpp</text>
</a>
</g>
</g>
<!-- Node12&#45;&gt;Node13 -->
<g id="edge13" class="edge">
<title>Node12&#45;&gt;Node13</title>
<path fill="none" stroke="midnightblue" d="M1267.59,-174.45C1285.68,-164.48 1309.73,-151.23 1325.29,-142.65"/>
<polygon fill="midnightblue" stroke="midnightblue" points="1265.81,-171.43 1258.75,-179.32 1269.19,-177.56 1265.81,-171.43"/>
</g>
<!-- Node14&#45;&gt;Node3 -->
<g id="edge17" class="edge">
<title>Node14&#45;&gt;Node3</title>
<path fill="none" stroke="midnightblue" d="M575.44,-73.73C499.1,-68.36 306.71,-53.58 147,-31 135.41,-29.36 122.91,-27.21 111.4,-25.07"/>
<polygon fill="midnightblue" stroke="midnightblue" points="575.62,-77.25 585.84,-74.46 576.11,-70.27 575.62,-77.25"/>
</g>
<!-- Node14&#45;&gt;Node4 -->
<g id="edge25" class="edge">
<title>Node14&#45;&gt;Node4</title>
<path fill="none" stroke="midnightblue" d="M575.83,-75.03C508.14,-72.41 349.66,-63.1 221,-31 215.11,-29.53 208.9,-27.36 203.28,-25.14"/>
<polygon fill="midnightblue" stroke="midnightblue" points="575.77,-78.53 585.89,-75.39 576.02,-71.53 575.77,-78.53"/>
</g>
<!-- Node14&#45;&gt;Node6 -->
<g id="edge19" class="edge">
<title>Node14&#45;&gt;Node6</title>
<path fill="none" stroke="midnightblue" d="M575.61,-70.37C527.46,-62.17 435.75,-46.25 358,-31 348.52,-29.14 338.33,-27.03 328.79,-25"/>
<polygon fill="midnightblue" stroke="midnightblue" points="575.32,-73.87 585.77,-72.1 576.49,-66.97 575.32,-73.87"/>
</g>
<!-- Node15 -->
<g id="node15" class="node">
<title>Node15</title>
<g id="a_node15"><a xlink:href="_a_b_l_forcing_8cpp.html" target="_top" xlink:title=" ">
<polygon fill="white" stroke="black" points="563.5,-6 563.5,-25 654.5,-25 654.5,-6 563.5,-6"/>
<text text-anchor="middle" x="609" y="-13" font-family="Helvetica,sans-Serif" font-size="10.00">ABLForcing.cpp</text>
</a>
</g>
</g>
<!-- Node14&#45;&gt;Node15 -->
<g id="edge16" class="edge">
<title>Node14&#45;&gt;Node15</title>
<path fill="none" stroke="midnightblue" d="M609,-57.32C609,-46.5 609,-33.4 609,-25.01"/>
<polygon fill="midnightblue" stroke="midnightblue" points="605.5,-57.48 609,-67.48 612.5,-57.48 605.5,-57.48"/>
</g>
<!-- Node16 -->
<g id="node16" class="node">
<title>Node16</title>
<g id="a_node16"><a xlink:href="_a_b_l_meso_forcing_mom_8cpp.html" target="_top" xlink:title=" ">
<polygon fill="white" stroke="black" points="673,-6 673,-25 815,-25 815,-6 673,-6"/>
<text text-anchor="middle" x="744" y="-13" font-family="Helvetica,sans-Serif" font-size="10.00">ABLMesoForcingMom.cpp</text>
</a>
</g>
</g>
<!-- Node14&#45;&gt;Node16 -->
<g id="edge18" class="edge">
<title>Node14&#45;&gt;Node16</title>
<path fill="none" stroke="midnightblue" d="M637.75,-63.33C663.96,-51.78 701.95,-35.03 724.69,-25.01"/>
<polygon fill="midnightblue" stroke="midnightblue" points="636.08,-60.24 628.34,-67.48 638.9,-66.64 636.08,-60.24"/>
</g>
<!-- Node17 -->
<g id="node17" class="node">
<title>Node17</title>
<g id="a_node17"><a xlink:href="_a_b_l_meso_forcing_temp_8cpp.html" target="_top" xlink:title=" ">
<polygon fill="white" stroke="black" points="833.5,-6 833.5,-25 976.5,-25 976.5,-6 833.5,-6"/>
<text text-anchor="middle" x="905" y="-13" font-family="Helvetica,sans-Serif" font-size="10.00">ABLMesoForcingTemp.cpp</text>
</a>
</g>
</g>
<!-- Node14&#45;&gt;Node17 -->
<g id="edge20" class="edge">
<title>Node14&#45;&gt;Node17</title>
<path fill="none" stroke="midnightblue" d="M642.3,-69.31C696.34,-58.44 803.06,-36.99 862.5,-25.04"/>
<polygon fill="midnightblue" stroke="midnightblue" points="641.34,-65.93 632.23,-71.33 642.72,-72.79 641.34,-65.93"/>
</g>
<!-- Node18 -->
<g id="node18" class="node">
<title>Node18</title>
<g id="a_node18"><a xlink:href="helics_8cpp.html" target="_top" xlink:title=" ">
<polygon fill="white" stroke="black" points="994.5,-6 994.5,-25 1059.5,-25 1059.5,-6 994.5,-6"/>
<text text-anchor="middle" x="1027" y="-13" font-family="Helvetica,sans-Serif" font-size="10.00">helics.cpp</text>
</a>
</g>
</g>
<!-- Node14&#45;&gt;Node18 -->
<g id="edge21" class="edge">
<title>Node14&#45;&gt;Node18</title>
<path fill="none" stroke="midnightblue" d="M642.52,-74.49C708.88,-70.95 861.35,-60.1 986,-31 992.47,-29.49 999.34,-27.3 1005.56,-25.09"/>
<polygon fill="midnightblue" stroke="midnightblue" points="642.07,-71.01 632.26,-75.01 642.42,-78 642.07,-71.01"/>
</g>
<!-- Node19 -->
<g id="node19" class="node">
<title>Node19</title>
<g id="a_node19"><a xlink:href="incflo_8cpp.html" target="_top" xlink:title=" ">
<polygon fill="white" stroke="black" points="1077.5,-6 1077.5,-25 1140.5,-25 1140.5,-6 1077.5,-6"/>
<text text-anchor="middle" x="1109" y="-13" font-family="Helvetica,sans-Serif" font-size="10.00">incflo.cpp</text>
</a>
</g>
</g>
<!-- Node14&#45;&gt;Node19 -->
<g id="edge22" class="edge">
<title>Node14&#45;&gt;Node19</title>
<path fill="none" stroke="midnightblue" d="M642.76,-75.57C719.46,-73.98 912.35,-66.46 1069,-31 1075.48,-29.53 1082.35,-27.3 1088.53,-25.03"/>
<polygon fill="midnightblue" stroke="midnightblue" points="642.23,-72.08 632.3,-75.77 642.36,-79.08 642.23,-72.08"/>
</g>
<!-- Node20 -->
<g id="node20" class="node">
<title>Node20</title>
<g id="a_node20"><a xlink:href="incflo__apply__nodal__projection_8cpp.html" target="_top" xlink:title=" ">
<polygon fill="white" stroke="black" points="367.5,-0.5 367.5,-30.5 474.5,-30.5 474.5,-0.5 367.5,-0.5"/>
<text text-anchor="start" x="375.5" y="-18.5" font-family="Helvetica,sans-Serif" font-size="10.00">incflo_apply_nodal</text>
<text text-anchor="middle" x="421" y="-7.5" font-family="Helvetica,sans-Serif" font-size="10.00">_projection.cpp</text>
</a>
</g>
</g>
<!-- Node14&#45;&gt;Node20 -->
<g id="edge23" class="edge">
<title>Node14&#45;&gt;Node20</title>
<path fill="none" stroke="midnightblue" d="M576.17,-65.61C545.47,-55.89 499.39,-41.31 465.42,-30.56"/>
<polygon fill="midnightblue" stroke="midnightblue" points="575.36,-69.02 585.95,-68.7 577.47,-62.35 575.36,-69.02"/>
</g>
<!-- Node21 -->
<g id="node21" class="node">
<title>Node21</title>
<g id="a_node21"><a xlink:href="init_8cpp.html" target="_top" xlink:title=" ">
<polygon fill="white" stroke="black" points="492.5,-6 492.5,-25 545.5,-25 545.5,-6 492.5,-6"/>
<text text-anchor="middle" x="519" y="-13" font-family="Helvetica,sans-Serif" font-size="10.00">init.cpp</text>
</a>
</g>
</g>
<!-- Node14&#45;&gt;Node21 -->
<g id="edge24" class="edge">
<title>Node14&#45;&gt;Node21</title>
<path fill="none" stroke="midnightblue" d="M587.72,-61.93C570.37,-50.46 546.43,-34.63 531.87,-25.01"/>
<polygon fill="midnightblue" stroke="midnightblue" points="585.83,-64.88 596.11,-67.48 589.69,-59.04 585.83,-64.88"/>
</g>
<!-- Node22 -->
<g id="node22" class="node">
<title>Node22</title>
<g id="a_node22"><a xlink:href="_a_b_l_wall_function_8cpp.html" target="_top" xlink:title=" ">
<polygon fill="white" stroke="black" points="1158.5,-6 1158.5,-25 1275.5,-25 1275.5,-6 1158.5,-6"/>
<text text-anchor="middle" x="1217" y="-13" font-family="Helvetica,sans-Serif" font-size="10.00">ABLWallFunction.cpp</text>
</a>
</g>
</g>
<!-- Node14&#45;&gt;Node22 -->
<g id="edge26" class="edge">
<title>Node14&#45;&gt;Node22</title>
<path fill="none" stroke="midnightblue" d="M642.13,-74.75C726.98,-71.21 958.92,-59.5 1150,-31 1160.36,-29.46 1171.51,-27.26 1181.69,-25.04"/>
<polygon fill="midnightblue" stroke="midnightblue" points="641.91,-71.25 632.06,-75.16 642.2,-78.25 641.91,-71.25"/>
</g>
<!-- Node23&#45;&gt;Node10 -->
<g id="edge31" class="edge">
<title>Node23&#45;&gt;Node10</title>
<path fill="none" stroke="midnightblue" d="M877.64,-173.4C889.79,-164.71 905.39,-153.39 919,-143 944.8,-123.31 974.36,-99.17 989.64,-86.58"/>
<polygon fill="midnightblue" stroke="midnightblue" points="875.6,-170.56 869.48,-179.21 879.66,-176.26 875.6,-170.56"/>
</g>
<!-- Node23&#45;&gt;Node14 -->
<g id="edge30" class="edge">
<title>Node23&#45;&gt;Node14</title>
<path fill="none" stroke="midnightblue" d="M793.32,-182.85C734.17,-176.79 651.75,-164.7 628,-143 611.85,-128.25 609.14,-100.62 608.86,-86.61"/>
<polygon fill="midnightblue" stroke="midnightblue" points="793.04,-186.34 803.33,-183.84 793.73,-179.37 793.04,-186.34"/>
</g>
<!-- Node23&#45;&gt;Node22 -->
<g id="edge35" class="edge">
<title>Node23&#45;&gt;Node22</title>
<path fill="none" stroke="midnightblue" d="M868.52,-171.22C889.46,-141.2 933.67,-80.21 956,-67 1031.47,-22.34 1064.02,-48.28 1150,-31 1159.22,-29.15 1169.13,-27.06 1178.42,-25.05"/>
<polygon fill="midnightblue" stroke="midnightblue" points="865.63,-169.24 862.82,-179.45 871.39,-173.22 865.63,-169.24"/>
</g>
<!-- Node24 -->
<g id="node24" class="node">
<title>Node24</title>
<g id="a_node24"><a xlink:href="_boussinesq_bubble_8cpp.html" target="_top" xlink:title=" ">
<polygon fill="white" stroke="black" points="637,-123.5 637,-142.5 763,-142.5 763,-123.5 637,-123.5"/>
<text text-anchor="middle" x="700" y="-130.5" font-family="Helvetica,sans-Serif" font-size="10.00">BoussinesqBubble.cpp</text>
</a>
</g>
</g>
<!-- Node23&#45;&gt;Node24 -->
<g id="edge29" class="edge">
<title>Node23&#45;&gt;Node24</title>
<path fill="none" stroke="midnightblue" d="M822.61,-176.17C793.05,-166 751.13,-151.59 724.76,-142.52"/>
<polygon fill="midnightblue" stroke="midnightblue" points="821.53,-179.5 832.12,-179.44 823.8,-172.88 821.53,-179.5"/>
</g>
<!-- Node25 -->
<g id="node25" class="node">
<title>Node25</title>
<g id="a_node25"><a xlink:href="_a_b_l_stats_base_8_h.html" target="_top" xlink:title=" ">
<polygon fill="white" stroke="black" points="781.5,-123.5 781.5,-142.5 876.5,-142.5 876.5,-123.5 781.5,-123.5"/>
<text text-anchor="middle" x="829" y="-130.5" font-family="Helvetica,sans-Serif" font-size="10.00">ABLStatsBase.H</text>
</a>
</g>
</g>
<!-- Node23&#45;&gt;Node25 -->
<g id="edge32" class="edge">
<title>Node23&#45;&gt;Node25</title>
<path fill="none" stroke="midnightblue" d="M847.66,-169.98C842.91,-160.82 837.34,-150.09 833.54,-142.75"/>
<polygon fill="midnightblue" stroke="midnightblue" points="844.67,-171.82 852.38,-179.08 850.88,-168.59 844.67,-171.82"/>
</g>
<!-- Node25&#45;&gt;Node10 -->
<g id="edge34" class="edge">
<title>Node25&#45;&gt;Node10</title>
<path fill="none" stroke="midnightblue" d="M866.04,-120.3C898.26,-110.13 944.19,-95.62 973.03,-86.52"/>
<polygon fill="midnightblue" stroke="midnightblue" points="864.58,-117.09 856.1,-123.44 866.69,-123.77 864.58,-117.09"/>
</g>
<!-- Node25&#45;&gt;Node14 -->
<g id="edge33" class="edge">
<title>Node25&#45;&gt;Node14</title>
<path fill="none" stroke="midnightblue" d="M784.41,-121.06C738.36,-109.75 668.28,-92.55 632.22,-83.7"/>
<polygon fill="midnightblue" stroke="midnightblue" points="783.59,-124.46 794.14,-123.44 785.26,-117.66 783.59,-124.46"/>
</g>
</g>
</svg>
        <g id="navigator" transform="translate(0 0)" fill="#404254">
                <rect fill="#f2f5e9" fill-opacity="0.5" stroke="#606060" stroke-width=".5" x="0" y="0" width="60" height="60"/>
                <use id="zoomplus" xlink:href="#zoomPlus" x="17" y="9" onmousedown="handleZoom(evt,'in')"/>
                <use id="zoomminus" xlink:href="#zoomMin" x="42" y="9" onmousedown="handleZoom(evt,'out')"/>
                <use id="reset" xlink:href="#resetDef" x="30" y="36" onmousedown="handleReset()"/>
                <g id="arrowUp" xlink:href="#dirArrow" transform="translate(30 24)" onmousedown="handlePan(0,-1)">
                  <use xlink:href="#rim" fill="#404040">
                        <set attributeName="fill" to="#808080" begin="arrowUp.mouseover" end="arrowUp.mouseout"/>
                  </use>
                  <path fill="none" stroke="white" stroke-width="1.5" d="M0,-3.0v7 M-2.5,-0.5L0,-3.0L2.5,-0.5"/>
                </g>
                <g id="arrowRight" xlink:href="#dirArrow" transform="rotate(90) translate(36 -43)" onmousedown="handlePan(1,0)">
                  <use xlink:href="#rim" fill="#404040">
                        <set attributeName="fill" to="#808080" begin="arrowRight.mouseover" end="arrowRight.mouseout"/>
                  </use>
                  <path fill="none" stroke="white" stroke-width="1.5" d="M0,-3.0v7 M-2.5,-0.5L0,-3.0L2.5,-0.5"/>
                </g>
                <g id="arrowDown" xlink:href="#dirArrow" transform="rotate(180) translate(-30 -48)" onmousedown="handlePan(0,1)">
                  <use xlink:href="#rim" fill="#404040">
                        <set attributeName="fill" to="#808080" begin="arrowDown.mouseover" end="arrowDown.mouseout"/>
                  </use>
                  <path fill="none" stroke="white" stroke-width="1.5" d="M0,-3.0v7 M-2.5,-0.5L0,-3.0L2.5,-0.5"/>
                </g>
                <g id="arrowLeft" xlink:href="#dirArrow" transform="rotate(270) translate(-36 17)" onmousedown="handlePan(-1,0)">
                  <use xlink:href="#rim" fill="#404040">
                        <set attributeName="fill" to="#808080" begin="arrowLeft.mouseover" end="arrowLeft.mouseout"/>
                  </use>
                  <path fill="none" stroke="white" stroke-width="1.5" d="M0,-3.0v7 M-2.5,-0.5L0,-3.0L2.5,-0.5"/>
                </g>
        </g>
        <svg viewBox="0 0 15 15" width="100%" height="30px" preserveAspectRatio="xMaxYMin meet">
         <g id="arrow_out" transform="scale(0.3 0.3)">
          <a xlink:href="_field_plane_averaging_8_h__dep__incl_org.svg" target="_base">
           <rect id="button" ry="5" rx="5" y="6" x="6" height="38" width="38"
                fill="#f2f5e9" fill-opacity="0.5" stroke="#606060" stroke-width="1.0"/>
           <path id="arrow"
             d="M 11.500037,31.436501 C 11.940474,20.09759 22.043105,11.32322 32.158766,21.979434 L 37.068811,17.246167 C 37.068811,17.246167 37.088388,32 37.088388,32 L 22.160133,31.978069 C 22.160133,31.978069 26.997745,27.140456 26.997745,27.140456 C 18.528582,18.264221 13.291696,25.230495 11.500037,31.436501 z"
             style="fill:#404040;"/>
          </a>
         </g>
        </svg>
</svg>
