<?xml version="1.0" encoding="UTF-8" standalone="no"?>
<!DOCTYPE svg PUBLIC "-//W3C//DTD SVG 1.1//EN"
 "http://www.w3.org/Graphics/SVG/1.1/DTD/svg11.dtd">
<!-- Generated by graphviz version 2.43.0 (0)
 -->
<!-- Title: IntScratchField.H Pages: 1 -->
<svg width="3921pt" height="196pt"
 viewBox="0.00 0.00 3920.50 196.00" xmlns="http://www.w3.org/2000/svg" xmlns:xlink="http://www.w3.org/1999/xlink">
<g id="graph0" class="graph" transform="scale(1 1) rotate(0) translate(4 192)">
<title>IntScratchField.H</title>
<polygon fill="white" stroke="transparent" points="-4,4 -4,-192 3916.5,-192 3916.5,4 -4,4"/>
<!-- Node1 -->
<g id="node1" class="node">
<title>Node1</title>
<g id="a_node1"><a xlink:title=" ">
<polygon fill="#bfbfbf" stroke="black" points="872,-168.5 872,-187.5 971,-187.5 971,-168.5 872,-168.5"/>
<text text-anchor="middle" x="921.5" y="-175.5" font-family="Helvetica,sans-Serif" font-size="10.00">IntScratchField.H</text>
</a>
</g>
</g>
<!-- Node2 -->
<g id="node2" class="node">
<title>Node2</title>
<g id="a_node2"><a xlink:href="_field_repo_8_h.html" target="_top" xlink:title=" ">
<polygon fill="white" stroke="red" points="1750,-112.5 1750,-131.5 1825,-131.5 1825,-112.5 1750,-112.5"/>
<text text-anchor="middle" x="1787.5" y="-119.5" font-family="Helvetica,sans-Serif" font-size="10.00">FieldRepo.H</text>
</a>
</g>
</g>
<!-- Node1&#45;&gt;Node2 -->
<g id="edge1" class="edge">
<title>Node1&#45;&gt;Node2</title>
<path fill="none" stroke="midnightblue" d="M981.23,-173.28C1147.7,-162.89 1613.61,-133.84 1749.72,-125.36"/>
<polygon fill="midnightblue" stroke="midnightblue" points="980.93,-169.79 971.17,-173.9 981.37,-176.77 980.93,-169.79"/>
</g>
<!-- Node249 -->
<g id="node18" class="node">
<title>Node249</title>
<g id="a_node18"><a xlink:href="_int_scratch_field_8cpp.html" target="_top" xlink:title=" ">
<polygon fill="white" stroke="black" points="0,-56.5 0,-75.5 109,-75.5 109,-56.5 0,-56.5"/>
<text text-anchor="middle" x="54.5" y="-63.5" font-family="Helvetica,sans-Serif" font-size="10.00">IntScratchField.cpp</text>
</a>
</g>
</g>
<!-- Node1&#45;&gt;Node249 -->
<g id="edge70" class="edge">
<title>Node1&#45;&gt;Node249</title>
<path fill="none" stroke="midnightblue" d="M861.64,-169.77C728.17,-153.6 396.09,-112.97 118.5,-76 115.5,-75.6 112.42,-75.18 109.31,-74.76"/>
<polygon fill="midnightblue" stroke="midnightblue" points="861.31,-173.26 871.66,-170.99 862.16,-166.31 861.31,-173.26"/>
</g>
<!-- Node3 -->
<g id="node3" class="node">
<title>Node3</title>
<g id="a_node3"><a xlink:href="_b_c_interface_8cpp.html" target="_top" xlink:title=" ">
<polygon fill="white" stroke="black" points="1253.5,-0.5 1253.5,-19.5 1347.5,-19.5 1347.5,-0.5 1253.5,-0.5"/>
<text text-anchor="middle" x="1300.5" y="-7.5" font-family="Helvetica,sans-Serif" font-size="10.00">BCInterface.cpp</text>
</a>
</g>
</g>
<!-- Node2&#45;&gt;Node3 -->
<g id="edge2" class="edge">
<title>Node2&#45;&gt;Node3</title>
<path fill="none" stroke="midnightblue" d="M1739.74,-120.44C1556.68,-118.06 908.42,-107.44 878.5,-76 825.74,-20.56 1132.68,-12.27 1253.35,-11.13"/>
<polygon fill="midnightblue" stroke="midnightblue" points="1739.83,-123.94 1749.87,-120.57 1739.92,-116.94 1739.83,-123.94"/>
</g>
<!-- Node4 -->
<g id="node4" class="node">
<title>Node4</title>
<g id="a_node4"><a xlink:href="_fixed_gradient_b_c_8_h.html" target="_top" xlink:title=" ">
<polygon fill="white" stroke="red" points="1854.5,-56.5 1854.5,-75.5 1962.5,-75.5 1962.5,-56.5 1854.5,-56.5"/>
<text text-anchor="middle" x="1908.5" y="-63.5" font-family="Helvetica,sans-Serif" font-size="10.00">FixedGradientBC.H</text>
</a>
</g>
</g>
<!-- Node2&#45;&gt;Node4 -->
<g id="edge3" class="edge">
<title>Node2&#45;&gt;Node4</title>
<path fill="none" stroke="midnightblue" d="M1815.81,-108.37C1838.47,-98.26 1869.63,-84.35 1889.42,-75.52"/>
<polygon fill="midnightblue" stroke="midnightblue" points="1814.38,-105.17 1806.67,-112.44 1817.23,-111.56 1814.38,-105.17"/>
</g>
<!-- Node6 -->
<g id="node5" class="node">
<title>Node6</title>
<g id="a_node5"><a xlink:href="velocity__bcs_8_h.html" target="_top" xlink:title=" ">
<polygon fill="white" stroke="red" points="229.5,-56.5 229.5,-75.5 317.5,-75.5 317.5,-56.5 229.5,-56.5"/>
<text text-anchor="middle" x="273.5" y="-63.5" font-family="Helvetica,sans-Serif" font-size="10.00">velocity_bcs.H</text>
</a>
</g>
</g>
<!-- Node2&#45;&gt;Node6 -->
<g id="edge5" class="edge">
<title>Node2&#45;&gt;Node6</title>
<path fill="none" stroke="midnightblue" d="M1739.48,-120.31C1520.38,-117.05 614.1,-102.19 331.5,-76 327.04,-75.59 322.39,-75.05 317.76,-74.44"/>
<polygon fill="midnightblue" stroke="midnightblue" points="1739.64,-123.81 1749.69,-120.46 1739.74,-116.81 1739.64,-123.81"/>
</g>
<!-- Node9 -->
<g id="node6" class="node">
<title>Node9</title>
<g id="a_node6"><a xlink:href="_c_f_d_sim_8_h.html" target="_top" xlink:title=" ">
<polygon fill="white" stroke="red" points="505.5,-56.5 505.5,-75.5 571.5,-75.5 571.5,-56.5 505.5,-56.5"/>
<text text-anchor="middle" x="538.5" y="-63.5" font-family="Helvetica,sans-Serif" font-size="10.00">CFDSim.H</text>
</a>
</g>
</g>
<!-- Node2&#45;&gt;Node9 -->
<g id="edge6" class="edge">
<title>Node2&#45;&gt;Node9</title>
<path fill="none" stroke="midnightblue" d="M1739.57,-120.18C1545.18,-116.69 814.96,-102.11 585.5,-76 580.96,-75.48 576.2,-74.77 571.53,-73.98"/>
<polygon fill="midnightblue" stroke="midnightblue" points="1739.69,-123.68 1749.75,-120.36 1739.82,-116.68 1739.69,-123.68"/>
</g>
<!-- Node62 -->
<g id="node7" class="node">
<title>Node62</title>
<g id="a_node7"><a xlink:href="_p_d_e_base_8cpp.html" target="_top" xlink:title=" ">
<polygon fill="white" stroke="black" points="250.5,-0.5 250.5,-19.5 330.5,-19.5 330.5,-0.5 250.5,-0.5"/>
<text text-anchor="middle" x="290.5" y="-7.5" font-family="Helvetica,sans-Serif" font-size="10.00">PDEBase.cpp</text>
</a>
</g>
</g>
<!-- Node2&#45;&gt;Node62 -->
<g id="edge40" class="edge">
<title>Node2&#45;&gt;Node62</title>
<path fill="none" stroke="midnightblue" d="M1739.76,-120.4C1499.3,-117.24 429.77,-101.78 364.5,-76 334.6,-64.19 308.71,-34.67 297.06,-19.82"/>
<polygon fill="midnightblue" stroke="midnightblue" points="1739.88,-123.9 1749.93,-120.53 1739.97,-116.9 1739.88,-123.9"/>
</g>
<!-- Node80 -->
<g id="node8" class="node">
<title>Node80</title>
<g id="a_node8"><a xlink:href="_i_b_8cpp.html" target="_top" xlink:title=" ">
<polygon fill="white" stroke="black" points="349,-0.5 349,-19.5 396,-19.5 396,-0.5 349,-0.5"/>
<text text-anchor="middle" x="372.5" y="-7.5" font-family="Helvetica,sans-Serif" font-size="10.00">IB.cpp</text>
</a>
</g>
</g>
<!-- Node2&#45;&gt;Node80 -->
<g id="edge52" class="edge">
<title>Node2&#45;&gt;Node80</title>
<path fill="none" stroke="midnightblue" d="M1739.67,-120.95C1517.28,-120.5 590.08,-116.22 467.5,-76 431.8,-64.29 397.3,-34.72 381.49,-19.84"/>
<polygon fill="midnightblue" stroke="midnightblue" points="1739.71,-124.45 1749.72,-120.97 1739.72,-117.45 1739.71,-124.45"/>
</g>
<!-- Node91 -->
<g id="node9" class="node">
<title>Node91</title>
<g id="a_node9"><a xlink:href="incflo_8_h.html" target="_top" xlink:title=" ">
<polygon fill="white" stroke="red" points="414,-0.5 414,-19.5 467,-19.5 467,-0.5 414,-0.5"/>
<text text-anchor="middle" x="440.5" y="-7.5" font-family="Helvetica,sans-Serif" font-size="10.00">incflo.H</text>
</a>
</g>
</g>
<!-- Node2&#45;&gt;Node91 -->
<g id="edge55" class="edge">
<title>Node2&#45;&gt;Node91</title>
<path fill="none" stroke="midnightblue" d="M1739.45,-120.4C1512.17,-117.44 553.51,-103.34 496.5,-76 471.25,-63.89 452.89,-34.51 444.91,-19.76"/>
<polygon fill="midnightblue" stroke="midnightblue" points="1739.67,-123.9 1749.72,-120.53 1739.76,-116.91 1739.67,-123.9"/>
</g>
<!-- Node119 -->
<g id="node10" class="node">
<title>Node119</title>
<g id="a_node10"><a xlink:href="_ocean_waves_8cpp.html" target="_top" xlink:title=" ">
<polygon fill="white" stroke="black" points="718.5,-0.5 718.5,-19.5 818.5,-19.5 818.5,-0.5 718.5,-0.5"/>
<text text-anchor="middle" x="768.5" y="-7.5" font-family="Helvetica,sans-Serif" font-size="10.00">OceanWaves.cpp</text>
</a>
</g>
</g>
<!-- Node2&#45;&gt;Node119 -->
<g id="edge56" class="edge">
<title>Node2&#45;&gt;Node119</title>
<path fill="none" stroke="midnightblue" d="M1739.52,-120.85C1533.31,-119.99 731.16,-114.2 694.5,-76 673.54,-54.16 716.94,-31.45 745.72,-19.51"/>
<polygon fill="midnightblue" stroke="midnightblue" points="1739.71,-124.35 1749.73,-120.89 1739.74,-117.35 1739.71,-124.35"/>
</g>
<!-- Node128 -->
<g id="node11" class="node">
<title>Node128</title>
<g id="a_node11"><a xlink:href="_tioga_interface_8cpp.html" target="_top" xlink:title=" ">
<polygon fill="white" stroke="black" points="485,-0.5 485,-19.5 592,-19.5 592,-0.5 485,-0.5"/>
<text text-anchor="middle" x="538.5" y="-7.5" font-family="Helvetica,sans-Serif" font-size="10.00">TiogaInterface.cpp</text>
</a>
</g>
</g>
<!-- Node2&#45;&gt;Node128 -->
<g id="edge61" class="edge">
<title>Node2&#45;&gt;Node128</title>
<path fill="none" stroke="midnightblue" d="M1739.66,-120.29C1538.95,-117.17 770.28,-103.49 665.5,-76 620.22,-64.12 572.58,-34.35 550.74,-19.59"/>
<polygon fill="midnightblue" stroke="midnightblue" points="1739.83,-123.8 1749.89,-120.45 1739.94,-116.8 1739.83,-123.8"/>
</g>
<!-- Node155 -->
<g id="node12" class="node">
<title>Node155</title>
<g id="a_node12"><a xlink:href="_vortex_ring_8cpp.html" target="_top" xlink:title=" ">
<polygon fill="white" stroke="black" points="610.5,-0.5 610.5,-19.5 700.5,-19.5 700.5,-0.5 610.5,-0.5"/>
<text text-anchor="middle" x="655.5" y="-7.5" font-family="Helvetica,sans-Serif" font-size="10.00">VortexRing.cpp</text>
</a>
</g>
</g>
<!-- Node2&#45;&gt;Node155 -->
<g id="edge68" class="edge">
<title>Node2&#45;&gt;Node155</title>
<path fill="none" stroke="midnightblue" d="M1739.49,-120.43C1533.12,-117.8 729.86,-105.68 685.5,-76 666.08,-63.01 659,-34.04 656.61,-19.57"/>
<polygon fill="midnightblue" stroke="midnightblue" points="1739.66,-123.93 1749.71,-120.56 1739.75,-116.93 1739.66,-123.93"/>
</g>
<!-- Node239 -->
<g id="node13" class="node">
<title>Node239</title>
<g id="a_node13"><a xlink:href="_godunov_8_h.html" target="_top" xlink:title=" ">
<polygon fill="white" stroke="red" points="887.5,-56.5 887.5,-75.5 957.5,-75.5 957.5,-56.5 887.5,-56.5"/>
<text text-anchor="middle" x="922.5" y="-63.5" font-family="Helvetica,sans-Serif" font-size="10.00">Godunov.H</text>
</a>
</g>
</g>
<!-- Node2&#45;&gt;Node239 -->
<g id="edge13" class="edge">
<title>Node2&#45;&gt;Node239</title>
<path fill="none" stroke="midnightblue" d="M1739.53,-120.83C1612.74,-119.84 1258.43,-113.65 966.5,-76 963.72,-75.64 960.85,-75.2 957.97,-74.72"/>
<polygon fill="midnightblue" stroke="midnightblue" points="1739.65,-124.33 1749.68,-120.9 1739.7,-117.33 1739.65,-124.33"/>
</g>
<!-- Node244 -->
<g id="node14" class="node">
<title>Node244</title>
<g id="a_node14"><a xlink:href="_m_o_l_8_h.html" target="_top" xlink:title=" ">
<polygon fill="white" stroke="red" points="976,-56.5 976,-75.5 1025,-75.5 1025,-56.5 976,-56.5"/>
<text text-anchor="middle" x="1000.5" y="-63.5" font-family="Helvetica,sans-Serif" font-size="10.00">MOL.H</text>
</a>
</g>
</g>
<!-- Node2&#45;&gt;Node244 -->
<g id="edge14" class="edge">
<title>Node2&#45;&gt;Node244</title>
<path fill="none" stroke="midnightblue" d="M1739.73,-121.43C1620.11,-121.79 1298.4,-118.38 1034.5,-76 1031.49,-75.52 1028.35,-74.88 1025.26,-74.16"/>
<polygon fill="midnightblue" stroke="midnightblue" points="1740.01,-124.93 1750,-121.39 1739.98,-117.93 1740.01,-124.93"/>
</g>
<!-- Node246 -->
<g id="node15" class="node">
<title>Node246</title>
<g id="a_node15"><a xlink:href="_field_8cpp.html" target="_top" xlink:title=" ">
<polygon fill="white" stroke="black" points="1043.5,-56.5 1043.5,-75.5 1103.5,-75.5 1103.5,-56.5 1043.5,-56.5"/>
<text text-anchor="middle" x="1073.5" y="-63.5" font-family="Helvetica,sans-Serif" font-size="10.00">Field.cpp</text>
</a>
</g>
</g>
<!-- Node2&#45;&gt;Node246 -->
<g id="edge15" class="edge">
<title>Node2&#45;&gt;Node246</title>
<path fill="none" stroke="midnightblue" d="M1739.78,-120.44C1629.01,-118.57 1346.05,-110.51 1112.5,-76 1109.61,-75.57 1106.62,-75.04 1103.64,-74.46"/>
<polygon fill="midnightblue" stroke="midnightblue" points="1739.9,-123.94 1749.96,-120.6 1740.01,-116.94 1739.9,-123.94"/>
</g>
<!-- Node247 -->
<g id="node16" class="node">
<title>Node247</title>
<g id="a_node16"><a xlink:href="_field_repo_8cpp.html" target="_top" xlink:title=" ">
<polygon fill="white" stroke="black" points="1122,-56.5 1122,-75.5 1207,-75.5 1207,-56.5 1122,-56.5"/>
<text text-anchor="middle" x="1164.5" y="-63.5" font-family="Helvetica,sans-Serif" font-size="10.00">FieldRepo.cpp</text>
</a>
</g>
</g>
<!-- Node2&#45;&gt;Node247 -->
<g id="edge16" class="edge">
<title>Node2&#45;&gt;Node247</title>
<path fill="none" stroke="midnightblue" d="M1739.68,-118.79C1641.26,-113.91 1409.04,-100.63 1215.5,-76 1212.74,-75.65 1209.89,-75.25 1207.03,-74.82"/>
<polygon fill="midnightblue" stroke="midnightblue" points="1739.73,-122.3 1749.89,-119.3 1740.08,-115.31 1739.73,-122.3"/>
</g>
<!-- Node248 -->
<g id="node17" class="node">
<title>Node248</title>
<g id="a_node17"><a xlink:href="_int_field_8cpp.html" target="_top" xlink:title=" ">
<polygon fill="white" stroke="black" points="1225,-56.5 1225,-75.5 1298,-75.5 1298,-56.5 1225,-56.5"/>
<text text-anchor="middle" x="1261.5" y="-63.5" font-family="Helvetica,sans-Serif" font-size="10.00">IntField.cpp</text>
</a>
</g>
</g>
<!-- Node2&#45;&gt;Node248 -->
<g id="edge17" class="edge">
<title>Node2&#45;&gt;Node248</title>
<path fill="none" stroke="midnightblue" d="M1739.66,-118.1C1653.11,-112.51 1464.92,-98.72 1307.5,-76 1304.44,-75.56 1301.27,-75.05 1298.1,-74.5"/>
<polygon fill="midnightblue" stroke="midnightblue" points="1739.5,-121.6 1749.7,-118.74 1739.94,-114.61 1739.5,-121.6"/>
</g>
<!-- Node2&#45;&gt;Node249 -->
<g id="edge18" class="edge">
<title>Node2&#45;&gt;Node249</title>
<path fill="none" stroke="midnightblue" d="M1739.95,-120.44C1502.77,-117.56 446,-103.35 118.5,-76 115.48,-75.75 112.39,-75.45 109.27,-75.12"/>
<polygon fill="midnightblue" stroke="midnightblue" points="1739.94,-123.94 1749.98,-120.56 1740.02,-116.94 1739.94,-123.94"/>
</g>
<!-- Node250 -->
<g id="node19" class="node">
<title>Node250</title>
<g id="a_node19"><a xlink:href="_scratch_field_8cpp.html" target="_top" xlink:title=" ">
<polygon fill="white" stroke="black" points="1316.5,-56.5 1316.5,-75.5 1412.5,-75.5 1412.5,-56.5 1316.5,-56.5"/>
<text text-anchor="middle" x="1364.5" y="-63.5" font-family="Helvetica,sans-Serif" font-size="10.00">ScratchField.cpp</text>
</a>
</g>
</g>
<!-- Node2&#45;&gt;Node250 -->
<g id="edge19" class="edge">
<title>Node2&#45;&gt;Node250</title>
<path fill="none" stroke="midnightblue" d="M1739.51,-115.63C1669.5,-107.68 1535.32,-91.98 1421.5,-76 1418.62,-75.6 1415.67,-75.17 1412.68,-74.73"/>
<polygon fill="midnightblue" stroke="midnightblue" points="1739.44,-119.15 1749.77,-116.79 1740.23,-112.19 1739.44,-119.15"/>
</g>
<!-- Node251 -->
<g id="node20" class="node">
<title>Node251</title>
<g id="a_node20"><a xlink:href="_view_field_8cpp.html" target="_top" xlink:title=" ">
<polygon fill="white" stroke="black" points="1430.5,-56.5 1430.5,-75.5 1514.5,-75.5 1514.5,-56.5 1430.5,-56.5"/>
<text text-anchor="middle" x="1472.5" y="-63.5" font-family="Helvetica,sans-Serif" font-size="10.00">ViewField.cpp</text>
</a>
</g>
</g>
<!-- Node2&#45;&gt;Node251 -->
<g id="edge20" class="edge">
<title>Node2&#45;&gt;Node251</title>
<path fill="none" stroke="midnightblue" d="M1739.79,-112.95C1686.91,-104.02 1599.09,-89.11 1523.5,-76 1520.58,-75.49 1517.56,-74.97 1514.52,-74.44"/>
<polygon fill="midnightblue" stroke="midnightblue" points="1739.45,-116.45 1749.89,-114.66 1740.61,-109.54 1739.45,-116.45"/>
</g>
<!-- Node252 -->
<g id="node21" class="node">
<title>Node252</title>
<g id="a_node21"><a xlink:href="field__algebra_8cpp.html" target="_top" xlink:title=" ">
<polygon fill="white" stroke="black" points="1532.5,-56.5 1532.5,-75.5 1632.5,-75.5 1632.5,-56.5 1532.5,-56.5"/>
<text text-anchor="middle" x="1582.5" y="-63.5" font-family="Helvetica,sans-Serif" font-size="10.00">field_algebra.cpp</text>
</a>
</g>
</g>
<!-- Node2&#45;&gt;Node252 -->
<g id="edge21" class="edge">
<title>Node2&#45;&gt;Node252</title>
<path fill="none" stroke="midnightblue" d="M1745.09,-109.83C1706.39,-99.63 1650.01,-84.78 1614.83,-75.52"/>
<polygon fill="midnightblue" stroke="midnightblue" points="1744.46,-113.28 1755.02,-112.44 1746.24,-106.51 1744.46,-113.28"/>
</g>
<!-- Node253 -->
<g id="node22" class="node">
<title>Node253</title>
<g id="a_node22"><a xlink:href="diffusion_8_h.html" target="_top" xlink:title=" ">
<polygon fill="white" stroke="red" points="1651,-56.5 1651,-75.5 1720,-75.5 1720,-56.5 1651,-56.5"/>
<text text-anchor="middle" x="1685.5" y="-63.5" font-family="Helvetica,sans-Serif" font-size="10.00">diffusion.H</text>
</a>
</g>
</g>
<!-- Node2&#45;&gt;Node253 -->
<g id="edge22" class="edge">
<title>Node2&#45;&gt;Node253</title>
<path fill="none" stroke="midnightblue" d="M1762.17,-107.59C1743.31,-97.61 1718.12,-84.27 1701.85,-75.65"/>
<polygon fill="midnightblue" stroke="midnightblue" points="1760.64,-110.74 1771.11,-112.32 1763.91,-104.55 1760.64,-110.74"/>
</g>
<!-- Node254 -->
<g id="node23" class="node">
<title>Node254</title>
<g id="a_node23"><a xlink:href="_density_source_8_h.html" target="_top" xlink:title=" ">
<polygon fill="white" stroke="red" points="1738.5,-56.5 1738.5,-75.5 1836.5,-75.5 1836.5,-56.5 1738.5,-56.5"/>
<text text-anchor="middle" x="1787.5" y="-63.5" font-family="Helvetica,sans-Serif" font-size="10.00">DensitySource.H</text>
</a>
</g>
</g>
<!-- Node2&#45;&gt;Node254 -->
<g id="edge23" class="edge">
<title>Node2&#45;&gt;Node254</title>
<path fill="none" stroke="midnightblue" d="M1787.5,-101.8C1787.5,-92.91 1787.5,-82.78 1787.5,-75.75"/>
<polygon fill="midnightblue" stroke="midnightblue" points="1784,-102.08 1787.5,-112.08 1791,-102.08 1784,-102.08"/>
</g>
<!-- Node255 -->
<g id="node24" class="node">
<title>Node255</title>
<g id="a_node24"><a xlink:href="_momentum_source_8_h.html" target="_top" xlink:title=" ">
<polygon fill="white" stroke="red" points="2132.5,-56.5 2132.5,-75.5 2248.5,-75.5 2248.5,-56.5 2132.5,-56.5"/>
<text text-anchor="middle" x="2190.5" y="-63.5" font-family="Helvetica,sans-Serif" font-size="10.00">MomentumSource.H</text>
</a>
</g>
</g>
<!-- Node2&#45;&gt;Node255 -->
<g id="edge24" class="edge">
<title>Node2&#45;&gt;Node255</title>
<path fill="none" stroke="midnightblue" d="M1835.04,-114.63C1909.18,-104.7 2052.11,-85.54 2132.3,-74.8"/>
<polygon fill="midnightblue" stroke="midnightblue" points="1834.5,-111.17 1825.05,-115.97 1835.43,-118.11 1834.5,-111.17"/>
</g>
<!-- Node166 -->
<g id="node25" class="node">
<title>Node166</title>
<g id="a_node25"><a xlink:href="_a_b_l_mean_boussinesq_8_h.html" target="_top" xlink:title=" ">
<polygon fill="white" stroke="red" points="1636.5,-0.5 1636.5,-19.5 1764.5,-19.5 1764.5,-0.5 1636.5,-0.5"/>
<text text-anchor="middle" x="1700.5" y="-7.5" font-family="Helvetica,sans-Serif" font-size="10.00">ABLMeanBoussinesq.H</text>
</a>
</g>
</g>
<!-- Node2&#45;&gt;Node166 -->
<g id="edge33" class="edge">
<title>Node2&#45;&gt;Node166</title>
<path fill="none" stroke="midnightblue" d="M1835.5,-119.6C1902.39,-115.95 2011.22,-102.86 1971.5,-56 1964.8,-48.1 1842.36,-30.19 1764.37,-19.5"/>
<polygon fill="midnightblue" stroke="midnightblue" points="1834.97,-116.12 1825.16,-120.1 1835.31,-123.11 1834.97,-116.12"/>
</g>
<!-- Node179 -->
<g id="node26" class="node">
<title>Node179</title>
<g id="a_node26"><a xlink:href="_a_b_l_meso_forcing_mom_8_h.html" target="_top" xlink:title=" ">
<polygon fill="white" stroke="red" points="1782.5,-0.5 1782.5,-19.5 1914.5,-19.5 1914.5,-0.5 1782.5,-0.5"/>
<text text-anchor="middle" x="1848.5" y="-7.5" font-family="Helvetica,sans-Serif" font-size="10.00">ABLMesoForcingMom.H</text>
</a>
</g>
</g>
<!-- Node2&#45;&gt;Node179 -->
<g id="edge34" class="edge">
<title>Node2&#45;&gt;Node179</title>
<path fill="none" stroke="midnightblue" d="M1835.71,-117.92C1893.04,-113.13 1983.64,-101.63 2004.5,-76 2010.11,-69.11 2009.84,-63.1 2004.5,-56 1992.04,-39.44 1942.46,-27.06 1902.49,-19.52"/>
<polygon fill="midnightblue" stroke="midnightblue" points="1835.1,-114.45 1825.41,-118.74 1835.66,-121.43 1835.1,-114.45"/>
</g>
<!-- Node259 -->
<g id="node27" class="node">
<title>Node259</title>
<g id="a_node27"><a xlink:href="_boussinesq_buoyancy_8_h.html" target="_top" xlink:title=" ">
<polygon fill="white" stroke="red" points="1933,-0.5 1933,-19.5 2062,-19.5 2062,-0.5 1933,-0.5"/>
<text text-anchor="middle" x="1997.5" y="-7.5" font-family="Helvetica,sans-Serif" font-size="10.00">BoussinesqBuoyancy.H</text>
</a>
</g>
</g>
<!-- Node2&#45;&gt;Node259 -->
<g id="edge35" class="edge">
<title>Node2&#45;&gt;Node259</title>
<path fill="none" stroke="midnightblue" d="M1835.66,-118.74C1897.15,-114.73 1998.4,-103.97 2021.5,-76 2035.44,-59.12 2017.43,-33.39 2005.85,-19.92"/>
<polygon fill="midnightblue" stroke="midnightblue" points="1835.17,-115.27 1825.41,-119.37 1835.6,-122.25 1835.17,-115.27"/>
</g>
<!-- Node261 -->
<g id="node28" class="node">
<title>Node261</title>
<g id="a_node28"><a xlink:href="_coriolis_forcing_8_h.html" target="_top" xlink:title=" ">
<polygon fill="white" stroke="red" points="2080,-0.5 2080,-19.5 2179,-19.5 2179,-0.5 2080,-0.5"/>
<text text-anchor="middle" x="2129.5" y="-7.5" font-family="Helvetica,sans-Serif" font-size="10.00">CoriolisForcing.H</text>
</a>
</g>
</g>
<!-- Node2&#45;&gt;Node261 -->
<g id="edge36" class="edge">
<title>Node2&#45;&gt;Node261</title>
<path fill="none" stroke="midnightblue" d="M1835.35,-118.68C1887.21,-114.76 1971.52,-104.23 2038.5,-76 2071.78,-61.98 2104.74,-34.02 2120.27,-19.78"/>
<polygon fill="midnightblue" stroke="midnightblue" points="1834.84,-115.21 1825.11,-119.4 1835.33,-122.19 1834.84,-115.21"/>
</g>
<!-- Node262 -->
<g id="node29" class="node">
<title>Node262</title>
<g id="a_node29"><a xlink:href="_density_buoyancy_8_h.html" target="_top" xlink:title=" ">
<polygon fill="white" stroke="red" points="2197,-0.5 2197,-19.5 2308,-19.5 2308,-0.5 2197,-0.5"/>
<text text-anchor="middle" x="2252.5" y="-7.5" font-family="Helvetica,sans-Serif" font-size="10.00">DensityBuoyancy.H</text>
</a>
</g>
</g>
<!-- Node2&#45;&gt;Node262 -->
<g id="edge37" class="edge">
<title>Node2&#45;&gt;Node262</title>
<path fill="none" stroke="midnightblue" d="M1835.32,-119.99C1949.28,-117.08 2229.47,-106.85 2257.5,-76 2271.51,-60.59 2262.8,-33.75 2256.79,-19.88"/>
<polygon fill="midnightblue" stroke="midnightblue" points="1835.06,-116.49 1825.15,-120.24 1835.23,-123.49 1835.06,-116.49"/>
</g>
<!-- Node264 -->
<g id="node30" class="node">
<title>Node264</title>
<g id="a_node30"><a xlink:href="_gravity_forcing_8_h.html" target="_top" xlink:title=" ">
<polygon fill="white" stroke="red" points="2326.5,-0.5 2326.5,-19.5 2424.5,-19.5 2424.5,-0.5 2326.5,-0.5"/>
<text text-anchor="middle" x="2375.5" y="-7.5" font-family="Helvetica,sans-Serif" font-size="10.00">GravityForcing.H</text>
</a>
</g>
</g>
<!-- Node2&#45;&gt;Node264 -->
<g id="edge38" class="edge">
<title>Node2&#45;&gt;Node264</title>
<path fill="none" stroke="midnightblue" d="M1835.27,-119.51C1941.65,-115.71 2194.99,-103.95 2275.5,-76 2312.27,-63.23 2348.97,-34.16 2365.87,-19.62"/>
<polygon fill="midnightblue" stroke="midnightblue" points="1835.02,-116.01 1825.15,-119.86 1835.26,-123.01 1835.02,-116.01"/>
</g>
<!-- Node167 -->
<g id="node31" class="node">
<title>Node167</title>
<g id="a_node31"><a xlink:href="_hurricane_forcing_8_h.html" target="_top" xlink:title=" ">
<polygon fill="white" stroke="red" points="2442.5,-0.5 2442.5,-19.5 2552.5,-19.5 2552.5,-0.5 2442.5,-0.5"/>
<text text-anchor="middle" x="2497.5" y="-7.5" font-family="Helvetica,sans-Serif" font-size="10.00">HurricaneForcing.H</text>
</a>
</g>
</g>
<!-- Node2&#45;&gt;Node167 -->
<g id="edge39" class="edge">
<title>Node2&#45;&gt;Node167</title>
<path fill="none" stroke="midnightblue" d="M1835.5,-120.8C1928.16,-119.55 2137.73,-112.51 2309.5,-76 2326.01,-72.49 2426.94,-36.43 2473.73,-19.59"/>
<polygon fill="midnightblue" stroke="midnightblue" points="1835.27,-117.3 1825.31,-120.92 1835.35,-124.3 1835.27,-117.3"/>
</g>
<!-- Node267 -->
<g id="node32" class="node">
<title>Node267</title>
<g id="a_node32"><a xlink:href="_m_m_s_forcing_8_h.html" target="_top" xlink:title=" ">
<polygon fill="white" stroke="red" points="2570.5,-0.5 2570.5,-19.5 2656.5,-19.5 2656.5,-0.5 2570.5,-0.5"/>
<text text-anchor="middle" x="2613.5" y="-7.5" font-family="Helvetica,sans-Serif" font-size="10.00">MMSForcing.H</text>
</a>
</g>
</g>
<!-- Node2&#45;&gt;Node267 -->
<g id="edge62" class="edge">
<title>Node2&#45;&gt;Node267</title>
<path fill="none" stroke="midnightblue" d="M1835.08,-120.75C1995.19,-119.59 2507.98,-112.98 2571.5,-76 2593.33,-63.29 2605.75,-34.19 2610.8,-19.63"/>
<polygon fill="midnightblue" stroke="midnightblue" points="1835.03,-117.25 1825.05,-120.82 1835.07,-124.25 1835.03,-117.25"/>
</g>
<!-- Node268 -->
<g id="node33" class="node">
<title>Node268</title>
<g id="a_node33"><a xlink:href="_p_d_e_helpers_8_h.html" target="_top" xlink:title=" ">
<polygon fill="white" stroke="red" points="127.5,-56.5 127.5,-75.5 211.5,-75.5 211.5,-56.5 127.5,-56.5"/>
<text text-anchor="middle" x="169.5" y="-63.5" font-family="Helvetica,sans-Serif" font-size="10.00">PDEHelpers.H</text>
</a>
</g>
</g>
<!-- Node2&#45;&gt;Node268 -->
<g id="edge41" class="edge">
<title>Node2&#45;&gt;Node268</title>
<path fill="none" stroke="midnightblue" d="M1739.58,-120.57C1510.56,-118.36 526,-107.17 220.5,-76 217.64,-75.71 214.69,-75.35 211.73,-74.94"/>
<polygon fill="midnightblue" stroke="midnightblue" points="1739.88,-124.07 1749.91,-120.67 1739.95,-117.07 1739.88,-124.07"/>
</g>
<!-- Node269 -->
<g id="node34" class="node">
<title>Node269</title>
<g id="a_node34"><a xlink:href="_s_d_r_source_8_h.html" target="_top" xlink:title=" ">
<polygon fill="white" stroke="red" points="2380.5,-56.5 2380.5,-75.5 2460.5,-75.5 2460.5,-56.5 2380.5,-56.5"/>
<text text-anchor="middle" x="2420.5" y="-63.5" font-family="Helvetica,sans-Serif" font-size="10.00">SDRSource.H</text>
</a>
</g>
</g>
<!-- Node2&#45;&gt;Node269 -->
<g id="edge43" class="edge">
<title>Node2&#45;&gt;Node269</title>
<path fill="none" stroke="midnightblue" d="M1835.22,-118.71C1934.42,-113.63 2170.04,-99.96 2366.5,-76 2371.03,-75.45 2375.76,-74.79 2380.45,-74.08"/>
<polygon fill="midnightblue" stroke="midnightblue" points="1835.02,-115.21 1825.21,-119.22 1835.37,-122.21 1835.02,-115.21"/>
</g>
<!-- Node271 -->
<g id="node35" class="node">
<title>Node271</title>
<g id="a_node35"><a xlink:href="_source_term_8_h.html" target="_top" xlink:title=" ">
<polygon fill="white" stroke="red" points="2478.5,-56.5 2478.5,-75.5 2562.5,-75.5 2562.5,-56.5 2478.5,-56.5"/>
<text text-anchor="middle" x="2520.5" y="-63.5" font-family="Helvetica,sans-Serif" font-size="10.00">SourceTerm.H</text>
</a>
</g>
</g>
<!-- Node2&#45;&gt;Node271 -->
<g id="edge44" class="edge">
<title>Node2&#45;&gt;Node271</title>
<path fill="none" stroke="midnightblue" d="M1835.6,-119.62C1947.28,-116.04 2232.7,-104.62 2469.5,-76 2472.36,-75.65 2475.3,-75.26 2478.25,-74.82"/>
<polygon fill="midnightblue" stroke="midnightblue" points="1835.23,-116.13 1825.34,-119.95 1835.45,-123.13 1835.23,-116.13"/>
</g>
<!-- Node180 -->
<g id="node36" class="node">
<title>Node180</title>
<g id="a_node36"><a xlink:href="_a_b_l_meso_forcing_temp_8_h.html" target="_top" xlink:title=" ">
<polygon fill="white" stroke="red" points="3240.5,-0.5 3240.5,-19.5 3374.5,-19.5 3374.5,-0.5 3240.5,-0.5"/>
<text text-anchor="middle" x="3307.5" y="-7.5" font-family="Helvetica,sans-Serif" font-size="10.00">ABLMesoForcingTemp.H</text>
</a>
</g>
</g>
<!-- Node2&#45;&gt;Node180 -->
<g id="edge45" class="edge">
<title>Node2&#45;&gt;Node180</title>
<path fill="none" stroke="midnightblue" d="M1835.63,-120.32C1986.69,-117.88 2450.03,-107.93 2596.5,-76 2620.29,-70.81 2623.74,-61.33 2647.5,-56 2759,-30.96 3095.97,-17.66 3240.49,-12.98"/>
<polygon fill="midnightblue" stroke="midnightblue" points="1835.25,-116.83 1825.3,-120.49 1835.36,-123.83 1835.25,-116.83"/>
</g>
<!-- Node272 -->
<g id="node37" class="node">
<title>Node272</title>
<g id="a_node37"><a xlink:href="_temperature_source_8_h.html" target="_top" xlink:title=" ">
<polygon fill="white" stroke="red" points="3790.5,-56.5 3790.5,-75.5 3912.5,-75.5 3912.5,-56.5 3790.5,-56.5"/>
<text text-anchor="middle" x="3851.5" y="-63.5" font-family="Helvetica,sans-Serif" font-size="10.00">TemperatureSource.H</text>
</a>
</g>
</g>
<!-- Node2&#45;&gt;Node272 -->
<g id="edge46" class="edge">
<title>Node2&#45;&gt;Node272</title>
<path fill="none" stroke="midnightblue" d="M1835.09,-120.61C2099.04,-118.33 3385.61,-105.83 3781.5,-76 3784.43,-75.78 3787.43,-75.52 3790.46,-75.23"/>
<polygon fill="midnightblue" stroke="midnightblue" points="1835.03,-117.11 1825.06,-120.69 1835.09,-124.11 1835.03,-117.11"/>
</g>
<!-- Node274 -->
<g id="node38" class="node">
<title>Node274</title>
<g id="a_node38"><a xlink:href="_t_k_e_source_8_h.html" target="_top" xlink:title=" ">
<polygon fill="white" stroke="red" points="2657,-56.5 2657,-75.5 2736,-75.5 2736,-56.5 2657,-56.5"/>
<text text-anchor="middle" x="2696.5" y="-63.5" font-family="Helvetica,sans-Serif" font-size="10.00">TKESource.H</text>
</a>
</g>
</g>
<!-- Node2&#45;&gt;Node274 -->
<g id="edge48" class="edge">
<title>Node2&#45;&gt;Node274</title>
<path fill="none" stroke="midnightblue" d="M1835.14,-120.37C1965.02,-118.25 2336.06,-109.49 2642.5,-76 2647.13,-75.49 2651.97,-74.85 2656.76,-74.14"/>
<polygon fill="midnightblue" stroke="midnightblue" points="1835.07,-116.87 1825.12,-120.53 1835.18,-123.87 1835.07,-116.87"/>
</g>
<!-- Node278 -->
<g id="node39" class="node">
<title>Node278</title>
<g id="a_node39"><a xlink:href="_split_advection_8_h.html" target="_top" xlink:title=" ">
<polygon fill="white" stroke="red" points="2753.5,-56.5 2753.5,-75.5 2851.5,-75.5 2851.5,-56.5 2753.5,-56.5"/>
<text text-anchor="middle" x="2802.5" y="-63.5" font-family="Helvetica,sans-Serif" font-size="10.00">SplitAdvection.H</text>
</a>
</g>
</g>
<!-- Node2&#45;&gt;Node278 -->
<g id="edge49" class="edge">
<title>Node2&#45;&gt;Node278</title>
<path fill="none" stroke="midnightblue" d="M1835.86,-120.55C1976.49,-118.85 2397.33,-111 2744.5,-76 2747.44,-75.7 2750.46,-75.36 2753.5,-74.98"/>
<polygon fill="midnightblue" stroke="midnightblue" points="1835.41,-117.06 1825.45,-120.67 1835.49,-124.06 1835.41,-117.06"/>
</g>
<!-- Node280 -->
<g id="node40" class="node">
<title>Node280</title>
<g id="a_node40"><a xlink:href="vof__hybridsolver__ops_8_h.html" target="_top" xlink:title=" ">
<polygon fill="white" stroke="red" points="2870,-56.5 2870,-75.5 3001,-75.5 3001,-56.5 2870,-56.5"/>
<text text-anchor="middle" x="2935.5" y="-63.5" font-family="Helvetica,sans-Serif" font-size="10.00">vof_hybridsolver_ops.H</text>
</a>
</g>
</g>
<!-- Node2&#45;&gt;Node280 -->
<g id="edge50" class="edge">
<title>Node2&#45;&gt;Node280</title>
<path fill="none" stroke="midnightblue" d="M1835.39,-120.31C1986.3,-117.87 2465.31,-107.95 2860.5,-76 2863.51,-75.76 2866.58,-75.48 2869.68,-75.19"/>
<polygon fill="midnightblue" stroke="midnightblue" points="1835.05,-116.82 1825.1,-120.48 1835.16,-123.82 1835.05,-116.82"/>
</g>
<!-- Node281 -->
<g id="node41" class="node">
<title>Node281</title>
<g id="a_node41"><a xlink:href="fvm__utils_8_h.html" target="_top" xlink:title=" ">
<polygon fill="white" stroke="red" points="3019,-56.5 3019,-75.5 3092,-75.5 3092,-56.5 3019,-56.5"/>
<text text-anchor="middle" x="3055.5" y="-63.5" font-family="Helvetica,sans-Serif" font-size="10.00">fvm_utils.H</text>
</a>
</g>
</g>
<!-- Node2&#45;&gt;Node281 -->
<g id="edge51" class="edge">
<title>Node2&#45;&gt;Node281</title>
<path fill="none" stroke="midnightblue" d="M1835.28,-120.24C2031.48,-116.97 2775.9,-102.99 3009.5,-76 3012.57,-75.65 3015.75,-75.2 3018.92,-74.69"/>
<polygon fill="midnightblue" stroke="midnightblue" points="1835.22,-116.74 1825.28,-120.41 1835.33,-123.74 1835.22,-116.74"/>
</g>
<!-- Node292 -->
<g id="node42" class="node">
<title>Node292</title>
<g id="a_node42"><a xlink:href="_i_b_8_h.html" target="_top" xlink:title=" ">
<polygon fill="white" stroke="red" points="374,-56.5 374,-75.5 411,-75.5 411,-56.5 374,-56.5"/>
<text text-anchor="middle" x="392.5" y="-63.5" font-family="Helvetica,sans-Serif" font-size="10.00">IB.H</text>
</a>
</g>
</g>
<!-- Node2&#45;&gt;Node292 -->
<g id="edge53" class="edge">
<title>Node2&#45;&gt;Node292</title>
<path fill="none" stroke="midnightblue" d="M1739.8,-120.91C1529.84,-120.31 686.91,-115.41 425.5,-76 420.8,-75.29 415.82,-74.15 411.19,-72.91"/>
<polygon fill="midnightblue" stroke="midnightblue" points="1739.87,-124.41 1749.88,-120.94 1739.89,-117.41 1739.87,-124.41"/>
</g>
<!-- Node293 -->
<g id="node43" class="node">
<title>Node293</title>
<g id="a_node43"><a xlink:href="_ocean_waves_8_h.html" target="_top" xlink:title=" ">
<polygon fill="white" stroke="red" points="703.5,-56.5 703.5,-75.5 793.5,-75.5 793.5,-56.5 703.5,-56.5"/>
<text text-anchor="middle" x="748.5" y="-63.5" font-family="Helvetica,sans-Serif" font-size="10.00">OceanWaves.H</text>
</a>
</g>
</g>
<!-- Node2&#45;&gt;Node293 -->
<g id="edge57" class="edge">
<title>Node2&#45;&gt;Node293</title>
<path fill="none" stroke="midnightblue" d="M1739.41,-120.59C1596.85,-118.97 1164.25,-111.3 807.5,-76 802.96,-75.55 798.24,-74.99 793.54,-74.37"/>
<polygon fill="midnightblue" stroke="midnightblue" points="1739.52,-124.09 1749.56,-120.7 1739.6,-117.09 1739.52,-124.09"/>
</g>
<!-- Node67 -->
<g id="node44" class="node">
<title>Node67</title>
<g id="a_node44"><a xlink:href="hos__waves__ops_8_h.html" target="_top" xlink:title=" ">
<polygon fill="white" stroke="red" points="836.5,-0.5 836.5,-19.5 940.5,-19.5 940.5,-0.5 836.5,-0.5"/>
<text text-anchor="middle" x="888.5" y="-7.5" font-family="Helvetica,sans-Serif" font-size="10.00">hos_waves_ops.H</text>
</a>
</g>
</g>
<!-- Node2&#45;&gt;Node67 -->
<g id="edge60" class="edge">
<title>Node2&#45;&gt;Node67</title>
<path fill="none" stroke="midnightblue" d="M1739.53,-120.46C1554.87,-118.17 898.77,-107.79 868.5,-76 853.52,-60.27 870.41,-33.57 881.09,-19.8"/>
<polygon fill="midnightblue" stroke="midnightblue" points="1739.7,-123.97 1749.74,-120.59 1739.78,-116.97 1739.7,-123.97"/>
</g>
<!-- Node294 -->
<g id="node45" class="node">
<title>Node294</title>
<g id="a_node45"><a xlink:href="hydrostatic__ops_8_h.html" target="_top" xlink:title=" ">
<polygon fill="white" stroke="red" points="3110.5,-56.5 3110.5,-75.5 3214.5,-75.5 3214.5,-56.5 3110.5,-56.5"/>
<text text-anchor="middle" x="3162.5" y="-63.5" font-family="Helvetica,sans-Serif" font-size="10.00">hydrostatic_ops.H</text>
</a>
</g>
</g>
<!-- Node2&#45;&gt;Node294 -->
<g id="edge63" class="edge">
<title>Node2&#45;&gt;Node294</title>
<path fill="none" stroke="midnightblue" d="M1835.41,-121.26C2007.11,-121.77 2607.62,-120.09 3100.5,-76 3103.75,-75.71 3107.09,-75.36 3110.45,-74.98"/>
<polygon fill="midnightblue" stroke="midnightblue" points="1835.21,-117.75 1825.19,-121.22 1835.18,-124.75 1835.21,-117.75"/>
</g>
<!-- Node39 -->
<g id="node46" class="node">
<title>Node39</title>
<g id="a_node46"><a xlink:href="_burggraf_lid_8cpp.html" target="_top" xlink:title=" ">
<polygon fill="white" stroke="black" points="3233,-56.5 3233,-75.5 3326,-75.5 3326,-56.5 3233,-56.5"/>
<text text-anchor="middle" x="3279.5" y="-63.5" font-family="Helvetica,sans-Serif" font-size="10.00">BurggrafLid.cpp</text>
</a>
</g>
</g>
<!-- Node2&#45;&gt;Node39 -->
<g id="edge64" class="edge">
<title>Node2&#45;&gt;Node39</title>
<path fill="none" stroke="midnightblue" d="M1835.22,-120.33C2051.94,-117.14 2945,-102.63 3223.5,-76 3226.54,-75.71 3229.66,-75.36 3232.81,-74.96"/>
<polygon fill="midnightblue" stroke="midnightblue" points="1835.07,-116.83 1825.12,-120.47 1835.17,-123.83 1835.07,-116.83"/>
</g>
<!-- Node295 -->
<g id="node47" class="node">
<title>Node295</title>
<g id="a_node47"><a xlink:href="_linear_profile_8cpp.html" target="_top" xlink:title=" ">
<polygon fill="white" stroke="black" points="3344.5,-56.5 3344.5,-75.5 3442.5,-75.5 3442.5,-56.5 3344.5,-56.5"/>
<text text-anchor="middle" x="3393.5" y="-63.5" font-family="Helvetica,sans-Serif" font-size="10.00">LinearProfile.cpp</text>
</a>
</g>
</g>
<!-- Node2&#45;&gt;Node295 -->
<g id="edge65" class="edge">
<title>Node2&#45;&gt;Node295</title>
<path fill="none" stroke="midnightblue" d="M1835.53,-120.4C2062.94,-117.41 3032.89,-103.29 3334.5,-76 3337.7,-75.71 3340.99,-75.36 3344.3,-74.97"/>
<polygon fill="midnightblue" stroke="midnightblue" points="1835.22,-116.9 1825.27,-120.53 1835.31,-123.9 1835.22,-116.9"/>
</g>
<!-- Node40 -->
<g id="node48" class="node">
<title>Node40</title>
<g id="a_node48"><a xlink:href="_power_law_profile_8cpp.html" target="_top" xlink:title=" ">
<polygon fill="white" stroke="black" points="3461,-56.5 3461,-75.5 3578,-75.5 3578,-56.5 3461,-56.5"/>
<text text-anchor="middle" x="3519.5" y="-63.5" font-family="Helvetica,sans-Serif" font-size="10.00">PowerLawProfile.cpp</text>
</a>
</g>
</g>
<!-- Node2&#45;&gt;Node40 -->
<g id="edge66" class="edge">
<title>Node2&#45;&gt;Node40</title>
<path fill="none" stroke="midnightblue" d="M1835.29,-120.38C2072.5,-117.22 3125.05,-101.95 3451.5,-76 3454.59,-75.75 3457.75,-75.47 3460.94,-75.15"/>
<polygon fill="midnightblue" stroke="midnightblue" points="1835.21,-116.88 1825.25,-120.52 1835.3,-123.88 1835.21,-116.88"/>
</g>
<!-- Node296 -->
<g id="node49" class="node">
<title>Node296</title>
<g id="a_node49"><a xlink:href="_u_d_f_8cpp.html" target="_top" xlink:title=" ">
<polygon fill="white" stroke="black" points="3596.5,-56.5 3596.5,-75.5 3652.5,-75.5 3652.5,-56.5 3596.5,-56.5"/>
<text text-anchor="middle" x="3624.5" y="-63.5" font-family="Helvetica,sans-Serif" font-size="10.00">UDF.cpp</text>
</a>
</g>
</g>
<!-- Node2&#45;&gt;Node296 -->
<g id="edge67" class="edge">
<title>Node2&#45;&gt;Node296</title>
<path fill="none" stroke="midnightblue" d="M1835.19,-121.19C2083.93,-121.94 3234.46,-122.8 3587.5,-76 3590.38,-75.62 3593.37,-75.1 3596.34,-74.51"/>
<polygon fill="midnightblue" stroke="midnightblue" points="1835.05,-117.68 1825.04,-121.15 1835.03,-124.68 1835.05,-117.68"/>
</g>
<!-- Node297 -->
<g id="node50" class="node">
<title>Node297</title>
<g id="a_node50"><a xlink:href="_transport_model_8_h.html" target="_top" xlink:title=" ">
<polygon fill="white" stroke="red" points="3670.5,-56.5 3670.5,-75.5 3772.5,-75.5 3772.5,-56.5 3670.5,-56.5"/>
<text text-anchor="middle" x="3721.5" y="-63.5" font-family="Helvetica,sans-Serif" font-size="10.00">TransportModel.H</text>
</a>
</g>
</g>
<!-- Node2&#45;&gt;Node297 -->
<g id="edge69" class="edge">
<title>Node2&#45;&gt;Node297</title>
<path fill="none" stroke="midnightblue" d="M1835.04,-120.66C2089.35,-118.74 3291.14,-108.1 3661.5,-76 3664.44,-75.75 3667.45,-75.44 3670.49,-75.09"/>
<polygon fill="midnightblue" stroke="midnightblue" points="1834.99,-117.16 1825.02,-120.74 1835.05,-124.16 1834.99,-117.16"/>
</g>
<!-- Node4&#45;&gt;Node3 -->
<g id="edge4" class="edge">
<title>Node4&#45;&gt;Node3</title>
<path fill="none" stroke="midnightblue" d="M1844.06,-55.9C1654.08,-34.78 1440.51,-19.95 1347.61,-13.94"/>
<polygon fill="midnightblue" stroke="midnightblue" points="1843.9,-59.4 1854.23,-57.04 1844.68,-52.45 1843.9,-59.4"/>
</g>
<!-- Node9&#45;&gt;Node62 -->
<g id="edge7" class="edge">
<title>Node9&#45;&gt;Node62</title>
<path fill="none" stroke="midnightblue" d="M495.49,-55.63C448.76,-45.46 374.76,-29.35 329.62,-19.52"/>
<polygon fill="midnightblue" stroke="midnightblue" points="494.8,-59.07 505.31,-57.77 496.28,-52.23 494.8,-59.07"/>
</g>
<!-- Node9&#45;&gt;Node80 -->
<g id="edge8" class="edge">
<title>Node9&#45;&gt;Node80</title>
<path fill="none" stroke="midnightblue" d="M502.28,-53.22C470.09,-42.75 423.97,-27.74 396.26,-18.73"/>
<polygon fill="midnightblue" stroke="midnightblue" points="501.6,-56.68 512.2,-56.44 503.77,-50.02 501.6,-56.68"/>
</g>
<!-- Node9&#45;&gt;Node91 -->
<g id="edge9" class="edge">
<title>Node9&#45;&gt;Node91</title>
<path fill="none" stroke="midnightblue" d="M513.91,-51.45C495.82,-41.48 471.77,-28.23 456.21,-19.65"/>
<polygon fill="midnightblue" stroke="midnightblue" points="512.31,-54.56 522.75,-56.32 515.69,-48.43 512.31,-54.56"/>
</g>
<!-- Node9&#45;&gt;Node119 -->
<g id="edge10" class="edge">
<title>Node9&#45;&gt;Node119</title>
<path fill="none" stroke="midnightblue" d="M581.92,-54.81C625.29,-44.62 691.21,-29.15 731.97,-19.58"/>
<polygon fill="midnightblue" stroke="midnightblue" points="580.88,-51.45 571.94,-57.15 582.48,-58.27 580.88,-51.45"/>
</g>
<!-- Node9&#45;&gt;Node128 -->
<g id="edge11" class="edge">
<title>Node9&#45;&gt;Node128</title>
<path fill="none" stroke="midnightblue" d="M538.5,-45.8C538.5,-36.91 538.5,-26.78 538.5,-19.75"/>
<polygon fill="midnightblue" stroke="midnightblue" points="535,-46.08 538.5,-56.08 542,-46.08 535,-46.08"/>
</g>
<!-- Node9&#45;&gt;Node155 -->
<g id="edge12" class="edge">
<title>Node9&#45;&gt;Node155</title>
<path fill="none" stroke="midnightblue" d="M566.16,-52.23C588.05,-42.13 618,-28.31 637.05,-19.52"/>
<polygon fill="midnightblue" stroke="midnightblue" points="564.65,-49.08 557.04,-56.44 567.59,-55.43 564.65,-49.08"/>
</g>
<!-- Node255&#45;&gt;Node166 -->
<g id="edge25" class="edge">
<title>Node255&#45;&gt;Node166</title>
<path fill="none" stroke="midnightblue" d="M2122.44,-57.98C2039.86,-49.38 1896.41,-34.21 1773.5,-20 1770.58,-19.66 1767.6,-19.31 1764.59,-18.96"/>
<polygon fill="midnightblue" stroke="midnightblue" points="2122.15,-61.46 2132.45,-59.02 2122.87,-54.5 2122.15,-61.46"/>
</g>
<!-- Node255&#45;&gt;Node179 -->
<g id="edge26" class="edge">
<title>Node255&#45;&gt;Node179</title>
<path fill="none" stroke="midnightblue" d="M2126.24,-54.85C2061.62,-44.65 1963.12,-29.1 1902.44,-19.52"/>
<polygon fill="midnightblue" stroke="midnightblue" points="2125.89,-58.34 2136.31,-56.44 2126.98,-51.43 2125.89,-58.34"/>
</g>
<!-- Node255&#45;&gt;Node259 -->
<g id="edge27" class="edge">
<title>Node255&#45;&gt;Node259</title>
<path fill="none" stroke="midnightblue" d="M2150.11,-53.7C2113.68,-43.51 2060.91,-28.74 2027.94,-19.52"/>
<polygon fill="midnightblue" stroke="midnightblue" points="2149.35,-57.12 2159.92,-56.44 2151.23,-50.38 2149.35,-57.12"/>
</g>
<!-- Node255&#45;&gt;Node261 -->
<g id="edge28" class="edge">
<title>Node255&#45;&gt;Node261</title>
<path fill="none" stroke="midnightblue" d="M2173.03,-49.54C2162.16,-39.91 2148.56,-27.87 2139.48,-19.83"/>
<polygon fill="midnightblue" stroke="midnightblue" points="2170.89,-52.32 2180.7,-56.32 2175.53,-47.07 2170.89,-52.32"/>
</g>
<!-- Node255&#45;&gt;Node262 -->
<g id="edge29" class="edge">
<title>Node255&#45;&gt;Node262</title>
<path fill="none" stroke="midnightblue" d="M2208.25,-49.54C2219.31,-39.91 2233.13,-27.87 2242.36,-19.83"/>
<polygon fill="midnightblue" stroke="midnightblue" points="2205.7,-47.12 2200.46,-56.32 2210.3,-52.4 2205.7,-47.12"/>
</g>
<!-- Node255&#45;&gt;Node264 -->
<g id="edge30" class="edge">
<title>Node255&#45;&gt;Node264</title>
<path fill="none" stroke="midnightblue" d="M2229.67,-53.57C2264.57,-43.38 2314.85,-28.7 2346.32,-19.52"/>
<polygon fill="midnightblue" stroke="midnightblue" points="2228.43,-50.28 2219.81,-56.44 2230.39,-57 2228.43,-50.28"/>
</g>
<!-- Node255&#45;&gt;Node167 -->
<g id="edge31" class="edge">
<title>Node255&#45;&gt;Node167</title>
<path fill="none" stroke="midnightblue" d="M2249.26,-54.66C2307.28,-44.46 2394.95,-29.04 2449.08,-19.52"/>
<polygon fill="midnightblue" stroke="midnightblue" points="2248.39,-51.26 2239.15,-56.44 2249.6,-58.16 2248.39,-51.26"/>
</g>
<!-- Node255&#45;&gt;Node267 -->
<g id="edge32" class="edge">
<title>Node255&#45;&gt;Node267</title>
<path fill="none" stroke="midnightblue" d="M2258.97,-57.75C2333.52,-49.6 2456.2,-35.49 2561.5,-20 2564.4,-19.57 2567.39,-19.11 2570.4,-18.63"/>
<polygon fill="midnightblue" stroke="midnightblue" points="2258.34,-54.29 2248.78,-58.86 2259.1,-61.25 2258.34,-54.29"/>
</g>
<!-- Node268&#45;&gt;Node62 -->
<g id="edge42" class="edge">
<title>Node268&#45;&gt;Node62</title>
<path fill="none" stroke="midnightblue" d="M197.81,-52.37C220.47,-42.26 251.63,-28.35 271.42,-19.52"/>
<polygon fill="midnightblue" stroke="midnightblue" points="196.38,-49.17 188.67,-56.44 199.23,-55.56 196.38,-49.17"/>
</g>
<!-- Node272&#45;&gt;Node180 -->
<g id="edge47" class="edge">
<title>Node272&#45;&gt;Node180</title>
<path fill="none" stroke="midnightblue" d="M3780.05,-55.87C3629.11,-39.14 3464.55,-24.41 3374.69,-16.67"/>
<polygon fill="midnightblue" stroke="midnightblue" points="3780.11,-59.4 3790.43,-57.03 3780.88,-52.44 3780.11,-59.4"/>
</g>
<!-- Node292&#45;&gt;Node80 -->
<g id="edge54" class="edge">
<title>Node292&#45;&gt;Node80</title>
<path fill="none" stroke="midnightblue" d="M385.72,-46.69C382.35,-37.59 378.43,-27.01 375.74,-19.75"/>
<polygon fill="midnightblue" stroke="midnightblue" points="382.44,-47.92 389.2,-56.08 389.01,-45.49 382.44,-47.92"/>
</g>
<!-- Node293&#45;&gt;Node119 -->
<g id="edge58" class="edge">
<title>Node293&#45;&gt;Node119</title>
<path fill="none" stroke="midnightblue" d="M755.28,-46.69C758.65,-37.59 762.57,-27.01 765.26,-19.75"/>
<polygon fill="midnightblue" stroke="midnightblue" points="751.99,-45.49 751.8,-56.08 758.56,-47.92 751.99,-45.49"/>
</g>
<!-- Node293&#45;&gt;Node67 -->
<g id="edge59" class="edge">
<title>Node293&#45;&gt;Node67</title>
<path fill="none" stroke="midnightblue" d="M780.2,-52.77C806.5,-42.63 843.22,-28.47 866.42,-19.52"/>
<polygon fill="midnightblue" stroke="midnightblue" points="778.75,-49.58 770.68,-56.44 781.27,-56.11 778.75,-49.58"/>
</g>
</g>
</svg>
