<?xml version="1.0" encoding="UTF-8" standalone="no"?>
<!DOCTYPE svg PUBLIC "-//W3C//DTD SVG 1.1//EN"
 "http://www.w3.org/Graphics/SVG/1.1/DTD/svg11.dtd">
<!-- Generated by graphviz version 2.43.0 (0)
 -->
<!-- Title: MOData.H Pages: 1 -->
<!--zoomable 263 -->
<svg id="main" version="1.1" xmlns="http://www.w3.org/2000/svg" xmlns:xlink="http://www.w3.org/1999/xlink" xml:space="preserve" onload="init(evt)">
<style type="text/css"><![CDATA[
.edge:hover path { stroke: red; }
.edge:hover polygon { stroke: red; fill: red; }
]]></style>
<script type="text/javascript"><![CDATA[
var edges = document.getElementsByTagName('g');
if (edges && edges.length) {
  for (var i=0;i<edges.length;i++) {
    if (edges[i].id.substr(0,4)=='edge') {
      edges[i].setAttribute('class','edge');
    }
  }
}
]]></script>
        <defs>
                <circle id="rim" cx="0" cy="0" r="7"/>
                <circle id="rim2" cx="0" cy="0" r="3.5"/>
                <g id="zoomPlus">
                        <use xlink:href="#rim" fill="#404040">
                                <set attributeName="fill" to="#808080" begin="zoomplus.mouseover" end="zoomplus.mouseout"/>
                        </use>
                        <path d="M-4,0h8M0,-4v8" fill="none" stroke="white" stroke-width="1.5" pointer-events="none"/>
                </g>
                <g id="zoomMin">
                        <use xlink:href="#rim" fill="#404040">
                                <set attributeName="fill" to="#808080" begin="zoomminus.mouseover" end="zoomminus.mouseout"/>
                        </use>
                        <path d="M-4,0h8" fill="none" stroke="white" stroke-width="1.5" pointer-events="none"/>
                </g>
                <g id="dirArrow">
                        <path fill="none" stroke="white" stroke-width="1.5" d="M0,-3.0v7 M-2.5,-0.5L0,-3.0L2.5,-0.5"/>
                </g>
               <g id="resetDef">
                       <use xlink:href="#rim2" fill="#404040">
                               <set attributeName="fill" to="#808080" begin="reset.mouseover" end="reset.mouseout"/>
                       </use>
               </g>
        </defs>

<script type="text/javascript">
var viewWidth = 1395;
var viewHeight = 263;
var sectionId = 'dynsection-1';
</script>
<script xlink:href="svgpan.js"/>
<svg id="graph" class="graph">
<g id="viewport">
<title>MOData.H</title>
<polygon fill="white" stroke="transparent" points="-4,4 -4,-259 1390.5,-259 1390.5,4 -4,4"/>
<!-- Node1 -->
<g id="node1" class="node">
<title>Node1</title>
<g id="a_node1"><a xlink:title=" ">
<polygon fill="#bfbfbf" stroke="black" points="1103.5,-235.5 1103.5,-254.5 1170.5,-254.5 1170.5,-235.5 1103.5,-235.5"/>
<text text-anchor="middle" x="1137" y="-242.5" font-family="Helvetica,sans-Serif" font-size="10.00">MOData.H</text>
</a>
</g>
</g>
<!-- Node2 -->
<g id="node2" class="node">
<title>Node2</title>
<g id="a_node2"><a xlink:href="_a_b_l_wall_function_8_h.html" target="_top" xlink:title=" ">
<polygon fill="white" stroke="black" points="968.5,-179.5 968.5,-198.5 1075.5,-198.5 1075.5,-179.5 968.5,-179.5"/>
<text text-anchor="middle" x="1022" y="-186.5" font-family="Helvetica,sans-Serif" font-size="10.00">ABLWallFunction.H</text>
</a>
</g>
</g>
<!-- Node1&#45;&gt;Node2 -->
<g id="edge1" class="edge">
<title>Node1&#45;&gt;Node2</title>
<path fill="none" stroke="midnightblue" d="M1109.52,-231.1C1088.03,-221.01 1058.78,-207.27 1040.14,-198.52"/>
<polygon fill="midnightblue" stroke="midnightblue" points="1108.24,-234.36 1118.78,-235.44 1111.21,-228.02 1108.24,-234.36"/>
</g>
<!-- Node19 -->
<g id="node19" class="node">
<title>Node19</title>
<g id="a_node19"><a xlink:href="_m_o_data_8cpp.html" target="_top" xlink:title=" ">
<polygon fill="white" stroke="black" points="1098.5,-179.5 1098.5,-198.5 1175.5,-198.5 1175.5,-179.5 1098.5,-179.5"/>
<text text-anchor="middle" x="1137" y="-186.5" font-family="Helvetica,sans-Serif" font-size="10.00">MOData.cpp</text>
</a>
</g>
</g>
<!-- Node1&#45;&gt;Node19 -->
<g id="edge21" class="edge">
<title>Node1&#45;&gt;Node19</title>
<path fill="none" stroke="midnightblue" d="M1137,-224.8C1137,-215.91 1137,-205.78 1137,-198.75"/>
<polygon fill="midnightblue" stroke="midnightblue" points="1133.5,-225.08 1137,-235.08 1140.5,-225.08 1133.5,-225.08"/>
</g>
<!-- Node20 -->
<g id="node20" class="node">
<title>Node20</title>
<g id="a_node20"><a xlink:href="_shear_stress_8_h.html" target="_top" xlink:title=" ">
<polygon fill="white" stroke="black" points="1196.5,-179.5 1196.5,-198.5 1281.5,-198.5 1281.5,-179.5 1196.5,-179.5"/>
<text text-anchor="middle" x="1239" y="-186.5" font-family="Helvetica,sans-Serif" font-size="10.00">ShearStress.H</text>
</a>
</g>
</g>
<!-- Node1&#45;&gt;Node20 -->
<g id="edge22" class="edge">
<title>Node1&#45;&gt;Node20</title>
<path fill="none" stroke="midnightblue" d="M1162.33,-230.59C1181.19,-220.61 1206.38,-207.27 1222.65,-198.65"/>
<polygon fill="midnightblue" stroke="midnightblue" points="1160.59,-227.55 1153.39,-235.32 1163.86,-233.74 1160.59,-227.55"/>
</g>
<!-- Node3 -->
<g id="node3" class="node">
<title>Node3</title>
<g id="a_node3"><a xlink:href="_boussinesq_bubble_8cpp.html" target="_top" xlink:title=" ">
<polygon fill="white" stroke="black" points="981,-123.5 981,-142.5 1107,-142.5 1107,-123.5 981,-123.5"/>
<text text-anchor="middle" x="1044" y="-130.5" font-family="Helvetica,sans-Serif" font-size="10.00">BoussinesqBubble.cpp</text>
</a>
</g>
</g>
<!-- Node2&#45;&gt;Node3 -->
<g id="edge2" class="edge">
<title>Node2&#45;&gt;Node3</title>
<path fill="none" stroke="midnightblue" d="M1029.46,-169.69C1033.17,-160.59 1037.48,-150.01 1040.43,-142.75"/>
<polygon fill="midnightblue" stroke="midnightblue" points="1026.16,-168.5 1025.63,-179.08 1032.65,-171.14 1026.16,-168.5"/>
</g>
<!-- Node4 -->
<g id="node4" class="node">
<title>Node4</title>
<g id="a_node4"><a xlink:href="_a_b_l_8_h.html" target="_top" xlink:title=" ">
<polygon fill="white" stroke="black" points="855,-67.5 855,-86.5 901,-86.5 901,-67.5 855,-67.5"/>
<text text-anchor="middle" x="878" y="-74.5" font-family="Helvetica,sans-Serif" font-size="10.00">ABL.H</text>
</a>
</g>
</g>
<!-- Node2&#45;&gt;Node4 -->
<g id="edge3" class="edge">
<title>Node2&#45;&gt;Node4</title>
<path fill="none" stroke="midnightblue" d="M1002.52,-173.12C971.95,-149.77 913.7,-105.27 889.25,-86.59"/>
<polygon fill="midnightblue" stroke="midnightblue" points="1000.63,-176.08 1010.7,-179.37 1004.88,-170.52 1000.63,-176.08"/>
</g>
<!-- Node15 -->
<g id="node15" class="node">
<title>Node15</title>
<g id="a_node15"><a xlink:href="_a_b_l_wall_function_8cpp.html" target="_top" xlink:title=" ">
<polygon fill="white" stroke="black" points="1256.5,-6 1256.5,-25 1373.5,-25 1373.5,-6 1256.5,-6"/>
<text text-anchor="middle" x="1315" y="-13" font-family="Helvetica,sans-Serif" font-size="10.00">ABLWallFunction.cpp</text>
</a>
</g>
</g>
<!-- Node2&#45;&gt;Node15 -->
<g id="edge20" class="edge">
<title>Node2&#45;&gt;Node15</title>
<path fill="none" stroke="midnightblue" d="M1051.02,-175.2C1069.83,-166.63 1094.71,-154.81 1116,-143 1189.03,-102.5 1272.04,-46.22 1302.74,-25.02"/>
<polygon fill="midnightblue" stroke="midnightblue" points="1049.47,-172.06 1041.79,-179.36 1052.34,-178.44 1049.47,-172.06"/>
</g>
<!-- Node16 -->
<g id="node16" class="node">
<title>Node16</title>
<g id="a_node16"><a xlink:href="_a_b_l_stats_8_h.html" target="_top" xlink:title=" ">
<polygon fill="white" stroke="black" points="765.5,-67.5 765.5,-86.5 836.5,-86.5 836.5,-67.5 765.5,-67.5"/>
<text text-anchor="middle" x="801" y="-74.5" font-family="Helvetica,sans-Serif" font-size="10.00">ABLStats.H</text>
</a>
</g>
</g>
<!-- Node2&#45;&gt;Node16 -->
<g id="edge15" class="edge">
<title>Node2&#45;&gt;Node16</title>
<path fill="none" stroke="midnightblue" d="M958.34,-180.92C906.88,-173.94 839.85,-161.6 820,-143 804.04,-128.05 801.24,-100.51 800.91,-86.57"/>
<polygon fill="midnightblue" stroke="midnightblue" points="958.03,-184.41 968.4,-182.24 958.94,-177.47 958.03,-184.41"/>
</g>
<!-- Node18 -->
<g id="node18" class="node">
<title>Node18</title>
<g id="a_node18"><a xlink:href="_a_b_l_stats_base_8_h.html" target="_top" xlink:title=" ">
<polygon fill="white" stroke="black" points="829.5,-123.5 829.5,-142.5 924.5,-142.5 924.5,-123.5 829.5,-123.5"/>
<text text-anchor="middle" x="877" y="-130.5" font-family="Helvetica,sans-Serif" font-size="10.00">ABLStatsBase.H</text>
</a>
</g>
</g>
<!-- Node2&#45;&gt;Node18 -->
<g id="edge17" class="edge">
<title>Node2&#45;&gt;Node18</title>
<path fill="none" stroke="midnightblue" d="M989.52,-175.91C962.26,-165.75 924.01,-151.51 899.87,-142.52"/>
<polygon fill="midnightblue" stroke="midnightblue" points="988.43,-179.23 999.02,-179.44 990.87,-172.67 988.43,-179.23"/>
</g>
<!-- Node5 -->
<g id="node5" class="node">
<title>Node5</title>
<g id="a_node5"><a xlink:href="_a_b_l_forcing_8cpp.html" target="_top" xlink:title=" ">
<polygon fill="white" stroke="black" points="1147.5,-6 1147.5,-25 1238.5,-25 1238.5,-6 1147.5,-6"/>
<text text-anchor="middle" x="1193" y="-13" font-family="Helvetica,sans-Serif" font-size="10.00">ABLForcing.cpp</text>
</a>
</g>
</g>
<!-- Node4&#45;&gt;Node5 -->
<g id="edge4" class="edge">
<title>Node4&#45;&gt;Node5</title>
<path fill="none" stroke="midnightblue" d="M911.23,-71.19C960.84,-63.8 1057.1,-48.63 1138,-31 1146.01,-29.25 1154.61,-27.12 1162.57,-25.02"/>
<polygon fill="midnightblue" stroke="midnightblue" points="910.46,-67.76 901.08,-72.69 911.49,-74.69 910.46,-67.76"/>
</g>
<!-- Node6 -->
<g id="node6" class="node">
<title>Node6</title>
<g id="a_node6"><a xlink:href="_a_b_l_mean_boussinesq_8cpp.html" target="_top" xlink:title=" ">
<polygon fill="white" stroke="black" points="98,-6 98,-25 236,-25 236,-6 98,-6"/>
<text text-anchor="middle" x="167" y="-13" font-family="Helvetica,sans-Serif" font-size="10.00">ABLMeanBoussinesq.cpp</text>
</a>
</g>
</g>
<!-- Node4&#45;&gt;Node6 -->
<g id="edge5" class="edge">
<title>Node4&#45;&gt;Node6</title>
<path fill="none" stroke="midnightblue" d="M844.78,-67.38C579.63,-24.59 506.93,-63.08 245,-31 232.83,-29.51 219.7,-27.3 207.74,-25.06"/>
<polygon fill="midnightblue" stroke="midnightblue" points="844.26,-70.84 854.7,-69 845.39,-63.94 844.26,-70.84"/>
</g>
<!-- Node7 -->
<g id="node7" class="node">
<title>Node7</title>
<g id="a_node7"><a xlink:href="_a_b_l_meso_forcing_mom_8cpp.html" target="_top" xlink:title=" ">
<polygon fill="white" stroke="black" points="254,-6 254,-25 396,-25 396,-6 254,-6"/>
<text text-anchor="middle" x="325" y="-13" font-family="Helvetica,sans-Serif" font-size="10.00">ABLMesoForcingMom.cpp</text>
</a>
</g>
</g>
<!-- Node4&#45;&gt;Node7 -->
<g id="edge6" class="edge">
<title>Node4&#45;&gt;Node7</title>
<path fill="none" stroke="midnightblue" d="M844.7,-67.32C649.98,-33.81 596.31,-56.1 405,-31 392.82,-29.4 379.68,-27.22 367.64,-25.03"/>
<polygon fill="midnightblue" stroke="midnightblue" points="844.23,-70.79 854.68,-69.07 845.44,-63.9 844.23,-70.79"/>
</g>
<!-- Node8 -->
<g id="node8" class="node">
<title>Node8</title>
<g id="a_node8"><a xlink:href="_hurricane_forcing_8cpp.html" target="_top" xlink:title=" ">
<polygon fill="white" stroke="black" points="414.5,-6 414.5,-25 533.5,-25 533.5,-6 414.5,-6"/>
<text text-anchor="middle" x="474" y="-13" font-family="Helvetica,sans-Serif" font-size="10.00">HurricaneForcing.cpp</text>
</a>
</g>
</g>
<!-- Node4&#45;&gt;Node8 -->
<g id="edge7" class="edge">
<title>Node4&#45;&gt;Node8</title>
<path fill="none" stroke="midnightblue" d="M844.8,-67.27C710.14,-41.64 672.65,-52.64 542,-31 531.88,-29.32 520.98,-27.16 510.94,-25.02"/>
<polygon fill="midnightblue" stroke="midnightblue" points="844.18,-70.71 854.66,-69.18 845.51,-63.84 844.18,-70.71"/>
</g>
<!-- Node9 -->
<g id="node9" class="node">
<title>Node9</title>
<g id="a_node9"><a xlink:href="_a_b_l_meso_forcing_temp_8cpp.html" target="_top" xlink:title=" ">
<polygon fill="white" stroke="black" points="551.5,-6 551.5,-25 694.5,-25 694.5,-6 551.5,-6"/>
<text text-anchor="middle" x="623" y="-13" font-family="Helvetica,sans-Serif" font-size="10.00">ABLMesoForcingTemp.cpp</text>
</a>
</g>
</g>
<!-- Node4&#45;&gt;Node9 -->
<g id="edge8" class="edge">
<title>Node4&#45;&gt;Node9</title>
<path fill="none" stroke="midnightblue" d="M845.3,-67.08C845.2,-67.05 845.1,-67.03 845,-67 781.54,-51.14 707.35,-34.68 662.82,-25.02"/>
<polygon fill="midnightblue" stroke="midnightblue" points="844.4,-70.46 854.95,-69.58 846.15,-63.68 844.4,-70.46"/>
</g>
<!-- Node10 -->
<g id="node10" class="node">
<title>Node10</title>
<g id="a_node10"><a xlink:href="helics_8cpp.html" target="_top" xlink:title=" ">
<polygon fill="white" stroke="black" points="712.5,-6 712.5,-25 777.5,-25 777.5,-6 712.5,-6"/>
<text text-anchor="middle" x="745" y="-13" font-family="Helvetica,sans-Serif" font-size="10.00">helics.cpp</text>
</a>
</g>
</g>
<!-- Node4&#45;&gt;Node10 -->
<g id="edge9" class="edge">
<title>Node4&#45;&gt;Node10</title>
<path fill="none" stroke="midnightblue" d="M849.67,-63.33C823.85,-51.78 786.42,-35.03 764.02,-25.01"/>
<polygon fill="midnightblue" stroke="midnightblue" points="848.39,-66.59 858.94,-67.48 851.25,-60.2 848.39,-66.59"/>
</g>
<!-- Node11 -->
<g id="node11" class="node">
<title>Node11</title>
<g id="a_node11"><a xlink:href="incflo_8cpp.html" target="_top" xlink:title=" ">
<polygon fill="white" stroke="black" points="795.5,-6 795.5,-25 858.5,-25 858.5,-6 795.5,-6"/>
<text text-anchor="middle" x="827" y="-13" font-family="Helvetica,sans-Serif" font-size="10.00">incflo.cpp</text>
</a>
</g>
</g>
<!-- Node4&#45;&gt;Node11 -->
<g id="edge10" class="edge">
<title>Node4&#45;&gt;Node11</title>
<path fill="none" stroke="midnightblue" d="M864,-59.67C854.39,-48.45 842.01,-34.02 834.29,-25.01"/>
<polygon fill="midnightblue" stroke="midnightblue" points="861.53,-62.16 870.69,-67.48 866.84,-57.6 861.53,-62.16"/>
</g>
<!-- Node12 -->
<g id="node12" class="node">
<title>Node12</title>
<g id="a_node12"><a xlink:href="incflo__apply__nodal__projection_8cpp.html" target="_top" xlink:title=" ">
<polygon fill="white" stroke="black" points="876.5,-0.5 876.5,-30.5 983.5,-30.5 983.5,-0.5 876.5,-0.5"/>
<text text-anchor="start" x="884.5" y="-18.5" font-family="Helvetica,sans-Serif" font-size="10.00">incflo_apply_nodal</text>
<text text-anchor="middle" x="930" y="-7.5" font-family="Helvetica,sans-Serif" font-size="10.00">_projection.cpp</text>
</a>
</g>
</g>
<!-- Node4&#45;&gt;Node12 -->
<g id="edge11" class="edge">
<title>Node4&#45;&gt;Node12</title>
<path fill="none" stroke="midnightblue" d="M892.15,-59.81C900.16,-50.65 910.07,-39.3 917.74,-30.52"/>
<polygon fill="midnightblue" stroke="midnightblue" points="889.4,-57.64 885.45,-67.48 894.67,-62.25 889.4,-57.64"/>
</g>
<!-- Node13 -->
<g id="node13" class="node">
<title>Node13</title>
<g id="a_node13"><a xlink:href="init_8cpp.html" target="_top" xlink:title=" ">
<polygon fill="white" stroke="black" points="1001.5,-6 1001.5,-25 1054.5,-25 1054.5,-6 1001.5,-6"/>
<text text-anchor="middle" x="1028" y="-13" font-family="Helvetica,sans-Serif" font-size="10.00">init.cpp</text>
</a>
</g>
</g>
<!-- Node4&#45;&gt;Node13 -->
<g id="edge12" class="edge">
<title>Node4&#45;&gt;Node13</title>
<path fill="none" stroke="midnightblue" d="M909.86,-63.73C932.98,-54.78 964.98,-42.28 993,-31 997.76,-29.08 1002.87,-26.99 1007.67,-25"/>
<polygon fill="midnightblue" stroke="midnightblue" points="908.59,-60.46 900.53,-67.34 911.12,-66.99 908.59,-60.46"/>
</g>
<!-- Node14 -->
<g id="node14" class="node">
<title>Node14</title>
<g id="a_node14"><a xlink:href="_a_b_l_8cpp.html" target="_top" xlink:title=" ">
<polygon fill="white" stroke="black" points="1073,-6 1073,-25 1129,-25 1129,-6 1073,-6"/>
<text text-anchor="middle" x="1101" y="-13" font-family="Helvetica,sans-Serif" font-size="10.00">ABL.cpp</text>
</a>
</g>
</g>
<!-- Node4&#45;&gt;Node14 -->
<g id="edge13" class="edge">
<title>Node4&#45;&gt;Node14</title>
<path fill="none" stroke="midnightblue" d="M911.06,-69.42C948.54,-61.64 1011.29,-47.62 1064,-31 1069.4,-29.3 1075.13,-27.2 1080.43,-25.13"/>
<polygon fill="midnightblue" stroke="midnightblue" points="910.28,-66.01 901.18,-71.45 911.68,-72.87 910.28,-66.01"/>
</g>
<!-- Node4&#45;&gt;Node15 -->
<g id="edge14" class="edge">
<title>Node4&#45;&gt;Node15</title>
<path fill="none" stroke="midnightblue" d="M911.1,-73.01C975.99,-66.91 1124.39,-51.85 1248,-31 1257.98,-29.32 1268.71,-27.15 1278.61,-25.01"/>
<polygon fill="midnightblue" stroke="midnightblue" points="910.69,-69.53 901.05,-73.94 911.34,-76.5 910.69,-69.53"/>
</g>
<!-- Node17 -->
<g id="node17" class="node">
<title>Node17</title>
<g id="a_node17"><a xlink:href="_a_b_l_stats_8cpp.html" target="_top" xlink:title=" ">
<polygon fill="white" stroke="black" points="0,-6 0,-25 80,-25 80,-6 0,-6"/>
<text text-anchor="middle" x="40" y="-13" font-family="Helvetica,sans-Serif" font-size="10.00">ABLStats.cpp</text>
</a>
</g>
</g>
<!-- Node16&#45;&gt;Node17 -->
<g id="edge16" class="edge">
<title>Node16&#45;&gt;Node17</title>
<path fill="none" stroke="midnightblue" d="M755.41,-76.64C641.86,-77.49 337.65,-75.07 89,-31 81.05,-29.59 72.56,-27.35 64.92,-25.05"/>
<polygon fill="midnightblue" stroke="midnightblue" points="755.51,-80.14 765.48,-76.56 755.45,-73.14 755.51,-80.14"/>
</g>
<!-- Node18&#45;&gt;Node4 -->
<g id="edge18" class="edge">
<title>Node18&#45;&gt;Node4</title>
<path fill="none" stroke="midnightblue" d="M877.36,-112.8C877.52,-103.91 877.71,-93.78 877.84,-86.75"/>
<polygon fill="midnightblue" stroke="midnightblue" points="873.85,-113.02 877.17,-123.08 880.85,-113.15 873.85,-113.02"/>
</g>
<!-- Node18&#45;&gt;Node16 -->
<g id="edge19" class="edge">
<title>Node18&#45;&gt;Node16</title>
<path fill="none" stroke="midnightblue" d="M856.42,-117.38C842.69,-107.62 825.07,-95.11 813.43,-86.83"/>
<polygon fill="midnightblue" stroke="midnightblue" points="854.61,-120.38 864.79,-123.32 858.66,-114.68 854.61,-120.38"/>
</g>
<!-- Node20&#45;&gt;Node15 -->
<g id="edge25" class="edge">
<title>Node20&#45;&gt;Node15</title>
<path fill="none" stroke="midnightblue" d="M1240.78,-169.09C1243.73,-144.37 1251.21,-100.28 1269,-67 1278.06,-50.06 1294.07,-34.33 1304.61,-25.07"/>
<polygon fill="midnightblue" stroke="midnightblue" points="1237.27,-168.95 1239.69,-179.27 1244.23,-169.7 1237.27,-168.95"/>
</g>
<!-- Node21 -->
<g id="node21" class="node">
<title>Node21</title>
<g id="a_node21"><a xlink:href="_shear_stress_simple_8_h.html" target="_top" xlink:title=" ">
<polygon fill="white" stroke="black" points="1267.5,-123.5 1267.5,-142.5 1386.5,-142.5 1386.5,-123.5 1267.5,-123.5"/>
<text text-anchor="middle" x="1327" y="-130.5" font-family="Helvetica,sans-Serif" font-size="10.00">ShearStressSimple.H</text>
</a>
</g>
</g>
<!-- Node20&#45;&gt;Node21 -->
<g id="edge23" class="edge">
<title>Node20&#45;&gt;Node21</title>
<path fill="none" stroke="midnightblue" d="M1261.98,-173.9C1278.11,-164 1299.18,-151.07 1312.9,-142.65"/>
<polygon fill="midnightblue" stroke="midnightblue" points="1259.83,-171.11 1253.14,-179.32 1263.49,-177.08 1259.83,-171.11"/>
</g>
<!-- Node22 -->
<g id="node22" class="node">
<title>Node22</title>
<g id="a_node22"><a xlink:href="_wall_function_8cpp.html" target="_top" xlink:title=" ">
<polygon fill="white" stroke="black" points="1277.5,-67.5 1277.5,-86.5 1376.5,-86.5 1376.5,-67.5 1277.5,-67.5"/>
<text text-anchor="middle" x="1327" y="-74.5" font-family="Helvetica,sans-Serif" font-size="10.00">WallFunction.cpp</text>
</a>
</g>
</g>
<!-- Node21&#45;&gt;Node22 -->
<g id="edge24" class="edge">
<title>Node21&#45;&gt;Node22</title>
<path fill="none" stroke="midnightblue" d="M1327,-112.8C1327,-103.91 1327,-93.78 1327,-86.75"/>
<polygon fill="midnightblue" stroke="midnightblue" points="1323.5,-113.08 1327,-123.08 1330.5,-113.08 1323.5,-113.08"/>
</g>
</g>
</svg>
        <g id="navigator" transform="translate(0 0)" fill="#404254">
                <rect fill="#f2f5e9" fill-opacity="0.5" stroke="#606060" stroke-width=".5" x="0" y="0" width="60" height="60"/>
                <use id="zoomplus" xlink:href="#zoomPlus" x="17" y="9" onmousedown="handleZoom(evt,'in')"/>
                <use id="zoomminus" xlink:href="#zoomMin" x="42" y="9" onmousedown="handleZoom(evt,'out')"/>
                <use id="reset" xlink:href="#resetDef" x="30" y="36" onmousedown="handleReset()"/>
                <g id="arrowUp" xlink:href="#dirArrow" transform="translate(30 24)" onmousedown="handlePan(0,-1)">
                  <use xlink:href="#rim" fill="#404040">
                        <set attributeName="fill" to="#808080" begin="arrowUp.mouseover" end="arrowUp.mouseout"/>
                  </use>
                  <path fill="none" stroke="white" stroke-width="1.5" d="M0,-3.0v7 M-2.5,-0.5L0,-3.0L2.5,-0.5"/>
                </g>
                <g id="arrowRight" xlink:href="#dirArrow" transform="rotate(90) translate(36 -43)" onmousedown="handlePan(1,0)">
                  <use xlink:href="#rim" fill="#404040">
                        <set attributeName="fill" to="#808080" begin="arrowRight.mouseover" end="arrowRight.mouseout"/>
                  </use>
                  <path fill="none" stroke="white" stroke-width="1.5" d="M0,-3.0v7 M-2.5,-0.5L0,-3.0L2.5,-0.5"/>
                </g>
                <g id="arrowDown" xlink:href="#dirArrow" transform="rotate(180) translate(-30 -48)" onmousedown="handlePan(0,1)">
                  <use xlink:href="#rim" fill="#404040">
                        <set attributeName="fill" to="#808080" begin="arrowDown.mouseover" end="arrowDown.mouseout"/>
                  </use>
                  <path fill="none" stroke="white" stroke-width="1.5" d="M0,-3.0v7 M-2.5,-0.5L0,-3.0L2.5,-0.5"/>
                </g>
                <g id="arrowLeft" xlink:href="#dirArrow" transform="rotate(270) translate(-36 17)" onmousedown="handlePan(-1,0)">
                  <use xlink:href="#rim" fill="#404040">
                        <set attributeName="fill" to="#808080" begin="arrowLeft.mouseover" end="arrowLeft.mouseout"/>
                  </use>
                  <path fill="none" stroke="white" stroke-width="1.5" d="M0,-3.0v7 M-2.5,-0.5L0,-3.0L2.5,-0.5"/>
                </g>
        </g>
        <svg viewBox="0 0 15 15" width="100%" height="30px" preserveAspectRatio="xMaxYMin meet">
         <g id="arrow_out" transform="scale(0.3 0.3)">
          <a xlink:href="_m_o_data_8_h__dep__incl_org.svg" target="_base">
           <rect id="button" ry="5" rx="5" y="6" x="6" height="38" width="38"
                fill="#f2f5e9" fill-opacity="0.5" stroke="#606060" stroke-width="1.0"/>
           <path id="arrow"
             d="M 11.500037,31.436501 C 11.940474,20.09759 22.043105,11.32322 32.158766,21.979434 L 37.068811,17.246167 C 37.068811,17.246167 37.088388,32 37.088388,32 L 22.160133,31.978069 C 22.160133,31.978069 26.997745,27.140456 26.997745,27.140456 C 18.528582,18.264221 13.291696,25.230495 11.500037,31.436501 z"
             style="fill:#404040;"/>
          </a>
         </g>
        </svg>
</svg>
