<?xml version="1.0" encoding="UTF-8" standalone="no"?>
<!DOCTYPE svg PUBLIC "-//W3C//DTD SVG 1.1//EN"
 "http://www.w3.org/Graphics/SVG/1.1/DTD/svg11.dtd">
<!-- Generated by graphviz version 2.43.0 (0)
 -->
<!-- Title: MeshMap.H Pages: 1 -->
<!--zoomable 252 -->
<svg id="main" version="1.1" xmlns="http://www.w3.org/2000/svg" xmlns:xlink="http://www.w3.org/1999/xlink" xml:space="preserve" onload="init(evt)">
<style type="text/css"><![CDATA[
.edge:hover path { stroke: red; }
.edge:hover polygon { stroke: red; fill: red; }
]]></style>
<script type="text/javascript"><![CDATA[
var edges = document.getElementsByTagName('g');
if (edges && edges.length) {
  for (var i=0;i<edges.length;i++) {
    if (edges[i].id.substr(0,4)=='edge') {
      edges[i].setAttribute('class','edge');
    }
  }
}
]]></script>
        <defs>
                <circle id="rim" cx="0" cy="0" r="7"/>
                <circle id="rim2" cx="0" cy="0" r="3.5"/>
                <g id="zoomPlus">
                        <use xlink:href="#rim" fill="#404040">
                                <set attributeName="fill" to="#808080" begin="zoomplus.mouseover" end="zoomplus.mouseout"/>
                        </use>
                        <path d="M-4,0h8M0,-4v8" fill="none" stroke="white" stroke-width="1.5" pointer-events="none"/>
                </g>
                <g id="zoomMin">
                        <use xlink:href="#rim" fill="#404040">
                                <set attributeName="fill" to="#808080" begin="zoomminus.mouseover" end="zoomminus.mouseout"/>
                        </use>
                        <path d="M-4,0h8" fill="none" stroke="white" stroke-width="1.5" pointer-events="none"/>
                </g>
                <g id="dirArrow">
                        <path fill="none" stroke="white" stroke-width="1.5" d="M0,-3.0v7 M-2.5,-0.5L0,-3.0L2.5,-0.5"/>
                </g>
               <g id="resetDef">
                       <use xlink:href="#rim2" fill="#404040">
                               <set attributeName="fill" to="#808080" begin="reset.mouseover" end="reset.mouseout"/>
                       </use>
               </g>
        </defs>

<script type="text/javascript">
var viewWidth = 4680;
var viewHeight = 252;
var sectionId = 'dynsection-1';
</script>
<script xlink:href="svgpan.js"/>
<svg id="graph" class="graph">
<g id="viewport">
<title>MeshMap.H</title>
<polygon fill="white" stroke="transparent" points="-4,4 -4,-248 4675.5,-248 4675.5,4 -4,4"/>
<!-- Node1 -->
<g id="node1" class="node">
<title>Node1</title>
<g id="a_node1"><a xlink:title=" ">
<polygon fill="#bfbfbf" stroke="black" points="2627,-224.5 2627,-243.5 2701,-243.5 2701,-224.5 2627,-224.5"/>
<text text-anchor="middle" x="2664" y="-231.5" font-family="Helvetica,sans-Serif" font-size="10.00">MeshMap.H</text>
</a>
</g>
</g>
<!-- Node2 -->
<g id="node2" class="node">
<title>Node2</title>
<g id="a_node2"><a xlink:href="_c_f_d_sim_8_h.html" target="_top" xlink:title=" ">
<polygon fill="white" stroke="red" points="2578,-168.5 2578,-187.5 2644,-187.5 2644,-168.5 2578,-168.5"/>
<text text-anchor="middle" x="2611" y="-175.5" font-family="Helvetica,sans-Serif" font-size="10.00">CFDSim.H</text>
</a>
</g>
</g>
<!-- Node1&#45;&gt;Node2 -->
<g id="edge1" class="edge">
<title>Node1&#45;&gt;Node2</title>
<path fill="none" stroke="midnightblue" d="M2648.02,-216.72C2638.68,-207.2 2627.25,-195.56 2619.59,-187.75"/>
<polygon fill="midnightblue" stroke="midnightblue" points="2645.75,-219.4 2655.25,-224.08 2650.74,-214.49 2645.75,-219.4"/>
</g>
<!-- Node8 -->
<g id="node7" class="node">
<title>Node8</title>
<g id="a_node7"><a xlink:href="_mesh_map_8cpp.html" target="_top" xlink:title=" ">
<polygon fill="white" stroke="black" points="0,-112.5 0,-131.5 84,-131.5 84,-112.5 0,-112.5"/>
<text text-anchor="middle" x="42" y="-119.5" font-family="Helvetica,sans-Serif" font-size="10.00">MeshMap.cpp</text>
</a>
</g>
</g>
<!-- Node1&#45;&gt;Node8 -->
<g id="edge58" class="edge">
<title>Node1&#45;&gt;Node8</title>
<path fill="none" stroke="midnightblue" d="M2616.62,-232.39C2361.73,-228.87 1127.63,-208.44 122,-132 109.74,-131.07 96.45,-129.71 84.29,-128.34"/>
<polygon fill="midnightblue" stroke="midnightblue" points="2616.95,-235.9 2627,-232.54 2617.04,-228.9 2616.95,-235.9"/>
</g>
<!-- Node234 -->
<g id="node49" class="node">
<title>Node234</title>
<g id="a_node49"><a xlink:href="_channel_flow_map_8_h.html" target="_top" xlink:title=" ">
<polygon fill="white" stroke="red" points="2662.5,-168.5 2662.5,-187.5 2773.5,-187.5 2773.5,-168.5 2662.5,-168.5"/>
<text text-anchor="middle" x="2718" y="-175.5" font-family="Helvetica,sans-Serif" font-size="10.00">ChannelFlowMap.H</text>
</a>
</g>
</g>
<!-- Node1&#45;&gt;Node234 -->
<g id="edge59" class="edge">
<title>Node1&#45;&gt;Node234</title>
<path fill="none" stroke="midnightblue" d="M2680,-217C2689.57,-207.43 2701.36,-195.64 2709.25,-187.75"/>
<polygon fill="midnightblue" stroke="midnightblue" points="2677.51,-214.54 2672.92,-224.08 2682.46,-219.49 2677.51,-214.54"/>
</g>
<!-- Node236 -->
<g id="node50" class="node">
<title>Node236</title>
<g id="a_node50"><a xlink:href="_constant_map_8_h.html" target="_top" xlink:title=" ">
<polygon fill="white" stroke="red" points="2792,-168.5 2792,-187.5 2884,-187.5 2884,-168.5 2792,-168.5"/>
<text text-anchor="middle" x="2838" y="-175.5" font-family="Helvetica,sans-Serif" font-size="10.00">ConstantMap.H</text>
</a>
</g>
</g>
<!-- Node1&#45;&gt;Node236 -->
<g id="edge60" class="edge">
<title>Node1&#45;&gt;Node236</title>
<path fill="none" stroke="midnightblue" d="M2701.26,-221.44C2734.07,-211.26 2781.08,-196.66 2810.56,-187.52"/>
<polygon fill="midnightblue" stroke="midnightblue" points="2700.08,-218.14 2691.57,-224.44 2702.16,-224.82 2700.08,-218.14"/>
</g>
<!-- Node3 -->
<g id="node3" class="node">
<title>Node3</title>
<g id="a_node3"><a xlink:href="_wall_function_8_h.html" target="_top" xlink:title=" ">
<polygon fill="white" stroke="red" points="140.5,-112.5 140.5,-131.5 229.5,-131.5 229.5,-112.5 140.5,-112.5"/>
<text text-anchor="middle" x="185" y="-119.5" font-family="Helvetica,sans-Serif" font-size="10.00">WallFunction.H</text>
</a>
</g>
</g>
<!-- Node2&#45;&gt;Node3 -->
<g id="edge2" class="edge">
<title>Node2&#45;&gt;Node3</title>
<path fill="none" stroke="midnightblue" d="M2567.64,-176.56C2265.46,-173.44 479.16,-154.17 239,-132 235.97,-131.72 232.86,-131.37 229.72,-130.97"/>
<polygon fill="midnightblue" stroke="midnightblue" points="2567.72,-180.06 2577.76,-176.66 2567.79,-173.06 2567.72,-180.06"/>
</g>
<!-- Node5 -->
<g id="node4" class="node">
<title>Node5</title>
<g id="a_node4"><a xlink:href="_channel_flow_8_h.html" target="_top" xlink:title=" ">
<polygon fill="white" stroke="black" points="140.5,-56.5 140.5,-75.5 229.5,-75.5 229.5,-56.5 140.5,-56.5"/>
<text text-anchor="middle" x="185" y="-63.5" font-family="Helvetica,sans-Serif" font-size="10.00">ChannelFlow.H</text>
</a>
</g>
</g>
<!-- Node2&#45;&gt;Node5 -->
<g id="edge44" class="edge">
<title>Node2&#45;&gt;Node5</title>
<path fill="none" stroke="midnightblue" d="M2567.59,-176.63C2238.83,-173.75 153.23,-154.64 131,-132 112.39,-113.05 147.09,-88.41 169.02,-75.59"/>
<polygon fill="midnightblue" stroke="midnightblue" points="2567.64,-180.13 2577.67,-176.71 2567.7,-173.13 2567.64,-180.13"/>
</g>
<!-- Node6 -->
<g id="node5" class="node">
<title>Node6</title>
<g id="a_node5"><a xlink:href="_channel_flow_8cpp.html" target="_top" xlink:title=" ">
<polygon fill="white" stroke="black" points="2001.5,-0.5 2001.5,-19.5 2100.5,-19.5 2100.5,-0.5 2001.5,-0.5"/>
<text text-anchor="middle" x="2051" y="-7.5" font-family="Helvetica,sans-Serif" font-size="10.00">ChannelFlow.cpp</text>
</a>
</g>
</g>
<!-- Node2&#45;&gt;Node6 -->
<g id="edge43" class="edge">
<title>Node2&#45;&gt;Node6</title>
<path fill="none" stroke="midnightblue" d="M2654.48,-168.47C2788.74,-161 3829.84,-178.04 3877,-132 3901.19,-108.39 3903.61,-80.2 3880,-56 3848.04,-23.25 2390.86,-12.99 2100.88,-11.28"/>
<polygon fill="midnightblue" stroke="midnightblue" points="2654.07,-164.99 2644.38,-169.28 2654.62,-171.97 2654.07,-164.99"/>
</g>
<!-- Node7 -->
<g id="node6" class="node">
<title>Node7</title>
<g id="a_node6"><a xlink:href="_c_f_d_sim_8cpp.html" target="_top" xlink:title=" ">
<polygon fill="white" stroke="black" points="248,-112.5 248,-131.5 324,-131.5 324,-112.5 248,-112.5"/>
<text text-anchor="middle" x="286" y="-119.5" font-family="Helvetica,sans-Serif" font-size="10.00">CFDSim.cpp</text>
</a>
</g>
</g>
<!-- Node2&#45;&gt;Node7 -->
<g id="edge5" class="edge">
<title>Node2&#45;&gt;Node7</title>
<path fill="none" stroke="midnightblue" d="M2567.53,-176.59C2271.99,-173.71 562.88,-156.1 333,-132 330.11,-131.7 327.13,-131.31 324.14,-130.86"/>
<polygon fill="midnightblue" stroke="midnightblue" points="2567.8,-180.09 2577.83,-176.69 2567.86,-173.09 2567.8,-180.09"/>
</g>
<!-- Node2&#45;&gt;Node8 -->
<g id="edge6" class="edge">
<title>Node2&#45;&gt;Node8</title>
<path fill="none" stroke="midnightblue" d="M2567.53,-176.59C2254.81,-173.62 353.17,-154.67 98,-132 93.49,-131.6 88.79,-131.05 84.12,-130.42"/>
<polygon fill="midnightblue" stroke="midnightblue" points="2567.54,-180.09 2577.57,-176.69 2567.6,-173.09 2567.54,-180.09"/>
</g>
<!-- Node9 -->
<g id="node8" class="node">
<title>Node9</title>
<g id="a_node8"><a xlink:href="_a_b_l_forcing_8cpp.html" target="_top" xlink:title=" ">
<polygon fill="white" stroke="black" points="342.5,-112.5 342.5,-131.5 433.5,-131.5 433.5,-112.5 342.5,-112.5"/>
<text text-anchor="middle" x="388" y="-119.5" font-family="Helvetica,sans-Serif" font-size="10.00">ABLForcing.cpp</text>
</a>
</g>
</g>
<!-- Node2&#45;&gt;Node9 -->
<g id="edge7" class="edge">
<title>Node2&#45;&gt;Node9</title>
<path fill="none" stroke="midnightblue" d="M2567.69,-176.94C2300.85,-176.42 877.23,-171.83 443,-132 439.92,-131.72 436.74,-131.36 433.55,-130.96"/>
<polygon fill="midnightblue" stroke="midnightblue" points="2567.75,-180.44 2577.76,-176.96 2567.77,-173.44 2567.75,-180.44"/>
</g>
<!-- Node10 -->
<g id="node9" class="node">
<title>Node10</title>
<g id="a_node9"><a xlink:href="_a_b_l_mean_boussinesq_8cpp.html" target="_top" xlink:title=" ">
<polygon fill="white" stroke="black" points="452,-112.5 452,-131.5 590,-131.5 590,-112.5 452,-112.5"/>
<text text-anchor="middle" x="521" y="-119.5" font-family="Helvetica,sans-Serif" font-size="10.00">ABLMeanBoussinesq.cpp</text>
</a>
</g>
</g>
<!-- Node2&#45;&gt;Node10 -->
<g id="edge8" class="edge">
<title>Node2&#45;&gt;Node10</title>
<path fill="none" stroke="midnightblue" d="M2567.64,-176.58C2312.18,-174 1001.04,-159.63 599,-132 596.14,-131.8 593.23,-131.58 590.29,-131.33"/>
<polygon fill="midnightblue" stroke="midnightblue" points="2567.61,-180.08 2577.65,-176.68 2567.68,-173.08 2567.61,-180.08"/>
</g>
<!-- Node11 -->
<g id="node10" class="node">
<title>Node11</title>
<g id="a_node10"><a xlink:href="_a_b_l_meso_forcing_mom_8cpp.html" target="_top" xlink:title=" ">
<polygon fill="white" stroke="black" points="608,-112.5 608,-131.5 750,-131.5 750,-112.5 608,-112.5"/>
<text text-anchor="middle" x="679" y="-119.5" font-family="Helvetica,sans-Serif" font-size="10.00">ABLMesoForcingMom.cpp</text>
</a>
</g>
</g>
<!-- Node2&#45;&gt;Node11 -->
<g id="edge9" class="edge">
<title>Node2&#45;&gt;Node11</title>
<path fill="none" stroke="midnightblue" d="M2567.46,-177.35C2363.31,-178.7 1480.5,-181.25 759,-132 756.07,-131.8 753.09,-131.57 750.07,-131.32"/>
<polygon fill="midnightblue" stroke="midnightblue" points="2567.79,-180.85 2577.76,-177.28 2567.74,-173.85 2567.79,-180.85"/>
</g>
<!-- Node12 -->
<g id="node11" class="node">
<title>Node12</title>
<g id="a_node11"><a xlink:href="_actuator_forcing_8cpp.html" target="_top" xlink:title=" ">
<polygon fill="white" stroke="black" points="768.5,-112.5 768.5,-131.5 881.5,-131.5 881.5,-112.5 768.5,-112.5"/>
<text text-anchor="middle" x="825" y="-119.5" font-family="Helvetica,sans-Serif" font-size="10.00">ActuatorForcing.cpp</text>
</a>
</g>
</g>
<!-- Node2&#45;&gt;Node12 -->
<g id="edge10" class="edge">
<title>Node2&#45;&gt;Node12</title>
<path fill="none" stroke="midnightblue" d="M2567.84,-176.51C2335.47,-173.79 1231.33,-159.57 891,-132 888,-131.76 884.93,-131.47 881.84,-131.15"/>
<polygon fill="midnightblue" stroke="midnightblue" points="2567.89,-180.01 2577.93,-176.63 2567.97,-173.01 2567.89,-180.01"/>
</g>
<!-- Node13 -->
<g id="node12" class="node">
<title>Node13</title>
<g id="a_node12"><a xlink:href="icns_2source__terms_2_body_force_8cpp.html" target="_top" xlink:title=" ">
<polygon fill="white" stroke="black" points="900,-112.5 900,-131.5 988,-131.5 988,-112.5 900,-112.5"/>
<text text-anchor="middle" x="944" y="-119.5" font-family="Helvetica,sans-Serif" font-size="10.00">BodyForce.cpp</text>
</a>
</g>
</g>
<!-- Node2&#45;&gt;Node13 -->
<g id="edge11" class="edge">
<title>Node2&#45;&gt;Node13</title>
<path fill="none" stroke="midnightblue" d="M2567.65,-176.62C2343.53,-174.5 1314.52,-163.23 997,-132 994.12,-131.72 991.16,-131.37 988.18,-130.98"/>
<polygon fill="midnightblue" stroke="midnightblue" points="2567.67,-180.12 2577.7,-176.71 2567.74,-173.12 2567.67,-180.12"/>
</g>
<!-- Node14 -->
<g id="node13" class="node">
<title>Node14</title>
<g id="a_node13"><a xlink:href="_boussinesq_buoyancy_8cpp.html" target="_top" xlink:title=" ">
<polygon fill="white" stroke="black" points="1006.5,-112.5 1006.5,-131.5 1145.5,-131.5 1145.5,-112.5 1006.5,-112.5"/>
<text text-anchor="middle" x="1076" y="-119.5" font-family="Helvetica,sans-Serif" font-size="10.00">BoussinesqBuoyancy.cpp</text>
</a>
</g>
</g>
<!-- Node2&#45;&gt;Node14 -->
<g id="edge12" class="edge">
<title>Node2&#45;&gt;Node14</title>
<path fill="none" stroke="midnightblue" d="M2567.59,-176.85C2391.71,-176 1715.02,-170.28 1160,-132 1155.32,-131.68 1150.49,-131.29 1145.64,-130.87"/>
<polygon fill="midnightblue" stroke="midnightblue" points="2567.72,-180.35 2577.74,-176.9 2567.75,-173.35 2567.72,-180.35"/>
</g>
<!-- Node15 -->
<g id="node14" class="node">
<title>Node15</title>
<g id="a_node14"><a xlink:href="_burggraf_flow_forcing_8cpp.html" target="_top" xlink:title=" ">
<polygon fill="white" stroke="black" points="2942.5,-56.5 2942.5,-75.5 3079.5,-75.5 3079.5,-56.5 2942.5,-56.5"/>
<text text-anchor="middle" x="3011" y="-63.5" font-family="Helvetica,sans-Serif" font-size="10.00">BurggrafFlowForcing.cpp</text>
</a>
</g>
</g>
<!-- Node2&#45;&gt;Node15 -->
<g id="edge13" class="edge">
<title>Node2&#45;&gt;Node15</title>
<path fill="none" stroke="midnightblue" d="M2567.48,-175.19C2505.67,-171.61 2397.22,-161.23 2373,-132 2367.33,-125.16 2366.94,-118.5 2373,-112 2411.18,-71.03 2785.43,-66.69 2942.33,-66.69"/>
<polygon fill="midnightblue" stroke="midnightblue" points="2567.54,-178.7 2577.72,-175.75 2567.92,-171.71 2567.54,-178.7"/>
</g>
<!-- Node16 -->
<g id="node15" class="node">
<title>Node16</title>
<g id="a_node15"><a xlink:href="_coriolis_forcing_8cpp.html" target="_top" xlink:title=" ">
<polygon fill="white" stroke="black" points="1202.5,-112.5 1202.5,-131.5 1311.5,-131.5 1311.5,-112.5 1202.5,-112.5"/>
<text text-anchor="middle" x="1257" y="-119.5" font-family="Helvetica,sans-Serif" font-size="10.00">CoriolisForcing.cpp</text>
</a>
</g>
</g>
<!-- Node2&#45;&gt;Node16 -->
<g id="edge14" class="edge">
<title>Node2&#45;&gt;Node16</title>
<path fill="none" stroke="midnightblue" d="M2567.33,-177.17C2403.23,-177.45 1808.01,-175.24 1320,-132 1317.25,-131.76 1314.43,-131.47 1311.59,-131.16"/>
<polygon fill="midnightblue" stroke="midnightblue" points="2567.51,-180.67 2577.51,-177.15 2567.5,-173.67 2567.51,-180.67"/>
</g>
<!-- Node17 -->
<g id="node16" class="node">
<title>Node17</title>
<g id="a_node16"><a xlink:href="_density_buoyancy_8cpp.html" target="_top" xlink:title=" ">
<polygon fill="white" stroke="black" points="1329.5,-112.5 1329.5,-131.5 1450.5,-131.5 1450.5,-112.5 1329.5,-112.5"/>
<text text-anchor="middle" x="1390" y="-119.5" font-family="Helvetica,sans-Serif" font-size="10.00">DensityBuoyancy.cpp</text>
</a>
</g>
</g>
<!-- Node2&#45;&gt;Node17 -->
<g id="edge15" class="edge">
<title>Node2&#45;&gt;Node17</title>
<path fill="none" stroke="midnightblue" d="M2567.62,-176.72C2415.24,-175.44 1890.41,-168.49 1459,-132 1456.23,-131.77 1453.4,-131.5 1450.55,-131.21"/>
<polygon fill="midnightblue" stroke="midnightblue" points="2567.91,-180.22 2577.94,-176.8 2567.97,-173.22 2567.91,-180.22"/>
</g>
<!-- Node18 -->
<g id="node17" class="node">
<title>Node18</title>
<g id="a_node17"><a xlink:href="_geostrophic_forcing_8cpp.html" target="_top" xlink:title=" ">
<polygon fill="white" stroke="black" points="1468.5,-112.5 1468.5,-131.5 1599.5,-131.5 1599.5,-112.5 1468.5,-112.5"/>
<text text-anchor="middle" x="1534" y="-119.5" font-family="Helvetica,sans-Serif" font-size="10.00">GeostrophicForcing.cpp</text>
</a>
</g>
</g>
<!-- Node2&#45;&gt;Node18 -->
<g id="edge16" class="edge">
<title>Node2&#45;&gt;Node18</title>
<path fill="none" stroke="midnightblue" d="M2567.36,-176.2C2427.67,-173.4 1978.99,-162.47 1609,-132 1605.99,-131.75 1602.92,-131.48 1599.82,-131.18"/>
<polygon fill="midnightblue" stroke="midnightblue" points="2567.58,-179.71 2577.64,-176.4 2567.71,-172.71 2567.58,-179.71"/>
</g>
<!-- Node19 -->
<g id="node18" class="node">
<title>Node19</title>
<g id="a_node18"><a xlink:href="_gravity_forcing_8cpp.html" target="_top" xlink:title=" ">
<polygon fill="white" stroke="black" points="1618,-112.5 1618,-131.5 1726,-131.5 1726,-112.5 1618,-112.5"/>
<text text-anchor="middle" x="1672" y="-119.5" font-family="Helvetica,sans-Serif" font-size="10.00">GravityForcing.cpp</text>
</a>
</g>
</g>
<!-- Node2&#45;&gt;Node19 -->
<g id="edge17" class="edge">
<title>Node2&#45;&gt;Node19</title>
<path fill="none" stroke="midnightblue" d="M2567.76,-176.16C2440.1,-173.4 2053.82,-162.9 1735,-132 1732.14,-131.72 1729.21,-131.41 1726.26,-131.07"/>
<polygon fill="midnightblue" stroke="midnightblue" points="2567.83,-179.67 2577.91,-176.38 2567.98,-172.67 2567.83,-179.67"/>
</g>
<!-- Node20 -->
<g id="node19" class="node">
<title>Node20</title>
<g id="a_node19"><a xlink:href="_hurricane_forcing_8cpp.html" target="_top" xlink:title=" ">
<polygon fill="white" stroke="black" points="1744.5,-112.5 1744.5,-131.5 1863.5,-131.5 1863.5,-112.5 1744.5,-112.5"/>
<text text-anchor="middle" x="1804" y="-119.5" font-family="Helvetica,sans-Serif" font-size="10.00">HurricaneForcing.cpp</text>
</a>
</g>
</g>
<!-- Node2&#45;&gt;Node20 -->
<g id="edge18" class="edge">
<title>Node2&#45;&gt;Node20</title>
<path fill="none" stroke="midnightblue" d="M2567.77,-175.4C2453.9,-170.98 2136.31,-157.17 1873,-132 1869.99,-131.71 1866.92,-131.4 1863.81,-131.06"/>
<polygon fill="midnightblue" stroke="midnightblue" points="2567.71,-178.9 2577.84,-175.79 2567.98,-171.91 2567.71,-178.9"/>
</g>
<!-- Node21 -->
<g id="node20" class="node">
<title>Node21</title>
<g id="a_node20"><a xlink:href="_rayleigh_damping_8cpp.html" target="_top" xlink:title=" ">
<polygon fill="white" stroke="black" points="1882,-112.5 1882,-131.5 2006,-131.5 2006,-112.5 1882,-112.5"/>
<text text-anchor="middle" x="1944" y="-119.5" font-family="Helvetica,sans-Serif" font-size="10.00">RayleighDamping.cpp</text>
</a>
</g>
</g>
<!-- Node2&#45;&gt;Node21 -->
<g id="edge19" class="edge">
<title>Node2&#45;&gt;Node21</title>
<path fill="none" stroke="midnightblue" d="M2567.86,-174.5C2469.61,-168.63 2221.69,-152.89 2015,-132 2012.16,-131.71 2009.25,-131.4 2006.32,-131.08"/>
<polygon fill="midnightblue" stroke="midnightblue" points="2567.81,-178 2578,-175.1 2568.22,-171.01 2567.81,-178"/>
</g>
<!-- Node22 -->
<g id="node21" class="node">
<title>Node22</title>
<g id="a_node21"><a xlink:href="_synth_turb_forcing_8cpp.html" target="_top" xlink:title=" ">
<polygon fill="white" stroke="black" points="2024,-112.5 2024,-131.5 2144,-131.5 2144,-112.5 2024,-112.5"/>
<text text-anchor="middle" x="2084" y="-119.5" font-family="Helvetica,sans-Serif" font-size="10.00">SynthTurbForcing.cpp</text>
</a>
</g>
</g>
<!-- Node2&#45;&gt;Node22 -->
<g id="edge20" class="edge">
<title>Node2&#45;&gt;Node22</title>
<path fill="none" stroke="midnightblue" d="M2567.56,-173.2C2486.16,-165.96 2305.13,-149.39 2153,-132 2150.12,-131.67 2147.17,-131.32 2144.2,-130.97"/>
<polygon fill="midnightblue" stroke="midnightblue" points="2567.64,-176.72 2577.91,-174.11 2568.26,-169.74 2567.64,-176.72"/>
</g>
<!-- Node23 -->
<g id="node22" class="node">
<title>Node23</title>
<g id="a_node22"><a xlink:href="_p_d_e_8_h.html" target="_top" xlink:title=" ">
<polygon fill="white" stroke="red" points="1660.5,-56.5 1660.5,-75.5 1707.5,-75.5 1707.5,-56.5 1660.5,-56.5"/>
<text text-anchor="middle" x="1684" y="-63.5" font-family="Helvetica,sans-Serif" font-size="10.00">PDE.H</text>
</a>
</g>
</g>
<!-- Node2&#45;&gt;Node23 -->
<g id="edge21" class="edge">
<title>Node2&#45;&gt;Node23</title>
<path fill="none" stroke="midnightblue" d="M2567.84,-177.3C2335.47,-178.7 1242,-182.58 1193,-132 1125.84,-62.68 1554.07,-64.95 1660.48,-66.56"/>
<polygon fill="midnightblue" stroke="midnightblue" points="2567.96,-180.8 2577.94,-177.24 2567.91,-173.8 2567.96,-180.8"/>
</g>
<!-- Node57 -->
<g id="node23" class="node">
<title>Node57</title>
<g id="a_node23"><a xlink:href="_p_d_e_base_8cpp.html" target="_top" xlink:title=" ">
<polygon fill="white" stroke="black" points="2246,-112.5 2246,-131.5 2326,-131.5 2326,-112.5 2246,-112.5"/>
<text text-anchor="middle" x="2286" y="-119.5" font-family="Helvetica,sans-Serif" font-size="10.00">PDEBase.cpp</text>
</a>
</g>
</g>
<!-- Node2&#45;&gt;Node57 -->
<g id="edge22" class="edge">
<title>Node2&#45;&gt;Node57</title>
<path fill="none" stroke="midnightblue" d="M2567.47,-169.78C2513.93,-160.9 2420.27,-145.35 2340,-132 2335.5,-131.25 2330.79,-130.47 2326.1,-129.69"/>
<polygon fill="midnightblue" stroke="midnightblue" points="2567.18,-173.28 2577.62,-171.46 2568.33,-166.37 2567.18,-173.28"/>
</g>
<!-- Node58 -->
<g id="node24" class="node">
<title>Node58</title>
<g id="a_node24"><a xlink:href="_p_d_e_ops_8_h.html" target="_top" xlink:title=" ">
<polygon fill="white" stroke="red" points="2162.5,-112.5 2162.5,-131.5 2227.5,-131.5 2227.5,-112.5 2162.5,-112.5"/>
<text text-anchor="middle" x="2195" y="-119.5" font-family="Helvetica,sans-Serif" font-size="10.00">PDEOps.H</text>
</a>
</g>
</g>
<!-- Node2&#45;&gt;Node58 -->
<g id="edge23" class="edge">
<title>Node2&#45;&gt;Node58</title>
<path fill="none" stroke="midnightblue" d="M2567.66,-173.08C2497.78,-166.48 2356.03,-151.87 2237,-132 2233.91,-131.48 2230.7,-130.9 2227.5,-130.27"/>
<polygon fill="midnightblue" stroke="midnightblue" points="2567.55,-176.59 2577.84,-174.04 2568.21,-169.62 2567.55,-176.59"/>
</g>
<!-- Node68 -->
<g id="node25" class="node">
<title>Node68</title>
<g id="a_node25"><a xlink:href="_s_d_r_src_8cpp.html" target="_top" xlink:title=" ">
<polygon fill="white" stroke="black" points="2382,-112.5 2382,-131.5 2454,-131.5 2454,-112.5 2382,-112.5"/>
<text text-anchor="middle" x="2418" y="-119.5" font-family="Helvetica,sans-Serif" font-size="10.00">SDRSrc.cpp</text>
</a>
</g>
</g>
<!-- Node2&#45;&gt;Node68 -->
<g id="edge25" class="edge">
<title>Node2&#45;&gt;Node68</title>
<path fill="none" stroke="midnightblue" d="M2570.61,-165.7C2534.18,-155.51 2481.41,-140.74 2448.44,-131.52"/>
<polygon fill="midnightblue" stroke="midnightblue" points="2569.85,-169.12 2580.42,-168.44 2571.73,-162.38 2569.85,-169.12"/>
</g>
<!-- Node69 -->
<g id="node26" class="node">
<title>Node69</title>
<g id="a_node26"><a xlink:href="_a_b_l_meso_forcing_temp_8cpp.html" target="_top" xlink:title=" ">
<polygon fill="white" stroke="black" points="2472.5,-112.5 2472.5,-131.5 2615.5,-131.5 2615.5,-112.5 2472.5,-112.5"/>
<text text-anchor="middle" x="2544" y="-119.5" font-family="Helvetica,sans-Serif" font-size="10.00">ABLMesoForcingTemp.cpp</text>
</a>
</g>
</g>
<!-- Node2&#45;&gt;Node69 -->
<g id="edge26" class="edge">
<title>Node2&#45;&gt;Node69</title>
<path fill="none" stroke="midnightblue" d="M2592.17,-161.82C2580.16,-152.15 2565.03,-139.95 2554.96,-131.83"/>
<polygon fill="midnightblue" stroke="midnightblue" points="2590.25,-164.77 2600.24,-168.32 2594.65,-159.32 2590.25,-164.77"/>
</g>
<!-- Node70 -->
<g id="node27" class="node">
<title>Node70</title>
<g id="a_node27"><a xlink:href="temperature_2source__terms_2_body_force_8cpp.html" target="_top" xlink:title=" ">
<polygon fill="white" stroke="black" points="2634,-112.5 2634,-131.5 2722,-131.5 2722,-112.5 2634,-112.5"/>
<text text-anchor="middle" x="2678" y="-119.5" font-family="Helvetica,sans-Serif" font-size="10.00">BodyForce.cpp</text>
</a>
</g>
</g>
<!-- Node2&#45;&gt;Node70 -->
<g id="edge27" class="edge">
<title>Node2&#45;&gt;Node70</title>
<path fill="none" stroke="midnightblue" d="M2629.83,-161.82C2641.84,-152.15 2656.97,-139.95 2667.04,-131.83"/>
<polygon fill="midnightblue" stroke="midnightblue" points="2627.35,-159.32 2621.76,-168.32 2631.75,-164.77 2627.35,-159.32"/>
</g>
<!-- Node71 -->
<g id="node28" class="node">
<title>Node71</title>
<g id="a_node28"><a xlink:href="_ksgs_m84_src_8cpp.html" target="_top" xlink:title=" ">
<polygon fill="white" stroke="black" points="2740,-112.5 2740,-131.5 2836,-131.5 2836,-112.5 2740,-112.5"/>
<text text-anchor="middle" x="2788" y="-119.5" font-family="Helvetica,sans-Serif" font-size="10.00">KsgsM84Src.cpp</text>
</a>
</g>
</g>
<!-- Node2&#45;&gt;Node71 -->
<g id="edge28" class="edge">
<title>Node2&#45;&gt;Node71</title>
<path fill="none" stroke="midnightblue" d="M2648.9,-165.44C2682.28,-155.26 2730.1,-140.66 2760.09,-131.52"/>
<polygon fill="midnightblue" stroke="midnightblue" points="2647.59,-162.18 2639.05,-168.44 2649.63,-168.87 2647.59,-162.18"/>
</g>
<!-- Node72 -->
<g id="node29" class="node">
<title>Node72</title>
<g id="a_node29"><a xlink:href="_kw_s_s_t_src_8cpp.html" target="_top" xlink:title=" ">
<polygon fill="white" stroke="black" points="2854.5,-112.5 2854.5,-131.5 2939.5,-131.5 2939.5,-112.5 2854.5,-112.5"/>
<text text-anchor="middle" x="2897" y="-119.5" font-family="Helvetica,sans-Serif" font-size="10.00">KwSSTSrc.cpp</text>
</a>
</g>
</g>
<!-- Node2&#45;&gt;Node72 -->
<g id="edge29" class="edge">
<title>Node2&#45;&gt;Node72</title>
<path fill="none" stroke="midnightblue" d="M2654.64,-167.72C2730.33,-152.72 2807.49,-138.79 2854.17,-130.51"/>
<polygon fill="midnightblue" stroke="midnightblue" points="2653.58,-164.36 2644.45,-169.74 2654.94,-171.22 2653.58,-164.36"/>
</g>
<!-- Node73 -->
<g id="node30" class="node">
<title>Node73</title>
<g id="a_node30"><a xlink:href="helics_8_h.html" target="_top" xlink:title=" ">
<polygon fill="white" stroke="red" points="2958,-112.5 2958,-131.5 3014,-131.5 3014,-112.5 2958,-112.5"/>
<text text-anchor="middle" x="2986" y="-119.5" font-family="Helvetica,sans-Serif" font-size="10.00">helics.H</text>
</a>
</g>
</g>
<!-- Node2&#45;&gt;Node73 -->
<g id="edge30" class="edge">
<title>Node2&#45;&gt;Node73</title>
<path fill="none" stroke="midnightblue" d="M2651.27,-166.82C2776.09,-146.58 2812.28,-154.67 2939,-132 2945.01,-130.93 2951.49,-129.49 2957.76,-128.09"/>
<polygon fill="midnightblue" stroke="midnightblue" points="2650.62,-163.38 2641.33,-168.46 2651.76,-170.29 2650.62,-163.38"/>
</g>
<!-- Node75 -->
<g id="node31" class="node">
<title>Node75</title>
<g id="a_node31"><a xlink:href="_i_b_8cpp.html" target="_top" xlink:title=" ">
<polygon fill="white" stroke="black" points="3032.5,-112.5 3032.5,-131.5 3079.5,-131.5 3079.5,-112.5 3032.5,-112.5"/>
<text text-anchor="middle" x="3056" y="-119.5" font-family="Helvetica,sans-Serif" font-size="10.00">IB.cpp</text>
</a>
</g>
</g>
<!-- Node2&#45;&gt;Node75 -->
<g id="edge32" class="edge">
<title>Node2&#45;&gt;Node75</title>
<path fill="none" stroke="midnightblue" d="M2654.33,-167.96C2818.04,-143.38 2863.67,-161.26 3023,-132 3026.04,-131.44 3029.2,-130.74 3032.32,-129.97"/>
<polygon fill="midnightblue" stroke="midnightblue" points="2653.76,-164.51 2644.41,-169.48 2654.82,-171.43 2653.76,-164.51"/>
</g>
<!-- Node76 -->
<g id="node32" class="node">
<title>Node76</title>
<g id="a_node32"><a xlink:href="_i_b_ops_8_h.html" target="_top" xlink:title=" ">
<polygon fill="white" stroke="red" points="3098,-112.5 3098,-131.5 3154,-131.5 3154,-112.5 3098,-112.5"/>
<text text-anchor="middle" x="3126" y="-119.5" font-family="Helvetica,sans-Serif" font-size="10.00">IBOps.H</text>
</a>
</g>
</g>
<!-- Node2&#45;&gt;Node76 -->
<g id="edge33" class="edge">
<title>Node2&#45;&gt;Node76</title>
<path fill="none" stroke="midnightblue" d="M2654.55,-167.95C2846.71,-140.38 2899.68,-161.92 3088,-132 3091.21,-131.49 3094.56,-130.85 3097.87,-130.16"/>
<polygon fill="midnightblue" stroke="midnightblue" points="2653.79,-164.53 2644.4,-169.44 2654.8,-171.46 2653.79,-164.53"/>
</g>
<!-- Node86 -->
<g id="node33" class="node">
<title>Node86</title>
<g id="a_node33"><a xlink:href="incflo_8_h.html" target="_top" xlink:title=" ">
<polygon fill="white" stroke="red" points="3172.5,-112.5 3172.5,-131.5 3225.5,-131.5 3225.5,-112.5 3172.5,-112.5"/>
<text text-anchor="middle" x="3199" y="-119.5" font-family="Helvetica,sans-Serif" font-size="10.00">incflo.H</text>
</a>
</g>
</g>
<!-- Node2&#45;&gt;Node86 -->
<g id="edge34" class="edge">
<title>Node2&#45;&gt;Node86</title>
<path fill="none" stroke="midnightblue" d="M2654.55,-167.98C2879.79,-137.03 2941.88,-167.17 3163,-132 3166.05,-131.51 3169.23,-130.89 3172.37,-130.21"/>
<polygon fill="midnightblue" stroke="midnightblue" points="2653.81,-164.55 2644.39,-169.4 2654.78,-171.48 2653.81,-164.55"/>
</g>
<!-- Node114 -->
<g id="node34" class="node">
<title>Node114</title>
<g id="a_node34"><a xlink:href="_ocean_waves_8cpp.html" target="_top" xlink:title=" ">
<polygon fill="white" stroke="black" points="3244,-112.5 3244,-131.5 3344,-131.5 3344,-112.5 3244,-112.5"/>
<text text-anchor="middle" x="3294" y="-119.5" font-family="Helvetica,sans-Serif" font-size="10.00">OceanWaves.cpp</text>
</a>
</g>
</g>
<!-- Node2&#45;&gt;Node114 -->
<g id="edge35" class="edge">
<title>Node2&#45;&gt;Node114</title>
<path fill="none" stroke="midnightblue" d="M2654.39,-168.01C2911.05,-133.46 2979.98,-158.87 3234,-132 3237.25,-131.66 3240.59,-131.26 3243.95,-130.84"/>
<polygon fill="midnightblue" stroke="midnightblue" points="2653.83,-164.56 2644.39,-169.37 2654.77,-171.49 2653.83,-164.56"/>
</g>
<!-- Node115 -->
<g id="node35" class="node">
<title>Node115</title>
<g id="a_node35"><a xlink:href="_ocean_waves_ops_8_h.html" target="_top" xlink:title=" ">
<polygon fill="white" stroke="red" points="3362.5,-112.5 3362.5,-131.5 3471.5,-131.5 3471.5,-112.5 3362.5,-112.5"/>
<text text-anchor="middle" x="3417" y="-119.5" font-family="Helvetica,sans-Serif" font-size="10.00">OceanWavesOps.H</text>
</a>
</g>
</g>
<!-- Node2&#45;&gt;Node115 -->
<g id="edge36" class="edge">
<title>Node2&#45;&gt;Node115</title>
<path fill="none" stroke="midnightblue" d="M2654.54,-168.01C2963.61,-127.97 3046.23,-161.4 3353,-132 3356.02,-131.71 3359.11,-131.38 3362.22,-131.03"/>
<polygon fill="midnightblue" stroke="midnightblue" points="2653.85,-164.57 2644.39,-169.34 2654.76,-171.51 2653.85,-164.57"/>
</g>
<!-- Node123 -->
<g id="node36" class="node">
<title>Node123</title>
<g id="a_node36"><a xlink:href="_tioga_interface_8cpp.html" target="_top" xlink:title=" ">
<polygon fill="white" stroke="black" points="3489.5,-112.5 3489.5,-131.5 3596.5,-131.5 3596.5,-112.5 3489.5,-112.5"/>
<text text-anchor="middle" x="3543" y="-119.5" font-family="Helvetica,sans-Serif" font-size="10.00">TiogaInterface.cpp</text>
</a>
</g>
</g>
<!-- Node2&#45;&gt;Node123 -->
<g id="edge37" class="edge">
<title>Node2&#45;&gt;Node123</title>
<path fill="none" stroke="midnightblue" d="M2654.44,-168.04C3019.68,-122.1 3116.99,-165.75 3480,-132 3483.08,-131.71 3486.24,-131.38 3489.43,-131.02"/>
<polygon fill="midnightblue" stroke="midnightblue" points="2653.86,-164.58 2644.38,-169.32 2654.75,-171.53 2653.86,-164.58"/>
</g>
<!-- Node124 -->
<g id="node37" class="node">
<title>Node124</title>
<g id="a_node37"><a xlink:href="_boussinesq_bubble_8cpp.html" target="_top" xlink:title=" ">
<polygon fill="white" stroke="black" points="3615,-112.5 3615,-131.5 3741,-131.5 3741,-112.5 3615,-112.5"/>
<text text-anchor="middle" x="3678" y="-119.5" font-family="Helvetica,sans-Serif" font-size="10.00">BoussinesqBubble.cpp</text>
</a>
</g>
</g>
<!-- Node2&#45;&gt;Node124 -->
<g id="edge38" class="edge">
<title>Node2&#45;&gt;Node124</title>
<path fill="none" stroke="midnightblue" d="M2654.37,-168.06C3074.87,-116.23 3186.25,-165.67 3605,-132 3608.18,-131.74 3611.44,-131.45 3614.73,-131.13"/>
<polygon fill="midnightblue" stroke="midnightblue" points="2653.87,-164.59 2644.38,-169.3 2654.74,-171.54 2653.87,-164.59"/>
</g>
<!-- Node125 -->
<g id="node38" class="node">
<title>Node125</title>
<g id="a_node38"><a xlink:href="_burggraf_flow_8cpp.html" target="_top" xlink:title=" ">
<polygon fill="white" stroke="black" points="3770.5,-56.5 3770.5,-75.5 3871.5,-75.5 3871.5,-56.5 3770.5,-56.5"/>
<text text-anchor="middle" x="3821" y="-63.5" font-family="Helvetica,sans-Serif" font-size="10.00">BurggrafFlow.cpp</text>
</a>
</g>
</g>
<!-- Node2&#45;&gt;Node125 -->
<g id="edge39" class="edge">
<title>Node2&#45;&gt;Node125</title>
<path fill="none" stroke="midnightblue" d="M2654.35,-168.48C2786.93,-161.13 3814.74,-178.63 3860,-132 3876.77,-114.72 3849.64,-88.93 3832.8,-75.63"/>
<polygon fill="midnightblue" stroke="midnightblue" points="2654.07,-165 2644.38,-169.28 2654.62,-171.97 2654.07,-165"/>
</g>
<!-- Node126 -->
<g id="node39" class="node">
<title>Node126</title>
<g id="a_node39"><a xlink:href="_burggraf_flow_8_h.html" target="_top" xlink:title=" ">
<polygon fill="white" stroke="black" points="3759,-112.5 3759,-131.5 3851,-131.5 3851,-112.5 3759,-112.5"/>
<text text-anchor="middle" x="3805" y="-119.5" font-family="Helvetica,sans-Serif" font-size="10.00">BurggrafFlow.H</text>
</a>
</g>
</g>
<!-- Node2&#45;&gt;Node126 -->
<g id="edge40" class="edge">
<title>Node2&#45;&gt;Node126</title>
<path fill="none" stroke="midnightblue" d="M2654.44,-168.06C3138.95,-109.62 3267.82,-179.16 3750,-132 3752.89,-131.72 3755.86,-131.38 3758.84,-131"/>
<polygon fill="midnightblue" stroke="midnightblue" points="2653.88,-164.6 2644.38,-169.29 2654.73,-171.55 2653.88,-164.6"/>
</g>
<!-- Node127 -->
<g id="node40" class="node">
<title>Node127</title>
<g id="a_node40"><a xlink:href="_convecting_taylor_vortex_8cpp.html" target="_top" xlink:title=" ">
<polygon fill="white" stroke="black" points="3962,-56.5 3962,-75.5 4114,-75.5 4114,-56.5 3962,-56.5"/>
<text text-anchor="middle" x="4038" y="-63.5" font-family="Helvetica,sans-Serif" font-size="10.00">ConvectingTaylorVortex.cpp</text>
</a>
</g>
</g>
<!-- Node2&#45;&gt;Node127 -->
<g id="edge45" class="edge">
<title>Node2&#45;&gt;Node127</title>
<path fill="none" stroke="midnightblue" d="M2654.38,-168.22C2833.76,-151.87 3797.48,-171.41 3931,-132 3951.22,-126.03 4002.24,-91.78 4025.77,-75.54"/>
<polygon fill="midnightblue" stroke="midnightblue" points="2653.96,-164.75 2644.38,-169.27 2654.69,-171.71 2653.96,-164.75"/>
</g>
<!-- Node128 -->
<g id="node41" class="node">
<title>Node128</title>
<g id="a_node41"><a xlink:href="_convecting_taylor_vortex_8_h.html" target="_top" xlink:title=" ">
<polygon fill="white" stroke="red" points="3983.5,-112.5 3983.5,-131.5 4126.5,-131.5 4126.5,-112.5 3983.5,-112.5"/>
<text text-anchor="middle" x="4055" y="-119.5" font-family="Helvetica,sans-Serif" font-size="10.00">ConvectingTaylorVortex.H</text>
</a>
</g>
</g>
<!-- Node2&#45;&gt;Node128 -->
<g id="edge46" class="edge">
<title>Node2&#45;&gt;Node128</title>
<path fill="none" stroke="midnightblue" d="M2654.7,-168.04C3235.74,-99.25 3388.58,-170.25 3969,-132 3973.64,-131.69 3978.42,-131.33 3983.24,-130.93"/>
<polygon fill="midnightblue" stroke="midnightblue" points="2653.89,-164.61 2644.38,-169.27 2654.72,-171.56 2653.89,-164.61"/>
</g>
<!-- Node129 -->
<g id="node42" class="node">
<title>Node129</title>
<g id="a_node42"><a xlink:href="_ekman_spiral_8cpp.html" target="_top" xlink:title=" ">
<polygon fill="white" stroke="black" points="4213,-56.5 4213,-75.5 4311,-75.5 4311,-56.5 4213,-56.5"/>
<text text-anchor="middle" x="4262" y="-63.5" font-family="Helvetica,sans-Serif" font-size="10.00">EkmanSpiral.cpp</text>
</a>
</g>
</g>
<!-- Node2&#45;&gt;Node129 -->
<g id="edge48" class="edge">
<title>Node2&#45;&gt;Node129</title>
<path fill="none" stroke="midnightblue" d="M2654.36,-168.21C2857.01,-149.48 3978.17,-171.89 4135,-132 4153.88,-127.2 4156.66,-120.88 4174,-112 4198.74,-99.33 4227.41,-84.67 4245.13,-75.62"/>
<polygon fill="midnightblue" stroke="midnightblue" points="2653.96,-164.74 2644.38,-169.26 2654.69,-171.7 2653.96,-164.74"/>
</g>
<!-- Node130 -->
<g id="node43" class="node">
<title>Node130</title>
<g id="a_node43"><a xlink:href="_ekman_spiral_8_h.html" target="_top" xlink:title=" ">
<polygon fill="white" stroke="black" points="4294.5,-112.5 4294.5,-131.5 4383.5,-131.5 4383.5,-112.5 4294.5,-112.5"/>
<text text-anchor="middle" x="4339" y="-119.5" font-family="Helvetica,sans-Serif" font-size="10.00">EkmanSpiral.H</text>
</a>
</g>
</g>
<!-- Node2&#45;&gt;Node130 -->
<g id="edge49" class="edge">
<title>Node2&#45;&gt;Node130</title>
<path fill="none" stroke="midnightblue" d="M2654.49,-168.07C3375.35,-84.69 3566.02,-199.5 4285,-132 4288.03,-131.72 4291.14,-131.36 4294.28,-130.96"/>
<polygon fill="midnightblue" stroke="midnightblue" points="2653.9,-164.62 2644.38,-169.25 2654.71,-171.57 2653.9,-164.62"/>
</g>
<!-- Node131 -->
<g id="node44" class="node">
<title>Node131</title>
<g id="a_node44"><a xlink:href="_free_stream_8cpp.html" target="_top" xlink:title=" ">
<polygon fill="white" stroke="black" points="4183.5,-112.5 4183.5,-131.5 4276.5,-131.5 4276.5,-112.5 4183.5,-112.5"/>
<text text-anchor="middle" x="4230" y="-119.5" font-family="Helvetica,sans-Serif" font-size="10.00">FreeStream.cpp</text>
</a>
</g>
</g>
<!-- Node2&#45;&gt;Node131 -->
<g id="edge51" class="edge">
<title>Node2&#45;&gt;Node131</title>
<path fill="none" stroke="midnightblue" d="M2654.76,-168.04C3324.14,-90.07 3500.91,-189 4169,-132 4173.69,-131.6 4178.57,-131.07 4183.44,-130.47"/>
<polygon fill="midnightblue" stroke="midnightblue" points="2653.9,-164.62 2644.38,-169.26 2654.72,-171.57 2653.9,-164.62"/>
</g>
<!-- Node96 -->
<g id="node45" class="node">
<title>Node96</title>
<g id="a_node45"><a xlink:href="_hybrid_r_a_n_s_l_e_s_a_b_l_8cpp.html" target="_top" xlink:title=" ">
<polygon fill="white" stroke="black" points="4377.5,-56.5 4377.5,-75.5 4510.5,-75.5 4510.5,-56.5 4377.5,-56.5"/>
<text text-anchor="middle" x="4444" y="-63.5" font-family="Helvetica,sans-Serif" font-size="10.00">HybridRANSLESABL.cpp</text>
</a>
</g>
</g>
<!-- Node2&#45;&gt;Node96 -->
<g id="edge52" class="edge">
<title>Node2&#45;&gt;Node96</title>
<path fill="none" stroke="midnightblue" d="M2654.59,-168.39C2824.1,-157.67 4307.46,-173.72 4392,-132 4416.36,-119.98 4432.99,-90.56 4440.1,-75.78"/>
<polygon fill="midnightblue" stroke="midnightblue" points="2654.05,-164.93 2644.38,-169.25 2654.63,-171.9 2654.05,-164.93"/>
</g>
<!-- Node132 -->
<g id="node46" class="node">
<title>Node132</title>
<g id="a_node46"><a xlink:href="_hybrid_r_a_n_s_l_e_s_a_b_l_8_h.html" target="_top" xlink:title=" ">
<polygon fill="white" stroke="black" points="4440.5,-112.5 4440.5,-131.5 4563.5,-131.5 4563.5,-112.5 4440.5,-112.5"/>
<text text-anchor="middle" x="4502" y="-119.5" font-family="Helvetica,sans-Serif" font-size="10.00">HybridRANSLESABL.H</text>
</a>
</g>
</g>
<!-- Node2&#45;&gt;Node132 -->
<g id="edge53" class="edge">
<title>Node2&#45;&gt;Node132</title>
<path fill="none" stroke="midnightblue" d="M2654.46,-168.1C3060.81,-123.11 4036.12,-158.98 4426,-132 4430.64,-131.68 4435.43,-131.28 4440.25,-130.82"/>
<polygon fill="midnightblue" stroke="midnightblue" points="2653.92,-164.64 2644.37,-169.25 2654.71,-171.6 2653.92,-164.64"/>
</g>
<!-- Node133 -->
<g id="node47" class="node">
<title>Node133</title>
<g id="a_node47"><a xlink:href="_m_m_s_8cpp.html" target="_top" xlink:title=" ">
<polygon fill="white" stroke="black" points="4588.5,-56.5 4588.5,-75.5 4649.5,-75.5 4649.5,-56.5 4588.5,-56.5"/>
<text text-anchor="middle" x="4619" y="-63.5" font-family="Helvetica,sans-Serif" font-size="10.00">MMS.cpp</text>
</a>
</g>
</g>
<!-- Node2&#45;&gt;Node133 -->
<g id="edge55" class="edge">
<title>Node2&#45;&gt;Node133</title>
<path fill="none" stroke="midnightblue" d="M2654.48,-168.39C2835.31,-156.89 4479.63,-180.3 4572,-132 4595.2,-119.87 4609.67,-90.5 4615.72,-75.75"/>
<polygon fill="midnightblue" stroke="midnightblue" points="2654.05,-164.92 2644.37,-169.24 2654.63,-171.89 2654.05,-164.92"/>
</g>
<!-- Node134 -->
<g id="node48" class="node">
<title>Node134</title>
<g id="a_node48"><a xlink:href="_m_m_s_8_h.html" target="_top" xlink:title=" ">
<polygon fill="white" stroke="black" points="4620.5,-112.5 4620.5,-131.5 4671.5,-131.5 4671.5,-112.5 4620.5,-112.5"/>
<text text-anchor="middle" x="4646" y="-119.5" font-family="Helvetica,sans-Serif" font-size="10.00">MMS.H</text>
</a>
</g>
</g>
<!-- Node2&#45;&gt;Node134 -->
<g id="edge56" class="edge">
<title>Node2&#45;&gt;Node134</title>
<path fill="none" stroke="midnightblue" d="M2654.55,-168.07C3517.23,-69.89 3747.45,-235.41 4606,-132 4610.66,-131.44 4615.58,-130.57 4620.31,-129.59"/>
<polygon fill="midnightblue" stroke="midnightblue" points="2653.91,-164.63 2644.37,-169.24 2654.71,-171.58 2653.91,-164.63"/>
</g>
<!-- Node3&#45;&gt;Node5 -->
<g id="edge3" class="edge">
<title>Node3&#45;&gt;Node5</title>
<path fill="none" stroke="midnightblue" d="M185,-101.8C185,-92.91 185,-82.78 185,-75.75"/>
<polygon fill="midnightblue" stroke="midnightblue" points="181.5,-102.08 185,-112.08 188.5,-102.08 181.5,-102.08"/>
</g>
<!-- Node5&#45;&gt;Node6 -->
<g id="edge4" class="edge">
<title>Node5&#45;&gt;Node6</title>
<path fill="none" stroke="midnightblue" d="M239.87,-63.41C514.67,-55.46 1738.53,-20.04 2001.23,-12.44"/>
<polygon fill="midnightblue" stroke="midnightblue" points="239.64,-59.92 229.74,-63.71 239.84,-66.91 239.64,-59.92"/>
</g>
<!-- Node58&#45;&gt;Node23 -->
<g id="edge24" class="edge">
<title>Node58&#45;&gt;Node23</title>
<path fill="none" stroke="midnightblue" d="M2152.07,-112.03C1975.61,-85.26 1775.12,-72.21 1707.54,-68.29"/>
<polygon fill="midnightblue" stroke="midnightblue" points="2151.64,-115.51 2162.05,-113.56 2152.7,-108.59 2151.64,-115.51"/>
</g>
<!-- Node73&#45;&gt;Node2 -->
<g id="edge31" class="edge">
<title>Node73&#45;&gt;Node2</title>
<path fill="none" stroke="midnightblue" d="M2949.52,-133.3C2825.16,-154.81 2788.95,-146.7 2662,-168 2656.26,-168.96 2650.12,-170.17 2644.1,-171.39"/>
<polygon fill="midnightblue" stroke="midnightblue" points="2950.18,-136.73 2959.42,-131.55 2948.97,-129.84 2950.18,-136.73"/>
</g>
<!-- Node126&#45;&gt;Node15 -->
<g id="edge41" class="edge">
<title>Node126&#45;&gt;Node15</title>
<path fill="none" stroke="midnightblue" d="M3748.75,-111.97C3496.55,-84.18 3208.81,-72.86 3079.72,-68.86"/>
<polygon fill="midnightblue" stroke="midnightblue" points="3748.51,-115.47 3758.83,-113.1 3749.28,-108.51 3748.51,-115.47"/>
</g>
<!-- Node126&#45;&gt;Node125 -->
<g id="edge42" class="edge">
<title>Node126&#45;&gt;Node125</title>
<path fill="none" stroke="midnightblue" d="M3810.51,-102.4C3813.19,-93.36 3816.28,-82.94 3818.41,-75.75"/>
<polygon fill="midnightblue" stroke="midnightblue" points="3807.13,-101.5 3807.64,-112.08 3813.84,-103.49 3807.13,-101.5"/>
</g>
<!-- Node128&#45;&gt;Node127 -->
<g id="edge47" class="edge">
<title>Node128&#45;&gt;Node127</title>
<path fill="none" stroke="midnightblue" d="M4049.14,-102.4C4046.3,-93.36 4043.02,-82.94 4040.75,-75.75"/>
<polygon fill="midnightblue" stroke="midnightblue" points="4045.85,-103.6 4052.19,-112.08 4052.53,-101.49 4045.85,-103.6"/>
</g>
<!-- Node130&#45;&gt;Node129 -->
<g id="edge50" class="edge">
<title>Node130&#45;&gt;Node129</title>
<path fill="none" stroke="midnightblue" d="M4318.1,-106.34C4304.09,-96.52 4286.12,-83.91 4274.34,-75.65"/>
<polygon fill="midnightblue" stroke="midnightblue" points="4316.43,-109.45 4326.63,-112.32 4320.45,-103.72 4316.43,-109.45"/>
</g>
<!-- Node132&#45;&gt;Node96 -->
<g id="edge54" class="edge">
<title>Node132&#45;&gt;Node96</title>
<path fill="none" stroke="midnightblue" d="M4485.09,-105.25C4474.8,-95.67 4462.03,-83.79 4453.49,-75.83"/>
<polygon fill="midnightblue" stroke="midnightblue" points="4482.98,-108.07 4492.68,-112.32 4487.75,-102.95 4482.98,-108.07"/>
</g>
<!-- Node134&#45;&gt;Node133 -->
<g id="edge57" class="edge">
<title>Node134&#45;&gt;Node133</title>
<path fill="none" stroke="midnightblue" d="M4636.99,-102.98C4632.41,-93.82 4627.05,-83.09 4623.38,-75.75"/>
<polygon fill="midnightblue" stroke="midnightblue" points="4633.94,-104.7 4641.54,-112.08 4640.2,-101.57 4633.94,-104.7"/>
</g>
</g>
</svg>
        <g id="navigator" transform="translate(0 0)" fill="#404254">
                <rect fill="#f2f5e9" fill-opacity="0.5" stroke="#606060" stroke-width=".5" x="0" y="0" width="60" height="60"/>
                <use id="zoomplus" xlink:href="#zoomPlus" x="17" y="9" onmousedown="handleZoom(evt,'in')"/>
                <use id="zoomminus" xlink:href="#zoomMin" x="42" y="9" onmousedown="handleZoom(evt,'out')"/>
                <use id="reset" xlink:href="#resetDef" x="30" y="36" onmousedown="handleReset()"/>
                <g id="arrowUp" xlink:href="#dirArrow" transform="translate(30 24)" onmousedown="handlePan(0,-1)">
                  <use xlink:href="#rim" fill="#404040">
                        <set attributeName="fill" to="#808080" begin="arrowUp.mouseover" end="arrowUp.mouseout"/>
                  </use>
                  <path fill="none" stroke="white" stroke-width="1.5" d="M0,-3.0v7 M-2.5,-0.5L0,-3.0L2.5,-0.5"/>
                </g>
                <g id="arrowRight" xlink:href="#dirArrow" transform="rotate(90) translate(36 -43)" onmousedown="handlePan(1,0)">
                  <use xlink:href="#rim" fill="#404040">
                        <set attributeName="fill" to="#808080" begin="arrowRight.mouseover" end="arrowRight.mouseout"/>
                  </use>
                  <path fill="none" stroke="white" stroke-width="1.5" d="M0,-3.0v7 M-2.5,-0.5L0,-3.0L2.5,-0.5"/>
                </g>
                <g id="arrowDown" xlink:href="#dirArrow" transform="rotate(180) translate(-30 -48)" onmousedown="handlePan(0,1)">
                  <use xlink:href="#rim" fill="#404040">
                        <set attributeName="fill" to="#808080" begin="arrowDown.mouseover" end="arrowDown.mouseout"/>
                  </use>
                  <path fill="none" stroke="white" stroke-width="1.5" d="M0,-3.0v7 M-2.5,-0.5L0,-3.0L2.5,-0.5"/>
                </g>
                <g id="arrowLeft" xlink:href="#dirArrow" transform="rotate(270) translate(-36 17)" onmousedown="handlePan(-1,0)">
                  <use xlink:href="#rim" fill="#404040">
                        <set attributeName="fill" to="#808080" begin="arrowLeft.mouseover" end="arrowLeft.mouseout"/>
                  </use>
                  <path fill="none" stroke="white" stroke-width="1.5" d="M0,-3.0v7 M-2.5,-0.5L0,-3.0L2.5,-0.5"/>
                </g>
        </g>
        <svg viewBox="0 0 15 15" width="100%" height="30px" preserveAspectRatio="xMaxYMin meet">
         <g id="arrow_out" transform="scale(0.3 0.3)">
          <a xlink:href="_mesh_map_8_h__dep__incl_org.svg" target="_base">
           <rect id="button" ry="5" rx="5" y="6" x="6" height="38" width="38"
                fill="#f2f5e9" fill-opacity="0.5" stroke="#606060" stroke-width="1.0"/>
           <path id="arrow"
             d="M 11.500037,31.436501 C 11.940474,20.09759 22.043105,11.32322 32.158766,21.979434 L 37.068811,17.246167 C 37.068811,17.246167 37.088388,32 37.088388,32 L 22.160133,31.978069 C 22.160133,31.978069 26.997745,27.140456 26.997745,27.140456 C 18.528582,18.264221 13.291696,25.230495 11.500037,31.436501 z"
             style="fill:#404040;"/>
          </a>
         </g>
        </svg>
</svg>
