<?xml version="1.0" encoding="UTF-8" standalone="no"?>
<!DOCTYPE svg PUBLIC "-//W3C//DTD SVG 1.1//EN"
 "http://www.w3.org/Graphics/SVG/1.1/DTD/svg11.dtd">
<!-- Generated by graphviz version 2.43.0 (0)
 -->
<!-- Title: MomentumSource.H Pages: 1 -->
<svg width="2907pt" height="196pt"
 viewBox="0.00 0.00 2906.50 196.00" xmlns="http://www.w3.org/2000/svg" xmlns:xlink="http://www.w3.org/1999/xlink">
<g id="graph0" class="graph" transform="scale(1 1) rotate(0) translate(4 192)">
<title>MomentumSource.H</title>
<polygon fill="white" stroke="transparent" points="-4,4 -4,-192 2902.5,-192 2902.5,4 -4,4"/>
<!-- Node1 -->
<g id="node1" class="node">
<title>Node1</title>
<g id="a_node1"><a xlink:title=" ">
<polygon fill="#bfbfbf" stroke="black" points="1755.5,-168.5 1755.5,-187.5 1871.5,-187.5 1871.5,-168.5 1755.5,-168.5"/>
<text text-anchor="middle" x="1813.5" y="-175.5" font-family="Helvetica,sans-Serif" font-size="10.00">MomentumSource.H</text>
</a>
</g>
</g>
<!-- Node2 -->
<g id="node2" class="node">
<title>Node2</title>
<g id="a_node2"><a xlink:href="icns_8_h.html" target="_top" xlink:title=" ">
<polygon fill="white" stroke="black" points="378,-112.5 378,-131.5 425,-131.5 425,-112.5 378,-112.5"/>
<text text-anchor="middle" x="401.5" y="-119.5" font-family="Helvetica,sans-Serif" font-size="10.00">icns.H</text>
</a>
</g>
</g>
<!-- Node1&#45;&gt;Node2 -->
<g id="edge1" class="edge">
<title>Node1&#45;&gt;Node2</title>
<path fill="none" stroke="midnightblue" d="M1744.72,-174.37C1486.7,-164.5 583.07,-129.94 425.14,-123.9"/>
<polygon fill="midnightblue" stroke="midnightblue" points="1744.94,-177.88 1755.07,-174.77 1745.21,-170.89 1744.94,-177.88"/>
</g>
<!-- Node11 -->
<g id="node11" class="node">
<title>Node11</title>
<g id="a_node11"><a xlink:href="_a_b_l_forcing_8_h.html" target="_top" xlink:title=" ">
<polygon fill="white" stroke="black" points="907,-112.5 907,-131.5 988,-131.5 988,-112.5 907,-112.5"/>
<text text-anchor="middle" x="947.5" y="-119.5" font-family="Helvetica,sans-Serif" font-size="10.00">ABLForcing.H</text>
</a>
</g>
</g>
<!-- Node1&#45;&gt;Node11 -->
<g id="edge14" class="edge">
<title>Node1&#45;&gt;Node11</title>
<path fill="none" stroke="midnightblue" d="M1745.23,-176.07C1604.78,-173.53 1273.49,-164.32 997.5,-132 994.43,-131.64 991.27,-131.21 988.1,-130.74"/>
<polygon fill="midnightblue" stroke="midnightblue" points="1745.35,-179.57 1755.41,-176.25 1745.48,-172.57 1745.35,-179.57"/>
</g>
<!-- Node15 -->
<g id="node15" class="node">
<title>Node15</title>
<g id="a_node15"><a xlink:href="_a_b_l_mean_boussinesq_8_h.html" target="_top" xlink:title=" ">
<polygon fill="white" stroke="black" points="1006.5,-112.5 1006.5,-131.5 1134.5,-131.5 1134.5,-112.5 1006.5,-112.5"/>
<text text-anchor="middle" x="1070.5" y="-119.5" font-family="Helvetica,sans-Serif" font-size="10.00">ABLMeanBoussinesq.H</text>
</a>
</g>
</g>
<!-- Node1&#45;&gt;Node15 -->
<g id="edge18" class="edge">
<title>Node1&#45;&gt;Node15</title>
<path fill="none" stroke="midnightblue" d="M1744.9,-173.65C1623.48,-167.45 1362.84,-152.87 1143.5,-132 1140.58,-131.72 1137.59,-131.42 1134.57,-131.1"/>
<polygon fill="midnightblue" stroke="midnightblue" points="1744.99,-177.16 1755.16,-174.18 1745.35,-170.17 1744.99,-177.16"/>
</g>
<!-- Node17 -->
<g id="node17" class="node">
<title>Node17</title>
<g id="a_node17"><a xlink:href="_a_b_l_meso_forcing_mom_8_h.html" target="_top" xlink:title=" ">
<polygon fill="white" stroke="black" points="1152.5,-112.5 1152.5,-131.5 1284.5,-131.5 1284.5,-112.5 1152.5,-112.5"/>
<text text-anchor="middle" x="1218.5" y="-119.5" font-family="Helvetica,sans-Serif" font-size="10.00">ABLMesoForcingMom.H</text>
</a>
</g>
</g>
<!-- Node1&#45;&gt;Node17 -->
<g id="edge21" class="edge">
<title>Node1&#45;&gt;Node17</title>
<path fill="none" stroke="midnightblue" d="M1745.13,-171.81C1645.64,-164.09 1455.21,-148.69 1293.5,-132 1290.63,-131.7 1287.7,-131.39 1284.74,-131.07"/>
<polygon fill="midnightblue" stroke="midnightblue" points="1745.1,-175.32 1755.34,-172.6 1745.64,-168.34 1745.1,-175.32"/>
</g>
<!-- Node19 -->
<g id="node19" class="node">
<title>Node19</title>
<g id="a_node19"><a xlink:href="_actuator_forcing_8_h.html" target="_top" xlink:title=" ">
<polygon fill="white" stroke="black" points="1440.5,-112.5 1440.5,-131.5 1544.5,-131.5 1544.5,-112.5 1440.5,-112.5"/>
<text text-anchor="middle" x="1492.5" y="-119.5" font-family="Helvetica,sans-Serif" font-size="10.00">ActuatorForcing.H</text>
</a>
</g>
</g>
<!-- Node1&#45;&gt;Node19 -->
<g id="edge25" class="edge">
<title>Node1&#45;&gt;Node19</title>
<path fill="none" stroke="midnightblue" d="M1752.44,-166.73C1691.78,-156.52 1599.85,-141.06 1543.13,-131.52"/>
<polygon fill="midnightblue" stroke="midnightblue" points="1752.19,-170.24 1762.64,-168.44 1753.36,-163.33 1752.19,-170.24"/>
</g>
<!-- Node21 -->
<g id="node21" class="node">
<title>Node21</title>
<g id="a_node21"><a xlink:href="icns_2source__terms_2_body_force_8_h.html" target="_top" xlink:title=" ">
<polygon fill="white" stroke="black" points="1572.5,-112.5 1572.5,-131.5 1650.5,-131.5 1650.5,-112.5 1572.5,-112.5"/>
<text text-anchor="middle" x="1611.5" y="-119.5" font-family="Helvetica,sans-Serif" font-size="10.00">BodyForce.H</text>
</a>
</g>
</g>
<!-- Node1&#45;&gt;Node21 -->
<g id="edge27" class="edge">
<title>Node1&#45;&gt;Node21</title>
<path fill="none" stroke="midnightblue" d="M1771.71,-165.83C1733.57,-155.63 1678.02,-140.78 1643.36,-131.52"/>
<polygon fill="midnightblue" stroke="midnightblue" points="1770.93,-169.24 1781.49,-168.44 1772.74,-162.48 1770.93,-169.24"/>
</g>
<!-- Node23 -->
<g id="node23" class="node">
<title>Node23</title>
<g id="a_node23"><a xlink:href="_boussinesq_buoyancy_8_h.html" target="_top" xlink:title=" ">
<polygon fill="white" stroke="black" points="1676,-112.5 1676,-131.5 1805,-131.5 1805,-112.5 1676,-112.5"/>
<text text-anchor="middle" x="1740.5" y="-119.5" font-family="Helvetica,sans-Serif" font-size="10.00">BoussinesqBuoyancy.H</text>
</a>
</g>
</g>
<!-- Node1&#45;&gt;Node23 -->
<g id="edge29" class="edge">
<title>Node1&#45;&gt;Node23</title>
<path fill="none" stroke="midnightblue" d="M1793.36,-162.1C1780.22,-152.38 1763.52,-140.03 1752.44,-131.83"/>
<polygon fill="midnightblue" stroke="midnightblue" points="1791.65,-165.19 1801.77,-168.32 1795.81,-159.56 1791.65,-165.19"/>
</g>
<!-- Node25 -->
<g id="node25" class="node">
<title>Node25</title>
<g id="a_node25"><a xlink:href="_burggraf_flow_forcing_8_h.html" target="_top" xlink:title=" ">
<polygon fill="white" stroke="black" points="1827.5,-112.5 1827.5,-131.5 1955.5,-131.5 1955.5,-112.5 1827.5,-112.5"/>
<text text-anchor="middle" x="1891.5" y="-119.5" font-family="Helvetica,sans-Serif" font-size="10.00">BurggrafFlowForcing.H</text>
</a>
</g>
</g>
<!-- Node1&#45;&gt;Node25 -->
<g id="edge31" class="edge">
<title>Node1&#45;&gt;Node25</title>
<path fill="none" stroke="midnightblue" d="M1834.27,-162.62C1848.52,-152.76 1866.96,-139.99 1879,-131.65"/>
<polygon fill="midnightblue" stroke="midnightblue" points="1832.26,-159.75 1826.03,-168.32 1836.25,-165.51 1832.26,-159.75"/>
</g>
<!-- Node27 -->
<g id="node27" class="node">
<title>Node27</title>
<g id="a_node27"><a xlink:href="_coriolis_forcing_8_h.html" target="_top" xlink:title=" ">
<polygon fill="white" stroke="black" points="1981,-112.5 1981,-131.5 2080,-131.5 2080,-112.5 1981,-112.5"/>
<text text-anchor="middle" x="2030.5" y="-119.5" font-family="Helvetica,sans-Serif" font-size="10.00">CoriolisForcing.H</text>
</a>
</g>
</g>
<!-- Node1&#45;&gt;Node27 -->
<g id="edge33" class="edge">
<title>Node1&#45;&gt;Node27</title>
<path fill="none" stroke="midnightblue" d="M1857.61,-166.02C1898.6,-155.82 1958.8,-140.84 1996.28,-131.52"/>
<polygon fill="midnightblue" stroke="midnightblue" points="1856.74,-162.63 1847.88,-168.44 1858.43,-169.43 1856.74,-162.63"/>
</g>
<!-- Node29 -->
<g id="node29" class="node">
<title>Node29</title>
<g id="a_node29"><a xlink:href="_density_buoyancy_8_h.html" target="_top" xlink:title=" ">
<polygon fill="white" stroke="black" points="2106,-112.5 2106,-131.5 2217,-131.5 2217,-112.5 2106,-112.5"/>
<text text-anchor="middle" x="2161.5" y="-119.5" font-family="Helvetica,sans-Serif" font-size="10.00">DensityBuoyancy.H</text>
</a>
</g>
</g>
<!-- Node1&#45;&gt;Node29 -->
<g id="edge35" class="edge">
<title>Node1&#45;&gt;Node29</title>
<path fill="none" stroke="midnightblue" d="M1878.89,-166.85C1944.64,-156.65 2044.87,-141.1 2106.62,-131.52"/>
<polygon fill="midnightblue" stroke="midnightblue" points="1877.99,-163.45 1868.64,-168.44 1879.06,-170.37 1877.99,-163.45"/>
</g>
<!-- Node31 -->
<g id="node31" class="node">
<title>Node31</title>
<g id="a_node31"><a xlink:href="_geostrophic_forcing_8_h.html" target="_top" xlink:title=" ">
<polygon fill="white" stroke="black" points="2244,-112.5 2244,-131.5 2365,-131.5 2365,-112.5 2244,-112.5"/>
<text text-anchor="middle" x="2304.5" y="-119.5" font-family="Helvetica,sans-Serif" font-size="10.00">GeostrophicForcing.H</text>
</a>
</g>
</g>
<!-- Node1&#45;&gt;Node31 -->
<g id="edge37" class="edge">
<title>Node1&#45;&gt;Node31</title>
<path fill="none" stroke="midnightblue" d="M1881.66,-169.65C1963.37,-160.82 2104.46,-145.5 2225.5,-132 2231.4,-131.34 2237.55,-130.65 2243.69,-129.96"/>
<polygon fill="midnightblue" stroke="midnightblue" points="1881.07,-166.2 1871.51,-170.75 1881.82,-173.16 1881.07,-166.2"/>
</g>
<!-- Node33 -->
<g id="node33" class="node">
<title>Node33</title>
<g id="a_node33"><a xlink:href="_gravity_forcing_8_h.html" target="_top" xlink:title=" ">
<polygon fill="white" stroke="black" points="2393.5,-112.5 2393.5,-131.5 2491.5,-131.5 2491.5,-112.5 2393.5,-112.5"/>
<text text-anchor="middle" x="2442.5" y="-119.5" font-family="Helvetica,sans-Serif" font-size="10.00">GravityForcing.H</text>
</a>
</g>
</g>
<!-- Node1&#45;&gt;Node33 -->
<g id="edge39" class="edge">
<title>Node1&#45;&gt;Node33</title>
<path fill="none" stroke="midnightblue" d="M1881.83,-172.6C1987.42,-165.56 2196.55,-150.64 2373.5,-132 2379.87,-131.33 2386.56,-130.55 2393.16,-129.74"/>
<polygon fill="midnightblue" stroke="midnightblue" points="1881.38,-169.13 1871.63,-173.28 1881.84,-176.11 1881.38,-169.13"/>
</g>
<!-- Node35 -->
<g id="node35" class="node">
<title>Node35</title>
<g id="a_node35"><a xlink:href="_hurricane_forcing_8_h.html" target="_top" xlink:title=" ">
<polygon fill="white" stroke="black" points="1302.5,-112.5 1302.5,-131.5 1412.5,-131.5 1412.5,-112.5 1302.5,-112.5"/>
<text text-anchor="middle" x="1357.5" y="-119.5" font-family="Helvetica,sans-Serif" font-size="10.00">HurricaneForcing.H</text>
</a>
</g>
</g>
<!-- Node1&#45;&gt;Node35 -->
<g id="edge41" class="edge">
<title>Node1&#45;&gt;Node35</title>
<path fill="none" stroke="midnightblue" d="M1745.27,-169.04C1668.84,-160.11 1541.28,-145.14 1431.5,-132 1425.46,-131.28 1419.14,-130.52 1412.86,-129.76"/>
<polygon fill="midnightblue" stroke="midnightblue" points="1744.91,-172.52 1755.25,-170.21 1745.72,-165.57 1744.91,-172.52"/>
</g>
<!-- Node37 -->
<g id="node37" class="node">
<title>Node37</title>
<g id="a_node37"><a xlink:href="_rayleigh_damping_8_h.html" target="_top" xlink:title=" ">
<polygon fill="white" stroke="black" points="2519.5,-112.5 2519.5,-131.5 2633.5,-131.5 2633.5,-112.5 2519.5,-112.5"/>
<text text-anchor="middle" x="2576.5" y="-119.5" font-family="Helvetica,sans-Serif" font-size="10.00">RayleighDamping.H</text>
</a>
</g>
</g>
<!-- Node1&#45;&gt;Node37 -->
<g id="edge44" class="edge">
<title>Node1&#45;&gt;Node37</title>
<path fill="none" stroke="midnightblue" d="M1882.02,-173.7C2005.72,-167.49 2274.46,-152.77 2500.5,-132 2506.59,-131.44 2512.94,-130.79 2519.27,-130.1"/>
<polygon fill="midnightblue" stroke="midnightblue" points="1881.75,-170.21 1871.94,-174.21 1882.1,-177.2 1881.75,-170.21"/>
</g>
<!-- Node39 -->
<g id="node39" class="node">
<title>Node39</title>
<g id="a_node39"><a xlink:href="_synth_turb_forcing_8_h.html" target="_top" xlink:title=" ">
<polygon fill="white" stroke="black" points="2661.5,-112.5 2661.5,-131.5 2771.5,-131.5 2771.5,-112.5 2661.5,-112.5"/>
<text text-anchor="middle" x="2716.5" y="-119.5" font-family="Helvetica,sans-Serif" font-size="10.00">SynthTurbForcing.H</text>
</a>
</g>
</g>
<!-- Node1&#45;&gt;Node39 -->
<g id="edge46" class="edge">
<title>Node1&#45;&gt;Node39</title>
<path fill="none" stroke="midnightblue" d="M1881.93,-174.83C2023.9,-170 2360.77,-156.75 2642.5,-132 2648.56,-131.47 2654.89,-130.83 2661.18,-130.14"/>
<polygon fill="midnightblue" stroke="midnightblue" points="1881.51,-171.35 1871.64,-175.18 1881.75,-178.34 1881.51,-171.35"/>
</g>
<!-- Node41 -->
<g id="node41" class="node">
<title>Node41</title>
<g id="a_node41"><a xlink:href="_m_m_s_forcing_8_h.html" target="_top" xlink:title=" ">
<polygon fill="white" stroke="black" points="2799.5,-112.5 2799.5,-131.5 2885.5,-131.5 2885.5,-112.5 2799.5,-112.5"/>
<text text-anchor="middle" x="2842.5" y="-119.5" font-family="Helvetica,sans-Serif" font-size="10.00">MMSForcing.H</text>
</a>
</g>
</g>
<!-- Node1&#45;&gt;Node41 -->
<g id="edge48" class="edge">
<title>Node1&#45;&gt;Node41</title>
<path fill="none" stroke="midnightblue" d="M1881.75,-176.11C2040.03,-173.55 2444.29,-164.15 2780.5,-132 2786.56,-131.42 2792.94,-130.66 2799.2,-129.83"/>
<polygon fill="midnightblue" stroke="midnightblue" points="1881.62,-172.61 1871.68,-176.27 1881.74,-179.61 1881.62,-172.61"/>
</g>
<!-- Node3 -->
<g id="node3" class="node">
<title>Node3</title>
<g id="a_node3"><a xlink:href="icns_8cpp.html" target="_top" xlink:title=" ">
<polygon fill="white" stroke="black" points="199.5,-0.5 199.5,-19.5 255.5,-19.5 255.5,-0.5 199.5,-0.5"/>
<text text-anchor="middle" x="227.5" y="-7.5" font-family="Helvetica,sans-Serif" font-size="10.00">icns.cpp</text>
</a>
</g>
</g>
<!-- Node2&#45;&gt;Node3 -->
<g id="edge2" class="edge">
<title>Node2&#45;&gt;Node3</title>
<path fill="none" stroke="midnightblue" d="M435.38,-116.37C482.53,-108.57 559,-90.22 529.5,-56 494.24,-15.1 323.8,-10.8 255.7,-10.75"/>
<polygon fill="midnightblue" stroke="midnightblue" points="434.58,-112.95 425.24,-117.96 435.67,-119.87 434.58,-112.95"/>
</g>
<!-- Node4 -->
<g id="node4" class="node">
<title>Node4</title>
<g id="a_node4"><a xlink:href="icns__advection_8_h.html" target="_top" xlink:title=" ">
<polygon fill="white" stroke="black" points="577.5,-56.5 577.5,-75.5 677.5,-75.5 677.5,-56.5 577.5,-56.5"/>
<text text-anchor="middle" x="627.5" y="-63.5" font-family="Helvetica,sans-Serif" font-size="10.00">icns_advection.H</text>
</a>
</g>
</g>
<!-- Node2&#45;&gt;Node4 -->
<g id="edge3" class="edge">
<title>Node2&#45;&gt;Node4</title>
<path fill="none" stroke="midnightblue" d="M435.02,-112.99C477.07,-102.94 548.87,-85.79 591.88,-75.51"/>
<polygon fill="midnightblue" stroke="midnightblue" points="434.17,-109.59 425.26,-115.32 435.8,-116.4 434.17,-109.59"/>
</g>
<!-- Node6 -->
<g id="node6" class="node">
<title>Node6</title>
<g id="a_node6"><a xlink:href="icns__bcop_8_h.html" target="_top" xlink:title=" ">
<polygon fill="white" stroke="black" points="0,-56.5 0,-75.5 75,-75.5 75,-56.5 0,-56.5"/>
<text text-anchor="middle" x="37.5" y="-63.5" font-family="Helvetica,sans-Serif" font-size="10.00">icns_bcop.H</text>
</a>
</g>
</g>
<!-- Node2&#45;&gt;Node6 -->
<g id="edge6" class="edge">
<title>Node2&#45;&gt;Node6</title>
<path fill="none" stroke="midnightblue" d="M367.81,-116.83C309.67,-109.49 186.77,-93.4 83.5,-76 80.77,-75.54 77.96,-75.04 75.13,-74.53"/>
<polygon fill="midnightblue" stroke="midnightblue" points="367.54,-120.32 377.9,-118.09 368.41,-113.37 367.54,-120.32"/>
</g>
<!-- Node7 -->
<g id="node7" class="node">
<title>Node7</title>
<g id="a_node7"><a xlink:href="icns__diffusion_8_h.html" target="_top" xlink:title=" ">
<polygon fill="white" stroke="black" points="180.5,-56.5 180.5,-75.5 274.5,-75.5 274.5,-56.5 180.5,-56.5"/>
<text text-anchor="middle" x="227.5" y="-63.5" font-family="Helvetica,sans-Serif" font-size="10.00">icns_diffusion.H</text>
</a>
</g>
</g>
<!-- Node2&#45;&gt;Node7 -->
<g id="edge8" class="edge">
<title>Node2&#45;&gt;Node7</title>
<path fill="none" stroke="midnightblue" d="M368.05,-110.62C335.21,-100.43 285.7,-85.06 255.05,-75.55"/>
<polygon fill="midnightblue" stroke="midnightblue" points="367.08,-113.98 377.67,-113.6 369.16,-107.3 367.08,-113.98"/>
</g>
<!-- Node8 -->
<g id="node8" class="node">
<title>Node8</title>
<g id="a_node8"><a xlink:href="icns__ops_8_h.html" target="_top" xlink:title=" ">
<polygon fill="white" stroke="black" points="93,-56.5 93,-75.5 162,-75.5 162,-56.5 93,-56.5"/>
<text text-anchor="middle" x="127.5" y="-63.5" font-family="Helvetica,sans-Serif" font-size="10.00">icns_ops.H</text>
</a>
</g>
</g>
<!-- Node2&#45;&gt;Node8 -->
<g id="edge10" class="edge">
<title>Node2&#45;&gt;Node8</title>
<path fill="none" stroke="midnightblue" d="M367.94,-114.53C323.14,-105.86 241.31,-89.97 171.5,-76 168.44,-75.39 165.27,-74.75 162.08,-74.1"/>
<polygon fill="midnightblue" stroke="midnightblue" points="367.5,-118.01 377.98,-116.47 368.82,-111.13 367.5,-118.01"/>
</g>
<!-- Node9 -->
<g id="node9" class="node">
<title>Node9</title>
<g id="a_node9"><a xlink:href="_burggraf_lid_8cpp.html" target="_top" xlink:title=" ">
<polygon fill="white" stroke="black" points="293,-56.5 293,-75.5 386,-75.5 386,-56.5 293,-56.5"/>
<text text-anchor="middle" x="339.5" y="-63.5" font-family="Helvetica,sans-Serif" font-size="10.00">BurggrafLid.cpp</text>
</a>
</g>
</g>
<!-- Node2&#45;&gt;Node9 -->
<g id="edge12" class="edge">
<title>Node2&#45;&gt;Node9</title>
<path fill="none" stroke="midnightblue" d="M383.75,-105.54C372.69,-95.91 358.87,-83.87 349.64,-75.83"/>
<polygon fill="midnightblue" stroke="midnightblue" points="381.7,-108.4 391.54,-112.32 386.3,-103.12 381.7,-108.4"/>
</g>
<!-- Node10 -->
<g id="node10" class="node">
<title>Node10</title>
<g id="a_node10"><a xlink:href="_power_law_profile_8cpp.html" target="_top" xlink:title=" ">
<polygon fill="white" stroke="black" points="404,-56.5 404,-75.5 521,-75.5 521,-56.5 404,-56.5"/>
<text text-anchor="middle" x="462.5" y="-63.5" font-family="Helvetica,sans-Serif" font-size="10.00">PowerLawProfile.cpp</text>
</a>
</g>
</g>
<!-- Node2&#45;&gt;Node10 -->
<g id="edge13" class="edge">
<title>Node2&#45;&gt;Node10</title>
<path fill="none" stroke="midnightblue" d="M418.97,-105.54C429.84,-95.91 443.44,-83.87 452.52,-75.83"/>
<polygon fill="midnightblue" stroke="midnightblue" points="416.47,-103.07 411.3,-112.32 421.11,-108.32 416.47,-103.07"/>
</g>
<!-- Node4&#45;&gt;Node3 -->
<g id="edge4" class="edge">
<title>Node4&#45;&gt;Node3</title>
<path fill="none" stroke="midnightblue" d="M567.29,-56.52C566.01,-56.35 564.75,-56.17 563.5,-56 449.51,-40.35 313.67,-22.36 255.83,-14.73"/>
<polygon fill="midnightblue" stroke="midnightblue" points="566.81,-59.99 577.2,-57.89 567.77,-53.05 566.81,-59.99"/>
</g>
<!-- Node5 -->
<g id="node5" class="node">
<title>Node5</title>
<g id="a_node5"><a xlink:href="icns__advection_8cpp.html" target="_top" xlink:title=" ">
<polygon fill="white" stroke="black" points="572.5,-0.5 572.5,-19.5 682.5,-19.5 682.5,-0.5 572.5,-0.5"/>
<text text-anchor="middle" x="627.5" y="-7.5" font-family="Helvetica,sans-Serif" font-size="10.00">icns_advection.cpp</text>
</a>
</g>
</g>
<!-- Node4&#45;&gt;Node5 -->
<g id="edge5" class="edge">
<title>Node4&#45;&gt;Node5</title>
<path fill="none" stroke="midnightblue" d="M627.5,-45.8C627.5,-36.91 627.5,-26.78 627.5,-19.75"/>
<polygon fill="midnightblue" stroke="midnightblue" points="624,-46.08 627.5,-56.08 631,-46.08 624,-46.08"/>
</g>
<!-- Node6&#45;&gt;Node3 -->
<g id="edge7" class="edge">
<title>Node6&#45;&gt;Node3</title>
<path fill="none" stroke="midnightblue" d="M77.44,-53.65C113.99,-43.26 167.14,-28.16 199.39,-18.99"/>
<polygon fill="midnightblue" stroke="midnightblue" points="76.27,-50.34 67.61,-56.44 78.18,-57.08 76.27,-50.34"/>
</g>
<!-- Node7&#45;&gt;Node3 -->
<g id="edge9" class="edge">
<title>Node7&#45;&gt;Node3</title>
<path fill="none" stroke="midnightblue" d="M227.5,-45.8C227.5,-36.91 227.5,-26.78 227.5,-19.75"/>
<polygon fill="midnightblue" stroke="midnightblue" points="224,-46.08 227.5,-56.08 231,-46.08 224,-46.08"/>
</g>
<!-- Node8&#45;&gt;Node3 -->
<g id="edge11" class="edge">
<title>Node8&#45;&gt;Node3</title>
<path fill="none" stroke="midnightblue" d="M152.59,-51.45C171.05,-41.48 195.6,-28.23 211.47,-19.65"/>
<polygon fill="midnightblue" stroke="midnightblue" points="150.7,-48.49 143.57,-56.32 154.03,-54.65 150.7,-48.49"/>
</g>
<!-- Node12 -->
<g id="node12" class="node">
<title>Node12</title>
<g id="a_node12"><a xlink:href="_a_b_l_forcing_8cpp.html" target="_top" xlink:title=" ">
<polygon fill="white" stroke="black" points="696,-56.5 696,-75.5 787,-75.5 787,-56.5 696,-56.5"/>
<text text-anchor="middle" x="741.5" y="-63.5" font-family="Helvetica,sans-Serif" font-size="10.00">ABLForcing.cpp</text>
</a>
</g>
</g>
<!-- Node11&#45;&gt;Node12 -->
<g id="edge15" class="edge">
<title>Node11&#45;&gt;Node12</title>
<path fill="none" stroke="midnightblue" d="M904.88,-109.83C865.99,-99.63 809.34,-84.78 773.99,-75.52"/>
<polygon fill="midnightblue" stroke="midnightblue" points="904.3,-113.29 914.86,-112.44 906.07,-106.52 904.3,-113.29"/>
</g>
<!-- Node13 -->
<g id="node13" class="node">
<title>Node13</title>
<g id="a_node13"><a xlink:href="_a_b_l_8cpp.html" target="_top" xlink:title=" ">
<polygon fill="white" stroke="black" points="1059.5,-56.5 1059.5,-75.5 1115.5,-75.5 1115.5,-56.5 1059.5,-56.5"/>
<text text-anchor="middle" x="1087.5" y="-63.5" font-family="Helvetica,sans-Serif" font-size="10.00">ABL.cpp</text>
</a>
</g>
</g>
<!-- Node11&#45;&gt;Node13 -->
<g id="edge16" class="edge">
<title>Node11&#45;&gt;Node13</title>
<path fill="none" stroke="midnightblue" d="M979.2,-108.77C1005.5,-98.63 1042.22,-84.47 1065.42,-75.52"/>
<polygon fill="midnightblue" stroke="midnightblue" points="977.75,-105.58 969.68,-112.44 980.27,-112.11 977.75,-105.58"/>
</g>
<!-- Node14 -->
<g id="node14" class="node">
<title>Node14</title>
<g id="a_node14"><a xlink:href="_a_b_l_stats_8cpp.html" target="_top" xlink:title=" ">
<polygon fill="white" stroke="black" points="961.5,-56.5 961.5,-75.5 1041.5,-75.5 1041.5,-56.5 961.5,-56.5"/>
<text text-anchor="middle" x="1001.5" y="-63.5" font-family="Helvetica,sans-Serif" font-size="10.00">ABLStats.cpp</text>
</a>
</g>
</g>
<!-- Node11&#45;&gt;Node14 -->
<g id="edge17" class="edge">
<title>Node11&#45;&gt;Node14</title>
<path fill="none" stroke="midnightblue" d="M963.5,-105C973.07,-95.43 984.86,-83.64 992.75,-75.75"/>
<polygon fill="midnightblue" stroke="midnightblue" points="961.01,-102.54 956.42,-112.08 965.96,-107.49 961.01,-102.54"/>
</g>
<!-- Node15&#45;&gt;Node13 -->
<g id="edge20" class="edge">
<title>Node15&#45;&gt;Node13</title>
<path fill="none" stroke="midnightblue" d="M1076.36,-102.4C1079.2,-93.36 1082.48,-82.94 1084.75,-75.75"/>
<polygon fill="midnightblue" stroke="midnightblue" points="1072.97,-101.49 1073.31,-112.08 1079.65,-103.6 1072.97,-101.49"/>
</g>
<!-- Node16 -->
<g id="node16" class="node">
<title>Node16</title>
<g id="a_node16"><a xlink:href="_a_b_l_mean_boussinesq_8cpp.html" target="_top" xlink:title=" ">
<polygon fill="white" stroke="black" points="805.5,-56.5 805.5,-75.5 943.5,-75.5 943.5,-56.5 805.5,-56.5"/>
<text text-anchor="middle" x="874.5" y="-63.5" font-family="Helvetica,sans-Serif" font-size="10.00">ABLMeanBoussinesq.cpp</text>
</a>
</g>
</g>
<!-- Node15&#45;&gt;Node16 -->
<g id="edge19" class="edge">
<title>Node15&#45;&gt;Node16</title>
<path fill="none" stroke="midnightblue" d="M1029.48,-109.7C992.49,-99.51 938.9,-84.74 905.41,-75.52"/>
<polygon fill="midnightblue" stroke="midnightblue" points="1028.87,-113.16 1039.44,-112.44 1030.73,-106.41 1028.87,-113.16"/>
</g>
<!-- Node17&#45;&gt;Node13 -->
<g id="edge23" class="edge">
<title>Node17&#45;&gt;Node13</title>
<path fill="none" stroke="midnightblue" d="M1188.18,-108.5C1163.62,-98.38 1129.68,-84.39 1108.16,-75.52"/>
<polygon fill="midnightblue" stroke="midnightblue" points="1187.16,-111.87 1197.74,-112.44 1189.83,-105.4 1187.16,-111.87"/>
</g>
<!-- Node17&#45;&gt;Node14 -->
<g id="edge24" class="edge">
<title>Node17&#45;&gt;Node14</title>
<path fill="none" stroke="midnightblue" d="M1174.39,-110.02C1133.4,-99.82 1073.2,-84.84 1035.72,-75.52"/>
<polygon fill="midnightblue" stroke="midnightblue" points="1173.57,-113.43 1184.12,-112.44 1175.26,-106.63 1173.57,-113.43"/>
</g>
<!-- Node18 -->
<g id="node18" class="node">
<title>Node18</title>
<g id="a_node18"><a xlink:href="_a_b_l_meso_forcing_mom_8cpp.html" target="_top" xlink:title=" ">
<polygon fill="white" stroke="black" points="1133.5,-56.5 1133.5,-75.5 1275.5,-75.5 1275.5,-56.5 1133.5,-56.5"/>
<text text-anchor="middle" x="1204.5" y="-63.5" font-family="Helvetica,sans-Serif" font-size="10.00">ABLMesoForcingMom.cpp</text>
</a>
</g>
</g>
<!-- Node17&#45;&gt;Node18 -->
<g id="edge22" class="edge">
<title>Node17&#45;&gt;Node18</title>
<path fill="none" stroke="midnightblue" d="M1213.68,-102.4C1211.33,-93.36 1208.63,-82.94 1206.77,-75.75"/>
<polygon fill="midnightblue" stroke="midnightblue" points="1210.29,-103.28 1216.19,-112.08 1217.07,-101.52 1210.29,-103.28"/>
</g>
<!-- Node20 -->
<g id="node20" class="node">
<title>Node20</title>
<g id="a_node20"><a xlink:href="_actuator_forcing_8cpp.html" target="_top" xlink:title=" ">
<polygon fill="white" stroke="black" points="1431,-56.5 1431,-75.5 1544,-75.5 1544,-56.5 1431,-56.5"/>
<text text-anchor="middle" x="1487.5" y="-63.5" font-family="Helvetica,sans-Serif" font-size="10.00">ActuatorForcing.cpp</text>
</a>
</g>
</g>
<!-- Node19&#45;&gt;Node20 -->
<g id="edge26" class="edge">
<title>Node19&#45;&gt;Node20</title>
<path fill="none" stroke="midnightblue" d="M1490.75,-102.1C1489.92,-93.14 1488.97,-82.86 1488.31,-75.75"/>
<polygon fill="midnightblue" stroke="midnightblue" points="1487.27,-102.45 1491.67,-112.08 1494.24,-101.8 1487.27,-102.45"/>
</g>
<!-- Node22 -->
<g id="node22" class="node">
<title>Node22</title>
<g id="a_node22"><a xlink:href="icns_2source__terms_2_body_force_8cpp.html" target="_top" xlink:title=" ">
<polygon fill="white" stroke="black" points="1562.5,-56.5 1562.5,-75.5 1650.5,-75.5 1650.5,-56.5 1562.5,-56.5"/>
<text text-anchor="middle" x="1606.5" y="-63.5" font-family="Helvetica,sans-Serif" font-size="10.00">BodyForce.cpp</text>
</a>
</g>
</g>
<!-- Node21&#45;&gt;Node22 -->
<g id="edge28" class="edge">
<title>Node21&#45;&gt;Node22</title>
<path fill="none" stroke="midnightblue" d="M1609.75,-102.1C1608.92,-93.14 1607.97,-82.86 1607.31,-75.75"/>
<polygon fill="midnightblue" stroke="midnightblue" points="1606.27,-102.45 1610.67,-112.08 1613.24,-101.8 1606.27,-102.45"/>
</g>
<!-- Node24 -->
<g id="node24" class="node">
<title>Node24</title>
<g id="a_node24"><a xlink:href="_boussinesq_buoyancy_8cpp.html" target="_top" xlink:title=" ">
<polygon fill="white" stroke="black" points="1669,-56.5 1669,-75.5 1808,-75.5 1808,-56.5 1669,-56.5"/>
<text text-anchor="middle" x="1738.5" y="-63.5" font-family="Helvetica,sans-Serif" font-size="10.00">BoussinesqBuoyancy.cpp</text>
</a>
</g>
</g>
<!-- Node23&#45;&gt;Node24 -->
<g id="edge30" class="edge">
<title>Node23&#45;&gt;Node24</title>
<path fill="none" stroke="midnightblue" d="M1739.79,-101.8C1739.46,-92.91 1739.08,-82.78 1738.82,-75.75"/>
<polygon fill="midnightblue" stroke="midnightblue" points="1736.3,-102.22 1740.17,-112.08 1743.3,-101.96 1736.3,-102.22"/>
</g>
<!-- Node26 -->
<g id="node26" class="node">
<title>Node26</title>
<g id="a_node26"><a xlink:href="_burggraf_flow_forcing_8cpp.html" target="_top" xlink:title=" ">
<polygon fill="white" stroke="black" points="1826,-56.5 1826,-75.5 1963,-75.5 1963,-56.5 1826,-56.5"/>
<text text-anchor="middle" x="1894.5" y="-63.5" font-family="Helvetica,sans-Serif" font-size="10.00">BurggrafFlowForcing.cpp</text>
</a>
</g>
</g>
<!-- Node25&#45;&gt;Node26 -->
<g id="edge32" class="edge">
<title>Node25&#45;&gt;Node26</title>
<path fill="none" stroke="midnightblue" d="M1892.57,-101.8C1893.06,-92.91 1893.62,-82.78 1894.01,-75.75"/>
<polygon fill="midnightblue" stroke="midnightblue" points="1889.06,-101.9 1892,-112.08 1896.04,-102.29 1889.06,-101.9"/>
</g>
<!-- Node28 -->
<g id="node28" class="node">
<title>Node28</title>
<g id="a_node28"><a xlink:href="_coriolis_forcing_8cpp.html" target="_top" xlink:title=" ">
<polygon fill="white" stroke="black" points="1981,-56.5 1981,-75.5 2090,-75.5 2090,-56.5 1981,-56.5"/>
<text text-anchor="middle" x="2035.5" y="-63.5" font-family="Helvetica,sans-Serif" font-size="10.00">CoriolisForcing.cpp</text>
</a>
</g>
</g>
<!-- Node27&#45;&gt;Node28 -->
<g id="edge34" class="edge">
<title>Node27&#45;&gt;Node28</title>
<path fill="none" stroke="midnightblue" d="M2032.25,-102.1C2033.08,-93.14 2034.03,-82.86 2034.69,-75.75"/>
<polygon fill="midnightblue" stroke="midnightblue" points="2028.76,-101.8 2031.33,-112.08 2035.73,-102.45 2028.76,-101.8"/>
</g>
<!-- Node30 -->
<g id="node30" class="node">
<title>Node30</title>
<g id="a_node30"><a xlink:href="_density_buoyancy_8cpp.html" target="_top" xlink:title=" ">
<polygon fill="white" stroke="black" points="2108,-56.5 2108,-75.5 2229,-75.5 2229,-56.5 2108,-56.5"/>
<text text-anchor="middle" x="2168.5" y="-63.5" font-family="Helvetica,sans-Serif" font-size="10.00">DensityBuoyancy.cpp</text>
</a>
</g>
</g>
<!-- Node29&#45;&gt;Node30 -->
<g id="edge36" class="edge">
<title>Node29&#45;&gt;Node30</title>
<path fill="none" stroke="midnightblue" d="M2163.95,-102.1C2165.11,-93.14 2166.44,-82.86 2167.37,-75.75"/>
<polygon fill="midnightblue" stroke="midnightblue" points="2160.47,-101.72 2162.66,-112.08 2167.41,-102.62 2160.47,-101.72"/>
</g>
<!-- Node32 -->
<g id="node32" class="node">
<title>Node32</title>
<g id="a_node32"><a xlink:href="_geostrophic_forcing_8cpp.html" target="_top" xlink:title=" ">
<polygon fill="white" stroke="black" points="2247,-56.5 2247,-75.5 2378,-75.5 2378,-56.5 2247,-56.5"/>
<text text-anchor="middle" x="2312.5" y="-63.5" font-family="Helvetica,sans-Serif" font-size="10.00">GeostrophicForcing.cpp</text>
</a>
</g>
</g>
<!-- Node31&#45;&gt;Node32 -->
<g id="edge38" class="edge">
<title>Node31&#45;&gt;Node32</title>
<path fill="none" stroke="midnightblue" d="M2307.3,-102.1C2308.63,-93.14 2310.15,-82.86 2311.2,-75.75"/>
<polygon fill="midnightblue" stroke="midnightblue" points="2303.82,-101.68 2305.82,-112.08 2310.75,-102.7 2303.82,-101.68"/>
</g>
<!-- Node34 -->
<g id="node34" class="node">
<title>Node34</title>
<g id="a_node34"><a xlink:href="_gravity_forcing_8cpp.html" target="_top" xlink:title=" ">
<polygon fill="white" stroke="black" points="2396.5,-56.5 2396.5,-75.5 2504.5,-75.5 2504.5,-56.5 2396.5,-56.5"/>
<text text-anchor="middle" x="2450.5" y="-63.5" font-family="Helvetica,sans-Serif" font-size="10.00">GravityForcing.cpp</text>
</a>
</g>
</g>
<!-- Node33&#45;&gt;Node34 -->
<g id="edge40" class="edge">
<title>Node33&#45;&gt;Node34</title>
<path fill="none" stroke="midnightblue" d="M2445.3,-102.1C2446.63,-93.14 2448.15,-82.86 2449.2,-75.75"/>
<polygon fill="midnightblue" stroke="midnightblue" points="2441.82,-101.68 2443.82,-112.08 2448.75,-102.7 2441.82,-101.68"/>
</g>
<!-- Node35&#45;&gt;Node13 -->
<g id="edge43" class="edge">
<title>Node35&#45;&gt;Node13</title>
<path fill="none" stroke="midnightblue" d="M1299.57,-110.61C1252.33,-101.94 1183.94,-88.96 1124.5,-76 1121.66,-75.38 1118.7,-74.71 1115.75,-74.02"/>
<polygon fill="midnightblue" stroke="midnightblue" points="1299.15,-114.09 1309.62,-112.44 1300.41,-107.2 1299.15,-114.09"/>
</g>
<!-- Node36 -->
<g id="node36" class="node">
<title>Node36</title>
<g id="a_node36"><a xlink:href="_hurricane_forcing_8cpp.html" target="_top" xlink:title=" ">
<polygon fill="white" stroke="black" points="1294,-56.5 1294,-75.5 1413,-75.5 1413,-56.5 1294,-56.5"/>
<text text-anchor="middle" x="1353.5" y="-63.5" font-family="Helvetica,sans-Serif" font-size="10.00">HurricaneForcing.cpp</text>
</a>
</g>
</g>
<!-- Node35&#45;&gt;Node36 -->
<g id="edge42" class="edge">
<title>Node35&#45;&gt;Node36</title>
<path fill="none" stroke="midnightblue" d="M1356.1,-102.1C1355.44,-93.14 1354.67,-82.86 1354.15,-75.75"/>
<polygon fill="midnightblue" stroke="midnightblue" points="1352.61,-102.37 1356.84,-112.08 1359.59,-101.85 1352.61,-102.37"/>
</g>
<!-- Node38 -->
<g id="node38" class="node">
<title>Node38</title>
<g id="a_node38"><a xlink:href="_rayleigh_damping_8cpp.html" target="_top" xlink:title=" ">
<polygon fill="white" stroke="black" points="2522.5,-56.5 2522.5,-75.5 2646.5,-75.5 2646.5,-56.5 2522.5,-56.5"/>
<text text-anchor="middle" x="2584.5" y="-63.5" font-family="Helvetica,sans-Serif" font-size="10.00">RayleighDamping.cpp</text>
</a>
</g>
</g>
<!-- Node37&#45;&gt;Node38 -->
<g id="edge45" class="edge">
<title>Node37&#45;&gt;Node38</title>
<path fill="none" stroke="midnightblue" d="M2579.3,-102.1C2580.63,-93.14 2582.15,-82.86 2583.2,-75.75"/>
<polygon fill="midnightblue" stroke="midnightblue" points="2575.82,-101.68 2577.82,-112.08 2582.75,-102.7 2575.82,-101.68"/>
</g>
<!-- Node40 -->
<g id="node40" class="node">
<title>Node40</title>
<g id="a_node40"><a xlink:href="_synth_turb_forcing_8cpp.html" target="_top" xlink:title=" ">
<polygon fill="white" stroke="black" points="2664.5,-56.5 2664.5,-75.5 2784.5,-75.5 2784.5,-56.5 2664.5,-56.5"/>
<text text-anchor="middle" x="2724.5" y="-63.5" font-family="Helvetica,sans-Serif" font-size="10.00">SynthTurbForcing.cpp</text>
</a>
</g>
</g>
<!-- Node39&#45;&gt;Node40 -->
<g id="edge47" class="edge">
<title>Node39&#45;&gt;Node40</title>
<path fill="none" stroke="midnightblue" d="M2719.3,-102.1C2720.63,-93.14 2722.15,-82.86 2723.2,-75.75"/>
<polygon fill="midnightblue" stroke="midnightblue" points="2715.82,-101.68 2717.82,-112.08 2722.75,-102.7 2715.82,-101.68"/>
</g>
<!-- Node42 -->
<g id="node42" class="node">
<title>Node42</title>
<g id="a_node42"><a xlink:href="_m_m_s_forcing_8cpp.html" target="_top" xlink:title=" ">
<polygon fill="white" stroke="black" points="2802.5,-56.5 2802.5,-75.5 2898.5,-75.5 2898.5,-56.5 2802.5,-56.5"/>
<text text-anchor="middle" x="2850.5" y="-63.5" font-family="Helvetica,sans-Serif" font-size="10.00">MMSForcing.cpp</text>
</a>
</g>
</g>
<!-- Node41&#45;&gt;Node42 -->
<g id="edge49" class="edge">
<title>Node41&#45;&gt;Node42</title>
<path fill="none" stroke="midnightblue" d="M2845.3,-102.1C2846.63,-93.14 2848.15,-82.86 2849.2,-75.75"/>
<polygon fill="midnightblue" stroke="midnightblue" points="2841.82,-101.68 2843.82,-112.08 2848.75,-102.7 2841.82,-101.68"/>
</g>
</g>
</svg>
