<?xml version="1.0" encoding="UTF-8" standalone="no"?>
<!DOCTYPE svg PUBLIC "-//W3C//DTD SVG 1.1//EN"
 "http://www.w3.org/Graphics/SVG/1.1/DTD/svg11.dtd">
<!-- Generated by graphviz version 2.43.0 (0)
 -->
<!-- Title: PDEBase.H Pages: 1 -->
<svg width="4825pt" height="252pt"
 viewBox="0.00 0.00 4825.42 252.00" xmlns="http://www.w3.org/2000/svg" xmlns:xlink="http://www.w3.org/1999/xlink">
<g id="graph0" class="graph" transform="scale(1 1) rotate(0) translate(4 248)">
<title>PDEBase.H</title>
<polygon fill="white" stroke="transparent" points="-4,4 -4,-248 4821.42,-248 4821.42,4 -4,4"/>
<!-- Node1 -->
<g id="node1" class="node">
<title>Node1</title>
<g id="a_node1"><a xlink:title=" ">
<polygon fill="#bfbfbf" stroke="black" points="4409.92,-224.5 4409.92,-243.5 4480.92,-243.5 4480.92,-224.5 4409.92,-224.5"/>
<text text-anchor="middle" x="4445.42" y="-231.5" font-family="Helvetica,sans-Serif" font-size="10.00">PDEBase.H</text>
</a>
</g>
</g>
<!-- Node2 -->
<g id="node2" class="node">
<title>Node2</title>
<g id="a_node2"><a xlink:href="_c_f_d_sim_8_h.html" target="_top" xlink:title=" ">
<polygon fill="white" stroke="red" points="2182.42,-168.5 2182.42,-187.5 2248.42,-187.5 2248.42,-168.5 2182.42,-168.5"/>
<text text-anchor="middle" x="2215.42" y="-175.5" font-family="Helvetica,sans-Serif" font-size="10.00">CFDSim.H</text>
</a>
</g>
</g>
<!-- Node1&#45;&gt;Node2 -->
<g id="edge1" class="edge">
<title>Node1&#45;&gt;Node2</title>
<path fill="none" stroke="midnightblue" d="M4399.2,-231.88C4105.2,-224.76 2500.43,-185.9 2248.66,-179.8"/>
<polygon fill="midnightblue" stroke="midnightblue" points="4399.41,-235.39 4409.49,-232.13 4399.58,-228.39 4399.41,-235.39"/>
</g>
<!-- Node23 -->
<g id="node22" class="node">
<title>Node23</title>
<g id="a_node22"><a xlink:href="_p_d_e_8_h.html" target="_top" xlink:title=" ">
<polygon fill="white" stroke="red" points="23.92,-56.5 23.92,-75.5 70.92,-75.5 70.92,-56.5 23.92,-56.5"/>
<text text-anchor="middle" x="47.42" y="-63.5" font-family="Helvetica,sans-Serif" font-size="10.00">PDE.H</text>
</a>
</g>
</g>
<!-- Node1&#45;&gt;Node23 -->
<g id="edge54" class="edge">
<title>Node1&#45;&gt;Node23</title>
<path fill="none" stroke="midnightblue" d="M4399.69,-232.85C3935.14,-231.2 86.32,-215.02 5.42,-132 -11.74,-114.39 17.1,-88.74 34.94,-75.55"/>
<polygon fill="midnightblue" stroke="midnightblue" points="4399.71,-236.35 4409.72,-232.88 4399.73,-229.35 4399.71,-236.35"/>
</g>
<!-- Node57 -->
<g id="node23" class="node">
<title>Node57</title>
<g id="a_node23"><a xlink:href="_p_d_e_base_8cpp.html" target="_top" xlink:title=" ">
<polygon fill="white" stroke="black" points="4192.42,-112.5 4192.42,-131.5 4272.42,-131.5 4272.42,-112.5 4192.42,-112.5"/>
<text text-anchor="middle" x="4232.42" y="-119.5" font-family="Helvetica,sans-Serif" font-size="10.00">PDEBase.cpp</text>
</a>
</g>
</g>
<!-- Node1&#45;&gt;Node57 -->
<g id="edge55" class="edge">
<title>Node1&#45;&gt;Node57</title>
<path fill="none" stroke="midnightblue" d="M4419.73,-219.73C4375.49,-196.88 4286.08,-150.71 4249.06,-131.59"/>
<polygon fill="midnightblue" stroke="midnightblue" points="4418.22,-222.89 4428.71,-224.37 4421.43,-216.67 4418.22,-222.89"/>
</g>
<!-- Node88 -->
<g id="node34" class="node">
<title>Node88</title>
<g id="a_node34"><a xlink:href="incflo_8cpp.html" target="_top" xlink:title=" ">
<polygon fill="white" stroke="black" points="4168.92,-56.5 4168.92,-75.5 4231.92,-75.5 4231.92,-56.5 4168.92,-56.5"/>
<text text-anchor="middle" x="4200.42" y="-63.5" font-family="Helvetica,sans-Serif" font-size="10.00">incflo.cpp</text>
</a>
</g>
</g>
<!-- Node1&#45;&gt;Node88 -->
<g id="edge56" class="edge">
<title>Node1&#45;&gt;Node88</title>
<path fill="none" stroke="midnightblue" d="M4444.91,-214.15C4443.12,-187.37 4435.75,-138.62 4406.42,-112 4381.14,-89.06 4283.36,-75.66 4232.14,-70.08"/>
<polygon fill="midnightblue" stroke="midnightblue" points="4441.43,-214.63 4445.39,-224.45 4448.42,-214.3 4441.43,-214.63"/>
</g>
<!-- Node89 -->
<g id="node35" class="node">
<title>Node89</title>
<g id="a_node35"><a xlink:href="incflo__advance_8cpp.html" target="_top" xlink:title=" ">
<polygon fill="white" stroke="black" points="4356.42,-56.5 4356.42,-75.5 4466.42,-75.5 4466.42,-56.5 4356.42,-56.5"/>
<text text-anchor="middle" x="4411.42" y="-63.5" font-family="Helvetica,sans-Serif" font-size="10.00">incflo_advance.cpp</text>
</a>
</g>
</g>
<!-- Node1&#45;&gt;Node89 -->
<g id="edge57" class="edge">
<title>Node1&#45;&gt;Node89</title>
<path fill="none" stroke="midnightblue" d="M4447.63,-214.24C4449.82,-190 4451.44,-146.78 4440.42,-112 4435.98,-98 4425.98,-84.14 4418.97,-75.58"/>
<polygon fill="midnightblue" stroke="midnightblue" points="4444.15,-213.92 4446.6,-224.22 4451.11,-214.64 4444.15,-213.92"/>
</g>
<!-- Node123 -->
<g id="node38" class="node">
<title>Node123</title>
<g id="a_node38"><a xlink:href="_tioga_interface_8cpp.html" target="_top" xlink:title=" ">
<polygon fill="white" stroke="black" points="4290.92,-112.5 4290.92,-131.5 4397.92,-131.5 4397.92,-112.5 4290.92,-112.5"/>
<text text-anchor="middle" x="4344.42" y="-119.5" font-family="Helvetica,sans-Serif" font-size="10.00">TiogaInterface.cpp</text>
</a>
</g>
</g>
<!-- Node1&#45;&gt;Node123 -->
<g id="edge58" class="edge">
<title>Node1&#45;&gt;Node123</title>
<path fill="none" stroke="midnightblue" d="M4430.63,-216.9C4408.92,-193.25 4369.16,-149.95 4352.31,-131.59"/>
<polygon fill="midnightblue" stroke="midnightblue" points="4428.15,-219.37 4437.5,-224.37 4433.31,-214.64 4428.15,-219.37"/>
</g>
<!-- Node50 -->
<g id="node47" class="node">
<title>Node50</title>
<g id="a_node47"><a xlink:href="_one_eq_ksgs_8cpp.html" target="_top" xlink:title=" ">
<polygon fill="white" stroke="black" points="4492.42,-168.5 4492.42,-187.5 4584.42,-187.5 4584.42,-168.5 4492.42,-168.5"/>
<text text-anchor="middle" x="4538.42" y="-175.5" font-family="Helvetica,sans-Serif" font-size="10.00">OneEqKsgs.cpp</text>
</a>
</g>
</g>
<!-- Node1&#45;&gt;Node50 -->
<g id="edge59" class="edge">
<title>Node1&#45;&gt;Node50</title>
<path fill="none" stroke="midnightblue" d="M4469.23,-219.18C4486.34,-209.24 4508.89,-196.15 4523.52,-187.65"/>
<polygon fill="midnightblue" stroke="midnightblue" points="4467.25,-216.28 4460.36,-224.32 4470.77,-222.33 4467.25,-216.28"/>
</g>
<!-- Node42 -->
<g id="node48" class="node">
<title>Node42</title>
<g id="a_node48"><a xlink:href="_k_omega_s_s_t_8cpp.html" target="_top" xlink:title=" ">
<polygon fill="white" stroke="black" points="4569.92,-112.5 4569.92,-131.5 4664.92,-131.5 4664.92,-112.5 4569.92,-112.5"/>
<text text-anchor="middle" x="4617.42" y="-119.5" font-family="Helvetica,sans-Serif" font-size="10.00">KOmegaSST.cpp</text>
</a>
</g>
</g>
<!-- Node1&#45;&gt;Node42 -->
<g id="edge60" class="edge">
<title>Node1&#45;&gt;Node42</title>
<path fill="none" stroke="midnightblue" d="M4491.05,-229.71C4523.37,-225.1 4565.74,-214.1 4593.42,-188 4609.52,-172.81 4614.88,-145.88 4616.61,-131.93"/>
<polygon fill="midnightblue" stroke="midnightblue" points="4490.42,-226.26 4480.94,-230.99 4491.3,-233.21 4490.42,-226.26"/>
</g>
<!-- Node43 -->
<g id="node49" class="node">
<title>Node43</title>
<g id="a_node49"><a xlink:href="_k_omega_s_s_t_i_8_h.html" target="_top" xlink:title=" ">
<polygon fill="white" stroke="black" points="4640.92,-168.5 4640.92,-187.5 4729.92,-187.5 4729.92,-168.5 4640.92,-168.5"/>
<text text-anchor="middle" x="4685.42" y="-175.5" font-family="Helvetica,sans-Serif" font-size="10.00">KOmegaSSTI.H</text>
</a>
</g>
</g>
<!-- Node1&#45;&gt;Node43 -->
<g id="edge61" class="edge">
<title>Node1&#45;&gt;Node43</title>
<path fill="none" stroke="midnightblue" d="M4490.96,-222.75C4536.31,-212.55 4605.13,-197.07 4647.57,-187.52"/>
<polygon fill="midnightblue" stroke="midnightblue" points="4490.08,-219.36 4481.09,-224.97 4491.62,-226.19 4490.08,-219.36"/>
</g>
<!-- Node44 -->
<g id="node50" class="node">
<title>Node44</title>
<g id="a_node50"><a xlink:href="_k_omega_s_s_t_i_d_d_e_s_8cpp.html" target="_top" xlink:title=" ">
<polygon fill="white" stroke="black" points="4691.42,-112.5 4691.42,-131.5 4817.42,-131.5 4817.42,-112.5 4691.42,-112.5"/>
<text text-anchor="middle" x="4754.42" y="-119.5" font-family="Helvetica,sans-Serif" font-size="10.00">KOmegaSSTIDDES.cpp</text>
</a>
</g>
</g>
<!-- Node1&#45;&gt;Node44 -->
<g id="edge64" class="edge">
<title>Node1&#45;&gt;Node44</title>
<path fill="none" stroke="midnightblue" d="M4491.41,-231.99C4564.64,-229.41 4703.13,-220.28 4738.42,-188 4754.37,-173.41 4755.59,-145.71 4755.06,-131.65"/>
<polygon fill="midnightblue" stroke="midnightblue" points="4490.98,-228.5 4481.09,-232.32 4491.2,-235.5 4490.98,-228.5"/>
</g>
<!-- Node3 -->
<g id="node3" class="node">
<title>Node3</title>
<g id="a_node3"><a xlink:href="_wall_function_8_h.html" target="_top" xlink:title=" ">
<polygon fill="white" stroke="red" points="1705.92,-112.5 1705.92,-131.5 1794.92,-131.5 1794.92,-112.5 1705.92,-112.5"/>
<text text-anchor="middle" x="1750.42" y="-119.5" font-family="Helvetica,sans-Serif" font-size="10.00">WallFunction.H</text>
</a>
</g>
</g>
<!-- Node2&#45;&gt;Node3 -->
<g id="edge2" class="edge">
<title>Node2&#45;&gt;Node3</title>
<path fill="none" stroke="midnightblue" d="M2172.31,-173.08C2097.35,-166.09 1938.21,-150.46 1804.42,-132 1801.41,-131.58 1798.3,-131.13 1795.18,-130.66"/>
<polygon fill="midnightblue" stroke="midnightblue" points="2172.03,-176.57 2182.31,-174.01 2172.68,-169.6 2172.03,-176.57"/>
</g>
<!-- Node5 -->
<g id="node4" class="node">
<title>Node5</title>
<g id="a_node4"><a xlink:href="_channel_flow_8_h.html" target="_top" xlink:title=" ">
<polygon fill="white" stroke="black" points="2600.92,-56.5 2600.92,-75.5 2689.92,-75.5 2689.92,-56.5 2600.92,-56.5"/>
<text text-anchor="middle" x="2645.42" y="-63.5" font-family="Helvetica,sans-Serif" font-size="10.00">ChannelFlow.H</text>
</a>
</g>
</g>
<!-- Node2&#45;&gt;Node5 -->
<g id="edge46" class="edge">
<title>Node2&#45;&gt;Node5</title>
<path fill="none" stroke="midnightblue" d="M2258.59,-174.92C2358.16,-169.75 2597.54,-155.05 2625.42,-132 2642.35,-118.01 2645.23,-90.03 2645.55,-75.78"/>
<polygon fill="midnightblue" stroke="midnightblue" points="2258.37,-171.43 2248.56,-175.43 2258.72,-178.42 2258.37,-171.43"/>
</g>
<!-- Node6 -->
<g id="node5" class="node">
<title>Node6</title>
<g id="a_node5"><a xlink:href="_channel_flow_8cpp.html" target="_top" xlink:title=" ">
<polygon fill="white" stroke="black" points="3006.92,-0.5 3006.92,-19.5 3105.92,-19.5 3105.92,-0.5 3006.92,-0.5"/>
<text text-anchor="middle" x="3056.42" y="-7.5" font-family="Helvetica,sans-Serif" font-size="10.00">ChannelFlow.cpp</text>
</a>
</g>
</g>
<!-- Node2&#45;&gt;Node6 -->
<g id="edge45" class="edge">
<title>Node2&#45;&gt;Node6</title>
<path fill="none" stroke="midnightblue" d="M2258.95,-177.08C2473.1,-177.29 3406.32,-175.67 3448.42,-132 3550.51,-26.12 3232.84,-12.32 3106.17,-10.95"/>
<polygon fill="midnightblue" stroke="midnightblue" points="2258.73,-173.58 2248.72,-177.07 2258.72,-180.58 2258.73,-173.58"/>
</g>
<!-- Node7 -->
<g id="node6" class="node">
<title>Node7</title>
<g id="a_node6"><a xlink:href="_c_f_d_sim_8cpp.html" target="_top" xlink:title=" ">
<polygon fill="white" stroke="black" points="936.42,-112.5 936.42,-131.5 1012.42,-131.5 1012.42,-112.5 936.42,-112.5"/>
<text text-anchor="middle" x="974.42" y="-119.5" font-family="Helvetica,sans-Serif" font-size="10.00">CFDSim.cpp</text>
</a>
</g>
</g>
<!-- Node2&#45;&gt;Node7 -->
<g id="edge5" class="edge">
<title>Node2&#45;&gt;Node7</title>
<path fill="none" stroke="midnightblue" d="M2171.97,-176.25C1985.36,-172.87 1251.02,-158.16 1021.42,-132 1018.53,-131.67 1015.55,-131.26 1012.57,-130.81"/>
<polygon fill="midnightblue" stroke="midnightblue" points="2172.15,-179.75 2182.21,-176.43 2172.27,-172.75 2172.15,-179.75"/>
</g>
<!-- Node8 -->
<g id="node7" class="node">
<title>Node8</title>
<g id="a_node7"><a xlink:href="_mesh_map_8cpp.html" target="_top" xlink:title=" ">
<polygon fill="white" stroke="black" points="1030.42,-112.5 1030.42,-131.5 1114.42,-131.5 1114.42,-112.5 1030.42,-112.5"/>
<text text-anchor="middle" x="1072.42" y="-119.5" font-family="Helvetica,sans-Serif" font-size="10.00">MeshMap.cpp</text>
</a>
</g>
</g>
<!-- Node2&#45;&gt;Node8 -->
<g id="edge6" class="edge">
<title>Node2&#45;&gt;Node8</title>
<path fill="none" stroke="midnightblue" d="M2171.81,-177.29C2024.1,-177.82 1529.22,-175.97 1123.42,-132 1120.56,-131.69 1117.62,-131.32 1114.66,-130.9"/>
<polygon fill="midnightblue" stroke="midnightblue" points="2172.26,-180.79 2182.24,-177.24 2172.23,-173.79 2172.26,-180.79"/>
</g>
<!-- Node9 -->
<g id="node8" class="node">
<title>Node9</title>
<g id="a_node8"><a xlink:href="_a_b_l_forcing_8cpp.html" target="_top" xlink:title=" ">
<polygon fill="white" stroke="black" points="1132.92,-112.5 1132.92,-131.5 1223.92,-131.5 1223.92,-112.5 1132.92,-112.5"/>
<text text-anchor="middle" x="1178.42" y="-119.5" font-family="Helvetica,sans-Serif" font-size="10.00">ABLForcing.cpp</text>
</a>
</g>
</g>
<!-- Node2&#45;&gt;Node9 -->
<g id="edge7" class="edge">
<title>Node2&#45;&gt;Node9</title>
<path fill="none" stroke="midnightblue" d="M2172.12,-176.81C2034.5,-175.83 1594.89,-169.73 1233.42,-132 1230.34,-131.68 1227.17,-131.3 1223.98,-130.88"/>
<polygon fill="midnightblue" stroke="midnightblue" points="2172.23,-180.31 2182.25,-176.88 2172.28,-173.31 2172.23,-180.31"/>
</g>
<!-- Node10 -->
<g id="node9" class="node">
<title>Node10</title>
<g id="a_node9"><a xlink:href="_a_b_l_mean_boussinesq_8cpp.html" target="_top" xlink:title=" ">
<polygon fill="white" stroke="black" points="1242.42,-112.5 1242.42,-131.5 1380.42,-131.5 1380.42,-112.5 1242.42,-112.5"/>
<text text-anchor="middle" x="1311.42" y="-119.5" font-family="Helvetica,sans-Serif" font-size="10.00">ABLMeanBoussinesq.cpp</text>
</a>
</g>
</g>
<!-- Node2&#45;&gt;Node10 -->
<g id="edge8" class="edge">
<title>Node2&#45;&gt;Node10</title>
<path fill="none" stroke="midnightblue" d="M2172.21,-175.57C2049.48,-171.3 1688.37,-157.37 1389.42,-132 1386.57,-131.76 1383.66,-131.5 1380.72,-131.22"/>
<polygon fill="midnightblue" stroke="midnightblue" points="2172.21,-179.07 2182.32,-175.92 2172.45,-172.07 2172.21,-179.07"/>
</g>
<!-- Node11 -->
<g id="node10" class="node">
<title>Node11</title>
<g id="a_node10"><a xlink:href="_a_b_l_meso_forcing_mom_8cpp.html" target="_top" xlink:title=" ">
<polygon fill="white" stroke="black" points="1813.42,-112.5 1813.42,-131.5 1955.42,-131.5 1955.42,-112.5 1813.42,-112.5"/>
<text text-anchor="middle" x="1884.42" y="-119.5" font-family="Helvetica,sans-Serif" font-size="10.00">ABLMesoForcingMom.cpp</text>
</a>
</g>
</g>
<!-- Node2&#45;&gt;Node11 -->
<g id="edge9" class="edge">
<title>Node2&#45;&gt;Node11</title>
<path fill="none" stroke="midnightblue" d="M2172.17,-169.94C2111.59,-160.06 2001.61,-142.12 1936.57,-131.51"/>
<polygon fill="midnightblue" stroke="midnightblue" points="2171.73,-173.42 2182.17,-171.58 2172.86,-166.51 2171.73,-173.42"/>
</g>
<!-- Node12 -->
<g id="node11" class="node">
<title>Node12</title>
<g id="a_node11"><a xlink:href="_actuator_forcing_8cpp.html" target="_top" xlink:title=" ">
<polygon fill="white" stroke="black" points="1973.92,-112.5 1973.92,-131.5 2086.92,-131.5 2086.92,-112.5 1973.92,-112.5"/>
<text text-anchor="middle" x="2030.42" y="-119.5" font-family="Helvetica,sans-Serif" font-size="10.00">ActuatorForcing.cpp</text>
</a>
</g>
</g>
<!-- Node2&#45;&gt;Node12 -->
<g id="edge10" class="edge">
<title>Node2&#45;&gt;Node12</title>
<path fill="none" stroke="midnightblue" d="M2176.25,-165.57C2141.36,-155.38 2091.07,-140.7 2059.6,-131.52"/>
<polygon fill="midnightblue" stroke="midnightblue" points="2175.53,-169 2186.11,-168.44 2177.49,-162.28 2175.53,-169"/>
</g>
<!-- Node13 -->
<g id="node12" class="node">
<title>Node13</title>
<g id="a_node12"><a xlink:href="icns_2source__terms_2_body_force_8cpp.html" target="_top" xlink:title=" ">
<polygon fill="white" stroke="black" points="2105.42,-112.5 2105.42,-131.5 2193.42,-131.5 2193.42,-112.5 2105.42,-112.5"/>
<text text-anchor="middle" x="2149.42" y="-119.5" font-family="Helvetica,sans-Serif" font-size="10.00">BodyForce.cpp</text>
</a>
</g>
</g>
<!-- Node2&#45;&gt;Node13 -->
<g id="edge11" class="edge">
<title>Node2&#45;&gt;Node13</title>
<path fill="none" stroke="midnightblue" d="M2196.87,-161.82C2185.04,-152.15 2170.14,-139.95 2160.22,-131.83"/>
<polygon fill="midnightblue" stroke="midnightblue" points="2194.86,-164.7 2204.82,-168.32 2199.29,-159.28 2194.86,-164.7"/>
</g>
<!-- Node14 -->
<g id="node13" class="node">
<title>Node14</title>
<g id="a_node13"><a xlink:href="_boussinesq_buoyancy_8cpp.html" target="_top" xlink:title=" ">
<polygon fill="white" stroke="black" points="2211.92,-112.5 2211.92,-131.5 2350.92,-131.5 2350.92,-112.5 2211.92,-112.5"/>
<text text-anchor="middle" x="2281.42" y="-119.5" font-family="Helvetica,sans-Serif" font-size="10.00">BoussinesqBuoyancy.cpp</text>
</a>
</g>
</g>
<!-- Node2&#45;&gt;Node14 -->
<g id="edge12" class="edge">
<title>Node2&#45;&gt;Node14</title>
<path fill="none" stroke="midnightblue" d="M2233.97,-161.82C2245.8,-152.15 2260.71,-139.95 2270.62,-131.83"/>
<polygon fill="midnightblue" stroke="midnightblue" points="2231.55,-159.28 2226.02,-168.32 2235.98,-164.7 2231.55,-159.28"/>
</g>
<!-- Node15 -->
<g id="node14" class="node">
<title>Node15</title>
<g id="a_node14"><a xlink:href="_burggraf_flow_forcing_8cpp.html" target="_top" xlink:title=" ">
<polygon fill="white" stroke="black" points="684.92,-56.5 684.92,-75.5 821.92,-75.5 821.92,-56.5 684.92,-56.5"/>
<text text-anchor="middle" x="753.42" y="-63.5" font-family="Helvetica,sans-Serif" font-size="10.00">BurggrafFlowForcing.cpp</text>
</a>
</g>
</g>
<!-- Node2&#45;&gt;Node15 -->
<g id="edge13" class="edge">
<title>Node2&#45;&gt;Node15</title>
<path fill="none" stroke="midnightblue" d="M2171.93,-176.62C1941.25,-174.5 869.05,-162.98 806.42,-132 781.88,-119.86 764.8,-90.5 757.46,-75.75"/>
<polygon fill="midnightblue" stroke="midnightblue" points="2172.24,-180.13 2182.27,-176.72 2172.3,-173.13 2172.24,-180.13"/>
</g>
<!-- Node16 -->
<g id="node15" class="node">
<title>Node16</title>
<g id="a_node15"><a xlink:href="_coriolis_forcing_8cpp.html" target="_top" xlink:title=" ">
<polygon fill="white" stroke="black" points="2368.92,-112.5 2368.92,-131.5 2477.92,-131.5 2477.92,-112.5 2368.92,-112.5"/>
<text text-anchor="middle" x="2423.42" y="-119.5" font-family="Helvetica,sans-Serif" font-size="10.00">CoriolisForcing.cpp</text>
</a>
</g>
</g>
<!-- Node2&#45;&gt;Node16 -->
<g id="edge14" class="edge">
<title>Node2&#45;&gt;Node16</title>
<path fill="none" stroke="midnightblue" d="M2258.2,-165.89C2297.48,-155.7 2354.85,-140.8 2390.62,-131.52"/>
<polygon fill="midnightblue" stroke="midnightblue" points="2257.18,-162.54 2248.38,-168.44 2258.94,-169.32 2257.18,-162.54"/>
</g>
<!-- Node17 -->
<g id="node16" class="node">
<title>Node17</title>
<g id="a_node16"><a xlink:href="_density_buoyancy_8cpp.html" target="_top" xlink:title=" ">
<polygon fill="white" stroke="black" points="2495.92,-112.5 2495.92,-131.5 2616.92,-131.5 2616.92,-112.5 2495.92,-112.5"/>
<text text-anchor="middle" x="2556.42" y="-119.5" font-family="Helvetica,sans-Serif" font-size="10.00">DensityBuoyancy.cpp</text>
</a>
</g>
</g>
<!-- Node2&#45;&gt;Node17 -->
<g id="edge15" class="edge">
<title>Node2&#45;&gt;Node17</title>
<path fill="none" stroke="midnightblue" d="M2258.66,-170.15C2320.73,-160.32 2435.03,-142.22 2502.53,-131.53"/>
<polygon fill="midnightblue" stroke="midnightblue" points="2257.76,-166.75 2248.43,-171.77 2258.85,-173.67 2257.76,-166.75"/>
</g>
<!-- Node18 -->
<g id="node17" class="node">
<title>Node18</title>
<g id="a_node17"><a xlink:href="_geostrophic_forcing_8cpp.html" target="_top" xlink:title=" ">
<polygon fill="white" stroke="black" points="2673.92,-112.5 2673.92,-131.5 2804.92,-131.5 2804.92,-112.5 2673.92,-112.5"/>
<text text-anchor="middle" x="2739.42" y="-119.5" font-family="Helvetica,sans-Serif" font-size="10.00">GeostrophicForcing.cpp</text>
</a>
</g>
</g>
<!-- Node2&#45;&gt;Node18 -->
<g id="edge16" class="edge">
<title>Node2&#45;&gt;Node18</title>
<path fill="none" stroke="midnightblue" d="M2258.69,-172.77C2338.11,-164.98 2512.52,-147.71 2659.42,-132 2664.01,-131.51 2668.74,-131 2673.51,-130.47"/>
<polygon fill="midnightblue" stroke="midnightblue" points="2258.18,-169.31 2248.57,-173.77 2258.87,-176.27 2258.18,-169.31"/>
</g>
<!-- Node19 -->
<g id="node18" class="node">
<title>Node19</title>
<g id="a_node18"><a xlink:href="_gravity_forcing_8cpp.html" target="_top" xlink:title=" ">
<polygon fill="white" stroke="black" points="2823.42,-112.5 2823.42,-131.5 2931.42,-131.5 2931.42,-112.5 2823.42,-112.5"/>
<text text-anchor="middle" x="2877.42" y="-119.5" font-family="Helvetica,sans-Serif" font-size="10.00">GravityForcing.cpp</text>
</a>
</g>
</g>
<!-- Node2&#45;&gt;Node19 -->
<g id="edge17" class="edge">
<title>Node2&#45;&gt;Node19</title>
<path fill="none" stroke="midnightblue" d="M2258.72,-174.7C2357.35,-169.26 2606.18,-154.35 2813.42,-132 2816.66,-131.65 2819.98,-131.27 2823.33,-130.86"/>
<polygon fill="midnightblue" stroke="midnightblue" points="2258.34,-171.22 2248.55,-175.26 2258.73,-178.21 2258.34,-171.22"/>
</g>
<!-- Node20 -->
<g id="node19" class="node">
<title>Node20</title>
<g id="a_node19"><a xlink:href="_hurricane_forcing_8cpp.html" target="_top" xlink:title=" ">
<polygon fill="white" stroke="black" points="2949.92,-112.5 2949.92,-131.5 3068.92,-131.5 3068.92,-112.5 2949.92,-112.5"/>
<text text-anchor="middle" x="3009.42" y="-119.5" font-family="Helvetica,sans-Serif" font-size="10.00">HurricaneForcing.cpp</text>
</a>
</g>
</g>
<!-- Node2&#45;&gt;Node20 -->
<g id="edge18" class="edge">
<title>Node2&#45;&gt;Node20</title>
<path fill="none" stroke="midnightblue" d="M2259.02,-175.32C2371.85,-170.77 2682.61,-156.79 2940.42,-132 2943.43,-131.71 2946.5,-131.39 2949.61,-131.05"/>
<polygon fill="midnightblue" stroke="midnightblue" points="2258.58,-171.84 2248.73,-175.74 2258.86,-178.83 2258.58,-171.84"/>
</g>
<!-- Node21 -->
<g id="node20" class="node">
<title>Node21</title>
<g id="a_node20"><a xlink:href="_rayleigh_damping_8cpp.html" target="_top" xlink:title=" ">
<polygon fill="white" stroke="black" points="3087.42,-112.5 3087.42,-131.5 3211.42,-131.5 3211.42,-112.5 3087.42,-112.5"/>
<text text-anchor="middle" x="3149.42" y="-119.5" font-family="Helvetica,sans-Serif" font-size="10.00">RayleighDamping.cpp</text>
</a>
</g>
</g>
<!-- Node2&#45;&gt;Node21 -->
<g id="edge19" class="edge">
<title>Node2&#45;&gt;Node21</title>
<path fill="none" stroke="midnightblue" d="M2258.82,-175.84C2385.25,-172.23 2764.17,-159.72 3077.42,-132 3080.68,-131.71 3084.03,-131.39 3087.4,-131.04"/>
<polygon fill="midnightblue" stroke="midnightblue" points="2258.66,-172.35 2248.76,-176.13 2258.86,-179.34 2258.66,-172.35"/>
</g>
<!-- Node22 -->
<g id="node21" class="node">
<title>Node22</title>
<g id="a_node21"><a xlink:href="_synth_turb_forcing_8cpp.html" target="_top" xlink:title=" ">
<polygon fill="white" stroke="black" points="3229.42,-112.5 3229.42,-131.5 3349.42,-131.5 3349.42,-112.5 3229.42,-112.5"/>
<text text-anchor="middle" x="3289.42" y="-119.5" font-family="Helvetica,sans-Serif" font-size="10.00">SynthTurbForcing.cpp</text>
</a>
</g>
</g>
<!-- Node2&#45;&gt;Node22 -->
<g id="edge20" class="edge">
<title>Node2&#45;&gt;Node22</title>
<path fill="none" stroke="midnightblue" d="M2258.73,-176.37C2398.33,-174.08 2849.06,-164.47 3220.42,-132 3223.31,-131.75 3226.26,-131.46 3229.24,-131.16"/>
<polygon fill="midnightblue" stroke="midnightblue" points="2258.4,-172.88 2248.45,-176.54 2258.51,-179.88 2258.4,-172.88"/>
</g>
<!-- Node2&#45;&gt;Node23 -->
<g id="edge21" class="edge">
<title>Node2&#45;&gt;Node23</title>
<path fill="none" stroke="midnightblue" d="M2172.03,-176.54C1931.85,-173.9 770.51,-159.76 613.42,-132 585.74,-127.11 580.94,-117.73 553.42,-112 370.59,-73.94 144.02,-68.06 71.16,-67.16"/>
<polygon fill="midnightblue" stroke="midnightblue" points="2172.09,-180.04 2182.12,-176.65 2172.16,-173.04 2172.09,-180.04"/>
</g>
<!-- Node2&#45;&gt;Node57 -->
<g id="edge22" class="edge">
<title>Node2&#45;&gt;Node57</title>
<path fill="none" stroke="midnightblue" d="M2259.02,-176.92C2511.77,-176.34 3791.04,-171.46 4182.42,-132 4185.67,-131.67 4189.02,-131.25 4192.38,-130.77"/>
<polygon fill="midnightblue" stroke="midnightblue" points="2258.77,-173.42 2248.77,-176.95 2258.78,-180.42 2258.77,-173.42"/>
</g>
<!-- Node58 -->
<g id="node24" class="node">
<title>Node58</title>
<g id="a_node24"><a xlink:href="_p_d_e_ops_8_h.html" target="_top" xlink:title=" ">
<polygon fill="white" stroke="red" points="14.92,-112.5 14.92,-131.5 79.92,-131.5 79.92,-112.5 14.92,-112.5"/>
<text text-anchor="middle" x="47.42" y="-119.5" font-family="Helvetica,sans-Serif" font-size="10.00">PDEOps.H</text>
</a>
</g>
</g>
<!-- Node2&#45;&gt;Node58 -->
<g id="edge23" class="edge">
<title>Node2&#45;&gt;Node58</title>
<path fill="none" stroke="midnightblue" d="M2171.69,-177.21C1906.72,-178.28 513.49,-181.47 89.42,-132 86.46,-131.65 83.4,-131.2 80.34,-130.67"/>
<polygon fill="midnightblue" stroke="midnightblue" points="2172.07,-180.7 2182.05,-177.16 2172.04,-173.7 2172.07,-180.7"/>
</g>
<!-- Node68 -->
<g id="node25" class="node">
<title>Node68</title>
<g id="a_node25"><a xlink:href="_s_d_r_src_8cpp.html" target="_top" xlink:title=" ">
<polygon fill="white" stroke="black" points="3367.42,-112.5 3367.42,-131.5 3439.42,-131.5 3439.42,-112.5 3367.42,-112.5"/>
<text text-anchor="middle" x="3403.42" y="-119.5" font-family="Helvetica,sans-Serif" font-size="10.00">SDRSrc.cpp</text>
</a>
</g>
</g>
<!-- Node2&#45;&gt;Node68 -->
<g id="edge25" class="edge">
<title>Node2&#45;&gt;Node68</title>
<path fill="none" stroke="midnightblue" d="M2258.78,-176.21C2440.25,-172.77 3139.45,-158.04 3358.42,-132 3361.27,-131.66 3364.21,-131.24 3367.15,-130.77"/>
<polygon fill="midnightblue" stroke="midnightblue" points="2258.49,-172.72 2248.56,-176.4 2258.62,-179.71 2258.49,-172.72"/>
</g>
<!-- Node69 -->
<g id="node26" class="node">
<title>Node69</title>
<g id="a_node26"><a xlink:href="_a_b_l_meso_forcing_temp_8cpp.html" target="_top" xlink:title=" ">
<polygon fill="white" stroke="black" points="3495.92,-112.5 3495.92,-131.5 3638.92,-131.5 3638.92,-112.5 3495.92,-112.5"/>
<text text-anchor="middle" x="3567.42" y="-119.5" font-family="Helvetica,sans-Serif" font-size="10.00">ABLMesoForcingTemp.cpp</text>
</a>
</g>
</g>
<!-- Node2&#45;&gt;Node69 -->
<g id="edge26" class="edge">
<title>Node2&#45;&gt;Node69</title>
<path fill="none" stroke="midnightblue" d="M2258.74,-176.54C2420.27,-174.59 3002.68,-165.52 3481.42,-132 3486.06,-131.67 3490.84,-131.3 3495.66,-130.88"/>
<polygon fill="midnightblue" stroke="midnightblue" points="2258.68,-173.04 2248.72,-176.66 2258.76,-180.04 2258.68,-173.04"/>
</g>
<!-- Node70 -->
<g id="node27" class="node">
<title>Node70</title>
<g id="a_node27"><a xlink:href="temperature_2source__terms_2_body_force_8cpp.html" target="_top" xlink:title=" ">
<polygon fill="white" stroke="black" points="3657.42,-112.5 3657.42,-131.5 3745.42,-131.5 3745.42,-112.5 3657.42,-112.5"/>
<text text-anchor="middle" x="3701.42" y="-119.5" font-family="Helvetica,sans-Serif" font-size="10.00">BodyForce.cpp</text>
</a>
</g>
</g>
<!-- Node2&#45;&gt;Node70 -->
<g id="edge27" class="edge">
<title>Node2&#45;&gt;Node70</title>
<path fill="none" stroke="midnightblue" d="M2258.77,-176.42C2467.23,-173.51 3367.93,-159.56 3647.42,-132 3650.64,-131.68 3653.95,-131.29 3657.28,-130.85"/>
<polygon fill="midnightblue" stroke="midnightblue" points="2258.48,-172.92 2248.53,-176.56 2258.58,-179.92 2258.48,-172.92"/>
</g>
<!-- Node71 -->
<g id="node28" class="node">
<title>Node71</title>
<g id="a_node28"><a xlink:href="_ksgs_m84_src_8cpp.html" target="_top" xlink:title=" ">
<polygon fill="white" stroke="black" points="3763.42,-112.5 3763.42,-131.5 3859.42,-131.5 3859.42,-112.5 3763.42,-112.5"/>
<text text-anchor="middle" x="3811.42" y="-119.5" font-family="Helvetica,sans-Serif" font-size="10.00">KsgsM84Src.cpp</text>
</a>
</g>
</g>
<!-- Node2&#45;&gt;Node71 -->
<g id="edge28" class="edge">
<title>Node2&#45;&gt;Node71</title>
<path fill="none" stroke="midnightblue" d="M2258.47,-176.48C2475.64,-173.76 3452.3,-160.15 3754.42,-132 3757.31,-131.73 3760.28,-131.41 3763.27,-131.04"/>
<polygon fill="midnightblue" stroke="midnightblue" points="2258.38,-172.98 2248.42,-176.61 2258.46,-179.98 2258.38,-172.98"/>
</g>
<!-- Node72 -->
<g id="node29" class="node">
<title>Node72</title>
<g id="a_node29"><a xlink:href="_kw_s_s_t_src_8cpp.html" target="_top" xlink:title=" ">
<polygon fill="white" stroke="black" points="3877.92,-112.5 3877.92,-131.5 3962.92,-131.5 3962.92,-112.5 3877.92,-112.5"/>
<text text-anchor="middle" x="3920.42" y="-119.5" font-family="Helvetica,sans-Serif" font-size="10.00">KwSSTSrc.cpp</text>
</a>
</g>
</g>
<!-- Node2&#45;&gt;Node72 -->
<g id="edge29" class="edge">
<title>Node2&#45;&gt;Node72</title>
<path fill="none" stroke="midnightblue" d="M2258.71,-176.67C2485.95,-174.79 3542.75,-164.45 3868.42,-132 3871.43,-131.7 3874.53,-131.33 3877.64,-130.91"/>
<polygon fill="midnightblue" stroke="midnightblue" points="2258.5,-173.17 2248.53,-176.75 2258.55,-180.17 2258.5,-173.17"/>
</g>
<!-- Node73 -->
<g id="node30" class="node">
<title>Node73</title>
<g id="a_node30"><a xlink:href="helics_8_h.html" target="_top" xlink:title=" ">
<polygon fill="white" stroke="red" points="3981.42,-112.5 3981.42,-131.5 4037.42,-131.5 4037.42,-112.5 3981.42,-112.5"/>
<text text-anchor="middle" x="4009.42" y="-119.5" font-family="Helvetica,sans-Serif" font-size="10.00">helics.H</text>
</a>
</g>
</g>
<!-- Node2&#45;&gt;Node73 -->
<g id="edge30" class="edge">
<title>Node2&#45;&gt;Node73</title>
<path fill="none" stroke="midnightblue" d="M2258.84,-177.11C2494.16,-177.48 3617.66,-176.75 3962.42,-132 3968.47,-131.21 3974.96,-129.87 3981.23,-128.45"/>
<polygon fill="midnightblue" stroke="midnightblue" points="2258.64,-173.61 2248.63,-177.09 2258.62,-180.61 2258.64,-173.61"/>
</g>
<!-- Node75 -->
<g id="node31" class="node">
<title>Node75</title>
<g id="a_node31"><a xlink:href="_i_b_8cpp.html" target="_top" xlink:title=" ">
<polygon fill="white" stroke="black" points="4055.92,-112.5 4055.92,-131.5 4102.92,-131.5 4102.92,-112.5 4055.92,-112.5"/>
<text text-anchor="middle" x="4079.42" y="-119.5" font-family="Helvetica,sans-Serif" font-size="10.00">IB.cpp</text>
</a>
</g>
</g>
<!-- Node2&#45;&gt;Node75 -->
<g id="edge32" class="edge">
<title>Node2&#45;&gt;Node75</title>
<path fill="none" stroke="midnightblue" d="M2258.62,-176.56C2518.1,-173.86 3864.59,-158.63 4046.42,-132 4049.48,-131.55 4052.65,-130.92 4055.77,-130.18"/>
<polygon fill="midnightblue" stroke="midnightblue" points="2258.43,-173.07 2248.46,-176.67 2258.5,-180.06 2258.43,-173.07"/>
</g>
<!-- Node76 -->
<g id="node32" class="node">
<title>Node76</title>
<g id="a_node32"><a xlink:href="_i_b_ops_8_h.html" target="_top" xlink:title=" ">
<polygon fill="white" stroke="red" points="98.42,-112.5 98.42,-131.5 154.42,-131.5 154.42,-112.5 98.42,-112.5"/>
<text text-anchor="middle" x="126.42" y="-119.5" font-family="Helvetica,sans-Serif" font-size="10.00">IBOps.H</text>
</a>
</g>
</g>
<!-- Node2&#45;&gt;Node76 -->
<g id="edge33" class="edge">
<title>Node2&#45;&gt;Node76</title>
<path fill="none" stroke="midnightblue" d="M2171.95,-176.61C1893.82,-174.06 368.79,-158.91 163.42,-132 160.54,-131.62 157.55,-131.11 154.58,-130.52"/>
<polygon fill="midnightblue" stroke="midnightblue" points="2172.02,-180.11 2182.05,-176.7 2172.09,-173.11 2172.02,-180.11"/>
</g>
<!-- Node86 -->
<g id="node33" class="node">
<title>Node86</title>
<g id="a_node33"><a xlink:href="incflo_8_h.html" target="_top" xlink:title=" ">
<polygon fill="white" stroke="red" points="4120.92,-112.5 4120.92,-131.5 4173.92,-131.5 4173.92,-112.5 4120.92,-112.5"/>
<text text-anchor="middle" x="4147.42" y="-119.5" font-family="Helvetica,sans-Serif" font-size="10.00">incflo.H</text>
</a>
</g>
</g>
<!-- Node2&#45;&gt;Node86 -->
<g id="edge34" class="edge">
<title>Node2&#45;&gt;Node86</title>
<path fill="none" stroke="midnightblue" d="M2258.68,-177.27C2505.33,-178.63 3736.27,-182.71 4111.42,-132 4114.49,-131.59 4117.67,-131.01 4120.81,-130.35"/>
<polygon fill="midnightblue" stroke="midnightblue" points="2258.68,-173.77 2248.66,-177.22 2258.64,-180.77 2258.68,-173.77"/>
</g>
<!-- Node114 -->
<g id="node36" class="node">
<title>Node114</title>
<g id="a_node36"><a xlink:href="_ocean_waves_8cpp.html" target="_top" xlink:title=" ">
<polygon fill="white" stroke="black" points="172.42,-112.5 172.42,-131.5 272.42,-131.5 272.42,-112.5 172.42,-112.5"/>
<text text-anchor="middle" x="222.42" y="-119.5" font-family="Helvetica,sans-Serif" font-size="10.00">OceanWaves.cpp</text>
</a>
</g>
</g>
<!-- Node2&#45;&gt;Node114 -->
<g id="edge37" class="edge">
<title>Node2&#45;&gt;Node114</title>
<path fill="none" stroke="midnightblue" d="M2172.16,-176.75C1922.79,-175.18 666.51,-165.71 281.42,-132 278.53,-131.75 275.57,-131.44 272.58,-131.1"/>
<polygon fill="midnightblue" stroke="midnightblue" points="2172.26,-180.25 2182.28,-176.81 2172.3,-173.25 2172.26,-180.25"/>
</g>
<!-- Node115 -->
<g id="node37" class="node">
<title>Node115</title>
<g id="a_node37"><a xlink:href="_ocean_waves_ops_8_h.html" target="_top" xlink:title=" ">
<polygon fill="white" stroke="red" points="290.92,-112.5 290.92,-131.5 399.92,-131.5 399.92,-112.5 290.92,-112.5"/>
<text text-anchor="middle" x="345.42" y="-119.5" font-family="Helvetica,sans-Serif" font-size="10.00">OceanWavesOps.H</text>
</a>
</g>
</g>
<!-- Node2&#45;&gt;Node115 -->
<g id="edge38" class="edge">
<title>Node2&#45;&gt;Node115</title>
<path fill="none" stroke="midnightblue" d="M2172.02,-176.6C1932.26,-174.26 767.66,-161.55 409.42,-132 406.4,-131.75 403.31,-131.45 400.19,-131.12"/>
<polygon fill="midnightblue" stroke="midnightblue" points="2172.06,-180.1 2182.09,-176.69 2172.13,-173.1 2172.06,-180.1"/>
</g>
<!-- Node2&#45;&gt;Node123 -->
<g id="edge39" class="edge">
<title>Node2&#45;&gt;Node123</title>
<path fill="none" stroke="midnightblue" d="M2258.71,-176.77C2518.02,-175.26 3868.35,-165.88 4281.42,-132 4284.5,-131.75 4287.67,-131.44 4290.85,-131.1"/>
<polygon fill="midnightblue" stroke="midnightblue" points="2258.54,-173.27 2248.56,-176.82 2258.58,-180.27 2258.54,-173.27"/>
</g>
<!-- Node124 -->
<g id="node39" class="node">
<title>Node124</title>
<g id="a_node39"><a xlink:href="_boussinesq_bubble_8cpp.html" target="_top" xlink:title=" ">
<polygon fill="white" stroke="black" points="418.42,-112.5 418.42,-131.5 544.42,-131.5 544.42,-112.5 418.42,-112.5"/>
<text text-anchor="middle" x="481.42" y="-119.5" font-family="Helvetica,sans-Serif" font-size="10.00">BoussinesqBubble.cpp</text>
</a>
</g>
</g>
<!-- Node2&#45;&gt;Node124 -->
<g id="edge40" class="edge">
<title>Node2&#45;&gt;Node124</title>
<path fill="none" stroke="midnightblue" d="M2172.23,-177.24C1981.88,-178.01 1198.97,-178.04 558.42,-132 553.99,-131.68 549.42,-131.3 544.83,-130.87"/>
<polygon fill="midnightblue" stroke="midnightblue" points="2172.4,-180.74 2182.38,-177.2 2172.37,-173.74 2172.4,-180.74"/>
</g>
<!-- Node125 -->
<g id="node40" class="node">
<title>Node125</title>
<g id="a_node40"><a xlink:href="_burggraf_flow_8cpp.html" target="_top" xlink:title=" ">
<polygon fill="white" stroke="black" points="562.92,-56.5 562.92,-75.5 663.92,-75.5 663.92,-56.5 562.92,-56.5"/>
<text text-anchor="middle" x="613.42" y="-63.5" font-family="Helvetica,sans-Serif" font-size="10.00">BurggrafFlow.cpp</text>
</a>
</g>
</g>
<!-- Node2&#45;&gt;Node125 -->
<g id="edge41" class="edge">
<title>Node2&#45;&gt;Node125</title>
<path fill="none" stroke="midnightblue" d="M2172.2,-177.24C1924.22,-178.42 691.11,-181.77 629.42,-132 612.6,-118.43 611.77,-90.26 612.58,-75.88"/>
<polygon fill="midnightblue" stroke="midnightblue" points="2172.29,-180.74 2182.27,-177.19 2172.25,-173.74 2172.29,-180.74"/>
</g>
<!-- Node126 -->
<g id="node41" class="node">
<title>Node126</title>
<g id="a_node41"><a xlink:href="_burggraf_flow_8_h.html" target="_top" xlink:title=" ">
<polygon fill="white" stroke="black" points="638.42,-112.5 638.42,-131.5 730.42,-131.5 730.42,-112.5 638.42,-112.5"/>
<text text-anchor="middle" x="684.42" y="-119.5" font-family="Helvetica,sans-Serif" font-size="10.00">BurggrafFlow.H</text>
</a>
</g>
</g>
<!-- Node2&#45;&gt;Node126 -->
<g id="edge42" class="edge">
<title>Node2&#45;&gt;Node126</title>
<path fill="none" stroke="midnightblue" d="M2172.26,-176.37C1960.75,-173.18 1032.36,-157.91 744.42,-132 739.91,-131.59 735.22,-131.07 730.54,-130.48"/>
<polygon fill="midnightblue" stroke="midnightblue" points="2172.3,-179.87 2182.35,-176.52 2172.4,-172.87 2172.3,-179.87"/>
</g>
<!-- Node127 -->
<g id="node42" class="node">
<title>Node127</title>
<g id="a_node42"><a xlink:href="_convecting_taylor_vortex_8cpp.html" target="_top" xlink:title=" ">
<polygon fill="white" stroke="black" points="1149.42,-56.5 1149.42,-75.5 1301.42,-75.5 1301.42,-56.5 1149.42,-56.5"/>
<text text-anchor="middle" x="1225.42" y="-63.5" font-family="Helvetica,sans-Serif" font-size="10.00">ConvectingTaylorVortex.cpp</text>
</a>
</g>
</g>
<!-- Node2&#45;&gt;Node127 -->
<g id="edge47" class="edge">
<title>Node2&#45;&gt;Node127</title>
<path fill="none" stroke="midnightblue" d="M2172.06,-177.28C1941.07,-178.57 863.74,-181.89 815.42,-132 767.67,-82.69 1018.02,-70.77 1149.26,-67.9"/>
<polygon fill="midnightblue" stroke="midnightblue" points="2172.13,-180.78 2182.11,-177.22 2172.09,-173.78 2172.13,-180.78"/>
</g>
<!-- Node128 -->
<g id="node43" class="node">
<title>Node128</title>
<g id="a_node43"><a xlink:href="_convecting_taylor_vortex_8_h.html" target="_top" xlink:title=" ">
<polygon fill="white" stroke="red" points="1398.92,-112.5 1398.92,-131.5 1541.92,-131.5 1541.92,-112.5 1398.92,-112.5"/>
<text text-anchor="middle" x="1470.42" y="-119.5" font-family="Helvetica,sans-Serif" font-size="10.00">ConvectingTaylorVortex.H</text>
</a>
</g>
</g>
<!-- Node2&#45;&gt;Node128 -->
<g id="edge48" class="edge">
<title>Node2&#45;&gt;Node128</title>
<path fill="none" stroke="midnightblue" d="M2172.16,-174.74C2066.09,-169.05 1784.64,-153.09 1550.42,-132 1547.64,-131.75 1544.8,-131.48 1541.93,-131.2"/>
<polygon fill="midnightblue" stroke="midnightblue" points="2171.99,-178.24 2182.17,-175.27 2172.37,-171.25 2171.99,-178.24"/>
</g>
<!-- Node129 -->
<g id="node44" class="node">
<title>Node129</title>
<g id="a_node44"><a xlink:href="_ekman_spiral_8cpp.html" target="_top" xlink:title=" ">
<polygon fill="white" stroke="black" points="1591.42,-56.5 1591.42,-75.5 1689.42,-75.5 1689.42,-56.5 1591.42,-56.5"/>
<text text-anchor="middle" x="1640.42" y="-63.5" font-family="Helvetica,sans-Serif" font-size="10.00">EkmanSpiral.cpp</text>
</a>
</g>
</g>
<!-- Node2&#45;&gt;Node129 -->
<g id="edge50" class="edge">
<title>Node2&#45;&gt;Node129</title>
<path fill="none" stroke="midnightblue" d="M2172.26,-177.38C2063.15,-177.7 1779.09,-174.31 1696.42,-132 1671.49,-119.24 1652.98,-90.17 1644.9,-75.62"/>
<polygon fill="midnightblue" stroke="midnightblue" points="2172.27,-180.88 2182.26,-177.34 2172.24,-173.88 2172.27,-180.88"/>
</g>
<!-- Node130 -->
<g id="node45" class="node">
<title>Node130</title>
<g id="a_node45"><a xlink:href="_ekman_spiral_8_h.html" target="_top" xlink:title=" ">
<polygon fill="white" stroke="black" points="1559.92,-112.5 1559.92,-131.5 1648.92,-131.5 1648.92,-112.5 1559.92,-112.5"/>
<text text-anchor="middle" x="1604.42" y="-119.5" font-family="Helvetica,sans-Serif" font-size="10.00">EkmanSpiral.H</text>
</a>
</g>
</g>
<!-- Node2&#45;&gt;Node130 -->
<g id="edge51" class="edge">
<title>Node2&#45;&gt;Node130</title>
<path fill="none" stroke="midnightblue" d="M2172.2,-174.51C2079.02,-168.92 1852.39,-154.09 1663.42,-132 1658.79,-131.46 1653.96,-130.83 1649.15,-130.16"/>
<polygon fill="midnightblue" stroke="midnightblue" points="2172.17,-178.01 2182.37,-175.12 2172.59,-171.03 2172.17,-178.01"/>
</g>
<!-- Node131 -->
<g id="node46" class="node">
<title>Node131</title>
<g id="a_node46"><a xlink:href="_free_stream_8cpp.html" target="_top" xlink:title=" ">
<polygon fill="white" stroke="black" points="824.92,-112.5 824.92,-131.5 917.92,-131.5 917.92,-112.5 824.92,-112.5"/>
<text text-anchor="middle" x="871.42" y="-119.5" font-family="Helvetica,sans-Serif" font-size="10.00">FreeStream.cpp</text>
</a>
</g>
</g>
<!-- Node2&#45;&gt;Node131 -->
<g id="edge53" class="edge">
<title>Node2&#45;&gt;Node131</title>
<path fill="none" stroke="midnightblue" d="M2171.82,-177.44C2008.02,-178.67 1413.9,-179.4 927.42,-132 924.38,-131.7 921.26,-131.35 918.12,-130.95"/>
<polygon fill="midnightblue" stroke="midnightblue" points="2172.01,-180.94 2181.99,-177.36 2171.96,-173.94 2172.01,-180.94"/>
</g>
<!-- Node3&#45;&gt;Node5 -->
<g id="edge3" class="edge">
<title>Node3&#45;&gt;Node5</title>
<path fill="none" stroke="midnightblue" d="M1805.24,-112.05C2115.32,-78.55 2476.09,-69.79 2600.6,-67.64"/>
<polygon fill="midnightblue" stroke="midnightblue" points="1804.72,-108.58 1795.16,-113.15 1805.48,-115.54 1804.72,-108.58"/>
</g>
<!-- Node5&#45;&gt;Node6 -->
<g id="edge4" class="edge">
<title>Node5&#45;&gt;Node6</title>
<path fill="none" stroke="midnightblue" d="M2700.11,-57.81C2780.43,-47.26 2929.16,-27.72 3006.61,-17.54"/>
<polygon fill="midnightblue" stroke="midnightblue" points="2699.65,-54.35 2690.19,-59.12 2700.56,-61.29 2699.65,-54.35"/>
</g>
<!-- Node58&#45;&gt;Node23 -->
<g id="edge24" class="edge">
<title>Node58&#45;&gt;Node23</title>
<path fill="none" stroke="midnightblue" d="M47.42,-101.8C47.42,-92.91 47.42,-82.78 47.42,-75.75"/>
<polygon fill="midnightblue" stroke="midnightblue" points="43.92,-102.08 47.42,-112.08 50.92,-102.08 43.92,-102.08"/>
</g>
<!-- Node73&#45;&gt;Node2 -->
<g id="edge31" class="edge">
<title>Node73&#45;&gt;Node2</title>
<path fill="none" stroke="midnightblue" d="M3973.57,-132.81C3606.34,-177.76 2459.25,-177.49 2248.74,-177.08"/>
<polygon fill="midnightblue" stroke="midnightblue" points="3974.2,-136.25 3983.68,-131.53 3973.32,-129.31 3974.2,-136.25"/>
</g>
<!-- Node86&#45;&gt;Node88 -->
<g id="edge35" class="edge">
<title>Node86&#45;&gt;Node88</title>
<path fill="none" stroke="midnightblue" d="M4163.4,-104.72C4172.74,-95.2 4184.17,-83.56 4191.83,-75.75"/>
<polygon fill="midnightblue" stroke="midnightblue" points="4160.68,-102.49 4156.17,-112.08 4165.68,-107.4 4160.68,-102.49"/>
</g>
<!-- Node86&#45;&gt;Node89 -->
<g id="edge36" class="edge">
<title>Node86&#45;&gt;Node89</title>
<path fill="none" stroke="midnightblue" d="M4184.21,-111.91C4252.57,-96.76 4320.53,-83.72 4364.55,-75.54"/>
<polygon fill="midnightblue" stroke="midnightblue" points="4183.12,-108.57 4174.12,-114.17 4184.64,-115.4 4183.12,-108.57"/>
</g>
<!-- Node126&#45;&gt;Node15 -->
<g id="edge43" class="edge">
<title>Node126&#45;&gt;Node15</title>
<path fill="none" stroke="midnightblue" d="M703.46,-106.1C715.88,-96.38 731.66,-84.03 742.13,-75.83"/>
<polygon fill="midnightblue" stroke="midnightblue" points="701.22,-103.4 695.51,-112.32 705.54,-108.92 701.22,-103.4"/>
</g>
<!-- Node126&#45;&gt;Node125 -->
<g id="edge44" class="edge">
<title>Node126&#45;&gt;Node125</title>
<path fill="none" stroke="midnightblue" d="M664.83,-106.1C652.05,-96.38 635.81,-84.03 625.04,-75.83"/>
<polygon fill="midnightblue" stroke="midnightblue" points="662.94,-109.06 673.01,-112.32 667.17,-103.48 662.94,-109.06"/>
</g>
<!-- Node128&#45;&gt;Node127 -->
<g id="edge49" class="edge">
<title>Node128&#45;&gt;Node127</title>
<path fill="none" stroke="midnightblue" d="M1421.79,-110.28C1375.49,-100.08 1306.73,-84.92 1264.06,-75.52"/>
<polygon fill="midnightblue" stroke="midnightblue" points="1421.08,-113.71 1431.6,-112.44 1422.59,-106.87 1421.08,-113.71"/>
</g>
<!-- Node130&#45;&gt;Node129 -->
<g id="edge52" class="edge">
<title>Node130&#45;&gt;Node129</title>
<path fill="none" stroke="midnightblue" d="M1616.04,-103.57C1622.24,-94.27 1629.59,-83.25 1634.59,-75.75"/>
<polygon fill="midnightblue" stroke="midnightblue" points="1613,-101.82 1610.37,-112.08 1618.82,-105.7 1613,-101.82"/>
</g>
<!-- Node43&#45;&gt;Node42 -->
<g id="edge62" class="edge">
<title>Node43&#45;&gt;Node42</title>
<path fill="none" stroke="midnightblue" d="M4666.66,-162.1C4654.42,-152.38 4638.86,-140.03 4628.54,-131.83"/>
<polygon fill="midnightblue" stroke="midnightblue" points="4664.49,-164.85 4674.5,-168.32 4668.84,-159.36 4664.49,-164.85"/>
</g>
<!-- Node43&#45;&gt;Node44 -->
<g id="edge63" class="edge">
<title>Node43&#45;&gt;Node44</title>
<path fill="none" stroke="midnightblue" d="M4704.46,-162.1C4716.88,-152.38 4732.66,-140.03 4743.13,-131.83"/>
<polygon fill="midnightblue" stroke="midnightblue" points="4702.22,-159.4 4696.51,-168.32 4706.54,-164.92 4702.22,-159.4"/>
</g>
</g>
</svg>
