<?xml version="1.0" encoding="UTF-8" standalone="no"?>
<!DOCTYPE svg PUBLIC "-//W3C//DTD SVG 1.1//EN"
 "http://www.w3.org/Graphics/SVG/1.1/DTD/svg11.dtd">
<!-- Generated by graphviz version 2.43.0 (0)
 -->
<!-- Title: ScratchField.H Pages: 1 -->
<svg width="3920pt" height="196pt"
 viewBox="0.00 0.00 3920.00 196.00" xmlns="http://www.w3.org/2000/svg" xmlns:xlink="http://www.w3.org/1999/xlink">
<g id="graph0" class="graph" transform="scale(1 1) rotate(0) translate(4 192)">
<title>ScratchField.H</title>
<polygon fill="white" stroke="transparent" points="-4,4 -4,-192 3916,-192 3916,4 -4,4"/>
<!-- Node1 -->
<g id="node1" class="node">
<title>Node1</title>
<g id="a_node1"><a xlink:title=" ">
<polygon fill="#bfbfbf" stroke="black" points="113,-168.5 113,-187.5 199,-187.5 199,-168.5 113,-168.5"/>
<text text-anchor="middle" x="156" y="-175.5" font-family="Helvetica,sans-Serif" font-size="10.00">ScratchField.H</text>
</a>
</g>
</g>
<!-- Node2 -->
<g id="node2" class="node">
<title>Node2</title>
<g id="a_node2"><a xlink:href="_field_repo_8_h.html" target="_top" xlink:title=" ">
<polygon fill="white" stroke="red" points="1788.5,-112.5 1788.5,-131.5 1863.5,-131.5 1863.5,-112.5 1788.5,-112.5"/>
<text text-anchor="middle" x="1826" y="-119.5" font-family="Helvetica,sans-Serif" font-size="10.00">FieldRepo.H</text>
</a>
</g>
</g>
<!-- Node1&#45;&gt;Node2 -->
<g id="edge1" class="edge">
<title>Node1&#45;&gt;Node2</title>
<path fill="none" stroke="midnightblue" d="M209.58,-175.27C466.56,-166.96 1569.42,-131.3 1788.19,-124.22"/>
<polygon fill="midnightblue" stroke="midnightblue" points="209.27,-171.78 199.38,-175.6 209.49,-178.77 209.27,-171.78"/>
</g>
<!-- Node250 -->
<g id="node19" class="node">
<title>Node250</title>
<g id="a_node19"><a xlink:href="_scratch_field_8cpp.html" target="_top" xlink:title=" ">
<polygon fill="white" stroke="black" points="0,-56.5 0,-75.5 96,-75.5 96,-56.5 0,-56.5"/>
<text text-anchor="middle" x="48" y="-63.5" font-family="Helvetica,sans-Serif" font-size="10.00">ScratchField.cpp</text>
</a>
</g>
</g>
<!-- Node1&#45;&gt;Node250 -->
<g id="edge70" class="edge">
<title>Node1&#45;&gt;Node250</title>
<path fill="none" stroke="midnightblue" d="M140.49,-161.21C117.34,-137.63 74.54,-94.03 56.44,-75.59"/>
<polygon fill="midnightblue" stroke="midnightblue" points="138.02,-163.68 147.53,-168.37 143.02,-158.78 138.02,-163.68"/>
</g>
<!-- Node251 -->
<g id="node20" class="node">
<title>Node251</title>
<g id="a_node20"><a xlink:href="_view_field_8cpp.html" target="_top" xlink:title=" ">
<polygon fill="white" stroke="black" points="114,-56.5 114,-75.5 198,-75.5 198,-56.5 114,-56.5"/>
<text text-anchor="middle" x="156" y="-63.5" font-family="Helvetica,sans-Serif" font-size="10.00">ViewField.cpp</text>
</a>
</g>
</g>
<!-- Node1&#45;&gt;Node251 -->
<g id="edge71" class="edge">
<title>Node1&#45;&gt;Node251</title>
<path fill="none" stroke="midnightblue" d="M156,-158.35C156,-134.25 156,-93.31 156,-75.59"/>
<polygon fill="midnightblue" stroke="midnightblue" points="152.5,-158.37 156,-168.37 159.5,-158.37 152.5,-158.37"/>
</g>
<!-- Node3 -->
<g id="node3" class="node">
<title>Node3</title>
<g id="a_node3"><a xlink:href="_b_c_interface_8cpp.html" target="_top" xlink:title=" ">
<polygon fill="white" stroke="black" points="3770,-0.5 3770,-19.5 3864,-19.5 3864,-0.5 3770,-0.5"/>
<text text-anchor="middle" x="3817" y="-7.5" font-family="Helvetica,sans-Serif" font-size="10.00">BCInterface.cpp</text>
</a>
</g>
</g>
<!-- Node2&#45;&gt;Node3 -->
<g id="edge2" class="edge">
<title>Node2&#45;&gt;Node3</title>
<path fill="none" stroke="midnightblue" d="M1873.65,-120.94C2162.42,-120.44 3668.61,-115.93 3757,-76 3783.31,-64.11 3803.34,-34.63 3812.12,-19.81"/>
<polygon fill="midnightblue" stroke="midnightblue" points="1873.5,-117.44 1863.51,-120.96 1873.52,-124.44 1873.5,-117.44"/>
</g>
<!-- Node4 -->
<g id="node4" class="node">
<title>Node4</title>
<g id="a_node4"><a xlink:href="_fixed_gradient_b_c_8_h.html" target="_top" xlink:title=" ">
<polygon fill="white" stroke="red" points="3804,-56.5 3804,-75.5 3912,-75.5 3912,-56.5 3804,-56.5"/>
<text text-anchor="middle" x="3858" y="-63.5" font-family="Helvetica,sans-Serif" font-size="10.00">FixedGradientBC.H</text>
</a>
</g>
</g>
<!-- Node2&#45;&gt;Node4 -->
<g id="edge3" class="edge">
<title>Node2&#45;&gt;Node4</title>
<path fill="none" stroke="midnightblue" d="M1874.11,-120.61C2136.84,-118.36 3400.73,-106.13 3790,-76 3794.51,-75.65 3799.18,-75.21 3803.87,-74.7"/>
<polygon fill="midnightblue" stroke="midnightblue" points="1873.73,-117.11 1863.76,-120.7 1873.79,-124.11 1873.73,-117.11"/>
</g>
<!-- Node6 -->
<g id="node5" class="node">
<title>Node6</title>
<g id="a_node5"><a xlink:href="velocity__bcs_8_h.html" target="_top" xlink:title=" ">
<polygon fill="white" stroke="red" points="216,-56.5 216,-75.5 304,-75.5 304,-56.5 216,-56.5"/>
<text text-anchor="middle" x="260" y="-63.5" font-family="Helvetica,sans-Serif" font-size="10.00">velocity_bcs.H</text>
</a>
</g>
</g>
<!-- Node2&#45;&gt;Node6 -->
<g id="edge5" class="edge">
<title>Node2&#45;&gt;Node6</title>
<path fill="none" stroke="midnightblue" d="M1778.08,-120.37C1554.4,-117.32 611.49,-103.04 318,-76 313.54,-75.59 308.89,-75.05 304.26,-74.45"/>
<polygon fill="midnightblue" stroke="midnightblue" points="1778.14,-123.87 1788.18,-120.51 1778.23,-116.87 1778.14,-123.87"/>
</g>
<!-- Node9 -->
<g id="node6" class="node">
<title>Node9</title>
<g id="a_node6"><a xlink:href="_c_f_d_sim_8_h.html" target="_top" xlink:title=" ">
<polygon fill="white" stroke="red" points="594,-56.5 594,-75.5 660,-75.5 660,-56.5 594,-56.5"/>
<text text-anchor="middle" x="627" y="-63.5" font-family="Helvetica,sans-Serif" font-size="10.00">CFDSim.H</text>
</a>
</g>
</g>
<!-- Node2&#45;&gt;Node9 -->
<g id="edge6" class="edge">
<title>Node2&#45;&gt;Node9</title>
<path fill="none" stroke="midnightblue" d="M1778.22,-120.09C1589.19,-116.35 893.19,-101.12 674,-76 669.46,-75.48 664.7,-74.77 660.03,-73.97"/>
<polygon fill="midnightblue" stroke="midnightblue" points="1778.33,-123.59 1788.39,-120.29 1778.46,-116.6 1778.33,-123.59"/>
</g>
<!-- Node62 -->
<g id="node7" class="node">
<title>Node62</title>
<g id="a_node7"><a xlink:href="_p_d_e_base_8cpp.html" target="_top" xlink:title=" ">
<polygon fill="white" stroke="black" points="339,-0.5 339,-19.5 419,-19.5 419,-0.5 339,-0.5"/>
<text text-anchor="middle" x="379" y="-7.5" font-family="Helvetica,sans-Serif" font-size="10.00">PDEBase.cpp</text>
</a>
</g>
</g>
<!-- Node2&#45;&gt;Node62 -->
<g id="edge40" class="edge">
<title>Node2&#45;&gt;Node62</title>
<path fill="none" stroke="midnightblue" d="M1778.16,-120.45C1527.55,-117.44 376.43,-102.22 351,-76 335.26,-59.77 356.61,-33.29 369.87,-19.68"/>
<polygon fill="midnightblue" stroke="midnightblue" points="1778.36,-123.95 1788.4,-120.57 1778.44,-116.95 1778.36,-123.95"/>
</g>
<!-- Node80 -->
<g id="node8" class="node">
<title>Node80</title>
<g id="a_node8"><a xlink:href="_i_b_8cpp.html" target="_top" xlink:title=" ">
<polygon fill="white" stroke="black" points="437.5,-0.5 437.5,-19.5 484.5,-19.5 484.5,-0.5 437.5,-0.5"/>
<text text-anchor="middle" x="461" y="-7.5" font-family="Helvetica,sans-Serif" font-size="10.00">IB.cpp</text>
</a>
</g>
</g>
<!-- Node2&#45;&gt;Node80 -->
<g id="edge52" class="edge">
<title>Node2&#45;&gt;Node80</title>
<path fill="none" stroke="midnightblue" d="M1778.01,-120.79C1545.55,-119.57 545.62,-112.26 491,-76 471.53,-63.08 464.48,-34.08 462.11,-19.59"/>
<polygon fill="midnightblue" stroke="midnightblue" points="1778.16,-124.29 1788.17,-120.84 1778.19,-117.29 1778.16,-124.29"/>
</g>
<!-- Node91 -->
<g id="node9" class="node">
<title>Node91</title>
<g id="a_node9"><a xlink:href="incflo_8_h.html" target="_top" xlink:title=" ">
<polygon fill="white" stroke="red" points="502.5,-0.5 502.5,-19.5 555.5,-19.5 555.5,-0.5 502.5,-0.5"/>
<text text-anchor="middle" x="529" y="-7.5" font-family="Helvetica,sans-Serif" font-size="10.00">incflo.H</text>
</a>
</g>
</g>
<!-- Node2&#45;&gt;Node91 -->
<g id="edge55" class="edge">
<title>Node2&#45;&gt;Node91</title>
<path fill="none" stroke="midnightblue" d="M1778.04,-120.33C1556.4,-117.11 639.64,-102.26 585,-76 559.76,-63.87 541.39,-34.5 533.41,-19.75"/>
<polygon fill="midnightblue" stroke="midnightblue" points="1778.32,-123.84 1788.37,-120.48 1778.42,-116.84 1778.32,-123.84"/>
</g>
<!-- Node119 -->
<g id="node10" class="node">
<title>Node119</title>
<g id="a_node10"><a xlink:href="_ocean_waves_8cpp.html" target="_top" xlink:title=" ">
<polygon fill="white" stroke="black" points="807,-0.5 807,-19.5 907,-19.5 907,-0.5 807,-0.5"/>
<text text-anchor="middle" x="857" y="-7.5" font-family="Helvetica,sans-Serif" font-size="10.00">OceanWaves.cpp</text>
</a>
</g>
</g>
<!-- Node2&#45;&gt;Node119 -->
<g id="edge56" class="edge">
<title>Node2&#45;&gt;Node119</title>
<path fill="none" stroke="midnightblue" d="M1778.27,-120.76C1578.46,-119.51 817.83,-112.37 783,-76 762.06,-54.14 805.45,-31.44 834.23,-19.5"/>
<polygon fill="midnightblue" stroke="midnightblue" points="1778.43,-124.26 1788.45,-120.82 1778.47,-117.26 1778.43,-124.26"/>
</g>
<!-- Node128 -->
<g id="node11" class="node">
<title>Node128</title>
<g id="a_node11"><a xlink:href="_tioga_interface_8cpp.html" target="_top" xlink:title=" ">
<polygon fill="white" stroke="black" points="573.5,-0.5 573.5,-19.5 680.5,-19.5 680.5,-0.5 573.5,-0.5"/>
<text text-anchor="middle" x="627" y="-7.5" font-family="Helvetica,sans-Serif" font-size="10.00">TiogaInterface.cpp</text>
</a>
</g>
</g>
<!-- Node2&#45;&gt;Node128 -->
<g id="edge61" class="edge">
<title>Node2&#45;&gt;Node128</title>
<path fill="none" stroke="midnightblue" d="M1778.08,-120.2C1582.93,-116.76 853.72,-102.26 754,-76 708.73,-64.08 661.08,-34.33 639.24,-19.58"/>
<polygon fill="midnightblue" stroke="midnightblue" points="1778.24,-123.7 1788.3,-120.37 1778.36,-116.7 1778.24,-123.7"/>
</g>
<!-- Node155 -->
<g id="node12" class="node">
<title>Node155</title>
<g id="a_node12"><a xlink:href="_vortex_ring_8cpp.html" target="_top" xlink:title=" ">
<polygon fill="white" stroke="black" points="699,-0.5 699,-19.5 789,-19.5 789,-0.5 699,-0.5"/>
<text text-anchor="middle" x="744" y="-7.5" font-family="Helvetica,sans-Serif" font-size="10.00">VortexRing.cpp</text>
</a>
</g>
</g>
<!-- Node2&#45;&gt;Node155 -->
<g id="edge68" class="edge">
<title>Node2&#45;&gt;Node155</title>
<path fill="none" stroke="midnightblue" d="M1778.23,-120.34C1578.18,-117.38 816.19,-104.28 774,-76 754.59,-62.99 747.51,-34.03 745.12,-19.57"/>
<polygon fill="midnightblue" stroke="midnightblue" points="1778.37,-123.84 1788.42,-120.48 1778.47,-116.84 1778.37,-123.84"/>
</g>
<!-- Node239 -->
<g id="node13" class="node">
<title>Node239</title>
<g id="a_node13"><a xlink:href="_godunov_8_h.html" target="_top" xlink:title=" ">
<polygon fill="white" stroke="red" points="938,-56.5 938,-75.5 1008,-75.5 1008,-56.5 938,-56.5"/>
<text text-anchor="middle" x="973" y="-63.5" font-family="Helvetica,sans-Serif" font-size="10.00">Godunov.H</text>
</a>
</g>
</g>
<!-- Node2&#45;&gt;Node239 -->
<g id="edge13" class="edge">
<title>Node2&#45;&gt;Node239</title>
<path fill="none" stroke="midnightblue" d="M1778.29,-120.78C1652.97,-119.66 1304.33,-113.17 1017,-76 1014.22,-75.64 1011.35,-75.2 1008.47,-74.72"/>
<polygon fill="midnightblue" stroke="midnightblue" points="1778.29,-124.28 1788.32,-120.86 1778.35,-117.28 1778.29,-124.28"/>
</g>
<!-- Node244 -->
<g id="node14" class="node">
<title>Node244</title>
<g id="a_node14"><a xlink:href="_m_o_l_8_h.html" target="_top" xlink:title=" ">
<polygon fill="white" stroke="red" points="1026.5,-56.5 1026.5,-75.5 1075.5,-75.5 1075.5,-56.5 1026.5,-56.5"/>
<text text-anchor="middle" x="1051" y="-63.5" font-family="Helvetica,sans-Serif" font-size="10.00">MOL.H</text>
</a>
</g>
</g>
<!-- Node2&#45;&gt;Node244 -->
<g id="edge14" class="edge">
<title>Node2&#45;&gt;Node244</title>
<path fill="none" stroke="midnightblue" d="M1778.14,-121.36C1659.77,-121.55 1344.07,-117.73 1085,-76 1081.99,-75.51 1078.85,-74.88 1075.76,-74.16"/>
<polygon fill="midnightblue" stroke="midnightblue" points="1778.32,-124.86 1788.32,-121.33 1778.31,-117.86 1778.32,-124.86"/>
</g>
<!-- Node246 -->
<g id="node15" class="node">
<title>Node246</title>
<g id="a_node15"><a xlink:href="_field_8cpp.html" target="_top" xlink:title=" ">
<polygon fill="white" stroke="black" points="1094,-56.5 1094,-75.5 1154,-75.5 1154,-56.5 1094,-56.5"/>
<text text-anchor="middle" x="1124" y="-63.5" font-family="Helvetica,sans-Serif" font-size="10.00">Field.cpp</text>
</a>
</g>
</g>
<!-- Node2&#45;&gt;Node246 -->
<g id="edge15" class="edge">
<title>Node2&#45;&gt;Node246</title>
<path fill="none" stroke="midnightblue" d="M1778.34,-120.36C1668.99,-118.32 1391.85,-109.95 1163,-76 1160.11,-75.57 1157.12,-75.04 1154.14,-74.45"/>
<polygon fill="midnightblue" stroke="midnightblue" points="1778.33,-123.86 1788.39,-120.54 1778.46,-116.86 1778.33,-123.86"/>
</g>
<!-- Node247 -->
<g id="node16" class="node">
<title>Node247</title>
<g id="a_node16"><a xlink:href="_field_repo_8cpp.html" target="_top" xlink:title=" ">
<polygon fill="white" stroke="black" points="1172.5,-56.5 1172.5,-75.5 1257.5,-75.5 1257.5,-56.5 1172.5,-56.5"/>
<text text-anchor="middle" x="1215" y="-63.5" font-family="Helvetica,sans-Serif" font-size="10.00">FieldRepo.cpp</text>
</a>
</g>
</g>
<!-- Node2&#45;&gt;Node247 -->
<g id="edge16" class="edge">
<title>Node2&#45;&gt;Node247</title>
<path fill="none" stroke="midnightblue" d="M1778.11,-118.68C1681.15,-113.65 1454.79,-100.19 1266,-76 1263.24,-75.65 1260.39,-75.25 1257.53,-74.82"/>
<polygon fill="midnightblue" stroke="midnightblue" points="1778.02,-122.18 1788.18,-119.2 1778.38,-115.19 1778.02,-122.18"/>
</g>
<!-- Node248 -->
<g id="node17" class="node">
<title>Node248</title>
<g id="a_node17"><a xlink:href="_int_field_8cpp.html" target="_top" xlink:title=" ">
<polygon fill="white" stroke="black" points="1275.5,-56.5 1275.5,-75.5 1348.5,-75.5 1348.5,-56.5 1275.5,-56.5"/>
<text text-anchor="middle" x="1312" y="-63.5" font-family="Helvetica,sans-Serif" font-size="10.00">IntField.cpp</text>
</a>
</g>
</g>
<!-- Node2&#45;&gt;Node248 -->
<g id="edge17" class="edge">
<title>Node2&#45;&gt;Node248</title>
<path fill="none" stroke="midnightblue" d="M1778.34,-118.04C1693.37,-112.39 1510.23,-98.61 1357,-76 1354.32,-75.6 1351.56,-75.16 1348.78,-74.67"/>
<polygon fill="midnightblue" stroke="midnightblue" points="1778.25,-121.54 1788.45,-118.7 1778.71,-114.55 1778.25,-121.54"/>
</g>
<!-- Node249 -->
<g id="node18" class="node">
<title>Node249</title>
<g id="a_node18"><a xlink:href="_int_scratch_field_8cpp.html" target="_top" xlink:title=" ">
<polygon fill="white" stroke="black" points="1366.5,-56.5 1366.5,-75.5 1475.5,-75.5 1475.5,-56.5 1366.5,-56.5"/>
<text text-anchor="middle" x="1421" y="-63.5" font-family="Helvetica,sans-Serif" font-size="10.00">IntScratchField.cpp</text>
</a>
</g>
</g>
<!-- Node2&#45;&gt;Node249 -->
<g id="edge18" class="edge">
<title>Node2&#45;&gt;Node249</title>
<path fill="none" stroke="midnightblue" d="M1778.31,-114.84C1712.36,-106.28 1589.6,-90.26 1485,-76 1482,-75.59 1478.92,-75.17 1475.81,-74.74"/>
<polygon fill="midnightblue" stroke="midnightblue" points="1778.03,-118.33 1788.39,-116.14 1778.93,-111.39 1778.03,-118.33"/>
</g>
<!-- Node2&#45;&gt;Node250 -->
<g id="edge19" class="edge">
<title>Node2&#45;&gt;Node250</title>
<path fill="none" stroke="midnightblue" d="M1778.15,-120.59C1535.9,-118.41 443.01,-106.97 105,-76 102.11,-75.73 99.14,-75.41 96.15,-75.05"/>
<polygon fill="midnightblue" stroke="midnightblue" points="1778.35,-124.1 1788.39,-120.69 1778.42,-117.1 1778.35,-124.1"/>
</g>
<!-- Node2&#45;&gt;Node251 -->
<g id="edge20" class="edge">
<title>Node2&#45;&gt;Node251</title>
<path fill="none" stroke="midnightblue" d="M1778,-120.62C1544.22,-118.61 523.32,-108.13 207,-76 204.14,-75.71 201.19,-75.35 198.23,-74.95"/>
<polygon fill="midnightblue" stroke="midnightblue" points="1778.18,-124.12 1788.21,-120.7 1778.24,-117.12 1778.18,-124.12"/>
</g>
<!-- Node252 -->
<g id="node21" class="node">
<title>Node252</title>
<g id="a_node21"><a xlink:href="field__algebra_8cpp.html" target="_top" xlink:title=" ">
<polygon fill="white" stroke="black" points="1494,-56.5 1494,-75.5 1594,-75.5 1594,-56.5 1494,-56.5"/>
<text text-anchor="middle" x="1544" y="-63.5" font-family="Helvetica,sans-Serif" font-size="10.00">field_algebra.cpp</text>
</a>
</g>
</g>
<!-- Node2&#45;&gt;Node252 -->
<g id="edge21" class="edge">
<title>Node2&#45;&gt;Node252</title>
<path fill="none" stroke="midnightblue" d="M1778.42,-111.89C1725.37,-101.73 1640.24,-85.43 1588.48,-75.52"/>
<polygon fill="midnightblue" stroke="midnightblue" points="1777.78,-115.33 1788.26,-113.77 1779.1,-108.46 1777.78,-115.33"/>
</g>
<!-- Node253 -->
<g id="node22" class="node">
<title>Node253</title>
<g id="a_node22"><a xlink:href="diffusion_8_h.html" target="_top" xlink:title=" ">
<polygon fill="white" stroke="red" points="1612.5,-56.5 1612.5,-75.5 1681.5,-75.5 1681.5,-56.5 1612.5,-56.5"/>
<text text-anchor="middle" x="1647" y="-63.5" font-family="Helvetica,sans-Serif" font-size="10.00">diffusion.H</text>
</a>
</g>
</g>
<!-- Node2&#45;&gt;Node253 -->
<g id="edge22" class="edge">
<title>Node2&#45;&gt;Node253</title>
<path fill="none" stroke="midnightblue" d="M1787.67,-109.44C1753.92,-99.26 1705.55,-84.66 1675.23,-75.52"/>
<polygon fill="midnightblue" stroke="midnightblue" points="1787.05,-112.91 1797.64,-112.44 1789.07,-106.2 1787.05,-112.91"/>
</g>
<!-- Node254 -->
<g id="node23" class="node">
<title>Node254</title>
<g id="a_node23"><a xlink:href="_density_source_8_h.html" target="_top" xlink:title=" ">
<polygon fill="white" stroke="red" points="1700,-56.5 1700,-75.5 1798,-75.5 1798,-56.5 1700,-56.5"/>
<text text-anchor="middle" x="1749" y="-63.5" font-family="Helvetica,sans-Serif" font-size="10.00">DensitySource.H</text>
</a>
</g>
</g>
<!-- Node2&#45;&gt;Node254 -->
<g id="edge23" class="edge">
<title>Node2&#45;&gt;Node254</title>
<path fill="none" stroke="midnightblue" d="M1805.1,-106.34C1791.09,-96.52 1773.12,-83.91 1761.34,-75.65"/>
<polygon fill="midnightblue" stroke="midnightblue" points="1803.43,-109.45 1813.63,-112.32 1807.45,-103.72 1803.43,-109.45"/>
</g>
<!-- Node255 -->
<g id="node24" class="node">
<title>Node255</title>
<g id="a_node24"><a xlink:href="_momentum_source_8_h.html" target="_top" xlink:title=" ">
<polygon fill="white" stroke="red" points="1968,-56.5 1968,-75.5 2084,-75.5 2084,-56.5 1968,-56.5"/>
<text text-anchor="middle" x="2026" y="-63.5" font-family="Helvetica,sans-Serif" font-size="10.00">MomentumSource.H</text>
</a>
</g>
</g>
<!-- Node2&#45;&gt;Node255 -->
<g id="edge24" class="edge">
<title>Node2&#45;&gt;Node255</title>
<path fill="none" stroke="midnightblue" d="M1867.37,-109.83C1905.14,-99.63 1960.14,-84.78 1994.46,-75.52"/>
<polygon fill="midnightblue" stroke="midnightblue" points="1866.43,-106.46 1857.69,-112.44 1868.26,-113.22 1866.43,-106.46"/>
</g>
<!-- Node166 -->
<g id="node25" class="node">
<title>Node166</title>
<g id="a_node25"><a xlink:href="_a_b_l_mean_boussinesq_8_h.html" target="_top" xlink:title=" ">
<polygon fill="white" stroke="red" points="1447,-0.5 1447,-19.5 1575,-19.5 1575,-0.5 1447,-0.5"/>
<text text-anchor="middle" x="1511" y="-7.5" font-family="Helvetica,sans-Serif" font-size="10.00">ABLMeanBoussinesq.H</text>
</a>
</g>
</g>
<!-- Node2&#45;&gt;Node166 -->
<g id="edge33" class="edge">
<title>Node2&#45;&gt;Node166</title>
<path fill="none" stroke="midnightblue" d="M1825.71,-102.24C1824.41,-87.45 1820.12,-67.47 1807,-56 1798.33,-48.42 1659.77,-29.76 1575.34,-19"/>
<polygon fill="midnightblue" stroke="midnightblue" points="1822.22,-102.49 1826.21,-112.31 1829.21,-102.15 1822.22,-102.49"/>
</g>
<!-- Node179 -->
<g id="node26" class="node">
<title>Node179</title>
<g id="a_node26"><a xlink:href="_a_b_l_meso_forcing_mom_8_h.html" target="_top" xlink:title=" ">
<polygon fill="white" stroke="red" points="1593,-0.5 1593,-19.5 1725,-19.5 1725,-0.5 1593,-0.5"/>
<text text-anchor="middle" x="1659" y="-7.5" font-family="Helvetica,sans-Serif" font-size="10.00">ABLMesoForcingMom.H</text>
</a>
</g>
</g>
<!-- Node2&#45;&gt;Node179 -->
<g id="edge34" class="edge">
<title>Node2&#45;&gt;Node179</title>
<path fill="none" stroke="midnightblue" d="M1836.77,-103.67C1844.07,-89.48 1850.63,-69.6 1840,-56 1825.74,-37.76 1770.93,-25.86 1725.33,-18.9"/>
<polygon fill="midnightblue" stroke="midnightblue" points="1833.69,-102.01 1831.8,-112.44 1839.78,-105.46 1833.69,-102.01"/>
</g>
<!-- Node259 -->
<g id="node27" class="node">
<title>Node259</title>
<g id="a_node27"><a xlink:href="_boussinesq_buoyancy_8_h.html" target="_top" xlink:title=" ">
<polygon fill="white" stroke="red" points="1743.5,-0.5 1743.5,-19.5 1872.5,-19.5 1872.5,-0.5 1743.5,-0.5"/>
<text text-anchor="middle" x="1808" y="-7.5" font-family="Helvetica,sans-Serif" font-size="10.00">BoussinesqBuoyancy.H</text>
</a>
</g>
</g>
<!-- Node2&#45;&gt;Node259 -->
<g id="edge35" class="edge">
<title>Node2&#45;&gt;Node259</title>
<path fill="none" stroke="midnightblue" d="M1850.25,-106.89C1868.42,-94.39 1888.47,-75.18 1878,-56 1868.38,-38.37 1848.57,-26.62 1832.47,-19.56"/>
<polygon fill="midnightblue" stroke="midnightblue" points="1848.13,-104.1 1841.63,-112.46 1851.93,-109.98 1848.13,-104.1"/>
</g>
<!-- Node261 -->
<g id="node28" class="node">
<title>Node261</title>
<g id="a_node28"><a xlink:href="_coriolis_forcing_8_h.html" target="_top" xlink:title=" ">
<polygon fill="white" stroke="red" points="1890.5,-0.5 1890.5,-19.5 1989.5,-19.5 1989.5,-0.5 1890.5,-0.5"/>
<text text-anchor="middle" x="1940" y="-7.5" font-family="Helvetica,sans-Serif" font-size="10.00">CoriolisForcing.H</text>
</a>
</g>
</g>
<!-- Node2&#45;&gt;Node261 -->
<g id="edge36" class="edge">
<title>Node2&#45;&gt;Node261</title>
<path fill="none" stroke="midnightblue" d="M1851.17,-107.41C1864.75,-99.36 1881.28,-88.33 1894,-76 1912.07,-58.49 1927.7,-33.02 1935.22,-19.76"/>
<polygon fill="midnightblue" stroke="midnightblue" points="1849.26,-104.47 1842.33,-112.49 1852.74,-110.54 1849.26,-104.47"/>
</g>
<!-- Node262 -->
<g id="node29" class="node">
<title>Node262</title>
<g id="a_node29"><a xlink:href="_density_buoyancy_8_h.html" target="_top" xlink:title=" ">
<polygon fill="white" stroke="red" points="2007.5,-0.5 2007.5,-19.5 2118.5,-19.5 2118.5,-0.5 2007.5,-0.5"/>
<text text-anchor="middle" x="2063" y="-7.5" font-family="Helvetica,sans-Serif" font-size="10.00">DensityBuoyancy.H</text>
</a>
</g>
</g>
<!-- Node2&#45;&gt;Node262 -->
<g id="edge37" class="edge">
<title>Node2&#45;&gt;Node262</title>
<path fill="none" stroke="midnightblue" d="M1873.75,-120.06C1942.84,-117.57 2065.47,-108.56 2093,-76 2107.61,-58.73 2086.28,-33.16 2072.73,-19.82"/>
<polygon fill="midnightblue" stroke="midnightblue" points="1873.43,-116.57 1863.55,-120.39 1873.66,-123.56 1873.43,-116.57"/>
</g>
<!-- Node264 -->
<g id="node30" class="node">
<title>Node264</title>
<g id="a_node30"><a xlink:href="_gravity_forcing_8_h.html" target="_top" xlink:title=" ">
<polygon fill="white" stroke="red" points="2137,-0.5 2137,-19.5 2235,-19.5 2235,-0.5 2137,-0.5"/>
<text text-anchor="middle" x="2186" y="-7.5" font-family="Helvetica,sans-Serif" font-size="10.00">GravityForcing.H</text>
</a>
</g>
</g>
<!-- Node2&#45;&gt;Node264 -->
<g id="edge38" class="edge">
<title>Node2&#45;&gt;Node264</title>
<path fill="none" stroke="midnightblue" d="M1873.76,-121.23C1932.11,-119.81 2032.6,-111.71 2110,-76 2139.32,-62.47 2166.16,-34.29 2178.64,-19.89"/>
<polygon fill="midnightblue" stroke="midnightblue" points="1873.65,-117.74 1863.72,-121.42 1873.78,-124.73 1873.65,-117.74"/>
</g>
<!-- Node167 -->
<g id="node31" class="node">
<title>Node167</title>
<g id="a_node31"><a xlink:href="_hurricane_forcing_8_h.html" target="_top" xlink:title=" ">
<polygon fill="white" stroke="red" points="2253,-0.5 2253,-19.5 2363,-19.5 2363,-0.5 2253,-0.5"/>
<text text-anchor="middle" x="2308" y="-7.5" font-family="Helvetica,sans-Serif" font-size="10.00">HurricaneForcing.H</text>
</a>
</g>
</g>
<!-- Node2&#45;&gt;Node167 -->
<g id="edge39" class="edge">
<title>Node2&#45;&gt;Node167</title>
<path fill="none" stroke="midnightblue" d="M1873.89,-117.47C1935.87,-112.15 2046.85,-100.02 2139,-76 2195.58,-61.25 2259.16,-33.62 2289.69,-19.61"/>
<polygon fill="midnightblue" stroke="midnightblue" points="1873.31,-114.01 1863.64,-118.33 1873.89,-120.99 1873.31,-114.01"/>
</g>
<!-- Node267 -->
<g id="node32" class="node">
<title>Node267</title>
<g id="a_node32"><a xlink:href="_m_m_s_forcing_8_h.html" target="_top" xlink:title=" ">
<polygon fill="white" stroke="red" points="2381,-0.5 2381,-19.5 2467,-19.5 2467,-0.5 2381,-0.5"/>
<text text-anchor="middle" x="2424" y="-7.5" font-family="Helvetica,sans-Serif" font-size="10.00">MMSForcing.H</text>
</a>
</g>
</g>
<!-- Node2&#45;&gt;Node267 -->
<g id="edge62" class="edge">
<title>Node2&#45;&gt;Node267</title>
<path fill="none" stroke="midnightblue" d="M1873.65,-117.93C1942.72,-112.82 2074.42,-100.61 2184,-76 2211.84,-69.75 2217.59,-63.93 2245,-56 2293.63,-41.93 2350.42,-28.09 2386.77,-19.55"/>
<polygon fill="midnightblue" stroke="midnightblue" points="1873.24,-114.45 1863.51,-118.66 1873.74,-121.43 1873.24,-114.45"/>
</g>
<!-- Node268 -->
<g id="node33" class="node">
<title>Node268</title>
<g id="a_node33"><a xlink:href="_p_d_e_helpers_8_h.html" target="_top" xlink:title=" ">
<polygon fill="white" stroke="red" points="360,-56.5 360,-75.5 444,-75.5 444,-56.5 360,-56.5"/>
<text text-anchor="middle" x="402" y="-63.5" font-family="Helvetica,sans-Serif" font-size="10.00">PDEHelpers.H</text>
</a>
</g>
</g>
<!-- Node2&#45;&gt;Node268 -->
<g id="edge41" class="edge">
<title>Node2&#45;&gt;Node268</title>
<path fill="none" stroke="midnightblue" d="M1778.17,-120.24C1567.65,-116.77 722.3,-101.48 458,-76 453.49,-75.57 448.79,-75 444.12,-74.36"/>
<polygon fill="midnightblue" stroke="midnightblue" points="1778.23,-123.74 1788.28,-120.41 1778.34,-116.74 1778.23,-123.74"/>
</g>
<!-- Node269 -->
<g id="node34" class="node">
<title>Node269</title>
<g id="a_node34"><a xlink:href="_s_d_r_source_8_h.html" target="_top" xlink:title=" ">
<polygon fill="white" stroke="red" points="2254,-56.5 2254,-75.5 2334,-75.5 2334,-56.5 2254,-56.5"/>
<text text-anchor="middle" x="2294" y="-63.5" font-family="Helvetica,sans-Serif" font-size="10.00">SDRSource.H</text>
</a>
</g>
</g>
<!-- Node2&#45;&gt;Node269 -->
<g id="edge43" class="edge">
<title>Node2&#45;&gt;Node269</title>
<path fill="none" stroke="midnightblue" d="M1874.13,-116.66C1951.44,-109.5 2107.98,-94.16 2240,-76 2244.52,-75.38 2249.24,-74.67 2253.93,-73.94"/>
<polygon fill="midnightblue" stroke="midnightblue" points="1873.4,-113.22 1863.76,-117.62 1874.04,-120.19 1873.4,-113.22"/>
</g>
<!-- Node271 -->
<g id="node35" class="node">
<title>Node271</title>
<g id="a_node35"><a xlink:href="_source_term_8_h.html" target="_top" xlink:title=" ">
<polygon fill="white" stroke="red" points="2352,-56.5 2352,-75.5 2436,-75.5 2436,-56.5 2352,-56.5"/>
<text text-anchor="middle" x="2394" y="-63.5" font-family="Helvetica,sans-Serif" font-size="10.00">SourceTerm.H</text>
</a>
</g>
</g>
<!-- Node2&#45;&gt;Node271 -->
<g id="edge44" class="edge">
<title>Node2&#45;&gt;Node271</title>
<path fill="none" stroke="midnightblue" d="M1873.8,-118.25C1965.2,-112.67 2170.98,-98.62 2343,-76 2345.85,-75.62 2348.79,-75.2 2351.74,-74.75"/>
<polygon fill="midnightblue" stroke="midnightblue" points="1873.52,-114.76 1863.75,-118.85 1873.94,-121.75 1873.52,-114.76"/>
</g>
<!-- Node180 -->
<g id="node36" class="node">
<title>Node180</title>
<g id="a_node36"><a xlink:href="_a_b_l_meso_forcing_temp_8_h.html" target="_top" xlink:title=" ">
<polygon fill="white" stroke="red" points="2486,-0.5 2486,-19.5 2620,-19.5 2620,-0.5 2486,-0.5"/>
<text text-anchor="middle" x="2553" y="-7.5" font-family="Helvetica,sans-Serif" font-size="10.00">ABLMesoForcingTemp.H</text>
</a>
</g>
</g>
<!-- Node2&#45;&gt;Node180 -->
<g id="edge45" class="edge">
<title>Node2&#45;&gt;Node180</title>
<path fill="none" stroke="midnightblue" d="M1873.79,-120.39C1999.81,-118.32 2338.73,-109.71 2445,-76 2455.22,-72.76 2513.1,-36.38 2539.67,-19.5"/>
<polygon fill="midnightblue" stroke="midnightblue" points="1873.62,-116.89 1863.68,-120.55 1873.73,-123.89 1873.62,-116.89"/>
</g>
<!-- Node272 -->
<g id="node37" class="node">
<title>Node272</title>
<g id="a_node37"><a xlink:href="_temperature_source_8_h.html" target="_top" xlink:title=" ">
<polygon fill="white" stroke="red" points="2492,-56.5 2492,-75.5 2614,-75.5 2614,-56.5 2492,-56.5"/>
<text text-anchor="middle" x="2553" y="-63.5" font-family="Helvetica,sans-Serif" font-size="10.00">TemperatureSource.H</text>
</a>
</g>
</g>
<!-- Node2&#45;&gt;Node272 -->
<g id="edge46" class="edge">
<title>Node2&#45;&gt;Node272</title>
<path fill="none" stroke="midnightblue" d="M1873.77,-118.53C1981.63,-112.78 2252.25,-97.32 2478,-76 2482.44,-75.58 2487.02,-75.11 2491.63,-74.62"/>
<polygon fill="midnightblue" stroke="midnightblue" points="1873.34,-115.05 1863.54,-119.07 1873.71,-122.04 1873.34,-115.05"/>
</g>
<!-- Node274 -->
<g id="node38" class="node">
<title>Node274</title>
<g id="a_node38"><a xlink:href="_t_k_e_source_8_h.html" target="_top" xlink:title=" ">
<polygon fill="white" stroke="red" points="2632.5,-56.5 2632.5,-75.5 2711.5,-75.5 2711.5,-56.5 2632.5,-56.5"/>
<text text-anchor="middle" x="2672" y="-63.5" font-family="Helvetica,sans-Serif" font-size="10.00">TKESource.H</text>
</a>
</g>
</g>
<!-- Node2&#45;&gt;Node274 -->
<g id="edge48" class="edge">
<title>Node2&#45;&gt;Node274</title>
<path fill="none" stroke="midnightblue" d="M1874.22,-120.38C1998.64,-118.32 2340.54,-109.78 2623,-76 2626.09,-75.63 2629.28,-75.19 2632.48,-74.7"/>
<polygon fill="midnightblue" stroke="midnightblue" points="1873.84,-116.88 1863.9,-120.54 1873.95,-123.88 1873.84,-116.88"/>
</g>
<!-- Node278 -->
<g id="node39" class="node">
<title>Node278</title>
<g id="a_node39"><a xlink:href="_split_advection_8_h.html" target="_top" xlink:title=" ">
<polygon fill="white" stroke="red" points="2729,-56.5 2729,-75.5 2827,-75.5 2827,-56.5 2729,-56.5"/>
<text text-anchor="middle" x="2778" y="-63.5" font-family="Helvetica,sans-Serif" font-size="10.00">SplitAdvection.H</text>
</a>
</g>
</g>
<!-- Node2&#45;&gt;Node278 -->
<g id="edge49" class="edge">
<title>Node2&#45;&gt;Node278</title>
<path fill="none" stroke="midnightblue" d="M1873.95,-120.38C2008.12,-118.26 2398.57,-109.46 2721,-76 2723.59,-75.73 2726.24,-75.42 2728.92,-75.09"/>
<polygon fill="midnightblue" stroke="midnightblue" points="1873.57,-116.89 1863.63,-120.54 1873.68,-123.89 1873.57,-116.89"/>
</g>
<!-- Node280 -->
<g id="node40" class="node">
<title>Node280</title>
<g id="a_node40"><a xlink:href="vof__hybridsolver__ops_8_h.html" target="_top" xlink:title=" ">
<polygon fill="white" stroke="red" points="2845.5,-56.5 2845.5,-75.5 2976.5,-75.5 2976.5,-56.5 2845.5,-56.5"/>
<text text-anchor="middle" x="2911" y="-63.5" font-family="Helvetica,sans-Serif" font-size="10.00">vof_hybridsolver_ops.H</text>
</a>
</g>
</g>
<!-- Node2&#45;&gt;Node280 -->
<g id="edge50" class="edge">
<title>Node2&#45;&gt;Node280</title>
<path fill="none" stroke="midnightblue" d="M1873.99,-120.14C2019.2,-117.25 2466.52,-106.36 2836,-76 2839.01,-75.75 2842.08,-75.48 2845.18,-75.18"/>
<polygon fill="midnightblue" stroke="midnightblue" points="1873.6,-116.64 1863.67,-120.34 1873.73,-123.64 1873.6,-116.64"/>
</g>
<!-- Node281 -->
<g id="node41" class="node">
<title>Node281</title>
<g id="a_node41"><a xlink:href="fvm__utils_8_h.html" target="_top" xlink:title=" ">
<polygon fill="white" stroke="red" points="2994.5,-56.5 2994.5,-75.5 3067.5,-75.5 3067.5,-56.5 2994.5,-56.5"/>
<text text-anchor="middle" x="3031" y="-63.5" font-family="Helvetica,sans-Serif" font-size="10.00">fvm_utils.H</text>
</a>
</g>
</g>
<!-- Node2&#45;&gt;Node281 -->
<g id="edge51" class="edge">
<title>Node2&#45;&gt;Node281</title>
<path fill="none" stroke="midnightblue" d="M1873.8,-120.16C2063.71,-116.66 2765.27,-102.19 2986,-76 2988.69,-75.68 2991.46,-75.29 2994.24,-74.85"/>
<polygon fill="midnightblue" stroke="midnightblue" points="1873.52,-116.66 1863.58,-120.34 1873.64,-123.66 1873.52,-116.66"/>
</g>
<!-- Node292 -->
<g id="node42" class="node">
<title>Node292</title>
<g id="a_node42"><a xlink:href="_i_b_8_h.html" target="_top" xlink:title=" ">
<polygon fill="white" stroke="red" points="500.5,-56.5 500.5,-75.5 537.5,-75.5 537.5,-56.5 500.5,-56.5"/>
<text text-anchor="middle" x="519" y="-63.5" font-family="Helvetica,sans-Serif" font-size="10.00">IB.H</text>
</a>
</g>
</g>
<!-- Node2&#45;&gt;Node292 -->
<g id="edge53" class="edge">
<title>Node2&#45;&gt;Node292</title>
<path fill="none" stroke="midnightblue" d="M1778.15,-120.79C1576.5,-119.66 795.17,-112.95 552,-76 547.3,-75.29 542.32,-74.14 537.69,-72.9"/>
<polygon fill="midnightblue" stroke="midnightblue" points="1778.39,-124.29 1788.41,-120.84 1778.43,-117.29 1778.39,-124.29"/>
</g>
<!-- Node293 -->
<g id="node43" class="node">
<title>Node293</title>
<g id="a_node43"><a xlink:href="_ocean_waves_8_h.html" target="_top" xlink:title=" ">
<polygon fill="white" stroke="red" points="792,-56.5 792,-75.5 882,-75.5 882,-56.5 792,-56.5"/>
<text text-anchor="middle" x="837" y="-63.5" font-family="Helvetica,sans-Serif" font-size="10.00">OceanWaves.H</text>
</a>
</g>
</g>
<!-- Node2&#45;&gt;Node293 -->
<g id="edge57" class="edge">
<title>Node2&#45;&gt;Node293</title>
<path fill="none" stroke="midnightblue" d="M1778.05,-120.42C1640.46,-118.39 1232.64,-109.73 896,-76 891.46,-75.55 886.74,-74.98 882.04,-74.36"/>
<polygon fill="midnightblue" stroke="midnightblue" points="1778.2,-123.92 1788.25,-120.57 1778.3,-116.92 1778.2,-123.92"/>
</g>
<!-- Node67 -->
<g id="node44" class="node">
<title>Node67</title>
<g id="a_node44"><a xlink:href="hos__waves__ops_8_h.html" target="_top" xlink:title=" ">
<polygon fill="white" stroke="red" points="925,-0.5 925,-19.5 1029,-19.5 1029,-0.5 925,-0.5"/>
<text text-anchor="middle" x="977" y="-7.5" font-family="Helvetica,sans-Serif" font-size="10.00">hos_waves_ops.H</text>
</a>
</g>
</g>
<!-- Node2&#45;&gt;Node67 -->
<g id="edge60" class="edge">
<title>Node2&#45;&gt;Node67</title>
<path fill="none" stroke="midnightblue" d="M1778.27,-120.41C1596.79,-117.92 958.48,-107 929,-76 911.4,-57.5 943.09,-32.45 962.88,-19.52"/>
<polygon fill="midnightblue" stroke="midnightblue" points="1778.26,-123.91 1788.31,-120.54 1778.36,-116.91 1778.26,-123.91"/>
</g>
<!-- Node294 -->
<g id="node45" class="node">
<title>Node294</title>
<g id="a_node45"><a xlink:href="hydrostatic__ops_8_h.html" target="_top" xlink:title=" ">
<polygon fill="white" stroke="red" points="3086,-56.5 3086,-75.5 3190,-75.5 3190,-56.5 3086,-56.5"/>
<text text-anchor="middle" x="3138" y="-63.5" font-family="Helvetica,sans-Serif" font-size="10.00">hydrostatic_ops.H</text>
</a>
</g>
</g>
<!-- Node2&#45;&gt;Node294 -->
<g id="edge63" class="edge">
<title>Node2&#45;&gt;Node294</title>
<path fill="none" stroke="midnightblue" d="M1874.11,-121.18C2040.92,-121.4 2609.77,-118.74 3077,-76 3079.88,-75.74 3082.83,-75.43 3085.8,-75.09"/>
<polygon fill="midnightblue" stroke="midnightblue" points="1873.71,-117.68 1863.71,-121.16 1873.7,-124.68 1873.71,-117.68"/>
</g>
<!-- Node39 -->
<g id="node46" class="node">
<title>Node39</title>
<g id="a_node46"><a xlink:href="_burggraf_lid_8cpp.html" target="_top" xlink:title=" ">
<polygon fill="white" stroke="black" points="3208.5,-56.5 3208.5,-75.5 3301.5,-75.5 3301.5,-56.5 3208.5,-56.5"/>
<text text-anchor="middle" x="3255" y="-63.5" font-family="Helvetica,sans-Serif" font-size="10.00">BurggrafLid.cpp</text>
</a>
</g>
</g>
<!-- Node2&#45;&gt;Node39 -->
<g id="edge64" class="edge">
<title>Node2&#45;&gt;Node39</title>
<path fill="none" stroke="midnightblue" d="M1873.66,-120.25C2084.36,-116.8 2933.59,-101.57 3199,-76 3202.04,-75.71 3205.16,-75.35 3208.31,-74.96"/>
<polygon fill="midnightblue" stroke="midnightblue" points="1873.48,-116.75 1863.54,-120.41 1873.59,-123.75 1873.48,-116.75"/>
</g>
<!-- Node295 -->
<g id="node47" class="node">
<title>Node295</title>
<g id="a_node47"><a xlink:href="_linear_profile_8cpp.html" target="_top" xlink:title=" ">
<polygon fill="white" stroke="black" points="3320,-56.5 3320,-75.5 3418,-75.5 3418,-56.5 3320,-56.5"/>
<text text-anchor="middle" x="3369" y="-63.5" font-family="Helvetica,sans-Serif" font-size="10.00">LinearProfile.cpp</text>
</a>
</g>
</g>
<!-- Node2&#45;&gt;Node295 -->
<g id="edge65" class="edge">
<title>Node2&#45;&gt;Node295</title>
<path fill="none" stroke="midnightblue" d="M1873.88,-120.35C2095.39,-117.2 3022.29,-102.67 3311,-76 3313.84,-75.74 3316.75,-75.42 3319.69,-75.08"/>
<polygon fill="midnightblue" stroke="midnightblue" points="1873.52,-116.85 1863.57,-120.49 1873.62,-123.85 1873.52,-116.85"/>
</g>
<!-- Node40 -->
<g id="node48" class="node">
<title>Node40</title>
<g id="a_node48"><a xlink:href="_power_law_profile_8cpp.html" target="_top" xlink:title=" ">
<polygon fill="white" stroke="black" points="3436.5,-56.5 3436.5,-75.5 3553.5,-75.5 3553.5,-56.5 3436.5,-56.5"/>
<text text-anchor="middle" x="3495" y="-63.5" font-family="Helvetica,sans-Serif" font-size="10.00">PowerLawProfile.cpp</text>
</a>
</g>
</g>
<!-- Node2&#45;&gt;Node40 -->
<g id="edge66" class="edge">
<title>Node2&#45;&gt;Node40</title>
<path fill="none" stroke="midnightblue" d="M1873.82,-120.32C2105.61,-116.95 3113.76,-101.06 3427,-76 3430.09,-75.75 3433.25,-75.46 3436.44,-75.14"/>
<polygon fill="midnightblue" stroke="midnightblue" points="1873.64,-116.83 1863.69,-120.47 1873.74,-123.83 1873.64,-116.83"/>
</g>
<!-- Node296 -->
<g id="node49" class="node">
<title>Node296</title>
<g id="a_node49"><a xlink:href="_u_d_f_8cpp.html" target="_top" xlink:title=" ">
<polygon fill="white" stroke="black" points="3572,-56.5 3572,-75.5 3628,-75.5 3628,-56.5 3572,-56.5"/>
<text text-anchor="middle" x="3600" y="-63.5" font-family="Helvetica,sans-Serif" font-size="10.00">UDF.cpp</text>
</a>
</g>
</g>
<!-- Node2&#45;&gt;Node296 -->
<g id="edge67" class="edge">
<title>Node2&#45;&gt;Node296</title>
<path fill="none" stroke="midnightblue" d="M1873.96,-121.14C2117.95,-121.61 3223.23,-121.2 3563,-76 3565.88,-75.62 3568.87,-75.1 3571.84,-74.5"/>
<polygon fill="midnightblue" stroke="midnightblue" points="1873.66,-117.63 1863.65,-121.11 1873.64,-124.63 1873.66,-117.63"/>
</g>
<!-- Node297 -->
<g id="node50" class="node">
<title>Node297</title>
<g id="a_node50"><a xlink:href="_transport_model_8_h.html" target="_top" xlink:title=" ">
<polygon fill="white" stroke="red" points="3646,-56.5 3646,-75.5 3748,-75.5 3748,-56.5 3646,-56.5"/>
<text text-anchor="middle" x="3697" y="-63.5" font-family="Helvetica,sans-Serif" font-size="10.00">TransportModel.H</text>
</a>
</g>
</g>
<!-- Node2&#45;&gt;Node297 -->
<g id="edge69" class="edge">
<title>Node2&#45;&gt;Node297</title>
<path fill="none" stroke="midnightblue" d="M1873.92,-120.61C2123.86,-118.48 3280.05,-107.09 3637,-76 3639.94,-75.74 3642.95,-75.44 3645.99,-75.09"/>
<polygon fill="midnightblue" stroke="midnightblue" points="1873.69,-117.12 1863.72,-120.7 1873.75,-124.12 1873.69,-117.12"/>
</g>
<!-- Node4&#45;&gt;Node3 -->
<g id="edge4" class="edge">
<title>Node4&#45;&gt;Node3</title>
<path fill="none" stroke="midnightblue" d="M3844.98,-47.86C3837.88,-38.5 3829.4,-27.33 3823.64,-19.75"/>
<polygon fill="midnightblue" stroke="midnightblue" points="3842.39,-50.24 3851.23,-56.08 3847.97,-46 3842.39,-50.24"/>
</g>
<!-- Node9&#45;&gt;Node62 -->
<g id="edge7" class="edge">
<title>Node9&#45;&gt;Node62</title>
<path fill="none" stroke="midnightblue" d="M583.99,-55.63C537.26,-45.46 463.26,-29.35 418.12,-19.52"/>
<polygon fill="midnightblue" stroke="midnightblue" points="583.3,-59.07 593.81,-57.77 584.78,-52.23 583.3,-59.07"/>
</g>
<!-- Node9&#45;&gt;Node80 -->
<g id="edge8" class="edge">
<title>Node9&#45;&gt;Node80</title>
<path fill="none" stroke="midnightblue" d="M590.78,-53.22C558.59,-42.75 512.47,-27.74 484.76,-18.73"/>
<polygon fill="midnightblue" stroke="midnightblue" points="590.1,-56.68 600.7,-56.44 592.27,-50.02 590.1,-56.68"/>
</g>
<!-- Node9&#45;&gt;Node91 -->
<g id="edge9" class="edge">
<title>Node9&#45;&gt;Node91</title>
<path fill="none" stroke="midnightblue" d="M602.41,-51.45C584.32,-41.48 560.27,-28.23 544.71,-19.65"/>
<polygon fill="midnightblue" stroke="midnightblue" points="600.81,-54.56 611.25,-56.32 604.19,-48.43 600.81,-54.56"/>
</g>
<!-- Node9&#45;&gt;Node119 -->
<g id="edge10" class="edge">
<title>Node9&#45;&gt;Node119</title>
<path fill="none" stroke="midnightblue" d="M670.42,-54.81C713.79,-44.62 779.71,-29.15 820.47,-19.58"/>
<polygon fill="midnightblue" stroke="midnightblue" points="669.38,-51.45 660.44,-57.15 670.98,-58.27 669.38,-51.45"/>
</g>
<!-- Node9&#45;&gt;Node128 -->
<g id="edge11" class="edge">
<title>Node9&#45;&gt;Node128</title>
<path fill="none" stroke="midnightblue" d="M627,-45.8C627,-36.91 627,-26.78 627,-19.75"/>
<polygon fill="midnightblue" stroke="midnightblue" points="623.5,-46.08 627,-56.08 630.5,-46.08 623.5,-46.08"/>
</g>
<!-- Node9&#45;&gt;Node155 -->
<g id="edge12" class="edge">
<title>Node9&#45;&gt;Node155</title>
<path fill="none" stroke="midnightblue" d="M654.66,-52.23C676.55,-42.13 706.5,-28.31 725.55,-19.52"/>
<polygon fill="midnightblue" stroke="midnightblue" points="653.15,-49.08 645.54,-56.44 656.09,-55.43 653.15,-49.08"/>
</g>
<!-- Node255&#45;&gt;Node166 -->
<g id="edge25" class="edge">
<title>Node255&#45;&gt;Node166</title>
<path fill="none" stroke="midnightblue" d="M1957.69,-58.5C1870.8,-50.12 1716.16,-34.87 1584,-20 1581.08,-19.67 1578.1,-19.33 1575.09,-18.98"/>
<polygon fill="midnightblue" stroke="midnightblue" points="1957.4,-61.99 1967.68,-59.46 1958.07,-55.02 1957.4,-61.99"/>
</g>
<!-- Node255&#45;&gt;Node179 -->
<g id="edge26" class="edge">
<title>Node255&#45;&gt;Node179</title>
<path fill="none" stroke="midnightblue" d="M1957.9,-54.98C1888.57,-44.78 1782.27,-29.14 1716.88,-19.52"/>
<polygon fill="midnightblue" stroke="midnightblue" points="1957.44,-58.45 1967.85,-56.44 1958.46,-51.53 1957.44,-58.45"/>
</g>
<!-- Node255&#45;&gt;Node259 -->
<g id="edge27" class="edge">
<title>Node255&#45;&gt;Node259</title>
<path fill="none" stroke="midnightblue" d="M1981.69,-54.02C1940.51,-43.82 1880.03,-28.84 1842.38,-19.52"/>
<polygon fill="midnightblue" stroke="midnightblue" points="1980.91,-57.44 1991.46,-56.44 1982.59,-50.64 1980.91,-57.44"/>
</g>
<!-- Node255&#45;&gt;Node261 -->
<g id="edge28" class="edge">
<title>Node255&#45;&gt;Node261</title>
<path fill="none" stroke="midnightblue" d="M2003.55,-50.9C1987.78,-41 1967.19,-28.07 1953.78,-19.65"/>
<polygon fill="midnightblue" stroke="midnightblue" points="2001.85,-53.97 2012.18,-56.32 2005.57,-48.04 2001.85,-53.97"/>
</g>
<!-- Node255&#45;&gt;Node262 -->
<g id="edge29" class="edge">
<title>Node255&#45;&gt;Node262</title>
<path fill="none" stroke="midnightblue" d="M2037.95,-47.57C2044.31,-38.27 2051.87,-27.25 2057,-19.75"/>
<polygon fill="midnightblue" stroke="midnightblue" points="2034.87,-45.86 2032.11,-56.08 2040.65,-49.81 2034.87,-45.86"/>
</g>
<!-- Node255&#45;&gt;Node264 -->
<g id="edge30" class="edge">
<title>Node255&#45;&gt;Node264</title>
<path fill="none" stroke="midnightblue" d="M2061.05,-53.17C2091.17,-43 2133.9,-28.59 2160.77,-19.52"/>
<polygon fill="midnightblue" stroke="midnightblue" points="2059.71,-49.93 2051.35,-56.44 2061.95,-56.56 2059.71,-49.93"/>
</g>
<!-- Node255&#45;&gt;Node167 -->
<g id="edge31" class="edge">
<title>Node255&#45;&gt;Node167</title>
<path fill="none" stroke="midnightblue" d="M2080.64,-54.54C2133.94,-44.33 2214,-29 2263.53,-19.52"/>
<polygon fill="midnightblue" stroke="midnightblue" points="2079.85,-51.13 2070.68,-56.44 2081.16,-58 2079.85,-51.13"/>
</g>
<!-- Node255&#45;&gt;Node267 -->
<g id="edge32" class="edge">
<title>Node255&#45;&gt;Node267</title>
<path fill="none" stroke="midnightblue" d="M2094.26,-56.98C2164.14,-48.57 2275.81,-34.57 2372,-20 2374.9,-19.56 2377.89,-19.09 2380.89,-18.6"/>
<polygon fill="midnightblue" stroke="midnightblue" points="2093.78,-53.51 2084.26,-58.18 2094.61,-60.46 2093.78,-53.51"/>
</g>
<!-- Node268&#45;&gt;Node62 -->
<g id="edge42" class="edge">
<title>Node268&#45;&gt;Node62</title>
<path fill="none" stroke="midnightblue" d="M394.2,-46.69C390.32,-37.59 385.82,-27.01 382.73,-19.75"/>
<polygon fill="midnightblue" stroke="midnightblue" points="391.06,-48.25 398.2,-56.08 397.5,-45.51 391.06,-48.25"/>
</g>
<!-- Node272&#45;&gt;Node180 -->
<g id="edge47" class="edge">
<title>Node272&#45;&gt;Node180</title>
<path fill="none" stroke="midnightblue" d="M2553,-45.8C2553,-36.91 2553,-26.78 2553,-19.75"/>
<polygon fill="midnightblue" stroke="midnightblue" points="2549.5,-46.08 2553,-56.08 2556.5,-46.08 2549.5,-46.08"/>
</g>
<!-- Node292&#45;&gt;Node80 -->
<g id="edge54" class="edge">
<title>Node292&#45;&gt;Node80</title>
<path fill="none" stroke="midnightblue" d="M502.09,-49.25C491.8,-39.67 479.03,-27.79 470.49,-19.83"/>
<polygon fill="midnightblue" stroke="midnightblue" points="499.98,-52.07 509.68,-56.32 504.75,-46.95 499.98,-52.07"/>
</g>
<!-- Node293&#45;&gt;Node119 -->
<g id="edge58" class="edge">
<title>Node293&#45;&gt;Node119</title>
<path fill="none" stroke="midnightblue" d="M843.78,-46.69C847.15,-37.59 851.07,-27.01 853.76,-19.75"/>
<polygon fill="midnightblue" stroke="midnightblue" points="840.49,-45.49 840.3,-56.08 847.06,-47.92 840.49,-45.49"/>
</g>
<!-- Node293&#45;&gt;Node67 -->
<g id="edge59" class="edge">
<title>Node293&#45;&gt;Node67</title>
<path fill="none" stroke="midnightblue" d="M868.7,-52.77C895,-42.63 931.72,-28.47 954.92,-19.52"/>
<polygon fill="midnightblue" stroke="midnightblue" points="867.25,-49.58 859.18,-56.44 869.77,-56.11 867.25,-49.58"/>
</g>
</g>
</svg>
