<?xml version="1.0" encoding="UTF-8" standalone="no"?>
<!DOCTYPE svg PUBLIC "-//W3C//DTD SVG 1.1//EN"
 "http://www.w3.org/Graphics/SVG/1.1/DTD/svg11.dtd">
<!-- Generated by graphviz version 2.43.0 (0)
 -->
<!-- Title: helics.H Pages: 1 -->
<svg width="4854pt" height="252pt"
 viewBox="0.00 0.00 4854.00 252.00" xmlns="http://www.w3.org/2000/svg" xmlns:xlink="http://www.w3.org/1999/xlink">
<g id="graph0" class="graph" transform="scale(1 1) rotate(0) translate(4 248)">
<title>helics.H</title>
<polygon fill="white" stroke="transparent" points="-4,4 -4,-248 4850,-248 4850,4 -4,4"/>
<!-- Node1 -->
<g id="node1" class="node">
<title>Node1</title>
<g id="a_node1"><a xlink:title=" ">
<polygon fill="#bfbfbf" stroke="black" points="2557.5,-224.5 2557.5,-243.5 2613.5,-243.5 2613.5,-224.5 2557.5,-224.5"/>
<text text-anchor="middle" x="2585.5" y="-231.5" font-family="Helvetica,sans-Serif" font-size="10.00">helics.H</text>
</a>
</g>
</g>
<!-- Node2 -->
<g id="node2" class="node">
<title>Node2</title>
<g id="a_node2"><a xlink:href="_c_f_d_sim_8_h.html" target="_top" xlink:title=" ">
<polygon fill="white" stroke="red" points="2552.5,-168.5 2552.5,-187.5 2618.5,-187.5 2618.5,-168.5 2552.5,-168.5"/>
<text text-anchor="middle" x="2585.5" y="-175.5" font-family="Helvetica,sans-Serif" font-size="10.00">CFDSim.H</text>
</a>
</g>
</g>
<!-- Node1&#45;&gt;Node2 -->
<g id="edge1" class="edge">
<title>Node1&#45;&gt;Node2</title>
<path fill="none" stroke="midnightblue" d="M2579.03,-214.1C2578.4,-205.14 2578.84,-194.86 2580.37,-187.75"/>
<polygon fill="midnightblue" stroke="midnightblue" points="2575.57,-214.62 2580.33,-224.08 2582.51,-213.71 2575.57,-214.62"/>
</g>
<!-- Node168 -->
<g id="node50" class="node">
<title>Node168</title>
<g id="a_node50"><a xlink:href="helics_8cpp.html" target="_top" xlink:title=" ">
<polygon fill="white" stroke="black" points="2637,-168.5 2637,-187.5 2702,-187.5 2702,-168.5 2637,-168.5"/>
<text text-anchor="middle" x="2669.5" y="-175.5" font-family="Helvetica,sans-Serif" font-size="10.00">helics.cpp</text>
</a>
</g>
</g>
<!-- Node1&#45;&gt;Node168 -->
<g id="edge59" class="edge">
<title>Node1&#45;&gt;Node168</title>
<path fill="none" stroke="midnightblue" d="M2607.43,-218.9C2622.84,-209 2642.95,-196.07 2656.04,-187.65"/>
<polygon fill="midnightblue" stroke="midnightblue" points="2605.52,-215.97 2599,-224.32 2609.3,-221.86 2605.52,-215.97"/>
</g>
<!-- Node2&#45;&gt;Node1 -->
<g id="edge30" class="edge">
<title>Node2&#45;&gt;Node1</title>
<path fill="none" stroke="midnightblue" d="M2591.96,-197.69C2592.61,-206.64 2592.18,-216.93 2590.67,-224.08"/>
<polygon fill="midnightblue" stroke="midnightblue" points="2595.42,-197.2 2590.63,-187.75 2588.48,-198.13 2595.42,-197.2"/>
</g>
<!-- Node3 -->
<g id="node3" class="node">
<title>Node3</title>
<g id="a_node3"><a xlink:href="_wall_function_8_h.html" target="_top" xlink:title=" ">
<polygon fill="white" stroke="red" points="80,-112.5 80,-131.5 169,-131.5 169,-112.5 80,-112.5"/>
<text text-anchor="middle" x="124.5" y="-119.5" font-family="Helvetica,sans-Serif" font-size="10.00">WallFunction.H</text>
</a>
</g>
</g>
<!-- Node2&#45;&gt;Node3 -->
<g id="edge2" class="edge">
<title>Node2&#45;&gt;Node3</title>
<path fill="none" stroke="midnightblue" d="M2542.01,-177.06C2257.91,-177.31 663.11,-176.67 178.5,-132 175.47,-131.72 172.36,-131.37 169.22,-130.97"/>
<polygon fill="midnightblue" stroke="midnightblue" points="2542.32,-180.56 2552.31,-177.05 2542.31,-173.56 2542.32,-180.56"/>
</g>
<!-- Node5 -->
<g id="node4" class="node">
<title>Node5</title>
<g id="a_node4"><a xlink:href="_channel_flow_8_h.html" target="_top" xlink:title=" ">
<polygon fill="white" stroke="black" points="42,-56.5 42,-75.5 131,-75.5 131,-56.5 42,-56.5"/>
<text text-anchor="middle" x="86.5" y="-63.5" font-family="Helvetica,sans-Serif" font-size="10.00">ChannelFlow.H</text>
</a>
</g>
</g>
<!-- Node2&#45;&gt;Node5 -->
<g id="edge43" class="edge">
<title>Node2&#45;&gt;Node5</title>
<path fill="none" stroke="midnightblue" d="M2542.42,-177.06C2213.83,-177.42 115.63,-177.94 70.5,-132 55.52,-116.74 70.34,-89.84 79.86,-75.91"/>
<polygon fill="midnightblue" stroke="midnightblue" points="2542.49,-180.56 2552.49,-177.05 2542.48,-173.56 2542.49,-180.56"/>
</g>
<!-- Node6 -->
<g id="node5" class="node">
<title>Node6</title>
<g id="a_node5"><a xlink:href="_channel_flow_8cpp.html" target="_top" xlink:title=" ">
<polygon fill="white" stroke="black" points="0,-0.5 0,-19.5 99,-19.5 99,-0.5 0,-0.5"/>
<text text-anchor="middle" x="49.5" y="-7.5" font-family="Helvetica,sans-Serif" font-size="10.00">ChannelFlow.cpp</text>
</a>
</g>
</g>
<!-- Node2&#45;&gt;Node6 -->
<g id="edge42" class="edge">
<title>Node2&#45;&gt;Node6</title>
<path fill="none" stroke="midnightblue" d="M2542.42,-176.85C2213.82,-175.63 115.19,-166.48 60.5,-132 30.05,-112.8 26.03,-91.41 32.5,-56 34.9,-42.86 40.94,-28.56 45.13,-19.69"/>
<polygon fill="midnightblue" stroke="midnightblue" points="2542.48,-180.35 2552.49,-176.89 2542.5,-173.35 2542.48,-180.35"/>
</g>
<!-- Node7 -->
<g id="node6" class="node">
<title>Node7</title>
<g id="a_node6"><a xlink:href="_c_f_d_sim_8cpp.html" target="_top" xlink:title=" ">
<polygon fill="white" stroke="black" points="187.5,-112.5 187.5,-131.5 263.5,-131.5 263.5,-112.5 187.5,-112.5"/>
<text text-anchor="middle" x="225.5" y="-119.5" font-family="Helvetica,sans-Serif" font-size="10.00">CFDSim.cpp</text>
</a>
</g>
</g>
<!-- Node2&#45;&gt;Node7 -->
<g id="edge5" class="edge">
<title>Node2&#45;&gt;Node7</title>
<path fill="none" stroke="midnightblue" d="M2542.38,-177.16C2265.73,-178.04 736.89,-180.62 272.5,-132 269.61,-131.7 266.63,-131.31 263.64,-130.86"/>
<polygon fill="midnightblue" stroke="midnightblue" points="2542.44,-180.66 2552.43,-177.13 2542.42,-173.66 2542.44,-180.66"/>
</g>
<!-- Node8 -->
<g id="node7" class="node">
<title>Node8</title>
<g id="a_node7"><a xlink:href="_mesh_map_8cpp.html" target="_top" xlink:title=" ">
<polygon fill="white" stroke="black" points="281.5,-112.5 281.5,-131.5 365.5,-131.5 365.5,-112.5 281.5,-112.5"/>
<text text-anchor="middle" x="323.5" y="-119.5" font-family="Helvetica,sans-Serif" font-size="10.00">MeshMap.cpp</text>
</a>
</g>
</g>
<!-- Node2&#45;&gt;Node8 -->
<g id="edge6" class="edge">
<title>Node2&#45;&gt;Node8</title>
<path fill="none" stroke="midnightblue" d="M2542.19,-177.03C2272.25,-177.09 817.56,-175.34 374.5,-132 371.64,-131.72 368.69,-131.37 365.73,-130.97"/>
<polygon fill="midnightblue" stroke="midnightblue" points="2542.37,-180.53 2552.37,-177.03 2542.37,-173.53 2542.37,-180.53"/>
</g>
<!-- Node9 -->
<g id="node8" class="node">
<title>Node9</title>
<g id="a_node8"><a xlink:href="_a_b_l_forcing_8cpp.html" target="_top" xlink:title=" ">
<polygon fill="white" stroke="black" points="384,-112.5 384,-131.5 475,-131.5 475,-112.5 384,-112.5"/>
<text text-anchor="middle" x="429.5" y="-119.5" font-family="Helvetica,sans-Serif" font-size="10.00">ABLForcing.cpp</text>
</a>
</g>
</g>
<!-- Node2&#45;&gt;Node9 -->
<g id="edge7" class="edge">
<title>Node2&#45;&gt;Node9</title>
<path fill="none" stroke="midnightblue" d="M2541.89,-176.9C2279.17,-176.19 904.43,-170.66 484.5,-132 481.42,-131.72 478.25,-131.36 475.06,-130.96"/>
<polygon fill="midnightblue" stroke="midnightblue" points="2542.16,-180.4 2552.17,-176.93 2542.18,-173.4 2542.16,-180.4"/>
</g>
<!-- Node10 -->
<g id="node9" class="node">
<title>Node10</title>
<g id="a_node9"><a xlink:href="_a_b_l_mean_boussinesq_8cpp.html" target="_top" xlink:title=" ">
<polygon fill="white" stroke="black" points="493.5,-112.5 493.5,-131.5 631.5,-131.5 631.5,-112.5 493.5,-112.5"/>
<text text-anchor="middle" x="562.5" y="-119.5" font-family="Helvetica,sans-Serif" font-size="10.00">ABLMeanBoussinesq.cpp</text>
</a>
</g>
</g>
<!-- Node2&#45;&gt;Node10 -->
<g id="edge8" class="edge">
<title>Node2&#45;&gt;Node10</title>
<path fill="none" stroke="midnightblue" d="M2542.01,-176.54C2291.32,-173.79 1028.33,-158.8 640.5,-132 637.64,-131.8 634.73,-131.58 631.79,-131.33"/>
<polygon fill="midnightblue" stroke="midnightblue" points="2542.15,-180.04 2552.18,-176.65 2542.22,-173.04 2542.15,-180.04"/>
</g>
<!-- Node11 -->
<g id="node10" class="node">
<title>Node11</title>
<g id="a_node10"><a xlink:href="_a_b_l_meso_forcing_mom_8cpp.html" target="_top" xlink:title=" ">
<polygon fill="white" stroke="black" points="649.5,-112.5 649.5,-131.5 791.5,-131.5 791.5,-112.5 649.5,-112.5"/>
<text text-anchor="middle" x="720.5" y="-119.5" font-family="Helvetica,sans-Serif" font-size="10.00">ABLMesoForcingMom.cpp</text>
</a>
</g>
</g>
<!-- Node2&#45;&gt;Node11 -->
<g id="edge9" class="edge">
<title>Node2&#45;&gt;Node11</title>
<path fill="none" stroke="midnightblue" d="M2542.24,-177.29C2343.06,-178.35 1494.37,-179.69 800.5,-132 797.57,-131.8 794.59,-131.57 791.57,-131.32"/>
<polygon fill="midnightblue" stroke="midnightblue" points="2542.32,-180.79 2552.3,-177.24 2542.28,-173.79 2542.32,-180.79"/>
</g>
<!-- Node12 -->
<g id="node11" class="node">
<title>Node12</title>
<g id="a_node11"><a xlink:href="_actuator_forcing_8cpp.html" target="_top" xlink:title=" ">
<polygon fill="white" stroke="black" points="810,-112.5 810,-131.5 923,-131.5 923,-112.5 810,-112.5"/>
<text text-anchor="middle" x="866.5" y="-119.5" font-family="Helvetica,sans-Serif" font-size="10.00">ActuatorForcing.cpp</text>
</a>
</g>
</g>
<!-- Node2&#45;&gt;Node12 -->
<g id="edge10" class="edge">
<title>Node2&#45;&gt;Node12</title>
<path fill="none" stroke="midnightblue" d="M2542.23,-176.46C2315.09,-173.51 1258.7,-158.6 932.5,-132 929.5,-131.76 926.43,-131.47 923.34,-131.15"/>
<polygon fill="midnightblue" stroke="midnightblue" points="2542.36,-179.96 2552.41,-176.59 2542.45,-172.96 2542.36,-179.96"/>
</g>
<!-- Node13 -->
<g id="node12" class="node">
<title>Node13</title>
<g id="a_node12"><a xlink:href="icns_2source__terms_2_body_force_8cpp.html" target="_top" xlink:title=" ">
<polygon fill="white" stroke="black" points="941.5,-112.5 941.5,-131.5 1029.5,-131.5 1029.5,-112.5 941.5,-112.5"/>
<text text-anchor="middle" x="985.5" y="-119.5" font-family="Helvetica,sans-Serif" font-size="10.00">BodyForce.cpp</text>
</a>
</g>
</g>
<!-- Node2&#45;&gt;Node13 -->
<g id="edge11" class="edge">
<title>Node2&#45;&gt;Node13</title>
<path fill="none" stroke="midnightblue" d="M2542.22,-176.56C2323.89,-174.19 1342.02,-162.04 1038.5,-132 1035.62,-131.72 1032.66,-131.37 1029.68,-130.98"/>
<polygon fill="midnightblue" stroke="midnightblue" points="2542.29,-180.06 2552.32,-176.66 2542.36,-173.06 2542.29,-180.06"/>
</g>
<!-- Node14 -->
<g id="node13" class="node">
<title>Node14</title>
<g id="a_node13"><a xlink:href="_boussinesq_buoyancy_8cpp.html" target="_top" xlink:title=" ">
<polygon fill="white" stroke="black" points="1048,-112.5 1048,-131.5 1187,-131.5 1187,-112.5 1048,-112.5"/>
<text text-anchor="middle" x="1117.5" y="-119.5" font-family="Helvetica,sans-Serif" font-size="10.00">BoussinesqBuoyancy.cpp</text>
</a>
</g>
</g>
<!-- Node2&#45;&gt;Node14 -->
<g id="edge12" class="edge">
<title>Node2&#45;&gt;Node14</title>
<path fill="none" stroke="midnightblue" d="M2542.15,-176.76C2371.4,-175.57 1728.86,-168.77 1201.5,-132 1196.82,-131.67 1191.99,-131.29 1187.14,-130.86"/>
<polygon fill="midnightblue" stroke="midnightblue" points="2542.23,-180.26 2552.25,-176.83 2542.27,-173.26 2542.23,-180.26"/>
</g>
<!-- Node15 -->
<g id="node14" class="node">
<title>Node15</title>
<g id="a_node14"><a xlink:href="_burggraf_flow_forcing_8cpp.html" target="_top" xlink:title=" ">
<polygon fill="white" stroke="black" points="2946,-56.5 2946,-75.5 3083,-75.5 3083,-56.5 2946,-56.5"/>
<text text-anchor="middle" x="3014.5" y="-63.5" font-family="Helvetica,sans-Serif" font-size="10.00">BurggrafFlowForcing.cpp</text>
</a>
</g>
</g>
<!-- Node2&#45;&gt;Node15 -->
<g id="edge13" class="edge">
<title>Node2&#45;&gt;Node15</title>
<path fill="none" stroke="midnightblue" d="M2542.38,-174.58C2479.67,-169.56 2374.91,-154.68 2414.5,-112 2450,-73.74 2795.82,-67.79 2945.75,-67.02"/>
<polygon fill="midnightblue" stroke="midnightblue" points="2542.19,-178.07 2552.43,-175.32 2542.71,-171.09 2542.19,-178.07"/>
</g>
<!-- Node16 -->
<g id="node15" class="node">
<title>Node16</title>
<g id="a_node15"><a xlink:href="_coriolis_forcing_8cpp.html" target="_top" xlink:title=" ">
<polygon fill="white" stroke="black" points="1244,-112.5 1244,-131.5 1353,-131.5 1353,-112.5 1244,-112.5"/>
<text text-anchor="middle" x="1298.5" y="-119.5" font-family="Helvetica,sans-Serif" font-size="10.00">CoriolisForcing.cpp</text>
</a>
</g>
</g>
<!-- Node2&#45;&gt;Node16 -->
<g id="edge14" class="edge">
<title>Node2&#45;&gt;Node16</title>
<path fill="none" stroke="midnightblue" d="M2542.04,-177.05C2383.6,-176.89 1822.16,-173.26 1361.5,-132 1358.75,-131.75 1355.93,-131.47 1353.09,-131.16"/>
<polygon fill="midnightblue" stroke="midnightblue" points="2542.31,-180.55 2552.31,-177.06 2542.32,-173.55 2542.31,-180.55"/>
</g>
<!-- Node17 -->
<g id="node16" class="node">
<title>Node17</title>
<g id="a_node16"><a xlink:href="_density_buoyancy_8cpp.html" target="_top" xlink:title=" ">
<polygon fill="white" stroke="black" points="1371,-112.5 1371,-131.5 1492,-131.5 1492,-112.5 1371,-112.5"/>
<text text-anchor="middle" x="1431.5" y="-119.5" font-family="Helvetica,sans-Serif" font-size="10.00">DensityBuoyancy.cpp</text>
</a>
</g>
</g>
<!-- Node2&#45;&gt;Node17 -->
<g id="edge15" class="edge">
<title>Node2&#45;&gt;Node17</title>
<path fill="none" stroke="midnightblue" d="M2541.74,-176.57C2394.57,-174.83 1904.12,-166.62 1500.5,-132 1497.73,-131.76 1494.9,-131.5 1492.05,-131.2"/>
<polygon fill="midnightblue" stroke="midnightblue" points="2542.1,-180.07 2552.14,-176.69 2542.18,-173.07 2542.1,-180.07"/>
</g>
<!-- Node18 -->
<g id="node17" class="node">
<title>Node18</title>
<g id="a_node17"><a xlink:href="_geostrophic_forcing_8cpp.html" target="_top" xlink:title=" ">
<polygon fill="white" stroke="black" points="1510,-112.5 1510,-131.5 1641,-131.5 1641,-112.5 1510,-112.5"/>
<text text-anchor="middle" x="1575.5" y="-119.5" font-family="Helvetica,sans-Serif" font-size="10.00">GeostrophicForcing.cpp</text>
</a>
</g>
</g>
<!-- Node2&#45;&gt;Node18 -->
<g id="edge16" class="edge">
<title>Node2&#45;&gt;Node18</title>
<path fill="none" stroke="midnightblue" d="M2542.12,-176.01C2408.81,-172.74 1993.44,-160.79 1650.5,-132 1647.49,-131.75 1644.42,-131.47 1641.32,-131.17"/>
<polygon fill="midnightblue" stroke="midnightblue" points="2542.24,-179.52 2552.32,-176.26 2542.41,-172.52 2542.24,-179.52"/>
</g>
<!-- Node19 -->
<g id="node18" class="node">
<title>Node19</title>
<g id="a_node18"><a xlink:href="_gravity_forcing_8cpp.html" target="_top" xlink:title=" ">
<polygon fill="white" stroke="black" points="1659.5,-112.5 1659.5,-131.5 1767.5,-131.5 1767.5,-112.5 1659.5,-112.5"/>
<text text-anchor="middle" x="1713.5" y="-119.5" font-family="Helvetica,sans-Serif" font-size="10.00">GravityForcing.cpp</text>
</a>
</g>
</g>
<!-- Node2&#45;&gt;Node19 -->
<g id="edge17" class="edge">
<title>Node2&#45;&gt;Node19</title>
<path fill="none" stroke="midnightblue" d="M2541.93,-175.9C2420.48,-172.55 2067.97,-160.87 1776.5,-132 1773.64,-131.72 1770.71,-131.4 1767.76,-131.05"/>
<polygon fill="midnightblue" stroke="midnightblue" points="2542.19,-179.41 2552.29,-176.18 2542.38,-172.41 2542.19,-179.41"/>
</g>
<!-- Node20 -->
<g id="node19" class="node">
<title>Node20</title>
<g id="a_node19"><a xlink:href="_hurricane_forcing_8cpp.html" target="_top" xlink:title=" ">
<polygon fill="white" stroke="black" points="1786,-112.5 1786,-131.5 1905,-131.5 1905,-112.5 1786,-112.5"/>
<text text-anchor="middle" x="1845.5" y="-119.5" font-family="Helvetica,sans-Serif" font-size="10.00">HurricaneForcing.cpp</text>
</a>
</g>
</g>
<!-- Node2&#45;&gt;Node20 -->
<g id="edge18" class="edge">
<title>Node2&#45;&gt;Node20</title>
<path fill="none" stroke="midnightblue" d="M2542.21,-175.04C2435.41,-170 2150.92,-155.32 1914.5,-132 1911.49,-131.7 1908.42,-131.38 1905.31,-131.04"/>
<polygon fill="midnightblue" stroke="midnightblue" points="2542.12,-178.54 2552.28,-175.51 2542.45,-171.55 2542.12,-178.54"/>
</g>
<!-- Node21 -->
<g id="node20" class="node">
<title>Node21</title>
<g id="a_node20"><a xlink:href="_rayleigh_damping_8cpp.html" target="_top" xlink:title=" ">
<polygon fill="white" stroke="black" points="1923.5,-112.5 1923.5,-131.5 2047.5,-131.5 2047.5,-112.5 1923.5,-112.5"/>
<text text-anchor="middle" x="1985.5" y="-119.5" font-family="Helvetica,sans-Serif" font-size="10.00">RayleighDamping.cpp</text>
</a>
</g>
</g>
<!-- Node2&#45;&gt;Node21 -->
<g id="edge19" class="edge">
<title>Node2&#45;&gt;Node21</title>
<path fill="none" stroke="midnightblue" d="M2542.2,-173.92C2451.83,-167.37 2236.58,-151.07 2056.5,-132 2053.66,-131.7 2050.75,-131.38 2047.82,-131.05"/>
<polygon fill="midnightblue" stroke="midnightblue" points="2542.11,-177.43 2552.34,-174.66 2542.62,-170.45 2542.11,-177.43"/>
</g>
<!-- Node22 -->
<g id="node21" class="node">
<title>Node22</title>
<g id="a_node21"><a xlink:href="_synth_turb_forcing_8cpp.html" target="_top" xlink:title=" ">
<polygon fill="white" stroke="black" points="2065.5,-112.5 2065.5,-131.5 2185.5,-131.5 2185.5,-112.5 2065.5,-112.5"/>
<text text-anchor="middle" x="2125.5" y="-119.5" font-family="Helvetica,sans-Serif" font-size="10.00">SynthTurbForcing.cpp</text>
</a>
</g>
</g>
<!-- Node2&#45;&gt;Node22 -->
<g id="edge20" class="edge">
<title>Node2&#45;&gt;Node22</title>
<path fill="none" stroke="midnightblue" d="M2542.19,-172.23C2470.05,-164.24 2320.71,-147.49 2194.5,-132 2191.62,-131.65 2188.68,-131.28 2185.7,-130.91"/>
<polygon fill="midnightblue" stroke="midnightblue" points="2541.94,-175.73 2552.27,-173.35 2542.71,-168.77 2541.94,-175.73"/>
</g>
<!-- Node23 -->
<g id="node22" class="node">
<title>Node23</title>
<g id="a_node22"><a xlink:href="_p_d_e_8_h.html" target="_top" xlink:title=" ">
<polygon fill="white" stroke="red" points="1702,-56.5 1702,-75.5 1749,-75.5 1749,-56.5 1702,-56.5"/>
<text text-anchor="middle" x="1725.5" y="-63.5" font-family="Helvetica,sans-Serif" font-size="10.00">PDE.H</text>
</a>
</g>
</g>
<!-- Node2&#45;&gt;Node23 -->
<g id="edge21" class="edge">
<title>Node2&#45;&gt;Node23</title>
<path fill="none" stroke="midnightblue" d="M2542.24,-177.23C2316.36,-178.21 1281,-180.08 1234.5,-132 1167.4,-62.62 1595.59,-64.94 1701.98,-66.56"/>
<polygon fill="midnightblue" stroke="midnightblue" points="2542.39,-180.73 2552.37,-177.18 2542.36,-173.73 2542.39,-180.73"/>
</g>
<!-- Node57 -->
<g id="node23" class="node">
<title>Node57</title>
<g id="a_node23"><a xlink:href="_p_d_e_base_8cpp.html" target="_top" xlink:title=" ">
<polygon fill="white" stroke="black" points="2287.5,-112.5 2287.5,-131.5 2367.5,-131.5 2367.5,-112.5 2287.5,-112.5"/>
<text text-anchor="middle" x="2327.5" y="-119.5" font-family="Helvetica,sans-Serif" font-size="10.00">PDEBase.cpp</text>
</a>
</g>
</g>
<!-- Node2&#45;&gt;Node57 -->
<g id="edge22" class="edge">
<title>Node2&#45;&gt;Node57</title>
<path fill="none" stroke="midnightblue" d="M2542.39,-167.98C2493.75,-157.8 2415.23,-141.36 2367.78,-131.43"/>
<polygon fill="midnightblue" stroke="midnightblue" points="2541.79,-171.43 2552.3,-170.05 2543.23,-164.58 2541.79,-171.43"/>
</g>
<!-- Node58 -->
<g id="node24" class="node">
<title>Node58</title>
<g id="a_node24"><a xlink:href="_p_d_e_ops_8_h.html" target="_top" xlink:title=" ">
<polygon fill="white" stroke="red" points="2204,-112.5 2204,-131.5 2269,-131.5 2269,-112.5 2204,-112.5"/>
<text text-anchor="middle" x="2236.5" y="-119.5" font-family="Helvetica,sans-Serif" font-size="10.00">PDEOps.H</text>
</a>
</g>
</g>
<!-- Node2&#45;&gt;Node58 -->
<g id="edge23" class="edge">
<title>Node2&#45;&gt;Node58</title>
<path fill="none" stroke="midnightblue" d="M2542.05,-171.54C2482.43,-163.85 2372.02,-148.86 2278.5,-132 2275.42,-131.44 2272.22,-130.83 2269.02,-130.19"/>
<polygon fill="midnightblue" stroke="midnightblue" points="2541.86,-175.05 2552.22,-172.85 2542.75,-168.1 2541.86,-175.05"/>
</g>
<!-- Node68 -->
<g id="node25" class="node">
<title>Node68</title>
<g id="a_node25"><a xlink:href="_s_d_r_src_8cpp.html" target="_top" xlink:title=" ">
<polygon fill="white" stroke="black" points="2423.5,-112.5 2423.5,-131.5 2495.5,-131.5 2495.5,-112.5 2423.5,-112.5"/>
<text text-anchor="middle" x="2459.5" y="-119.5" font-family="Helvetica,sans-Serif" font-size="10.00">SDRSrc.cpp</text>
</a>
</g>
</g>
<!-- Node2&#45;&gt;Node68 -->
<g id="edge25" class="edge">
<title>Node2&#45;&gt;Node68</title>
<path fill="none" stroke="midnightblue" d="M2556.34,-164.5C2532.72,-154.38 2500.07,-140.39 2479.37,-131.52"/>
<polygon fill="midnightblue" stroke="midnightblue" points="2554.96,-167.72 2565.53,-168.44 2557.72,-161.29 2554.96,-167.72"/>
</g>
<!-- Node69 -->
<g id="node26" class="node">
<title>Node69</title>
<g id="a_node26"><a xlink:href="_a_b_l_meso_forcing_temp_8cpp.html" target="_top" xlink:title=" ">
<polygon fill="white" stroke="black" points="2514,-112.5 2514,-131.5 2657,-131.5 2657,-112.5 2514,-112.5"/>
<text text-anchor="middle" x="2585.5" y="-119.5" font-family="Helvetica,sans-Serif" font-size="10.00">ABLMesoForcingTemp.cpp</text>
</a>
</g>
</g>
<!-- Node2&#45;&gt;Node69 -->
<g id="edge26" class="edge">
<title>Node2&#45;&gt;Node69</title>
<path fill="none" stroke="midnightblue" d="M2585.5,-157.8C2585.5,-148.91 2585.5,-138.78 2585.5,-131.75"/>
<polygon fill="midnightblue" stroke="midnightblue" points="2582,-158.08 2585.5,-168.08 2589,-158.08 2582,-158.08"/>
</g>
<!-- Node70 -->
<g id="node27" class="node">
<title>Node70</title>
<g id="a_node27"><a xlink:href="temperature_2source__terms_2_body_force_8cpp.html" target="_top" xlink:title=" ">
<polygon fill="white" stroke="black" points="2675.5,-112.5 2675.5,-131.5 2763.5,-131.5 2763.5,-112.5 2675.5,-112.5"/>
<text text-anchor="middle" x="2719.5" y="-119.5" font-family="Helvetica,sans-Serif" font-size="10.00">BodyForce.cpp</text>
</a>
</g>
</g>
<!-- Node2&#45;&gt;Node70 -->
<g id="edge27" class="edge">
<title>Node2&#45;&gt;Node70</title>
<path fill="none" stroke="midnightblue" d="M2616.18,-164.64C2641.32,-154.5 2676.25,-140.43 2698.37,-131.52"/>
<polygon fill="midnightblue" stroke="midnightblue" points="2614.7,-161.46 2606.73,-168.44 2617.32,-167.95 2614.7,-161.46"/>
</g>
<!-- Node71 -->
<g id="node28" class="node">
<title>Node71</title>
<g id="a_node28"><a xlink:href="_ksgs_m84_src_8cpp.html" target="_top" xlink:title=" ">
<polygon fill="white" stroke="black" points="2781.5,-112.5 2781.5,-131.5 2877.5,-131.5 2877.5,-112.5 2781.5,-112.5"/>
<text text-anchor="middle" x="2829.5" y="-119.5" font-family="Helvetica,sans-Serif" font-size="10.00">KsgsM84Src.cpp</text>
</a>
</g>
</g>
<!-- Node2&#45;&gt;Node71 -->
<g id="edge28" class="edge">
<title>Node2&#45;&gt;Node71</title>
<path fill="none" stroke="midnightblue" d="M2628.61,-167.46C2674.54,-157.29 2746.59,-141.35 2790.77,-131.57"/>
<polygon fill="midnightblue" stroke="midnightblue" points="2627.67,-164.08 2618.66,-169.66 2629.18,-170.92 2627.67,-164.08"/>
</g>
<!-- Node72 -->
<g id="node29" class="node">
<title>Node72</title>
<g id="a_node29"><a xlink:href="_kw_s_s_t_src_8cpp.html" target="_top" xlink:title=" ">
<polygon fill="white" stroke="black" points="2896,-112.5 2896,-131.5 2981,-131.5 2981,-112.5 2896,-112.5"/>
<text text-anchor="middle" x="2938.5" y="-119.5" font-family="Helvetica,sans-Serif" font-size="10.00">KwSSTSrc.cpp</text>
</a>
</g>
</g>
<!-- Node2&#45;&gt;Node72 -->
<g id="edge29" class="edge">
<title>Node2&#45;&gt;Node72</title>
<path fill="none" stroke="midnightblue" d="M2628.81,-167.87C2743.64,-147.91 2774.81,-149.42 2886.5,-132 2889.58,-131.52 2892.76,-131.01 2895.95,-130.48"/>
<polygon fill="midnightblue" stroke="midnightblue" points="2628.17,-164.43 2618.93,-169.61 2629.38,-171.33 2628.17,-164.43"/>
</g>
<!-- Node73 -->
<g id="node30" class="node">
<title>Node73</title>
<g id="a_node30"><a xlink:href="_i_b_8cpp.html" target="_top" xlink:title=" ">
<polygon fill="white" stroke="black" points="2999,-112.5 2999,-131.5 3046,-131.5 3046,-112.5 2999,-112.5"/>
<text text-anchor="middle" x="3022.5" y="-119.5" font-family="Helvetica,sans-Serif" font-size="10.00">IB.cpp</text>
</a>
</g>
</g>
<!-- Node2&#45;&gt;Node73 -->
<g id="edge31" class="edge">
<title>Node2&#45;&gt;Node73</title>
<path fill="none" stroke="midnightblue" d="M2629.11,-167.92C2789.06,-143.75 2833.77,-160.77 2989.5,-132 2992.54,-131.44 2995.7,-130.73 2998.82,-129.97"/>
<polygon fill="midnightblue" stroke="midnightblue" points="2628.26,-164.51 2618.91,-169.49 2629.32,-171.42 2628.26,-164.51"/>
</g>
<!-- Node74 -->
<g id="node31" class="node">
<title>Node74</title>
<g id="a_node31"><a xlink:href="_i_b_ops_8_h.html" target="_top" xlink:title=" ">
<polygon fill="white" stroke="red" points="3064.5,-112.5 3064.5,-131.5 3120.5,-131.5 3120.5,-112.5 3064.5,-112.5"/>
<text text-anchor="middle" x="3092.5" y="-119.5" font-family="Helvetica,sans-Serif" font-size="10.00">IBOps.H</text>
</a>
</g>
</g>
<!-- Node2&#45;&gt;Node74 -->
<g id="edge32" class="edge">
<title>Node2&#45;&gt;Node74</title>
<path fill="none" stroke="midnightblue" d="M2628.87,-167.98C2817.65,-140.73 2869.65,-161.52 3054.5,-132 3057.71,-131.49 3061.06,-130.85 3064.37,-130.15"/>
<polygon fill="midnightblue" stroke="midnightblue" points="2628.29,-164.53 2618.9,-169.44 2629.3,-171.45 2628.29,-164.53"/>
</g>
<!-- Node84 -->
<g id="node32" class="node">
<title>Node84</title>
<g id="a_node32"><a xlink:href="incflo_8_h.html" target="_top" xlink:title=" ">
<polygon fill="white" stroke="red" points="3139,-112.5 3139,-131.5 3192,-131.5 3192,-112.5 3139,-112.5"/>
<text text-anchor="middle" x="3165.5" y="-119.5" font-family="Helvetica,sans-Serif" font-size="10.00">incflo.H</text>
</a>
</g>
</g>
<!-- Node2&#45;&gt;Node84 -->
<g id="edge33" class="edge">
<title>Node2&#45;&gt;Node84</title>
<path fill="none" stroke="midnightblue" d="M2628.9,-168C2850.74,-137.38 2911.85,-166.74 3129.5,-132 3132.55,-131.51 3135.73,-130.89 3138.87,-130.2"/>
<polygon fill="midnightblue" stroke="midnightblue" points="2628.31,-164.55 2618.9,-169.4 2629.29,-171.48 2628.31,-164.55"/>
</g>
<!-- Node112 -->
<g id="node33" class="node">
<title>Node112</title>
<g id="a_node33"><a xlink:href="_ocean_waves_8cpp.html" target="_top" xlink:title=" ">
<polygon fill="white" stroke="black" points="3210.5,-112.5 3210.5,-131.5 3310.5,-131.5 3310.5,-112.5 3210.5,-112.5"/>
<text text-anchor="middle" x="3260.5" y="-119.5" font-family="Helvetica,sans-Serif" font-size="10.00">OceanWaves.cpp</text>
</a>
</g>
</g>
<!-- Node2&#45;&gt;Node112 -->
<g id="edge34" class="edge">
<title>Node2&#45;&gt;Node112</title>
<path fill="none" stroke="midnightblue" d="M2629.13,-167.98C2882.07,-133.84 2950.1,-158.6 3200.5,-132 3203.75,-131.66 3207.09,-131.26 3210.45,-130.84"/>
<polygon fill="midnightblue" stroke="midnightblue" points="2628.33,-164.55 2618.89,-169.38 2629.27,-171.49 2628.33,-164.55"/>
</g>
<!-- Node113 -->
<g id="node34" class="node">
<title>Node113</title>
<g id="a_node34"><a xlink:href="_ocean_waves_ops_8_h.html" target="_top" xlink:title=" ">
<polygon fill="white" stroke="red" points="3329,-112.5 3329,-131.5 3438,-131.5 3438,-112.5 3329,-112.5"/>
<text text-anchor="middle" x="3383.5" y="-119.5" font-family="Helvetica,sans-Serif" font-size="10.00">OceanWavesOps.H</text>
</a>
</g>
</g>
<!-- Node2&#45;&gt;Node113 -->
<g id="edge35" class="edge">
<title>Node2&#45;&gt;Node113</title>
<path fill="none" stroke="midnightblue" d="M2628.92,-168.03C2934.56,-128.33 3016.24,-161.16 3319.5,-132 3322.52,-131.71 3325.61,-131.38 3328.72,-131.02"/>
<polygon fill="midnightblue" stroke="midnightblue" points="2628.35,-164.57 2618.89,-169.34 2629.26,-171.51 2628.35,-164.57"/>
</g>
<!-- Node121 -->
<g id="node35" class="node">
<title>Node121</title>
<g id="a_node35"><a xlink:href="_tioga_interface_8cpp.html" target="_top" xlink:title=" ">
<polygon fill="white" stroke="black" points="3456,-112.5 3456,-131.5 3563,-131.5 3563,-112.5 3456,-112.5"/>
<text text-anchor="middle" x="3509.5" y="-119.5" font-family="Helvetica,sans-Serif" font-size="10.00">TiogaInterface.cpp</text>
</a>
</g>
</g>
<!-- Node2&#45;&gt;Node121 -->
<g id="edge36" class="edge">
<title>Node2&#45;&gt;Node121</title>
<path fill="none" stroke="midnightblue" d="M2628.84,-168.05C2990.63,-122.46 3087,-165.5 3446.5,-132 3449.58,-131.71 3452.74,-131.38 3455.93,-131.02"/>
<polygon fill="midnightblue" stroke="midnightblue" points="2628.36,-164.58 2618.88,-169.32 2629.25,-171.53 2628.36,-164.58"/>
</g>
<!-- Node122 -->
<g id="node36" class="node">
<title>Node122</title>
<g id="a_node36"><a xlink:href="_boussinesq_bubble_8cpp.html" target="_top" xlink:title=" ">
<polygon fill="white" stroke="black" points="3581.5,-112.5 3581.5,-131.5 3707.5,-131.5 3707.5,-112.5 3581.5,-112.5"/>
<text text-anchor="middle" x="3644.5" y="-119.5" font-family="Helvetica,sans-Serif" font-size="10.00">BoussinesqBubble.cpp</text>
</a>
</g>
</g>
<!-- Node2&#45;&gt;Node122 -->
<g id="edge37" class="edge">
<title>Node2&#45;&gt;Node122</title>
<path fill="none" stroke="midnightblue" d="M2629.1,-168.03C3045.88,-116.62 3156.37,-165.45 3571.5,-132 3574.68,-131.74 3577.94,-131.45 3581.23,-131.13"/>
<polygon fill="midnightblue" stroke="midnightblue" points="2628.37,-164.59 2618.88,-169.3 2629.24,-171.54 2628.37,-164.59"/>
</g>
<!-- Node123 -->
<g id="node37" class="node">
<title>Node123</title>
<g id="a_node37"><a xlink:href="_burggraf_flow_8cpp.html" target="_top" xlink:title=" ">
<polygon fill="white" stroke="black" points="3735,-56.5 3735,-75.5 3836,-75.5 3836,-56.5 3735,-56.5"/>
<text text-anchor="middle" x="3785.5" y="-63.5" font-family="Helvetica,sans-Serif" font-size="10.00">BurggrafFlow.cpp</text>
</a>
</g>
</g>
<!-- Node2&#45;&gt;Node123 -->
<g id="edge38" class="edge">
<title>Node2&#45;&gt;Node123</title>
<path fill="none" stroke="midnightblue" d="M2629.19,-168.47C2762.6,-161.19 3781.59,-178.28 3826.5,-132 3843.5,-114.48 3815.25,-88.79 3797.75,-75.57"/>
<polygon fill="midnightblue" stroke="midnightblue" points="2628.57,-165 2618.88,-169.28 2629.12,-171.98 2628.57,-165"/>
</g>
<!-- Node124 -->
<g id="node38" class="node">
<title>Node124</title>
<g id="a_node38"><a xlink:href="_burggraf_flow_8_h.html" target="_top" xlink:title=" ">
<polygon fill="white" stroke="black" points="3725.5,-112.5 3725.5,-131.5 3817.5,-131.5 3817.5,-112.5 3725.5,-112.5"/>
<text text-anchor="middle" x="3771.5" y="-119.5" font-family="Helvetica,sans-Serif" font-size="10.00">BurggrafFlow.H</text>
</a>
</g>
</g>
<!-- Node2&#45;&gt;Node124 -->
<g id="edge39" class="edge">
<title>Node2&#45;&gt;Node124</title>
<path fill="none" stroke="midnightblue" d="M2628.86,-168.07C3109.91,-109.99 3237.84,-178.88 3716.5,-132 3719.39,-131.72 3722.36,-131.38 3725.34,-131"/>
<polygon fill="midnightblue" stroke="midnightblue" points="2628.38,-164.6 2618.88,-169.29 2629.23,-171.55 2628.38,-164.6"/>
</g>
<!-- Node125 -->
<g id="node39" class="node">
<title>Node125</title>
<g id="a_node39"><a xlink:href="_convecting_taylor_vortex_8cpp.html" target="_top" xlink:title=" ">
<polygon fill="white" stroke="black" points="3884.5,-56.5 3884.5,-75.5 4036.5,-75.5 4036.5,-56.5 3884.5,-56.5"/>
<text text-anchor="middle" x="3960.5" y="-63.5" font-family="Helvetica,sans-Serif" font-size="10.00">ConvectingTaylorVortex.cpp</text>
</a>
</g>
</g>
<!-- Node2&#45;&gt;Node125 -->
<g id="edge44" class="edge">
<title>Node2&#45;&gt;Node125</title>
<path fill="none" stroke="midnightblue" d="M2628.95,-168.47C2775.42,-160.39 3972.81,-186.06 4025.5,-132 4045.44,-111.54 4005.71,-87.91 3980.02,-75.55"/>
<polygon fill="midnightblue" stroke="midnightblue" points="2628.57,-164.99 2618.88,-169.26 2629.12,-171.97 2628.57,-164.99"/>
</g>
<!-- Node126 -->
<g id="node40" class="node">
<title>Node126</title>
<g id="a_node40"><a xlink:href="_convecting_taylor_vortex_8_h.html" target="_top" xlink:title=" ">
<polygon fill="white" stroke="red" points="3874,-112.5 3874,-131.5 4017,-131.5 4017,-112.5 3874,-112.5"/>
<text text-anchor="middle" x="3945.5" y="-119.5" font-family="Helvetica,sans-Serif" font-size="10.00">ConvectingTaylorVortex.H</text>
</a>
</g>
</g>
<!-- Node2&#45;&gt;Node126 -->
<g id="edge45" class="edge">
<title>Node2&#45;&gt;Node126</title>
<path fill="none" stroke="midnightblue" d="M2628.95,-168.06C3173.08,-103.14 3316.27,-168.31 3859.5,-132 3864.14,-131.69 3868.92,-131.32 3873.74,-130.92"/>
<polygon fill="midnightblue" stroke="midnightblue" points="2628.39,-164.61 2618.88,-169.27 2629.22,-171.56 2628.39,-164.61"/>
</g>
<!-- Node127 -->
<g id="node41" class="node">
<title>Node127</title>
<g id="a_node41"><a xlink:href="_ekman_spiral_8cpp.html" target="_top" xlink:title=" ">
<polygon fill="white" stroke="black" points="4105.5,-56.5 4105.5,-75.5 4203.5,-75.5 4203.5,-56.5 4105.5,-56.5"/>
<text text-anchor="middle" x="4154.5" y="-63.5" font-family="Helvetica,sans-Serif" font-size="10.00">EkmanSpiral.cpp</text>
</a>
</g>
</g>
<!-- Node2&#45;&gt;Node127 -->
<g id="edge47" class="edge">
<title>Node2&#45;&gt;Node127</title>
<path fill="none" stroke="midnightblue" d="M2628.99,-168.63C2769.01,-162.93 4142.55,-161.64 4171.5,-132 4186.5,-116.65 4171.15,-89.79 4161.34,-75.89"/>
<polygon fill="midnightblue" stroke="midnightblue" points="2628.64,-165.15 2618.88,-169.26 2629.07,-172.13 2628.64,-165.15"/>
</g>
<!-- Node128 -->
<g id="node42" class="node">
<title>Node128</title>
<g id="a_node42"><a xlink:href="_ekman_spiral_8_h.html" target="_top" xlink:title=" ">
<polygon fill="white" stroke="black" points="4074,-112.5 4074,-131.5 4163,-131.5 4163,-112.5 4074,-112.5"/>
<text text-anchor="middle" x="4118.5" y="-119.5" font-family="Helvetica,sans-Serif" font-size="10.00">EkmanSpiral.H</text>
</a>
</g>
</g>
<!-- Node2&#45;&gt;Node128 -->
<g id="edge48" class="edge">
<title>Node2&#45;&gt;Node128</title>
<path fill="none" stroke="midnightblue" d="M2629.16,-168.05C3261.5,-94 3428.74,-187.81 4059.5,-132 4064.14,-131.59 4068.98,-131.04 4073.79,-130.43"/>
<polygon fill="midnightblue" stroke="midnightblue" points="2628.4,-164.61 2618.88,-169.26 2629.22,-171.57 2628.4,-164.61"/>
</g>
<!-- Node129 -->
<g id="node43" class="node">
<title>Node129</title>
<g id="a_node43"><a xlink:href="_free_stream_8cpp.html" target="_top" xlink:title=" ">
<polygon fill="white" stroke="black" points="4220,-112.5 4220,-131.5 4313,-131.5 4313,-112.5 4220,-112.5"/>
<text text-anchor="middle" x="4266.5" y="-119.5" font-family="Helvetica,sans-Serif" font-size="10.00">FreeStream.cpp</text>
</a>
</g>
</g>
<!-- Node2&#45;&gt;Node129 -->
<g id="edge50" class="edge">
<title>Node2&#45;&gt;Node129</title>
<path fill="none" stroke="midnightblue" d="M2628.91,-168.08C3325.97,-87.14 3509.82,-191.03 4205.5,-132 4210.19,-131.6 4215.08,-131.07 4219.94,-130.47"/>
<polygon fill="midnightblue" stroke="midnightblue" points="2628.4,-164.62 2618.88,-169.26 2629.21,-171.57 2628.4,-164.62"/>
</g>
<!-- Node94 -->
<g id="node44" class="node">
<title>Node94</title>
<g id="a_node44"><a xlink:href="_hybrid_r_a_n_s_l_e_s_a_b_l_8cpp.html" target="_top" xlink:title=" ">
<polygon fill="white" stroke="black" points="4354,-56.5 4354,-75.5 4487,-75.5 4487,-56.5 4354,-56.5"/>
<text text-anchor="middle" x="4420.5" y="-63.5" font-family="Helvetica,sans-Serif" font-size="10.00">HybridRANSLESABL.cpp</text>
</a>
</g>
</g>
<!-- Node2&#45;&gt;Node94 -->
<g id="edge51" class="edge">
<title>Node2&#45;&gt;Node94</title>
<path fill="none" stroke="midnightblue" d="M2629.28,-168.62C2785.76,-162.48 4427.92,-167.26 4462.5,-132 4479.71,-114.44 4450.86,-88.77 4433,-75.56"/>
<polygon fill="midnightblue" stroke="midnightblue" points="2628.65,-165.15 2618.87,-169.25 2629.07,-172.14 2628.65,-165.15"/>
</g>
<!-- Node130 -->
<g id="node45" class="node">
<title>Node130</title>
<g id="a_node45"><a xlink:href="_hybrid_r_a_n_s_l_e_s_a_b_l_8_h.html" target="_top" xlink:title=" ">
<polygon fill="white" stroke="black" points="4331,-112.5 4331,-131.5 4454,-131.5 4454,-112.5 4331,-112.5"/>
<text text-anchor="middle" x="4392.5" y="-119.5" font-family="Helvetica,sans-Serif" font-size="10.00">HybridRANSLESABL.H</text>
</a>
</g>
</g>
<!-- Node2&#45;&gt;Node130 -->
<g id="edge52" class="edge">
<title>Node2&#45;&gt;Node130</title>
<path fill="none" stroke="midnightblue" d="M2628.82,-168.09C3377.21,-81.65 3573.78,-187.18 4321.5,-132 4324.6,-131.77 4327.77,-131.5 4330.97,-131.2"/>
<polygon fill="midnightblue" stroke="midnightblue" points="2628.4,-164.62 2618.88,-169.25 2629.21,-171.57 2628.4,-164.62"/>
</g>
<!-- Node131 -->
<g id="node46" class="node">
<title>Node131</title>
<g id="a_node46"><a xlink:href="_m_m_s_8cpp.html" target="_top" xlink:title=" ">
<polygon fill="white" stroke="black" points="4533,-56.5 4533,-75.5 4594,-75.5 4594,-56.5 4533,-56.5"/>
<text text-anchor="middle" x="4563.5" y="-63.5" font-family="Helvetica,sans-Serif" font-size="10.00">MMS.cpp</text>
</a>
</g>
</g>
<!-- Node2&#45;&gt;Node131 -->
<g id="edge54" class="edge">
<title>Node2&#45;&gt;Node131</title>
<path fill="none" stroke="midnightblue" d="M2628.87,-168.63C2788.14,-162.28 4534.77,-169.41 4571.5,-132 4586.31,-116.91 4575.38,-89.43 4568.29,-75.54"/>
<polygon fill="midnightblue" stroke="midnightblue" points="2628.64,-165.14 2618.87,-169.24 2629.07,-172.12 2628.64,-165.14"/>
</g>
<!-- Node132 -->
<g id="node47" class="node">
<title>Node132</title>
<g id="a_node47"><a xlink:href="_m_m_s_8_h.html" target="_top" xlink:title=" ">
<polygon fill="white" stroke="black" points="4511,-112.5 4511,-131.5 4562,-131.5 4562,-112.5 4511,-112.5"/>
<text text-anchor="middle" x="4536.5" y="-119.5" font-family="Helvetica,sans-Serif" font-size="10.00">MMS.H</text>
</a>
</g>
</g>
<!-- Node2&#45;&gt;Node132 -->
<g id="edge55" class="edge">
<title>Node2&#45;&gt;Node132</title>
<path fill="none" stroke="midnightblue" d="M2628.92,-168.09C3454.59,-73.8 3675.01,-231.29 4496.5,-132 4501.16,-131.44 4506.08,-130.56 4510.81,-129.58"/>
<polygon fill="midnightblue" stroke="midnightblue" points="2628.41,-164.62 2618.87,-169.24 2629.21,-171.58 2628.41,-164.62"/>
</g>
<!-- Node133 -->
<g id="node48" class="node">
<title>Node133</title>
<g id="a_node48"><a xlink:href="_m_m_s_forcing_8cpp.html" target="_top" xlink:title=" ">
<polygon fill="white" stroke="black" points="4618.5,-112.5 4618.5,-131.5 4714.5,-131.5 4714.5,-112.5 4618.5,-112.5"/>
<text text-anchor="middle" x="4666.5" y="-119.5" font-family="Helvetica,sans-Serif" font-size="10.00">MMSForcing.cpp</text>
</a>
</g>
</g>
<!-- Node2&#45;&gt;Node133 -->
<g id="edge57" class="edge">
<title>Node2&#45;&gt;Node133</title>
<path fill="none" stroke="midnightblue" d="M2629.09,-168.09C3080.67,-118.48 4169.86,-167.36 4604.5,-132 4608.94,-131.64 4613.56,-131.16 4618.17,-130.62"/>
<polygon fill="midnightblue" stroke="midnightblue" points="2628.42,-164.64 2618.87,-169.24 2629.2,-171.6 2628.42,-164.64"/>
</g>
<!-- Node134 -->
<g id="node49" class="node">
<title>Node134</title>
<g id="a_node49"><a xlink:href="_breaking_waves_8cpp.html" target="_top" xlink:title=" ">
<polygon fill="white" stroke="black" points="4733,-112.5 4733,-131.5 4846,-131.5 4846,-112.5 4733,-112.5"/>
<text text-anchor="middle" x="4789.5" y="-119.5" font-family="Helvetica,sans-Serif" font-size="10.00">BreakingWaves.cpp</text>
</a>
</g>
</g>
<!-- Node2&#45;&gt;Node134 -->
<g id="edge58" class="edge">
<title>Node2&#45;&gt;Node134</title>
<path fill="none" stroke="midnightblue" d="M2628.99,-168.1C3106.83,-115.69 4262.3,-167.28 4723.5,-132 4726.5,-131.77 4729.57,-131.5 4732.66,-131.18"/>
<polygon fill="midnightblue" stroke="midnightblue" points="2628.42,-164.64 2618.87,-169.24 2629.2,-171.6 2628.42,-164.64"/>
</g>
<!-- Node3&#45;&gt;Node5 -->
<g id="edge3" class="edge">
<title>Node3&#45;&gt;Node5</title>
<path fill="none" stroke="midnightblue" d="M112.44,-103.86C105.86,-94.5 97.99,-83.33 92.66,-75.75"/>
<polygon fill="midnightblue" stroke="midnightblue" points="109.61,-105.92 118.23,-112.08 115.33,-101.89 109.61,-105.92"/>
</g>
<!-- Node5&#45;&gt;Node6 -->
<g id="edge4" class="edge">
<title>Node5&#45;&gt;Node6</title>
<path fill="none" stroke="midnightblue" d="M74.55,-47.57C68.19,-38.27 60.63,-27.25 55.5,-19.75"/>
<polygon fill="midnightblue" stroke="midnightblue" points="71.85,-49.81 80.39,-56.08 77.63,-45.86 71.85,-49.81"/>
</g>
<!-- Node58&#45;&gt;Node23 -->
<g id="edge24" class="edge">
<title>Node58&#45;&gt;Node23</title>
<path fill="none" stroke="midnightblue" d="M2193.57,-112.03C2017.11,-85.26 1816.62,-72.21 1749.04,-68.29"/>
<polygon fill="midnightblue" stroke="midnightblue" points="2193.14,-115.51 2203.55,-113.56 2194.2,-108.59 2193.14,-115.51"/>
</g>
<!-- Node124&#45;&gt;Node15 -->
<g id="edge40" class="edge">
<title>Node124&#45;&gt;Node15</title>
<path fill="none" stroke="midnightblue" d="M3715.12,-111.95C3477.56,-85.4 3207.7,-73.58 3083.45,-69.17"/>
<polygon fill="midnightblue" stroke="midnightblue" points="3715,-115.46 3725.33,-113.11 3715.79,-108.51 3715,-115.46"/>
</g>
<!-- Node124&#45;&gt;Node123 -->
<g id="edge41" class="edge">
<title>Node124&#45;&gt;Node123</title>
<path fill="none" stroke="midnightblue" d="M3776.32,-102.4C3778.67,-93.36 3781.37,-82.94 3783.23,-75.75"/>
<polygon fill="midnightblue" stroke="midnightblue" points="3772.93,-101.52 3773.81,-112.08 3779.71,-103.28 3772.93,-101.52"/>
</g>
<!-- Node126&#45;&gt;Node125 -->
<g id="edge46" class="edge">
<title>Node126&#45;&gt;Node125</title>
<path fill="none" stroke="midnightblue" d="M3950.67,-102.4C3953.18,-93.36 3956.07,-82.94 3958.07,-75.75"/>
<polygon fill="midnightblue" stroke="midnightblue" points="3947.28,-101.51 3947.98,-112.08 3954.03,-103.38 3947.28,-101.51"/>
</g>
<!-- Node128&#45;&gt;Node127 -->
<g id="edge49" class="edge">
<title>Node128&#45;&gt;Node127</title>
<path fill="none" stroke="midnightblue" d="M4130.12,-103.57C4136.32,-94.27 4143.67,-83.25 4148.67,-75.75"/>
<polygon fill="midnightblue" stroke="midnightblue" points="4127.08,-101.82 4124.44,-112.08 4132.9,-105.7 4127.08,-101.82"/>
</g>
<!-- Node130&#45;&gt;Node94 -->
<g id="edge53" class="edge">
<title>Node130&#45;&gt;Node94</title>
<path fill="none" stroke="midnightblue" d="M4401.84,-102.98C4406.59,-93.82 4412.16,-83.09 4415.96,-75.75"/>
<polygon fill="midnightblue" stroke="midnightblue" points="4398.62,-101.59 4397.12,-112.08 4404.83,-104.82 4398.62,-101.59"/>
</g>
<!-- Node132&#45;&gt;Node131 -->
<g id="edge56" class="edge">
<title>Node132&#45;&gt;Node131</title>
<path fill="none" stroke="midnightblue" d="M4545.51,-102.98C4550.09,-93.82 4555.45,-83.09 4559.12,-75.75"/>
<polygon fill="midnightblue" stroke="midnightblue" points="4542.3,-101.57 4540.96,-112.08 4548.56,-104.7 4542.3,-101.57"/>
</g>
</g>
</svg>
