<?xml version="1.0" encoding="UTF-8" standalone="no"?>
<!DOCTYPE svg PUBLIC "-//W3C//DTD SVG 1.1//EN"
 "http://www.w3.org/Graphics/SVG/1.1/DTD/svg11.dtd">
<!-- Generated by graphviz version 2.43.0 (0)
 -->
<!-- Title: Graphical Class Hierarchy Pages: 1 -->
<svg width="375pt" height="823pt"
 viewBox="0.00 0.00 375.00 823.00" xmlns="http://www.w3.org/2000/svg" xmlns:xlink="http://www.w3.org/1999/xlink">
<g id="graph0" class="graph" transform="scale(1 1) rotate(0) translate(4 819)">
<title>Graphical Class Hierarchy</title>
<polygon fill="white" stroke="transparent" points="-4,4 -4,-819 371,-819 371,4 -4,4"/>
<!-- Node0 -->
<g id="node1" class="node">
<title>Node0</title>
<g id="a_node1"><a xlink:href="classamr__wind_1_1_a_b_l_mesoscale_forcing.html" target="_top" xlink:title=" ">
<polygon fill="white" stroke="black" points="0,-78 0,-97 176,-97 176,-78 0,-78"/>
<text text-anchor="middle" x="88" y="-85" font-family="Helvetica,sans-Serif" font-size="10.00">amr_wind::ABLMesoscaleForcing</text>
</a>
</g>
</g>
<!-- Node1 -->
<g id="node2" class="node">
<title>Node1</title>
<g id="a_node2"><a xlink:href="classamr__wind_1_1pde_1_1icns_1_1_a_b_l_meso_forcing_mom.html" target="_top" xlink:title="Forcing term for meso&#45;micro scale coupled ABL simulations.">
<polygon fill="white" stroke="black" points="225.5,-98.5 225.5,-128.5 353.5,-128.5 353.5,-98.5 225.5,-98.5"/>
<text text-anchor="start" x="233.5" y="-116.5" font-family="Helvetica,sans-Serif" font-size="10.00">amr_wind::pde::icns</text>
<text text-anchor="middle" x="289.5" y="-105.5" font-family="Helvetica,sans-Serif" font-size="10.00">::ABLMesoForcingMom</text>
</a>
</g>
</g>
<!-- Node0&#45;&gt;Node1 -->
<g id="edge1" class="edge">
<title>Node0&#45;&gt;Node1</title>
<path fill="none" stroke="midnightblue" d="M172.45,-98.38C190.1,-100.68 208.46,-103.07 225.22,-105.25"/>
<polygon fill="midnightblue" stroke="midnightblue" points="172.52,-94.86 162.15,-97.03 171.62,-101.8 172.52,-94.86"/>
</g>
<!-- Node2 -->
<g id="node3" class="node">
<title>Node2</title>
<g id="a_node3"><a xlink:href="classamr__wind_1_1pde_1_1temperature_1_1_a_b_l_meso_forcing_temp.html" target="_top" xlink:title=" ">
<polygon fill="white" stroke="black" points="212,-49.5 212,-79.5 367,-79.5 367,-49.5 212,-49.5"/>
<text text-anchor="start" x="220" y="-67.5" font-family="Helvetica,sans-Serif" font-size="10.00">amr_wind::pde::temperature</text>
<text text-anchor="middle" x="289.5" y="-56.5" font-family="Helvetica,sans-Serif" font-size="10.00">::ABLMesoForcingTemp</text>
</a>
</g>
</g>
<!-- Node0&#45;&gt;Node2 -->
<g id="edge2" class="edge">
<title>Node0&#45;&gt;Node2</title>
<path fill="none" stroke="midnightblue" d="M181.62,-76.82C191.7,-75.66 201.87,-74.49 211.74,-73.35"/>
<polygon fill="midnightblue" stroke="midnightblue" points="181.12,-73.36 171.58,-77.98 181.92,-80.31 181.12,-73.36"/>
</g>
<!-- Node345 -->
<g id="node4" class="node">
<title>Node345</title>
<g id="a_node4"><a xlink:title=" ">
<polygon fill="white" stroke="#bfbfbf" points="12,-447 12,-466 164,-466 164,-447 12,-447"/>
<text text-anchor="middle" x="88" y="-454" font-family="Helvetica,sans-Serif" font-size="10.00">MomentumSource::Register</text>
</a>
</g>
</g>
<!-- Node345&#45;&gt;Node1 -->
<g id="edge5" class="edge">
<title>Node345&#45;&gt;Node1</title>
<path fill="none" stroke="midnightblue" d="M90.87,-436.62C97.14,-381.19 122.37,-223.48 212,-138.5 216.06,-134.65 220.71,-131.4 225.68,-128.65"/>
<polygon fill="midnightblue" stroke="midnightblue" points="87.36,-436.52 89.8,-446.83 94.32,-437.24 87.36,-436.52"/>
</g>
<!-- Node346 -->
<g id="node5" class="node">
<title>Node346</title>
<g id="a_node5"><a xlink:href="classamr__wind_1_1pde_1_1icns_1_1_a_b_l_forcing.html" target="_top" xlink:title="Forcing term to drive the ABL profile to a desired state.">
<polygon fill="white" stroke="black" points="232.5,-784.5 232.5,-814.5 346.5,-814.5 346.5,-784.5 232.5,-784.5"/>
<text text-anchor="start" x="240.5" y="-802.5" font-family="Helvetica,sans-Serif" font-size="10.00">amr_wind::pde::icns</text>
<text text-anchor="middle" x="289.5" y="-791.5" font-family="Helvetica,sans-Serif" font-size="10.00">::ABLForcing</text>
</a>
</g>
</g>
<!-- Node345&#45;&gt;Node346 -->
<g id="edge3" class="edge">
<title>Node345&#45;&gt;Node346</title>
<path fill="none" stroke="midnightblue" d="M90.8,-476.5C96.88,-532.24 121.67,-690.77 212,-775.5 217.79,-780.93 224.79,-785.13 232.18,-788.38"/>
<polygon fill="midnightblue" stroke="midnightblue" points="94.25,-475.83 89.77,-466.23 87.28,-476.53 94.25,-475.83"/>
</g>
<!-- Node347 -->
<g id="node6" class="node">
<title>Node347</title>
<g id="a_node6"><a xlink:href="classamr__wind_1_1pde_1_1icns_1_1_a_b_l_mean_boussinesq.html" target="_top" xlink:title="Boussinesq buoyancy source term.">
<polygon fill="white" stroke="black" points="227.5,-735.5 227.5,-765.5 351.5,-765.5 351.5,-735.5 227.5,-735.5"/>
<text text-anchor="start" x="235.5" y="-753.5" font-family="Helvetica,sans-Serif" font-size="10.00">amr_wind::pde::icns</text>
<text text-anchor="middle" x="289.5" y="-742.5" font-family="Helvetica,sans-Serif" font-size="10.00">::ABLMeanBoussinesq</text>
</a>
</g>
</g>
<!-- Node345&#45;&gt;Node347 -->
<g id="edge4" class="edge">
<title>Node345&#45;&gt;Node347</title>
<path fill="none" stroke="midnightblue" d="M92.27,-476.03C101.59,-525.47 132.86,-656.57 212,-726.5 216.59,-730.56 221.86,-733.93 227.45,-736.73"/>
<polygon fill="midnightblue" stroke="midnightblue" points="95.69,-475.26 90.48,-466.03 88.8,-476.49 95.69,-475.26"/>
</g>
<!-- Node348 -->
<g id="node7" class="node">
<title>Node348</title>
<g id="a_node7"><a xlink:href="classamr__wind_1_1pde_1_1icns_1_1_actuator_forcing.html" target="_top" xlink:title="Body forces introduced by turbines modeled as actuators in flow field.">
<polygon fill="white" stroke="black" points="232.5,-686.5 232.5,-716.5 346.5,-716.5 346.5,-686.5 232.5,-686.5"/>
<text text-anchor="start" x="240.5" y="-704.5" font-family="Helvetica,sans-Serif" font-size="10.00">amr_wind::pde::icns</text>
<text text-anchor="middle" x="289.5" y="-693.5" font-family="Helvetica,sans-Serif" font-size="10.00">::ActuatorForcing</text>
</a>
</g>
</g>
<!-- Node345&#45;&gt;Node348 -->
<g id="edge6" class="edge">
<title>Node345&#45;&gt;Node348</title>
<path fill="none" stroke="midnightblue" d="M94.38,-475.88C107.27,-518.74 144.03,-622.15 212,-677.5 218.04,-682.42 225.1,-686.34 232.45,-689.46"/>
<polygon fill="midnightblue" stroke="midnightblue" points="97.7,-474.76 91.55,-466.14 90.98,-476.71 97.7,-474.76"/>
</g>
<!-- Node349 -->
<g id="node8" class="node">
<title>Node349</title>
<g id="a_node8"><a xlink:href="classamr__wind_1_1pde_1_1icns_1_1_body_force.html" target="_top" xlink:title="Apply a user&#45;defined body force as a source term.">
<polygon fill="white" stroke="black" points="232.5,-637.5 232.5,-667.5 346.5,-667.5 346.5,-637.5 232.5,-637.5"/>
<text text-anchor="start" x="240.5" y="-655.5" font-family="Helvetica,sans-Serif" font-size="10.00">amr_wind::pde::icns</text>
<text text-anchor="middle" x="289.5" y="-644.5" font-family="Helvetica,sans-Serif" font-size="10.00">::BodyForce</text>
</a>
</g>
</g>
<!-- Node345&#45;&gt;Node349 -->
<g id="edge7" class="edge">
<title>Node345&#45;&gt;Node349</title>
<path fill="none" stroke="midnightblue" d="M97.51,-475.6C114.26,-511.04 154.91,-587.14 212,-628.5 218.09,-632.91 225.01,-636.53 232.14,-639.49"/>
<polygon fill="midnightblue" stroke="midnightblue" points="100.61,-473.98 93.25,-466.36 94.26,-476.91 100.61,-473.98"/>
</g>
<!-- Node350 -->
<g id="node9" class="node">
<title>Node350</title>
<g id="a_node9"><a xlink:href="classamr__wind_1_1pde_1_1icns_1_1_boussinesq_buoyancy.html" target="_top" xlink:title="Boussinesq buoyancy source term.">
<polygon fill="white" stroke="black" points="226.5,-588.5 226.5,-618.5 352.5,-618.5 352.5,-588.5 226.5,-588.5"/>
<text text-anchor="start" x="234.5" y="-606.5" font-family="Helvetica,sans-Serif" font-size="10.00">amr_wind::pde::icns</text>
<text text-anchor="middle" x="289.5" y="-595.5" font-family="Helvetica,sans-Serif" font-size="10.00">::BoussinesqBuoyancy</text>
</a>
</g>
</g>
<!-- Node345&#45;&gt;Node350 -->
<g id="edge8" class="edge">
<title>Node345&#45;&gt;Node350</title>
<path fill="none" stroke="midnightblue" d="M101.98,-474.08C122.48,-500.66 164.89,-550.96 212,-579.5 217.6,-582.89 223.71,-585.84 229.98,-588.41"/>
<polygon fill="midnightblue" stroke="midnightblue" points="104.72,-471.91 95.89,-466.05 99.14,-476.13 104.72,-471.91"/>
</g>
<!-- Node351 -->
<g id="node10" class="node">
<title>Node351</title>
<g id="a_node10"><a xlink:href="classamr__wind_1_1pde_1_1icns_1_1_burggraf_flow_forcing.html" target="_top" xlink:title="Body forcing introduced to represent the Burrgraf cavity flow.">
<polygon fill="white" stroke="black" points="228,-539.5 228,-569.5 351,-569.5 351,-539.5 228,-539.5"/>
<text text-anchor="start" x="236" y="-557.5" font-family="Helvetica,sans-Serif" font-size="10.00">amr_wind::pde::icns</text>
<text text-anchor="middle" x="289.5" y="-546.5" font-family="Helvetica,sans-Serif" font-size="10.00">::BurggrafFlowForcing</text>
</a>
</g>
</g>
<!-- Node345&#45;&gt;Node351 -->
<g id="edge9" class="edge">
<title>Node345&#45;&gt;Node351</title>
<path fill="none" stroke="midnightblue" d="M110.78,-471.79C134.71,-488.06 174.72,-513.73 212,-530.5 219.24,-533.76 227.04,-536.75 234.81,-539.44"/>
<polygon fill="midnightblue" stroke="midnightblue" points="112.66,-468.84 102.43,-466.05 108.69,-474.6 112.66,-468.84"/>
</g>
<!-- Node352 -->
<g id="node11" class="node">
<title>Node352</title>
<g id="a_node11"><a xlink:href="classamr__wind_1_1pde_1_1icns_1_1_coriolis_forcing.html" target="_top" xlink:title="Account for Coriolis forcing due to earth&#39;s rotation.">
<polygon fill="white" stroke="black" points="232.5,-490.5 232.5,-520.5 346.5,-520.5 346.5,-490.5 232.5,-490.5"/>
<text text-anchor="start" x="240.5" y="-508.5" font-family="Helvetica,sans-Serif" font-size="10.00">amr_wind::pde::icns</text>
<text text-anchor="middle" x="289.5" y="-497.5" font-family="Helvetica,sans-Serif" font-size="10.00">::CoriolisForcing</text>
</a>
</g>
</g>
<!-- Node345&#45;&gt;Node352 -->
<g id="edge10" class="edge">
<title>Node345&#45;&gt;Node352</title>
<path fill="none" stroke="midnightblue" d="M137.7,-468.46C166.28,-475.48 202.51,-484.38 232.29,-491.69"/>
<polygon fill="midnightblue" stroke="midnightblue" points="138.49,-465.05 127.94,-466.06 136.82,-471.85 138.49,-465.05"/>
</g>
<!-- Node353 -->
<g id="node12" class="node">
<title>Node353</title>
<g id="a_node12"><a xlink:href="classamr__wind_1_1pde_1_1icns_1_1_density_buoyancy.html" target="_top" xlink:title="Buoyancy term from density variations.">
<polygon fill="white" stroke="black" points="232.5,-441.5 232.5,-471.5 346.5,-471.5 346.5,-441.5 232.5,-441.5"/>
<text text-anchor="start" x="240.5" y="-459.5" font-family="Helvetica,sans-Serif" font-size="10.00">amr_wind::pde::icns</text>
<text text-anchor="middle" x="289.5" y="-448.5" font-family="Helvetica,sans-Serif" font-size="10.00">::DensityBuoyancy</text>
</a>
</g>
</g>
<!-- Node345&#45;&gt;Node353 -->
<g id="edge11" class="edge">
<title>Node345&#45;&gt;Node353</title>
<path fill="none" stroke="midnightblue" d="M174.32,-456.5C193.97,-456.5 214.37,-456.5 232.41,-456.5"/>
<polygon fill="midnightblue" stroke="midnightblue" points="174.14,-453 164.14,-456.5 174.14,-460 174.14,-453"/>
</g>
<!-- Node354 -->
<g id="node13" class="node">
<title>Node354</title>
<g id="a_node13"><a xlink:href="classamr__wind_1_1pde_1_1icns_1_1_geostrophic_forcing.html" target="_top" xlink:title="Apply source term equivalent to drive the flow to match given geostrophic wind.">
<polygon fill="white" stroke="black" points="231.5,-392.5 231.5,-422.5 347.5,-422.5 347.5,-392.5 231.5,-392.5"/>
<text text-anchor="start" x="239.5" y="-410.5" font-family="Helvetica,sans-Serif" font-size="10.00">amr_wind::pde::icns</text>
<text text-anchor="middle" x="289.5" y="-399.5" font-family="Helvetica,sans-Serif" font-size="10.00">::GeostrophicForcing</text>
</a>
</g>
</g>
<!-- Node345&#45;&gt;Node354 -->
<g id="edge12" class="edge">
<title>Node345&#45;&gt;Node354</title>
<path fill="none" stroke="midnightblue" d="M137.96,-444.47C166.13,-437.56 201.67,-428.83 231.14,-421.59"/>
<polygon fill="midnightblue" stroke="midnightblue" points="136.82,-441.15 127.94,-446.94 138.49,-447.95 136.82,-441.15"/>
</g>
<!-- Node355 -->
<g id="node14" class="node">
<title>Node355</title>
<g id="a_node14"><a xlink:href="classamr__wind_1_1pde_1_1icns_1_1_gravity_forcing.html" target="_top" xlink:title="Gravity Forcing term.">
<polygon fill="white" stroke="black" points="232.5,-343.5 232.5,-373.5 346.5,-373.5 346.5,-343.5 232.5,-343.5"/>
<text text-anchor="start" x="240.5" y="-361.5" font-family="Helvetica,sans-Serif" font-size="10.00">amr_wind::pde::icns</text>
<text text-anchor="middle" x="289.5" y="-350.5" font-family="Helvetica,sans-Serif" font-size="10.00">::GravityForcing</text>
</a>
</g>
</g>
<!-- Node345&#45;&gt;Node355 -->
<g id="edge13" class="edge">
<title>Node345&#45;&gt;Node355</title>
<path fill="none" stroke="midnightblue" d="M111.24,-441.26C135.28,-425.29 175.1,-400.23 212,-383.5 220.02,-379.86 228.72,-376.5 237.29,-373.5"/>
<polygon fill="midnightblue" stroke="midnightblue" points="109.19,-438.42 102.84,-446.9 113.09,-444.23 109.19,-438.42"/>
</g>
<!-- Node356 -->
<g id="node15" class="node">
<title>Node356</title>
<g id="a_node15"><a xlink:href="classamr__wind_1_1pde_1_1icns_1_1_hurricane_forcing.html" target="_top" xlink:title="Idealized Hurricane forcing source term Apply mesoscale tendency source term to drive the flow and ma...">
<polygon fill="white" stroke="black" points="232.5,-294.5 232.5,-324.5 346.5,-324.5 346.5,-294.5 232.5,-294.5"/>
<text text-anchor="start" x="240.5" y="-312.5" font-family="Helvetica,sans-Serif" font-size="10.00">amr_wind::pde::icns</text>
<text text-anchor="middle" x="289.5" y="-301.5" font-family="Helvetica,sans-Serif" font-size="10.00">::HurricaneForcing</text>
</a>
</g>
</g>
<!-- Node345&#45;&gt;Node356 -->
<g id="edge14" class="edge">
<title>Node345&#45;&gt;Node356</title>
<path fill="none" stroke="midnightblue" d="M102.36,-438.74C123.07,-412.38 165.42,-362.96 212,-334.5 218.32,-330.64 225.3,-327.3 232.4,-324.44"/>
<polygon fill="midnightblue" stroke="midnightblue" points="99.53,-436.68 96.19,-446.73 105.07,-440.96 99.53,-436.68"/>
</g>
<!-- Node357 -->
<g id="node16" class="node">
<title>Node357</title>
<g id="a_node16"><a xlink:href="classamr__wind_1_1pde_1_1icns_1_1_rayleigh_damping.html" target="_top" xlink:title="Apply Rayleigh damping as a source terms.">
<polygon fill="white" stroke="black" points="232.5,-245.5 232.5,-275.5 346.5,-275.5 346.5,-245.5 232.5,-245.5"/>
<text text-anchor="start" x="240.5" y="-263.5" font-family="Helvetica,sans-Serif" font-size="10.00">amr_wind::pde::icns</text>
<text text-anchor="middle" x="289.5" y="-252.5" font-family="Helvetica,sans-Serif" font-size="10.00">::RayleighDamping</text>
</a>
</g>
</g>
<!-- Node345&#45;&gt;Node357 -->
<g id="edge15" class="edge">
<title>Node345&#45;&gt;Node357</title>
<path fill="none" stroke="midnightblue" d="M97.58,-437.58C114.46,-402.45 155.32,-326.96 212,-285.5 218.09,-281.05 225.01,-277.36 232.15,-274.31"/>
<polygon fill="midnightblue" stroke="midnightblue" points="94.37,-436.19 93.29,-446.73 100.71,-439.16 94.37,-436.19"/>
</g>
<!-- Node358 -->
<g id="node17" class="node">
<title>Node358</title>
<g id="a_node17"><a xlink:href="classamr__wind_1_1pde_1_1icns_1_1_synth_turb_forcing.html" target="_top" xlink:title="Synthetic turbulence momentum source term.">
<polygon fill="white" stroke="black" points="232.5,-196.5 232.5,-226.5 346.5,-226.5 346.5,-196.5 232.5,-196.5"/>
<text text-anchor="start" x="240.5" y="-214.5" font-family="Helvetica,sans-Serif" font-size="10.00">amr_wind::pde::icns</text>
<text text-anchor="middle" x="289.5" y="-203.5" font-family="Helvetica,sans-Serif" font-size="10.00">::SynthTurbForcing</text>
</a>
</g>
</g>
<!-- Node345&#45;&gt;Node358 -->
<g id="edge16" class="edge">
<title>Node345&#45;&gt;Node358</title>
<path fill="none" stroke="midnightblue" d="M94.45,-437.27C107.5,-394.72 144.54,-292 212,-236.5 218.04,-231.53 225.1,-227.54 232.44,-224.33"/>
<polygon fill="midnightblue" stroke="midnightblue" points="91.07,-436.36 91.59,-446.94 97.78,-438.34 91.07,-436.36"/>
</g>
<!-- Node359 -->
<g id="node18" class="node">
<title>Node359</title>
<g id="a_node18"><a xlink:href="classamr__wind_1_1pde_1_1icns_1_1mms_1_1_m_m_s_forcing.html" target="_top" xlink:title=" ">
<polygon fill="white" stroke="black" points="232.5,-147.5 232.5,-177.5 346.5,-177.5 346.5,-147.5 232.5,-147.5"/>
<text text-anchor="start" x="240.5" y="-165.5" font-family="Helvetica,sans-Serif" font-size="10.00">amr_wind::pde::icns</text>
<text text-anchor="middle" x="289.5" y="-154.5" font-family="Helvetica,sans-Serif" font-size="10.00">::mms::MMSForcing</text>
</a>
</g>
</g>
<!-- Node345&#45;&gt;Node359 -->
<g id="edge17" class="edge">
<title>Node345&#45;&gt;Node359</title>
<path fill="none" stroke="midnightblue" d="M92.41,-436.76C101.97,-387.38 133.64,-257.47 212,-187.5 217.94,-182.2 225.03,-178.01 232.46,-174.72"/>
<polygon fill="midnightblue" stroke="midnightblue" points="88.94,-436.3 90.57,-446.77 95.82,-437.57 88.94,-436.3"/>
</g>
<!-- Node418 -->
<g id="node19" class="node">
<title>Node418</title>
<g id="a_node19"><a xlink:title=" ">
<polygon fill="white" stroke="#bfbfbf" points="29.5,-26.5 29.5,-56.5 146.5,-56.5 146.5,-26.5 29.5,-26.5"/>
<text text-anchor="start" x="37.5" y="-44.5" font-family="Helvetica,sans-Serif" font-size="10.00">TemperatureSource::</text>
<text text-anchor="middle" x="88" y="-33.5" font-family="Helvetica,sans-Serif" font-size="10.00">Register</text>
</a>
</g>
</g>
<!-- Node418&#45;&gt;Node2 -->
<g id="edge18" class="edge">
<title>Node418&#45;&gt;Node2</title>
<path fill="none" stroke="midnightblue" d="M156.94,-49.33C174.65,-51.37 193.86,-53.59 211.99,-55.68"/>
<polygon fill="midnightblue" stroke="midnightblue" points="157.04,-45.82 146.7,-48.15 156.24,-52.77 157.04,-45.82"/>
</g>
<!-- Node419 -->
<g id="node20" class="node">
<title>Node419</title>
<g id="a_node20"><a xlink:href="classamr__wind_1_1pde_1_1temperature_1_1_body_force.html" target="_top" xlink:title=" ">
<polygon fill="white" stroke="black" points="212,-0.5 212,-30.5 367,-30.5 367,-0.5 212,-0.5"/>
<text text-anchor="start" x="220" y="-18.5" font-family="Helvetica,sans-Serif" font-size="10.00">amr_wind::pde::temperature</text>
<text text-anchor="middle" x="289.5" y="-7.5" font-family="Helvetica,sans-Serif" font-size="10.00">::BodyForce</text>
</a>
</g>
</g>
<!-- Node418&#45;&gt;Node419 -->
<g id="edge19" class="edge">
<title>Node418&#45;&gt;Node419</title>
<path fill="none" stroke="midnightblue" d="M156.94,-32.65C174.65,-30.34 193.86,-27.83 211.99,-25.47"/>
<polygon fill="midnightblue" stroke="midnightblue" points="156.17,-29.22 146.7,-33.98 157.07,-36.16 156.17,-29.22"/>
</g>
</g>
</svg>
