<?xml version="1.0" encoding="UTF-8" standalone="no"?>
<!DOCTYPE svg PUBLIC "-//W3C//DTD SVG 1.1//EN"
 "http://www.w3.org/Graphics/SVG/1.1/DTD/svg11.dtd">
<!-- Generated by graphviz version 2.43.0 (0)
 -->
<!-- Title: nc_interface.H Pages: 1 -->
<!--zoomable 207 -->
<svg id="main" version="1.1" xmlns="http://www.w3.org/2000/svg" xmlns:xlink="http://www.w3.org/1999/xlink" xml:space="preserve" onload="init(evt)">
<style type="text/css"><![CDATA[
.edge:hover path { stroke: red; }
.edge:hover polygon { stroke: red; fill: red; }
]]></style>
<script type="text/javascript"><![CDATA[
var edges = document.getElementsByTagName('g');
if (edges && edges.length) {
  for (var i=0;i<edges.length;i++) {
    if (edges[i].id.substr(0,4)=='edge') {
      edges[i].setAttribute('class','edge');
    }
  }
}
]]></script>
        <defs>
                <circle id="rim" cx="0" cy="0" r="7"/>
                <circle id="rim2" cx="0" cy="0" r="3.5"/>
                <g id="zoomPlus">
                        <use xlink:href="#rim" fill="#404040">
                                <set attributeName="fill" to="#808080" begin="zoomplus.mouseover" end="zoomplus.mouseout"/>
                        </use>
                        <path d="M-4,0h8M0,-4v8" fill="none" stroke="white" stroke-width="1.5" pointer-events="none"/>
                </g>
                <g id="zoomMin">
                        <use xlink:href="#rim" fill="#404040">
                                <set attributeName="fill" to="#808080" begin="zoomminus.mouseover" end="zoomminus.mouseout"/>
                        </use>
                        <path d="M-4,0h8" fill="none" stroke="white" stroke-width="1.5" pointer-events="none"/>
                </g>
                <g id="dirArrow">
                        <path fill="none" stroke="white" stroke-width="1.5" d="M0,-3.0v7 M-2.5,-0.5L0,-3.0L2.5,-0.5"/>
                </g>
               <g id="resetDef">
                       <use xlink:href="#rim2" fill="#404040">
                               <set attributeName="fill" to="#808080" begin="reset.mouseover" end="reset.mouseout"/>
                       </use>
               </g>
        </defs>

<script type="text/javascript">
var viewWidth = 3619;
var viewHeight = 207;
var sectionId = 'dynsection-1';
</script>
<script xlink:href="svgpan.js"/>
<svg id="graph" class="graph">
<g id="viewport">
<title>nc_interface.H</title>
<polygon fill="white" stroke="transparent" points="-4,4 -4,-203 3614.5,-203 3614.5,4 -4,4"/>
<!-- Node1 -->
<g id="node1" class="node">
<title>Node1</title>
<g id="a_node1"><a xlink:title="Interface to NetCDF library.">
<polygon fill="#bfbfbf" stroke="black" points="1956.5,-179.5 1956.5,-198.5 2043.5,-198.5 2043.5,-179.5 1956.5,-179.5"/>
<text text-anchor="middle" x="2000" y="-186.5" font-family="Helvetica,sans-Serif" font-size="10.00">nc_interface.H</text>
</a>
</g>
</g>
<!-- Node2 -->
<g id="node2" class="node">
<title>Node2</title>
<g id="a_node2"><a xlink:href="_a_b_l_meso_forcing_mom_8_h.html" target="_top" xlink:title=" ">
<polygon fill="white" stroke="black" points="739,-67.5 739,-86.5 871,-86.5 871,-67.5 739,-67.5"/>
<text text-anchor="middle" x="805" y="-74.5" font-family="Helvetica,sans-Serif" font-size="10.00">ABLMesoForcingMom.H</text>
</a>
</g>
</g>
<!-- Node1&#45;&gt;Node2 -->
<g id="edge1" class="edge">
<title>Node1&#45;&gt;Node2</title>
<path fill="none" stroke="midnightblue" d="M1946.26,-187.26C1768.7,-184.54 1202,-173.62 1022,-143 948.92,-130.57 865.81,-101.2 827.06,-86.58"/>
<polygon fill="midnightblue" stroke="midnightblue" points="1946.35,-190.76 1956.4,-187.41 1946.45,-183.76 1946.35,-190.76"/>
</g>
<!-- Node5 -->
<g id="node5" class="node">
<title>Node5</title>
<g id="a_node5"><a xlink:href="_a_b_l_stats_8cpp.html" target="_top" xlink:title=" ">
<polygon fill="white" stroke="black" points="594,-6 594,-25 674,-25 674,-6 594,-6"/>
<text text-anchor="middle" x="634" y="-13" font-family="Helvetica,sans-Serif" font-size="10.00">ABLStats.cpp</text>
</a>
</g>
</g>
<!-- Node1&#45;&gt;Node5 -->
<g id="edge56" class="edge">
<title>Node1&#45;&gt;Node5</title>
<path fill="none" stroke="midnightblue" d="M1946.19,-187.34C1758.21,-184.8 1131.42,-174.14 933,-143 840.54,-128.49 814.22,-127.82 730,-87 695.02,-70.05 659.64,-39.97 643.32,-25.19"/>
<polygon fill="midnightblue" stroke="midnightblue" points="1946.33,-190.85 1956.38,-187.48 1946.43,-183.85 1946.33,-190.85"/>
</g>
<!-- Node6 -->
<g id="node6" class="node">
<title>Node6</title>
<g id="a_node6"><a xlink:href="_a_b_l_meso_forcing_temp_8cpp.html" target="_top" xlink:title=" ">
<polygon fill="white" stroke="black" points="926.5,-6 926.5,-25 1069.5,-25 1069.5,-6 926.5,-6"/>
<text text-anchor="middle" x="998" y="-13" font-family="Helvetica,sans-Serif" font-size="10.00">ABLMesoForcingTemp.cpp</text>
</a>
</g>
</g>
<!-- Node1&#45;&gt;Node6 -->
<g id="edge5" class="edge">
<title>Node1&#45;&gt;Node6</title>
<path fill="none" stroke="midnightblue" d="M1946.27,-187.71C1765.16,-186.4 1184.18,-179.37 1109,-143 1081.12,-129.51 1023.29,-51.61 1004.24,-25.23"/>
<polygon fill="midnightblue" stroke="midnightblue" points="1946.33,-191.21 1956.36,-187.78 1946.38,-184.21 1946.33,-191.21"/>
</g>
<!-- Node7 -->
<g id="node7" class="node">
<title>Node7</title>
<g id="a_node7"><a xlink:href="_a_b_l_meso_forcing_temp_8_h.html" target="_top" xlink:title=" ">
<polygon fill="white" stroke="black" points="889,-67.5 889,-86.5 1023,-86.5 1023,-67.5 889,-67.5"/>
<text text-anchor="middle" x="956" y="-74.5" font-family="Helvetica,sans-Serif" font-size="10.00">ABLMesoForcingTemp.H</text>
</a>
</g>
</g>
<!-- Node1&#45;&gt;Node7 -->
<g id="edge6" class="edge">
<title>Node1&#45;&gt;Node7</title>
<path fill="none" stroke="midnightblue" d="M1946.27,-188.53C1774.51,-189.73 1240.42,-189.54 1075,-143 1032.17,-130.95 987.72,-101.26 967.39,-86.55"/>
<polygon fill="midnightblue" stroke="midnightblue" points="1946.36,-192.03 1956.33,-188.46 1946.31,-185.03 1946.36,-192.03"/>
</g>
<!-- Node8 -->
<g id="node8" class="node">
<title>Node8</title>
<g id="a_node8"><a xlink:href="bluff__body__ops_8cpp.html" target="_top" xlink:title=" ">
<polygon fill="white" stroke="black" points="1293,-123.5 1293,-142.5 1403,-142.5 1403,-123.5 1293,-123.5"/>
<text text-anchor="middle" x="1348" y="-130.5" font-family="Helvetica,sans-Serif" font-size="10.00">bluff_body_ops.cpp</text>
</a>
</g>
</g>
<!-- Node1&#45;&gt;Node8 -->
<g id="edge10" class="edge">
<title>Node1&#45;&gt;Node8</title>
<path fill="none" stroke="midnightblue" d="M1946.28,-184.98C1842.87,-178.93 1609.01,-164.06 1413,-143 1409.83,-142.66 1406.57,-142.29 1403.29,-141.89"/>
<polygon fill="midnightblue" stroke="midnightblue" points="1946.28,-188.49 1956.47,-185.58 1946.69,-181.5 1946.28,-188.49"/>
</g>
<!-- Node9 -->
<g id="node9" class="node">
<title>Node9</title>
<g id="a_node9"><a xlink:href="relaxation__zones__ops_8cpp.html" target="_top" xlink:title=" ">
<polygon fill="white" stroke="black" points="1421.5,-123.5 1421.5,-142.5 1564.5,-142.5 1564.5,-123.5 1421.5,-123.5"/>
<text text-anchor="middle" x="1493" y="-130.5" font-family="Helvetica,sans-Serif" font-size="10.00">relaxation_zones_ops.cpp</text>
</a>
</g>
</g>
<!-- Node1&#45;&gt;Node9 -->
<g id="edge11" class="edge">
<title>Node1&#45;&gt;Node9</title>
<path fill="none" stroke="midnightblue" d="M1946.03,-182.39C1865.16,-173.97 1707.74,-157.49 1574,-143 1570.91,-142.66 1567.74,-142.32 1564.55,-141.97"/>
<polygon fill="midnightblue" stroke="midnightblue" points="1946.14,-185.92 1956.45,-183.48 1946.87,-178.96 1946.14,-185.92"/>
</g>
<!-- Node10 -->
<g id="node10" class="node">
<title>Node10</title>
<g id="a_node10"><a xlink:href="_synthetic_turbulence_8cpp.html" target="_top" xlink:title=" ">
<polygon fill="white" stroke="black" points="1582.5,-123.5 1582.5,-142.5 1717.5,-142.5 1717.5,-123.5 1582.5,-123.5"/>
<text text-anchor="middle" x="1650" y="-130.5" font-family="Helvetica,sans-Serif" font-size="10.00">SyntheticTurbulence.cpp</text>
</a>
</g>
</g>
<!-- Node1&#45;&gt;Node10 -->
<g id="edge12" class="edge">
<title>Node1&#45;&gt;Node10</title>
<path fill="none" stroke="midnightblue" d="M1946.28,-179.71C1880.92,-169.63 1771.14,-152.69 1705.14,-142.51"/>
<polygon fill="midnightblue" stroke="midnightblue" points="1945.96,-183.2 1956.38,-181.27 1947.03,-176.29 1945.96,-183.2"/>
</g>
<!-- Node11 -->
<g id="node11" class="node">
<title>Node11</title>
<g id="a_node11"><a xlink:href="_i_o_manager_8cpp.html" target="_top" xlink:title=" ">
<polygon fill="white" stroke="black" points="1735.5,-123.5 1735.5,-142.5 1824.5,-142.5 1824.5,-123.5 1735.5,-123.5"/>
<text text-anchor="middle" x="1780" y="-130.5" font-family="Helvetica,sans-Serif" font-size="10.00">IOManager.cpp</text>
</a>
</g>
</g>
<!-- Node1&#45;&gt;Node11 -->
<g id="edge13" class="edge">
<title>Node1&#45;&gt;Node11</title>
<path fill="none" stroke="midnightblue" d="M1955.28,-177.02C1913.72,-166.82 1852.69,-151.84 1814.7,-142.52"/>
<polygon fill="midnightblue" stroke="midnightblue" points="1954.59,-180.46 1965.14,-179.44 1956.26,-173.66 1954.59,-180.46"/>
</g>
<!-- Node12 -->
<g id="node12" class="node">
<title>Node12</title>
<g id="a_node12"><a xlink:href="nc__interface_8cpp.html" target="_top" xlink:title=" ">
<polygon fill="white" stroke="black" points="1842.5,-123.5 1842.5,-142.5 1939.5,-142.5 1939.5,-123.5 1842.5,-123.5"/>
<text text-anchor="middle" x="1891" y="-130.5" font-family="Helvetica,sans-Serif" font-size="10.00">nc_interface.cpp</text>
</a>
</g>
</g>
<!-- Node1&#45;&gt;Node12 -->
<g id="edge14" class="edge">
<title>Node1&#45;&gt;Node12</title>
<path fill="none" stroke="midnightblue" d="M1973.48,-174.86C1953.27,-164.85 1926.01,-151.35 1908.47,-142.65"/>
<polygon fill="midnightblue" stroke="midnightblue" points="1971.97,-178.02 1982.49,-179.32 1975.08,-171.75 1971.97,-178.02"/>
</g>
<!-- Node13 -->
<g id="node13" class="node">
<title>Node13</title>
<g id="a_node13"><a xlink:href="_enstrophy_8cpp.html" target="_top" xlink:title=" ">
<polygon fill="white" stroke="black" points="1958,-123.5 1958,-142.5 2042,-142.5 2042,-123.5 1958,-123.5"/>
<text text-anchor="middle" x="2000" y="-130.5" font-family="Helvetica,sans-Serif" font-size="10.00">Enstrophy.cpp</text>
</a>
</g>
</g>
<!-- Node1&#45;&gt;Node13 -->
<g id="edge15" class="edge">
<title>Node1&#45;&gt;Node13</title>
<path fill="none" stroke="midnightblue" d="M2000,-168.8C2000,-159.91 2000,-149.78 2000,-142.75"/>
<polygon fill="midnightblue" stroke="midnightblue" points="1996.5,-169.08 2000,-179.08 2003.5,-169.08 1996.5,-169.08"/>
</g>
<!-- Node14 -->
<g id="node14" class="node">
<title>Node14</title>
<g id="a_node14"><a xlink:href="_field_norms_8cpp.html" target="_top" xlink:title=" ">
<polygon fill="white" stroke="black" points="2060,-123.5 2060,-142.5 2152,-142.5 2152,-123.5 2060,-123.5"/>
<text text-anchor="middle" x="2106" y="-130.5" font-family="Helvetica,sans-Serif" font-size="10.00">FieldNorms.cpp</text>
</a>
</g>
</g>
<!-- Node1&#45;&gt;Node14 -->
<g id="edge16" class="edge">
<title>Node1&#45;&gt;Node14</title>
<path fill="none" stroke="midnightblue" d="M2026.06,-174.73C2045.68,-164.73 2072.03,-151.31 2089.01,-142.65"/>
<polygon fill="midnightblue" stroke="midnightblue" points="2024.35,-171.67 2017.03,-179.32 2027.53,-177.9 2024.35,-171.67"/>
</g>
<!-- Node15 -->
<g id="node15" class="node">
<title>Node15</title>
<g id="a_node15"><a xlink:href="_free_surface_8cpp.html" target="_top" xlink:title=" ">
<polygon fill="white" stroke="black" points="2170.5,-123.5 2170.5,-142.5 2265.5,-142.5 2265.5,-123.5 2170.5,-123.5"/>
<text text-anchor="middle" x="2218" y="-130.5" font-family="Helvetica,sans-Serif" font-size="10.00">FreeSurface.cpp</text>
</a>
</g>
</g>
<!-- Node1&#45;&gt;Node15 -->
<g id="edge17" class="edge">
<title>Node1&#45;&gt;Node15</title>
<path fill="none" stroke="midnightblue" d="M2044.31,-177.02C2085.49,-166.82 2145.97,-151.84 2183.62,-142.52"/>
<polygon fill="midnightblue" stroke="midnightblue" points="2043.41,-173.64 2034.54,-179.44 2045.09,-180.44 2043.41,-173.64"/>
</g>
<!-- Node16 -->
<g id="node16" class="node">
<title>Node16</title>
<g id="a_node16"><a xlink:href="_kinetic_energy_8cpp.html" target="_top" xlink:title=" ">
<polygon fill="white" stroke="black" points="2283.5,-123.5 2283.5,-142.5 2386.5,-142.5 2386.5,-123.5 2283.5,-123.5"/>
<text text-anchor="middle" x="2335" y="-130.5" font-family="Helvetica,sans-Serif" font-size="10.00">KineticEnergy.cpp</text>
</a>
</g>
</g>
<!-- Node1&#45;&gt;Node16 -->
<g id="edge18" class="edge">
<title>Node1&#45;&gt;Node16</title>
<path fill="none" stroke="midnightblue" d="M2053.95,-179.3C2117.12,-169.12 2221,-152.38 2283.22,-142.35"/>
<polygon fill="midnightblue" stroke="midnightblue" points="2053.11,-175.89 2043.8,-180.94 2054.22,-182.8 2053.11,-175.89"/>
</g>
<!-- Node17 -->
<g id="node17" class="node">
<title>Node17</title>
<g id="a_node17"><a xlink:href="_sampler_base_8_h.html" target="_top" xlink:title=" ">
<polygon fill="white" stroke="black" points="357,-123.5 357,-142.5 449,-142.5 449,-123.5 357,-123.5"/>
<text text-anchor="middle" x="403" y="-130.5" font-family="Helvetica,sans-Serif" font-size="10.00">SamplerBase.H</text>
</a>
</g>
</g>
<!-- Node1&#45;&gt;Node17 -->
<g id="edge19" class="edge">
<title>Node1&#45;&gt;Node17</title>
<path fill="none" stroke="midnightblue" d="M1946.32,-186.18C1699.89,-177.85 679.14,-143.34 449.16,-135.56"/>
<polygon fill="midnightblue" stroke="midnightblue" points="1946.34,-189.69 1956.46,-186.53 1946.58,-182.69 1946.34,-189.69"/>
</g>
<!-- Node29 -->
<g id="node26" class="node">
<title>Node29</title>
<g id="a_node26"><a xlink:href="_sampling_8cpp.html" target="_top" xlink:title=" ">
<polygon fill="white" stroke="black" points="128.5,-6 128.5,-25 211.5,-25 211.5,-6 128.5,-6"/>
<text text-anchor="middle" x="170" y="-13" font-family="Helvetica,sans-Serif" font-size="10.00">Sampling.cpp</text>
</a>
</g>
</g>
<!-- Node1&#45;&gt;Node29 -->
<g id="edge32" class="edge">
<title>Node1&#45;&gt;Node29</title>
<path fill="none" stroke="midnightblue" d="M1946.08,-188.29C1698.21,-189.36 666.71,-190.79 348,-143 255.87,-129.19 202.39,-161.16 146,-87 131.44,-67.86 150.71,-39.32 162.33,-25.14"/>
<polygon fill="midnightblue" stroke="midnightblue" points="1946.28,-191.79 1956.27,-188.25 1946.25,-184.79 1946.28,-191.79"/>
</g>
<!-- Node32 -->
<g id="node29" class="node">
<title>Node32</title>
<g id="a_node29"><a xlink:href="_wave_energy_8cpp.html" target="_top" xlink:title=" ">
<polygon fill="white" stroke="black" points="2405,-123.5 2405,-142.5 2501,-142.5 2501,-123.5 2405,-123.5"/>
<text text-anchor="middle" x="2453" y="-130.5" font-family="Helvetica,sans-Serif" font-size="10.00">WaveEnergy.cpp</text>
</a>
</g>
</g>
<!-- Node1&#45;&gt;Node32 -->
<g id="edge33" class="edge">
<title>Node1&#45;&gt;Node32</title>
<path fill="none" stroke="midnightblue" d="M2054.05,-182.61C2130.37,-174.83 2274.04,-159.55 2396,-143 2398.88,-142.61 2401.84,-142.19 2404.82,-141.76"/>
<polygon fill="midnightblue" stroke="midnightblue" points="2053.33,-179.16 2043.73,-183.66 2054.04,-186.13 2053.33,-179.16"/>
</g>
<!-- Node33 -->
<g id="node30" class="node">
<title>Node33</title>
<g id="a_node30"><a xlink:href="_a_b_l_boundary_plane_8cpp.html" target="_top" xlink:title=" ">
<polygon fill="white" stroke="black" points="1985.5,-6 1985.5,-25 2114.5,-25 2114.5,-6 1985.5,-6"/>
<text text-anchor="middle" x="2050" y="-13" font-family="Helvetica,sans-Serif" font-size="10.00">ABLBoundaryPlane.cpp</text>
</a>
</g>
</g>
<!-- Node1&#45;&gt;Node33 -->
<g id="edge34" class="edge">
<title>Node1&#45;&gt;Node33</title>
<path fill="none" stroke="midnightblue" d="M1946.03,-186.61C1783.21,-182.14 1306.6,-167.07 1284,-143 1277.91,-136.52 1278.14,-129.69 1284,-123 1335.18,-64.57 1900.37,-43.68 1977,-31 1987.58,-29.25 1998.97,-27.11 2009.54,-25.02"/>
<polygon fill="midnightblue" stroke="midnightblue" points="1946.21,-190.11 1956.3,-186.89 1946.4,-183.12 1946.21,-190.11"/>
</g>
<!-- Node34 -->
<g id="node31" class="node">
<title>Node34</title>
<g id="a_node31"><a xlink:href="_a_b_l_boundary_plane_8_h.html" target="_top" xlink:title=" ">
<polygon fill="white" stroke="black" points="1117.5,-123.5 1117.5,-142.5 1236.5,-142.5 1236.5,-123.5 1117.5,-123.5"/>
<text text-anchor="middle" x="1177" y="-130.5" font-family="Helvetica,sans-Serif" font-size="10.00">ABLBoundaryPlane.H</text>
</a>
</g>
</g>
<!-- Node1&#45;&gt;Node34 -->
<g id="edge35" class="edge">
<title>Node1&#45;&gt;Node34</title>
<path fill="none" stroke="midnightblue" d="M1946.16,-185.89C1822.95,-180.83 1511,-166.6 1251,-143 1246.36,-142.58 1241.56,-142.1 1236.74,-141.58"/>
<polygon fill="midnightblue" stroke="midnightblue" points="1946.32,-189.4 1956.45,-186.31 1946.6,-182.41 1946.32,-189.4"/>
</g>
<!-- Node46 -->
<g id="node42" class="node">
<title>Node46</title>
<g id="a_node42"><a xlink:href="_a_b_l_field_init_8cpp.html" target="_top" xlink:title=" ">
<polygon fill="white" stroke="black" points="2519.5,-123.5 2519.5,-142.5 2614.5,-142.5 2614.5,-123.5 2519.5,-123.5"/>
<text text-anchor="middle" x="2567" y="-130.5" font-family="Helvetica,sans-Serif" font-size="10.00">ABLFieldInit.cpp</text>
</a>
</g>
</g>
<!-- Node1&#45;&gt;Node46 -->
<g id="edge52" class="edge">
<title>Node1&#45;&gt;Node46</title>
<path fill="none" stroke="midnightblue" d="M2053.8,-184.47C2146.94,-178.09 2344.18,-163.38 2510,-143 2513.08,-142.62 2516.25,-142.2 2519.45,-141.76"/>
<polygon fill="midnightblue" stroke="midnightblue" points="2053.51,-180.98 2043.77,-185.15 2053.98,-187.97 2053.51,-180.98"/>
</g>
<!-- Node47 -->
<g id="node43" class="node">
<title>Node47</title>
<g id="a_node43"><a xlink:href="_a_b_l_field_init_file_8cpp.html" target="_top" xlink:title=" ">
<polygon fill="white" stroke="black" points="2633,-123.5 2633,-142.5 2745,-142.5 2745,-123.5 2633,-123.5"/>
<text text-anchor="middle" x="2689" y="-130.5" font-family="Helvetica,sans-Serif" font-size="10.00">ABLFieldInitFile.cpp</text>
</a>
</g>
</g>
<!-- Node1&#45;&gt;Node47 -->
<g id="edge53" class="edge">
<title>Node1&#45;&gt;Node47</title>
<path fill="none" stroke="midnightblue" d="M2053.59,-185.32C2161.66,-179.66 2413.41,-165.15 2624,-143 2626.83,-142.7 2629.73,-142.38 2632.66,-142.03"/>
<polygon fill="midnightblue" stroke="midnightblue" points="2053.39,-181.83 2043.59,-185.84 2053.75,-188.82 2053.39,-181.83"/>
</g>
<!-- Node48 -->
<g id="node44" class="node">
<title>Node48</title>
<g id="a_node44"><a xlink:href="_a_b_l_mesoscale_input_8cpp.html" target="_top" xlink:title=" ">
<polygon fill="white" stroke="black" points="2763,-123.5 2763,-142.5 2895,-142.5 2895,-123.5 2763,-123.5"/>
<text text-anchor="middle" x="2829" y="-130.5" font-family="Helvetica,sans-Serif" font-size="10.00">ABLMesoscaleInput.cpp</text>
</a>
</g>
</g>
<!-- Node1&#45;&gt;Node48 -->
<g id="edge54" class="edge">
<title>Node1&#45;&gt;Node48</title>
<path fill="none" stroke="midnightblue" d="M2054.19,-185.88C2178.23,-180.78 2492.24,-166.5 2754,-143 2756.87,-142.74 2759.81,-142.46 2762.77,-142.17"/>
<polygon fill="midnightblue" stroke="midnightblue" points="2053.69,-182.4 2043.84,-186.3 2053.97,-189.39 2053.69,-182.4"/>
</g>
<!-- Node49 -->
<g id="node45" class="node">
<title>Node49</title>
<g id="a_node45"><a xlink:href="_a_b_l_modulated_power_law_8cpp.html" target="_top" xlink:title=" ">
<polygon fill="white" stroke="black" points="2913,-123.5 2913,-142.5 3069,-142.5 3069,-123.5 2913,-123.5"/>
<text text-anchor="middle" x="2991" y="-130.5" font-family="Helvetica,sans-Serif" font-size="10.00">ABLModulatedPowerLaw.cpp</text>
</a>
</g>
</g>
<!-- Node1&#45;&gt;Node49 -->
<g id="edge55" class="edge">
<title>Node1&#45;&gt;Node49</title>
<path fill="none" stroke="midnightblue" d="M2053.85,-186.32C2194.05,-181.74 2581.86,-167.66 2904,-143 2906.88,-142.78 2909.81,-142.54 2912.76,-142.29"/>
<polygon fill="midnightblue" stroke="midnightblue" points="2053.68,-182.83 2043.8,-186.65 2053.91,-189.82 2053.68,-182.83"/>
</g>
<!-- Node50 -->
<g id="node46" class="node">
<title>Node50</title>
<g id="a_node46"><a xlink:href="disk__ops_8cpp.html" target="_top" xlink:title=" ">
<polygon fill="white" stroke="black" points="3087,-123.5 3087,-142.5 3167,-142.5 3167,-123.5 3087,-123.5"/>
<text text-anchor="middle" x="3127" y="-130.5" font-family="Helvetica,sans-Serif" font-size="10.00">disk_ops.cpp</text>
</a>
</g>
</g>
<!-- Node1&#45;&gt;Node50 -->
<g id="edge57" class="edge">
<title>Node1&#45;&gt;Node50</title>
<path fill="none" stroke="midnightblue" d="M2053.93,-188.41C2211.9,-189.04 2687,-186.85 3078,-143 3080.92,-142.67 3083.93,-142.27 3086.96,-141.83"/>
<polygon fill="midnightblue" stroke="midnightblue" points="2053.57,-184.91 2043.55,-188.36 2053.54,-191.91 2053.57,-184.91"/>
</g>
<!-- Node51 -->
<g id="node47" class="node">
<title>Node51</title>
<g id="a_node47"><a xlink:href="_joukowsky__ops_8cpp.html" target="_top" xlink:title=" ">
<polygon fill="white" stroke="black" points="3185,-123.5 3185,-142.5 3295,-142.5 3295,-123.5 3185,-123.5"/>
<text text-anchor="middle" x="3240" y="-130.5" font-family="Helvetica,sans-Serif" font-size="10.00">Joukowsky_ops.cpp</text>
</a>
</g>
</g>
<!-- Node1&#45;&gt;Node51 -->
<g id="edge58" class="edge">
<title>Node1&#45;&gt;Node51</title>
<path fill="none" stroke="midnightblue" d="M2054.11,-187.88C2221.35,-187.09 2744.62,-181.48 3176,-143 3178.91,-142.74 3181.88,-142.44 3184.88,-142.11"/>
<polygon fill="midnightblue" stroke="midnightblue" points="2053.6,-184.38 2043.62,-187.93 2053.63,-191.38 2053.6,-184.38"/>
</g>
<!-- Node52 -->
<g id="node48" class="node">
<title>Node52</title>
<g id="a_node48"><a xlink:href="_fast_iface_8cpp.html" target="_top" xlink:title=" ">
<polygon fill="white" stroke="black" points="3313,-123.5 3313,-142.5 3393,-142.5 3393,-123.5 3313,-123.5"/>
<text text-anchor="middle" x="3353" y="-130.5" font-family="Helvetica,sans-Serif" font-size="10.00">FastIface.cpp</text>
</a>
</g>
</g>
<!-- Node1&#45;&gt;Node52 -->
<g id="edge59" class="edge">
<title>Node1&#45;&gt;Node52</title>
<path fill="none" stroke="midnightblue" d="M2053.55,-187.2C2266.74,-183.87 3055.56,-169.95 3304,-143 3306.92,-142.68 3309.93,-142.29 3312.96,-141.85"/>
<polygon fill="midnightblue" stroke="midnightblue" points="2053.49,-183.7 2043.55,-187.36 2053.6,-190.7 2053.49,-183.7"/>
</g>
<!-- Node53 -->
<g id="node49" class="node">
<title>Node53</title>
<g id="a_node49"><a xlink:href="turbine__utils_8cpp.html" target="_top" xlink:title=" ">
<polygon fill="white" stroke="black" points="3411,-123.5 3411,-142.5 3509,-142.5 3509,-123.5 3411,-123.5"/>
<text text-anchor="middle" x="3460" y="-130.5" font-family="Helvetica,sans-Serif" font-size="10.00">turbine_utils.cpp</text>
</a>
</g>
</g>
<!-- Node1&#45;&gt;Node53 -->
<g id="edge60" class="edge">
<title>Node1&#45;&gt;Node53</title>
<path fill="none" stroke="midnightblue" d="M2053.82,-187.15C2277.31,-183.49 3133.03,-168.09 3402,-143 3404.84,-142.73 3407.75,-142.42 3410.69,-142.07"/>
<polygon fill="midnightblue" stroke="midnightblue" points="2053.6,-183.65 2043.66,-187.32 2053.72,-190.65 2053.6,-183.65"/>
</g>
<!-- Node54 -->
<g id="node50" class="node">
<title>Node54</title>
<g id="a_node50"><a xlink:href="wing__ops_8cpp.html" target="_top" xlink:title=" ">
<polygon fill="white" stroke="black" points="3527.5,-123.5 3527.5,-142.5 3610.5,-142.5 3610.5,-123.5 3527.5,-123.5"/>
<text text-anchor="middle" x="3569" y="-130.5" font-family="Helvetica,sans-Serif" font-size="10.00">wing_ops.cpp</text>
</a>
</g>
</g>
<!-- Node1&#45;&gt;Node54 -->
<g id="edge61" class="edge">
<title>Node1&#45;&gt;Node54</title>
<path fill="none" stroke="midnightblue" d="M2053.97,-187.45C2289.11,-184.9 3225.3,-173 3518,-143 3521.04,-142.69 3524.17,-142.3 3527.32,-141.86"/>
<polygon fill="midnightblue" stroke="midnightblue" points="2053.6,-183.95 2043.63,-187.56 2053.67,-190.95 2053.6,-183.95"/>
</g>
<!-- Node3 -->
<g id="node3" class="node">
<title>Node3</title>
<g id="a_node3"><a xlink:href="_a_b_l_meso_forcing_mom_8cpp.html" target="_top" xlink:title=" ">
<polygon fill="white" stroke="black" points="766,-6 766,-25 908,-25 908,-6 766,-6"/>
<text text-anchor="middle" x="837" y="-13" font-family="Helvetica,sans-Serif" font-size="10.00">ABLMesoForcingMom.cpp</text>
</a>
</g>
</g>
<!-- Node2&#45;&gt;Node3 -->
<g id="edge2" class="edge">
<title>Node2&#45;&gt;Node3</title>
<path fill="none" stroke="midnightblue" d="M814.5,-58.33C820.42,-47.33 827.77,-33.66 832.42,-25.01"/>
<polygon fill="midnightblue" stroke="midnightblue" points="811.24,-57.01 809.58,-67.48 817.4,-60.33 811.24,-57.01"/>
</g>
<!-- Node4 -->
<g id="node4" class="node">
<title>Node4</title>
<g id="a_node4"><a xlink:href="_a_b_l_8cpp.html" target="_top" xlink:title=" ">
<polygon fill="white" stroke="black" points="692,-6 692,-25 748,-25 748,-6 692,-6"/>
<text text-anchor="middle" x="720" y="-13" font-family="Helvetica,sans-Serif" font-size="10.00">ABL.cpp</text>
</a>
</g>
</g>
<!-- Node2&#45;&gt;Node4 -->
<g id="edge3" class="edge">
<title>Node2&#45;&gt;Node4</title>
<path fill="none" stroke="midnightblue" d="M784.45,-61.61C768.1,-50.17 745.78,-34.55 732.16,-25.01"/>
<polygon fill="midnightblue" stroke="midnightblue" points="782.62,-64.61 792.82,-67.48 786.64,-58.87 782.62,-64.61"/>
</g>
<!-- Node2&#45;&gt;Node5 -->
<g id="edge4" class="edge">
<title>Node2&#45;&gt;Node5</title>
<path fill="none" stroke="midnightblue" d="M770.75,-64.08C737.51,-52.52 687.89,-35.25 658.45,-25.01"/>
<polygon fill="midnightblue" stroke="midnightblue" points="769.91,-67.49 780.5,-67.48 772.21,-60.88 769.91,-67.49"/>
</g>
<!-- Node7&#45;&gt;Node4 -->
<g id="edge8" class="edge">
<title>Node7&#45;&gt;Node4</title>
<path fill="none" stroke="midnightblue" d="M898.96,-65.49C858.85,-57.51 804.13,-45.47 757,-31 751.46,-29.3 745.57,-27.15 740.16,-25.04"/>
<polygon fill="midnightblue" stroke="midnightblue" points="898.35,-68.93 908.83,-67.42 899.7,-62.06 898.35,-68.93"/>
</g>
<!-- Node7&#45;&gt;Node5 -->
<g id="edge9" class="edge">
<title>Node7&#45;&gt;Node5</title>
<path fill="none" stroke="midnightblue" d="M880.16,-66.08C825.1,-58.26 749,-46.14 683,-31 675.65,-29.31 667.78,-27.15 660.54,-25.01"/>
<polygon fill="midnightblue" stroke="midnightblue" points="879.8,-69.56 890.19,-67.49 880.77,-62.63 879.8,-69.56"/>
</g>
<!-- Node7&#45;&gt;Node6 -->
<g id="edge7" class="edge">
<title>Node7&#45;&gt;Node6</title>
<path fill="none" stroke="midnightblue" d="M968,-59.01C975.84,-47.89 985.76,-33.84 991.99,-25.01"/>
<polygon fill="midnightblue" stroke="midnightblue" points="964.93,-57.29 962.02,-67.48 970.64,-61.32 964.93,-57.29"/>
</g>
<!-- Node18 -->
<g id="node18" class="node">
<title>Node18</title>
<g id="a_node18"><a xlink:href="_line_sampler_8_h.html" target="_top" xlink:title=" ">
<polygon fill="white" stroke="black" points="359.5,-67.5 359.5,-86.5 446.5,-86.5 446.5,-67.5 359.5,-67.5"/>
<text text-anchor="middle" x="403" y="-74.5" font-family="Helvetica,sans-Serif" font-size="10.00">LineSampler.H</text>
</a>
</g>
</g>
<!-- Node17&#45;&gt;Node18 -->
<g id="edge20" class="edge">
<title>Node17&#45;&gt;Node18</title>
<path fill="none" stroke="midnightblue" d="M403,-112.8C403,-103.91 403,-93.78 403,-86.75"/>
<polygon fill="midnightblue" stroke="midnightblue" points="399.5,-113.08 403,-123.08 406.5,-113.08 399.5,-113.08"/>
</g>
<!-- Node24 -->
<g id="node21" class="node">
<title>Node24</title>
<g id="a_node21"><a xlink:href="_plane_sampler_8_h.html" target="_top" xlink:title=" ">
<polygon fill="white" stroke="black" points="5,-67.5 5,-86.5 99,-86.5 99,-67.5 5,-67.5"/>
<text text-anchor="middle" x="52" y="-74.5" font-family="Helvetica,sans-Serif" font-size="10.00">PlaneSampler.H</text>
</a>
</g>
</g>
<!-- Node17&#45;&gt;Node24 -->
<g id="edge23" class="edge">
<title>Node17&#45;&gt;Node24</title>
<path fill="none" stroke="midnightblue" d="M346.56,-123.32C277.93,-112.76 163.35,-95.13 99.19,-85.26"/>
<polygon fill="midnightblue" stroke="midnightblue" points="346.34,-126.82 356.75,-124.88 347.4,-119.9 346.34,-126.82"/>
</g>
<!-- Node26 -->
<g id="node23" class="node">
<title>Node26</title>
<g id="a_node23"><a xlink:href="_probe_sampler_8_h.html" target="_top" xlink:title=" ">
<polygon fill="white" stroke="black" points="246.5,-67.5 246.5,-86.5 341.5,-86.5 341.5,-67.5 246.5,-67.5"/>
<text text-anchor="middle" x="294" y="-74.5" font-family="Helvetica,sans-Serif" font-size="10.00">ProbeSampler.H</text>
</a>
</g>
</g>
<!-- Node17&#45;&gt;Node26 -->
<g id="edge25" class="edge">
<title>Node17&#45;&gt;Node26</title>
<path fill="none" stroke="midnightblue" d="M376.48,-118.86C356.27,-108.85 329.01,-95.35 311.47,-86.65"/>
<polygon fill="midnightblue" stroke="midnightblue" points="374.97,-122.02 385.49,-123.32 378.08,-115.75 374.97,-122.02"/>
</g>
<!-- Node28 -->
<g id="node25" class="node">
<title>Node28</title>
<g id="a_node25"><a xlink:href="_sampling_8_h.html" target="_top" xlink:title=" ">
<polygon fill="white" stroke="black" points="155.5,-67.5 155.5,-86.5 228.5,-86.5 228.5,-67.5 155.5,-67.5"/>
<text text-anchor="middle" x="192" y="-74.5" font-family="Helvetica,sans-Serif" font-size="10.00">Sampling.H</text>
</a>
</g>
</g>
<!-- Node17&#45;&gt;Node28 -->
<g id="edge27" class="edge">
<title>Node17&#45;&gt;Node28</title>
<path fill="none" stroke="midnightblue" d="M359.86,-120.96C320.01,-110.76 261.64,-95.82 225.28,-86.52"/>
<polygon fill="midnightblue" stroke="midnightblue" points="359.01,-124.35 369.57,-123.44 360.75,-117.57 359.01,-124.35"/>
</g>
<!-- Node30 -->
<g id="node27" class="node">
<title>Node30</title>
<g id="a_node27"><a xlink:href="_sampling_container_8cpp.html" target="_top" xlink:title=" ">
<polygon fill="white" stroke="black" points="464.5,-67.5 464.5,-86.5 593.5,-86.5 593.5,-67.5 464.5,-67.5"/>
<text text-anchor="middle" x="529" y="-74.5" font-family="Helvetica,sans-Serif" font-size="10.00">SamplingContainer.cpp</text>
</a>
</g>
</g>
<!-- Node17&#45;&gt;Node30 -->
<g id="edge29" class="edge">
<title>Node17&#45;&gt;Node30</title>
<path fill="none" stroke="midnightblue" d="M432.16,-119.5C455.78,-109.38 488.43,-95.39 509.13,-86.52"/>
<polygon fill="midnightblue" stroke="midnightblue" points="430.78,-116.29 422.97,-123.44 433.54,-122.72 430.78,-116.29"/>
</g>
<!-- Node31 -->
<g id="node28" class="node">
<title>Node31</title>
<g id="a_node28"><a xlink:href="_a_b_l_stats_8_h.html" target="_top" xlink:title=" ">
<polygon fill="white" stroke="black" points="611.5,-67.5 611.5,-86.5 682.5,-86.5 682.5,-67.5 611.5,-67.5"/>
<text text-anchor="middle" x="647" y="-74.5" font-family="Helvetica,sans-Serif" font-size="10.00">ABLStats.H</text>
</a>
</g>
</g>
<!-- Node17&#45;&gt;Node31 -->
<g id="edge30" class="edge">
<title>Node17&#45;&gt;Node31</title>
<path fill="none" stroke="midnightblue" d="M451.64,-121.24C498.77,-110.81 569.13,-95.23 611.3,-85.9"/>
<polygon fill="midnightblue" stroke="midnightblue" points="450.67,-117.87 441.66,-123.44 452.18,-124.7 450.67,-117.87"/>
</g>
<!-- Node19 -->
<g id="node19" class="node">
<title>Node19</title>
<g id="a_node19"><a xlink:href="_lidar_sampler_8_h.html" target="_top" xlink:title=" ">
<polygon fill="white" stroke="red" points="357.5,-6 357.5,-25 448.5,-25 448.5,-6 357.5,-6"/>
<text text-anchor="middle" x="403" y="-13" font-family="Helvetica,sans-Serif" font-size="10.00">LidarSampler.H</text>
</a>
</g>
</g>
<!-- Node18&#45;&gt;Node19 -->
<g id="edge21" class="edge">
<title>Node18&#45;&gt;Node19</title>
<path fill="none" stroke="midnightblue" d="M403,-57.32C403,-46.5 403,-33.4 403,-25.01"/>
<polygon fill="midnightblue" stroke="midnightblue" points="399.5,-57.48 403,-67.48 406.5,-57.48 399.5,-57.48"/>
</g>
<!-- Node23 -->
<g id="node20" class="node">
<title>Node23</title>
<g id="a_node20"><a xlink:href="_line_sampler_8cpp.html" target="_top" xlink:title=" ">
<polygon fill="white" stroke="black" points="466.5,-6 466.5,-25 563.5,-25 563.5,-6 466.5,-6"/>
<text text-anchor="middle" x="515" y="-13" font-family="Helvetica,sans-Serif" font-size="10.00">LineSampler.cpp</text>
</a>
</g>
</g>
<!-- Node18&#45;&gt;Node23 -->
<g id="edge22" class="edge">
<title>Node18&#45;&gt;Node23</title>
<path fill="none" stroke="midnightblue" d="M428.01,-62.71C449.7,-51.19 480.45,-34.86 498.98,-25.01"/>
<polygon fill="midnightblue" stroke="midnightblue" points="426.24,-59.69 419.05,-67.48 429.52,-65.87 426.24,-59.69"/>
</g>
<!-- Node25 -->
<g id="node22" class="node">
<title>Node25</title>
<g id="a_node22"><a xlink:href="_plane_sampler_8cpp.html" target="_top" xlink:title=" ">
<polygon fill="white" stroke="black" points="0,-6 0,-25 104,-25 104,-6 0,-6"/>
<text text-anchor="middle" x="52" y="-13" font-family="Helvetica,sans-Serif" font-size="10.00">PlaneSampler.cpp</text>
</a>
</g>
</g>
<!-- Node24&#45;&gt;Node25 -->
<g id="edge24" class="edge">
<title>Node24&#45;&gt;Node25</title>
<path fill="none" stroke="midnightblue" d="M52,-57.32C52,-46.5 52,-33.4 52,-25.01"/>
<polygon fill="midnightblue" stroke="midnightblue" points="48.5,-57.48 52,-67.48 55.5,-57.48 48.5,-57.48"/>
</g>
<!-- Node27 -->
<g id="node24" class="node">
<title>Node27</title>
<g id="a_node24"><a xlink:href="_probe_sampler_8cpp.html" target="_top" xlink:title=" ">
<polygon fill="white" stroke="black" points="235,-6 235,-25 339,-25 339,-6 235,-6"/>
<text text-anchor="middle" x="287" y="-13" font-family="Helvetica,sans-Serif" font-size="10.00">ProbeSampler.cpp</text>
</a>
</g>
</g>
<!-- Node26&#45;&gt;Node27 -->
<g id="edge26" class="edge">
<title>Node26&#45;&gt;Node27</title>
<path fill="none" stroke="midnightblue" d="M291.8,-57.32C290.53,-46.5 288.99,-33.4 288,-25.01"/>
<polygon fill="midnightblue" stroke="midnightblue" points="288.35,-57.95 293,-67.48 295.3,-57.13 288.35,-57.95"/>
</g>
<!-- Node28&#45;&gt;Node29 -->
<g id="edge28" class="edge">
<title>Node28&#45;&gt;Node29</title>
<path fill="none" stroke="midnightblue" d="M185.34,-58C181.3,-47.05 176.31,-33.57 173.15,-25.01"/>
<polygon fill="midnightblue" stroke="midnightblue" points="182.1,-59.31 188.85,-67.48 188.66,-56.88 182.1,-59.31"/>
</g>
<!-- Node31&#45;&gt;Node5 -->
<g id="edge31" class="edge">
<title>Node31&#45;&gt;Node5</title>
<path fill="none" stroke="midnightblue" d="M642.99,-57.66C640.61,-46.77 637.71,-33.49 635.86,-25.01"/>
<polygon fill="midnightblue" stroke="midnightblue" points="639.58,-58.45 645.14,-67.48 646.42,-56.96 639.58,-58.45"/>
</g>
<!-- Node34&#45;&gt;Node4 -->
<g id="edge36" class="edge">
<title>Node34&#45;&gt;Node4</title>
<path fill="none" stroke="midnightblue" d="M1152.82,-118.52C1124.69,-103.46 1076.4,-79.57 1032,-67 913.39,-33.43 876.38,-61.72 757,-31 751.12,-29.49 744.91,-27.3 739.29,-25.08"/>
<polygon fill="midnightblue" stroke="midnightblue" points="1151.44,-121.75 1161.9,-123.44 1154.78,-115.59 1151.44,-121.75"/>
</g>
<!-- Node34&#45;&gt;Node33 -->
<g id="edge49" class="edge">
<title>Node34&#45;&gt;Node33</title>
<path fill="none" stroke="midnightblue" d="M1189.74,-114.94C1202.53,-99.31 1223.76,-77.11 1248,-67 1397.69,-4.54 1816.02,-50.85 1977,-31 1988.67,-29.56 2001.27,-27.31 2012.66,-25.01"/>
<polygon fill="midnightblue" stroke="midnightblue" points="1186.65,-113.21 1183.23,-123.24 1192.15,-117.53 1186.65,-113.21"/>
</g>
<!-- Node35 -->
<g id="node32" class="node">
<title>Node35</title>
<g id="a_node32"><a xlink:href="_a_b_l_8_h.html" target="_top" xlink:title=" ">
<polygon fill="white" stroke="black" points="1154,-67.5 1154,-86.5 1200,-86.5 1200,-67.5 1154,-67.5"/>
<text text-anchor="middle" x="1177" y="-74.5" font-family="Helvetica,sans-Serif" font-size="10.00">ABL.H</text>
</a>
</g>
</g>
<!-- Node34&#45;&gt;Node35 -->
<g id="edge37" class="edge">
<title>Node34&#45;&gt;Node35</title>
<path fill="none" stroke="midnightblue" d="M1177,-112.8C1177,-103.91 1177,-93.78 1177,-86.75"/>
<polygon fill="midnightblue" stroke="midnightblue" points="1173.5,-113.08 1177,-123.08 1180.5,-113.08 1173.5,-113.08"/>
</g>
<!-- Node44 -->
<g id="node41" class="node">
<title>Node44</title>
<g id="a_node41"><a xlink:href="_a_b_l_fill_inflow_8_h.html" target="_top" xlink:title=" ">
<polygon fill="white" stroke="red" points="1256.5,-67.5 1256.5,-86.5 1345.5,-86.5 1345.5,-67.5 1256.5,-67.5"/>
<text text-anchor="middle" x="1301" y="-74.5" font-family="Helvetica,sans-Serif" font-size="10.00">ABLFillInflow.H</text>
</a>
</g>
</g>
<!-- Node34&#45;&gt;Node44 -->
<g id="edge50" class="edge">
<title>Node34&#45;&gt;Node44</title>
<path fill="none" stroke="midnightblue" d="M1206.01,-119.37C1229.23,-109.26 1261.16,-95.35 1281.44,-86.52"/>
<polygon fill="midnightblue" stroke="midnightblue" points="1204.42,-116.24 1196.65,-123.44 1207.21,-122.66 1204.42,-116.24"/>
</g>
<!-- Node35&#45;&gt;Node3 -->
<g id="edge40" class="edge">
<title>Node35&#45;&gt;Node3</title>
<path fill="none" stroke="midnightblue" d="M1143.69,-70.27C1094.37,-61.77 999.02,-45.29 918,-31 907.17,-29.09 895.52,-27.02 884.54,-25.05"/>
<polygon fill="midnightblue" stroke="midnightblue" points="1143.33,-73.76 1153.78,-72.01 1144.52,-66.86 1143.33,-73.76"/>
</g>
<!-- Node35&#45;&gt;Node4 -->
<g id="edge47" class="edge">
<title>Node35&#45;&gt;Node4</title>
<path fill="none" stroke="midnightblue" d="M1143.78,-72.95C1051.13,-64.39 794.26,-40.12 757,-31 750.97,-29.52 744.61,-27.29 738.89,-25.02"/>
<polygon fill="midnightblue" stroke="midnightblue" points="1143.71,-76.46 1153.99,-73.9 1144.35,-69.49 1143.71,-76.46"/>
</g>
<!-- Node35&#45;&gt;Node6 -->
<g id="edge42" class="edge">
<title>Node35&#45;&gt;Node6</title>
<path fill="none" stroke="midnightblue" d="M1144.31,-65.13C1109.66,-53.62 1055.64,-35.66 1023.84,-25.09"/>
<polygon fill="midnightblue" stroke="midnightblue" points="1143.37,-68.51 1153.97,-68.34 1145.58,-61.87 1143.37,-68.51"/>
</g>
<!-- Node36 -->
<g id="node33" class="node">
<title>Node36</title>
<g id="a_node33"><a xlink:href="_a_b_l_forcing_8cpp.html" target="_top" xlink:title=" ">
<polygon fill="white" stroke="black" points="1087.5,-6 1087.5,-25 1178.5,-25 1178.5,-6 1087.5,-6"/>
<text text-anchor="middle" x="1133" y="-13" font-family="Helvetica,sans-Serif" font-size="10.00">ABLForcing.cpp</text>
</a>
</g>
</g>
<!-- Node35&#45;&gt;Node36 -->
<g id="edge38" class="edge">
<title>Node35&#45;&gt;Node36</title>
<path fill="none" stroke="midnightblue" d="M1164.68,-59.34C1156.42,-48.17 1145.89,-33.93 1139.29,-25.01"/>
<polygon fill="midnightblue" stroke="midnightblue" points="1161.94,-61.52 1170.7,-67.48 1167.56,-57.35 1161.94,-61.52"/>
</g>
<!-- Node37 -->
<g id="node34" class="node">
<title>Node37</title>
<g id="a_node34"><a xlink:href="_a_b_l_mean_boussinesq_8cpp.html" target="_top" xlink:title=" ">
<polygon fill="white" stroke="black" points="1197,-6 1197,-25 1335,-25 1335,-6 1197,-6"/>
<text text-anchor="middle" x="1266" y="-13" font-family="Helvetica,sans-Serif" font-size="10.00">ABLMeanBoussinesq.cpp</text>
</a>
</g>
</g>
<!-- Node35&#45;&gt;Node37 -->
<g id="edge39" class="edge">
<title>Node35&#45;&gt;Node37</title>
<path fill="none" stroke="midnightblue" d="M1198.52,-61.61C1215.64,-50.17 1239.01,-34.55 1253.27,-25.01"/>
<polygon fill="midnightblue" stroke="midnightblue" points="1196.12,-59.01 1189.75,-67.48 1200.01,-64.83 1196.12,-59.01"/>
</g>
<!-- Node38 -->
<g id="node35" class="node">
<title>Node38</title>
<g id="a_node35"><a xlink:href="_hurricane_forcing_8cpp.html" target="_top" xlink:title=" ">
<polygon fill="white" stroke="black" points="1353.5,-6 1353.5,-25 1472.5,-25 1472.5,-6 1353.5,-6"/>
<text text-anchor="middle" x="1413" y="-13" font-family="Helvetica,sans-Serif" font-size="10.00">HurricaneForcing.cpp</text>
</a>
</g>
</g>
<!-- Node35&#45;&gt;Node38 -->
<g id="edge41" class="edge">
<title>Node35&#45;&gt;Node38</title>
<path fill="none" stroke="midnightblue" d="M1209.81,-67.73C1254.37,-56.49 1333.65,-36.51 1378.88,-25.1"/>
<polygon fill="midnightblue" stroke="midnightblue" points="1208.9,-64.35 1200.06,-70.19 1210.61,-71.14 1208.9,-64.35"/>
</g>
<!-- Node39 -->
<g id="node36" class="node">
<title>Node39</title>
<g id="a_node36"><a xlink:href="helics_8cpp.html" target="_top" xlink:title=" ">
<polygon fill="white" stroke="black" points="1490.5,-6 1490.5,-25 1555.5,-25 1555.5,-6 1490.5,-6"/>
<text text-anchor="middle" x="1523" y="-13" font-family="Helvetica,sans-Serif" font-size="10.00">helics.cpp</text>
</a>
</g>
</g>
<!-- Node35&#45;&gt;Node39 -->
<g id="edge43" class="edge">
<title>Node35&#45;&gt;Node39</title>
<path fill="none" stroke="midnightblue" d="M1210.11,-67.77C1211.42,-67.5 1212.72,-67.24 1214,-67 1332.11,-44.77 1365.17,-59.19 1482,-31 1488.46,-29.44 1495.32,-27.24 1501.55,-25.02"/>
<polygon fill="midnightblue" stroke="midnightblue" points="1209.02,-64.42 1200.01,-70.01 1210.53,-71.26 1209.02,-64.42"/>
</g>
<!-- Node40 -->
<g id="node37" class="node">
<title>Node40</title>
<g id="a_node37"><a xlink:href="incflo_8cpp.html" target="_top" xlink:title=" ">
<polygon fill="white" stroke="black" points="1573.5,-6 1573.5,-25 1636.5,-25 1636.5,-6 1573.5,-6"/>
<text text-anchor="middle" x="1605" y="-13" font-family="Helvetica,sans-Serif" font-size="10.00">incflo.cpp</text>
</a>
</g>
</g>
<!-- Node35&#45;&gt;Node40 -->
<g id="edge44" class="edge">
<title>Node35&#45;&gt;Node40</title>
<path fill="none" stroke="midnightblue" d="M1210.21,-67.69C1211.49,-67.45 1212.75,-67.21 1214,-67 1368.55,-40.41 1412.13,-65.99 1565,-31 1571.48,-29.52 1578.35,-27.28 1584.53,-25.01"/>
<polygon fill="midnightblue" stroke="midnightblue" points="1209.43,-64.28 1200.39,-69.8 1210.9,-71.13 1209.43,-64.28"/>
</g>
<!-- Node41 -->
<g id="node38" class="node">
<title>Node41</title>
<g id="a_node38"><a xlink:href="incflo__apply__nodal__projection_8cpp.html" target="_top" xlink:title=" ">
<polygon fill="white" stroke="black" points="1654.5,-0.5 1654.5,-30.5 1761.5,-30.5 1761.5,-0.5 1654.5,-0.5"/>
<text text-anchor="start" x="1662.5" y="-18.5" font-family="Helvetica,sans-Serif" font-size="10.00">incflo_apply_nodal</text>
<text text-anchor="middle" x="1708" y="-7.5" font-family="Helvetica,sans-Serif" font-size="10.00">_projection.cpp</text>
</a>
</g>
</g>
<!-- Node35&#45;&gt;Node41 -->
<g id="edge45" class="edge">
<title>Node35&#45;&gt;Node41</title>
<path fill="none" stroke="midnightblue" d="M1210.21,-67.66C1211.48,-67.43 1212.75,-67.2 1214,-67 1404.18,-36.14 1455.69,-61.02 1646,-31 1648.73,-30.57 1651.52,-30.08 1654.33,-29.56"/>
<polygon fill="midnightblue" stroke="midnightblue" points="1209.44,-64.25 1200.38,-69.73 1210.88,-71.1 1209.44,-64.25"/>
</g>
<!-- Node42 -->
<g id="node39" class="node">
<title>Node42</title>
<g id="a_node39"><a xlink:href="init_8cpp.html" target="_top" xlink:title=" ">
<polygon fill="white" stroke="black" points="1779.5,-6 1779.5,-25 1832.5,-25 1832.5,-6 1779.5,-6"/>
<text text-anchor="middle" x="1806" y="-13" font-family="Helvetica,sans-Serif" font-size="10.00">init.cpp</text>
</a>
</g>
</g>
<!-- Node35&#45;&gt;Node42 -->
<g id="edge46" class="edge">
<title>Node35&#45;&gt;Node42</title>
<path fill="none" stroke="midnightblue" d="M1210.2,-67.63C1211.48,-67.4 1212.75,-67.19 1214,-67 1459.23,-29.54 1529.38,-87.23 1771,-31 1776.89,-29.63 1783.07,-27.37 1788.57,-25.04"/>
<polygon fill="midnightblue" stroke="midnightblue" points="1209.45,-64.21 1200.37,-69.67 1210.87,-71.07 1209.45,-64.21"/>
</g>
<!-- Node43 -->
<g id="node40" class="node">
<title>Node43</title>
<g id="a_node40"><a xlink:href="_a_b_l_wall_function_8cpp.html" target="_top" xlink:title=" ">
<polygon fill="white" stroke="black" points="1850.5,-6 1850.5,-25 1967.5,-25 1967.5,-6 1850.5,-6"/>
<text text-anchor="middle" x="1909" y="-13" font-family="Helvetica,sans-Serif" font-size="10.00">ABLWallFunction.cpp</text>
</a>
</g>
</g>
<!-- Node35&#45;&gt;Node43 -->
<g id="edge48" class="edge">
<title>Node35&#45;&gt;Node43</title>
<path fill="none" stroke="midnightblue" d="M1210.2,-67.62C1211.48,-67.4 1212.75,-67.19 1214,-67 1490.52,-25.79 1564.98,-68.68 1842,-31 1852.61,-29.56 1864.05,-27.34 1874.41,-25.06"/>
<polygon fill="midnightblue" stroke="midnightblue" points="1209.45,-64.2 1200.36,-69.64 1210.86,-71.06 1209.45,-64.2"/>
</g>
<!-- Node44&#45;&gt;Node33 -->
<g id="edge51" class="edge">
<title>Node44&#45;&gt;Node33</title>
<path fill="none" stroke="midnightblue" d="M1356.05,-67.44C1357.38,-67.28 1358.7,-67.14 1360,-67 1633.18,-38.26 1704.53,-65.84 1977,-31 1988.54,-29.53 2000.98,-27.29 2012.27,-25.02"/>
<polygon fill="midnightblue" stroke="midnightblue" points="1355.21,-64.01 1345.72,-68.73 1356.08,-70.96 1355.21,-64.01"/>
</g>
</g>
</svg>
        <g id="navigator" transform="translate(0 0)" fill="#404254">
                <rect fill="#f2f5e9" fill-opacity="0.5" stroke="#606060" stroke-width=".5" x="0" y="0" width="60" height="60"/>
                <use id="zoomplus" xlink:href="#zoomPlus" x="17" y="9" onmousedown="handleZoom(evt,'in')"/>
                <use id="zoomminus" xlink:href="#zoomMin" x="42" y="9" onmousedown="handleZoom(evt,'out')"/>
                <use id="reset" xlink:href="#resetDef" x="30" y="36" onmousedown="handleReset()"/>
                <g id="arrowUp" xlink:href="#dirArrow" transform="translate(30 24)" onmousedown="handlePan(0,-1)">
                  <use xlink:href="#rim" fill="#404040">
                        <set attributeName="fill" to="#808080" begin="arrowUp.mouseover" end="arrowUp.mouseout"/>
                  </use>
                  <path fill="none" stroke="white" stroke-width="1.5" d="M0,-3.0v7 M-2.5,-0.5L0,-3.0L2.5,-0.5"/>
                </g>
                <g id="arrowRight" xlink:href="#dirArrow" transform="rotate(90) translate(36 -43)" onmousedown="handlePan(1,0)">
                  <use xlink:href="#rim" fill="#404040">
                        <set attributeName="fill" to="#808080" begin="arrowRight.mouseover" end="arrowRight.mouseout"/>
                  </use>
                  <path fill="none" stroke="white" stroke-width="1.5" d="M0,-3.0v7 M-2.5,-0.5L0,-3.0L2.5,-0.5"/>
                </g>
                <g id="arrowDown" xlink:href="#dirArrow" transform="rotate(180) translate(-30 -48)" onmousedown="handlePan(0,1)">
                  <use xlink:href="#rim" fill="#404040">
                        <set attributeName="fill" to="#808080" begin="arrowDown.mouseover" end="arrowDown.mouseout"/>
                  </use>
                  <path fill="none" stroke="white" stroke-width="1.5" d="M0,-3.0v7 M-2.5,-0.5L0,-3.0L2.5,-0.5"/>
                </g>
                <g id="arrowLeft" xlink:href="#dirArrow" transform="rotate(270) translate(-36 17)" onmousedown="handlePan(-1,0)">
                  <use xlink:href="#rim" fill="#404040">
                        <set attributeName="fill" to="#808080" begin="arrowLeft.mouseover" end="arrowLeft.mouseout"/>
                  </use>
                  <path fill="none" stroke="white" stroke-width="1.5" d="M0,-3.0v7 M-2.5,-0.5L0,-3.0L2.5,-0.5"/>
                </g>
        </g>
        <svg viewBox="0 0 15 15" width="100%" height="30px" preserveAspectRatio="xMaxYMin meet">
         <g id="arrow_out" transform="scale(0.3 0.3)">
          <a xlink:href="nc__interface_8_h__dep__incl_org.svg" target="_base">
           <rect id="button" ry="5" rx="5" y="6" x="6" height="38" width="38"
                fill="#f2f5e9" fill-opacity="0.5" stroke="#606060" stroke-width="1.0"/>
           <path id="arrow"
             d="M 11.500037,31.436501 C 11.940474,20.09759 22.043105,11.32322 32.158766,21.979434 L 37.068811,17.246167 C 37.068811,17.246167 37.088388,32 37.088388,32 L 22.160133,31.978069 C 22.160133,31.978069 26.997745,27.140456 26.997745,27.140456 C 18.528582,18.264221 13.291696,25.230495 11.500037,31.436501 z"
             style="fill:#404040;"/>
          </a>
         </g>
        </svg>
</svg>
