<?xml version="1.0" encoding="UTF-8" standalone="no"?>
<!DOCTYPE svg PUBLIC "-//W3C//DTD SVG 1.1//EN"
 "http://www.w3.org/Graphics/SVG/1.1/DTD/svg11.dtd">
<!-- Generated by graphviz version 2.43.0 (0)
 -->
<!-- Title: trig_ops.H Pages: 1 -->
<svg width="3684pt" height="375pt"
 viewBox="0.00 0.00 3684.00 375.00" xmlns="http://www.w3.org/2000/svg" xmlns:xlink="http://www.w3.org/1999/xlink">
<g id="graph0" class="graph" transform="scale(1 1) rotate(0) translate(4 371)">
<title>trig_ops.H</title>
<polygon fill="white" stroke="transparent" points="-4,4 -4,-371 3680,-371 3680,4 -4,4"/>
<!-- Node1 -->
<g id="node1" class="node">
<title>Node1</title>
<g id="a_node1"><a xlink:title="Trigonometric utilities.">
<polygon fill="#bfbfbf" stroke="black" points="1746,-347.5 1746,-366.5 1812,-366.5 1812,-347.5 1746,-347.5"/>
<text text-anchor="middle" x="1779" y="-354.5" font-family="Helvetica,sans-Serif" font-size="10.00">trig_ops.H</text>
</a>
</g>
</g>
<!-- Node2 -->
<g id="node2" class="node">
<title>Node2</title>
<g id="a_node2"><a xlink:href="_wall_function_8cpp.html" target="_top" xlink:title=" ">
<polygon fill="white" stroke="black" points="302.5,-291.5 302.5,-310.5 401.5,-310.5 401.5,-291.5 302.5,-291.5"/>
<text text-anchor="middle" x="352" y="-298.5" font-family="Helvetica,sans-Serif" font-size="10.00">WallFunction.cpp</text>
</a>
</g>
</g>
<!-- Node1&#45;&gt;Node2 -->
<g id="edge1" class="edge">
<title>Node1&#45;&gt;Node2</title>
<path fill="none" stroke="midnightblue" d="M1735.62,-355.28C1532.77,-351.82 676.48,-335.96 410,-311 407.26,-310.74 404.45,-310.44 401.62,-310.1"/>
<polygon fill="midnightblue" stroke="midnightblue" points="1735.82,-358.79 1745.87,-355.46 1735.93,-351.79 1735.82,-358.79"/>
</g>
<!-- Node3 -->
<g id="node3" class="node">
<title>Node3</title>
<g id="a_node3"><a xlink:href="tensor_i_8_h.html" target="_top" xlink:title=" ">
<polygon fill="white" stroke="black" points="419.5,-291.5 419.5,-310.5 480.5,-310.5 480.5,-291.5 419.5,-291.5"/>
<text text-anchor="middle" x="450" y="-298.5" font-family="Helvetica,sans-Serif" font-size="10.00">tensorI.H</text>
</a>
</g>
</g>
<!-- Node1&#45;&gt;Node3 -->
<g id="edge2" class="edge">
<title>Node1&#45;&gt;Node3</title>
<path fill="none" stroke="midnightblue" d="M1735.79,-355.43C1541,-352.71 743.27,-339.98 495,-311 490.41,-310.46 485.59,-309.71 480.88,-308.86"/>
<polygon fill="midnightblue" stroke="midnightblue" points="1735.87,-358.93 1745.92,-355.57 1735.97,-351.93 1735.87,-358.93"/>
</g>
<!-- Node76 -->
<g id="node6" class="node">
<title>Node76</title>
<g id="a_node6"><a xlink:href="_a_b_l_modulated_power_law_8_h.html" target="_top" xlink:title=" ">
<polygon fill="white" stroke="black" points="362,-123.5 362,-142.5 508,-142.5 508,-123.5 362,-123.5"/>
<text text-anchor="middle" x="435" y="-130.5" font-family="Helvetica,sans-Serif" font-size="10.00">ABLModulatedPowerLaw.H</text>
</a>
</g>
</g>
<!-- Node1&#45;&gt;Node76 -->
<g id="edge48" class="edge">
<title>Node1&#45;&gt;Node76</title>
<path fill="none" stroke="midnightblue" d="M1735.62,-355.82C1521.1,-354.74 581.97,-347.92 533,-311 483.73,-273.86 524.84,-229.92 490,-179 479.41,-163.52 462.01,-150.56 449.61,-142.58"/>
<polygon fill="midnightblue" stroke="midnightblue" points="1735.84,-359.32 1745.86,-355.87 1735.87,-352.32 1735.84,-359.32"/>
</g>
<!-- Node78 -->
<g id="node8" class="node">
<title>Node78</title>
<g id="a_node8"><a xlink:href="_a_b_l_forcing_8cpp.html" target="_top" xlink:title=" ">
<polygon fill="white" stroke="black" points="272.5,-6 272.5,-25 363.5,-25 363.5,-6 272.5,-6"/>
<text text-anchor="middle" x="318" y="-13" font-family="Helvetica,sans-Serif" font-size="10.00">ABLForcing.cpp</text>
</a>
</g>
</g>
<!-- Node1&#45;&gt;Node78 -->
<g id="edge22" class="edge">
<title>Node1&#45;&gt;Node78</title>
<path fill="none" stroke="midnightblue" d="M1735.9,-354.96C1575.1,-350.95 1010.32,-335.38 832,-311 703.28,-293.4 547,-375.92 547,-246 547,-246 547,-246 547,-132 547,-88.14 411.39,-43.39 348.88,-25.09"/>
<polygon fill="midnightblue" stroke="midnightblue" points="1735.81,-358.46 1745.9,-355.21 1735.99,-351.47 1735.81,-358.46"/>
</g>
<!-- Node81 -->
<g id="node11" class="node">
<title>Node81</title>
<g id="a_node11"><a xlink:href="_hurricane_forcing_8cpp.html" target="_top" xlink:title=" ">
<polygon fill="white" stroke="black" points="1210.5,-6 1210.5,-25 1329.5,-25 1329.5,-6 1210.5,-6"/>
<text text-anchor="middle" x="1270" y="-13" font-family="Helvetica,sans-Serif" font-size="10.00">HurricaneForcing.cpp</text>
</a>
</g>
</g>
<!-- Node1&#45;&gt;Node81 -->
<g id="edge30" class="edge">
<title>Node1&#45;&gt;Node81</title>
<path fill="none" stroke="midnightblue" d="M1735.3,-355.52C1581.6,-353.53 1071.71,-344.45 1007,-311 974.14,-294.01 955,-283 955,-246 955,-246 955,-246 955,-132 955,-13.81 1084.96,-53.43 1201,-31 1210.61,-29.14 1220.96,-27.03 1230.64,-25"/>
<polygon fill="midnightblue" stroke="midnightblue" points="1735.7,-359.02 1745.74,-355.65 1735.78,-352.02 1735.7,-359.02"/>
</g>
<!-- Node83 -->
<g id="node13" class="node">
<title>Node83</title>
<g id="a_node13"><a xlink:href="helics_8cpp.html" target="_top" xlink:title=" ">
<polygon fill="white" stroke="black" points="1347.5,-6 1347.5,-25 1412.5,-25 1412.5,-6 1347.5,-6"/>
<text text-anchor="middle" x="1380" y="-13" font-family="Helvetica,sans-Serif" font-size="10.00">helics.cpp</text>
</a>
</g>
</g>
<!-- Node1&#45;&gt;Node83 -->
<g id="edge33" class="edge">
<title>Node1&#45;&gt;Node83</title>
<path fill="none" stroke="midnightblue" d="M1735.75,-355.46C1587.12,-353.3 1103.07,-343.8 1042,-311 1010.13,-293.88 993,-282.18 993,-246 993,-246 993,-246 993,-132 993,27.77 1184.17,-74.17 1338,-31 1344.09,-29.29 1350.59,-27.19 1356.61,-25.12"/>
<polygon fill="midnightblue" stroke="midnightblue" points="1735.81,-358.96 1745.86,-355.6 1735.91,-351.96 1735.81,-358.96"/>
</g>
<!-- Node88 -->
<g id="node18" class="node">
<title>Node88</title>
<g id="a_node18"><a xlink:href="_a_b_l_wall_function_8cpp.html" target="_top" xlink:title=" ">
<polygon fill="white" stroke="black" points="1430.5,-6 1430.5,-25 1547.5,-25 1547.5,-6 1430.5,-6"/>
<text text-anchor="middle" x="1489" y="-13" font-family="Helvetica,sans-Serif" font-size="10.00">ABLWallFunction.cpp</text>
</a>
</g>
</g>
<!-- Node1&#45;&gt;Node88 -->
<g id="edge49" class="edge">
<title>Node1&#45;&gt;Node88</title>
<path fill="none" stroke="midnightblue" d="M1735.63,-356.53C1591.08,-357.84 1132.26,-358.23 1088,-311 1081.92,-304.51 1083.85,-298.86 1088,-291 1131.78,-207.98 1402.38,-61.91 1472.45,-25.11"/>
<polygon fill="midnightblue" stroke="midnightblue" points="1735.92,-360.03 1745.88,-356.43 1735.85,-353.03 1735.92,-360.03"/>
</g>
<!-- Node111 -->
<g id="node21" class="node">
<title>Node111</title>
<g id="a_node21"><a xlink:href="_a_b_l_forcing_8_h.html" target="_top" xlink:title=" ">
<polygon fill="white" stroke="black" points="575.5,-67.5 575.5,-86.5 656.5,-86.5 656.5,-67.5 575.5,-67.5"/>
<text text-anchor="middle" x="616" y="-74.5" font-family="Helvetica,sans-Serif" font-size="10.00">ABLForcing.H</text>
</a>
</g>
</g>
<!-- Node1&#45;&gt;Node111 -->
<g id="edge23" class="edge">
<title>Node1&#45;&gt;Node111</title>
<path fill="none" stroke="midnightblue" d="M1735.8,-355.92C1542.45,-355 766,-345.12 766,-246 766,-246 766,-246 766,-188 766,-130.68 693.89,-99.96 649.66,-86.52"/>
<polygon fill="midnightblue" stroke="midnightblue" points="1735.86,-359.42 1745.87,-355.96 1735.89,-352.42 1735.86,-359.42"/>
</g>
<!-- Node113 -->
<g id="node23" class="node">
<title>Node113</title>
<g id="a_node23"><a xlink:href="icns_2source__terms_2_body_force_8cpp.html" target="_top" xlink:title=" ">
<polygon fill="white" stroke="black" points="1097,-291.5 1097,-310.5 1185,-310.5 1185,-291.5 1097,-291.5"/>
<text text-anchor="middle" x="1141" y="-298.5" font-family="Helvetica,sans-Serif" font-size="10.00">BodyForce.cpp</text>
</a>
</g>
</g>
<!-- Node1&#45;&gt;Node113 -->
<g id="edge27" class="edge">
<title>Node1&#45;&gt;Node113</title>
<path fill="none" stroke="midnightblue" d="M1735.89,-354.04C1638.84,-349.32 1395.92,-335.86 1194,-311 1191.13,-310.65 1188.18,-310.25 1185.2,-309.82"/>
<polygon fill="midnightblue" stroke="midnightblue" points="1735.75,-357.53 1745.91,-354.52 1736.09,-350.54 1735.75,-357.53"/>
</g>
<!-- Node114 -->
<g id="node24" class="node">
<title>Node114</title>
<g id="a_node24"><a xlink:href="_coriolis_forcing_8cpp.html" target="_top" xlink:title=" ">
<polygon fill="white" stroke="black" points="1203.5,-291.5 1203.5,-310.5 1312.5,-310.5 1312.5,-291.5 1203.5,-291.5"/>
<text text-anchor="middle" x="1258" y="-298.5" font-family="Helvetica,sans-Serif" font-size="10.00">CoriolisForcing.cpp</text>
</a>
</g>
</g>
<!-- Node1&#45;&gt;Node114 -->
<g id="edge28" class="edge">
<title>Node1&#45;&gt;Node114</title>
<path fill="none" stroke="midnightblue" d="M1735.54,-352.37C1654.11,-345.43 1473.02,-329.32 1321,-311 1318.26,-310.67 1315.45,-310.32 1312.62,-309.95"/>
<polygon fill="midnightblue" stroke="midnightblue" points="1735.64,-355.89 1745.9,-353.25 1736.23,-348.92 1735.64,-355.89"/>
</g>
<!-- Node115 -->
<g id="node25" class="node">
<title>Node115</title>
<g id="a_node25"><a xlink:href="_geostrophic_forcing_8cpp.html" target="_top" xlink:title=" ">
<polygon fill="white" stroke="black" points="1330.5,-291.5 1330.5,-310.5 1461.5,-310.5 1461.5,-291.5 1330.5,-291.5"/>
<text text-anchor="middle" x="1396" y="-298.5" font-family="Helvetica,sans-Serif" font-size="10.00">GeostrophicForcing.cpp</text>
</a>
</g>
</g>
<!-- Node1&#45;&gt;Node115 -->
<g id="edge29" class="edge">
<title>Node1&#45;&gt;Node115</title>
<path fill="none" stroke="midnightblue" d="M1735.69,-349.89C1667.36,-340.26 1534.36,-321.51 1456.6,-310.54"/>
<polygon fill="midnightblue" stroke="midnightblue" points="1735.29,-353.37 1745.68,-351.3 1736.27,-346.44 1735.29,-353.37"/>
</g>
<!-- Node116 -->
<g id="node26" class="node">
<title>Node116</title>
<g id="a_node26"><a xlink:href="_rayleigh_damping_8cpp.html" target="_top" xlink:title=" ">
<polygon fill="white" stroke="black" points="1480,-291.5 1480,-310.5 1604,-310.5 1604,-291.5 1480,-291.5"/>
<text text-anchor="middle" x="1542" y="-298.5" font-family="Helvetica,sans-Serif" font-size="10.00">RayleighDamping.cpp</text>
</a>
</g>
</g>
<!-- Node1&#45;&gt;Node116 -->
<g id="edge31" class="edge">
<title>Node1&#45;&gt;Node116</title>
<path fill="none" stroke="midnightblue" d="M1735.83,-346.16C1691.19,-335.99 1622.18,-320.27 1579.67,-310.58"/>
<polygon fill="midnightblue" stroke="midnightblue" points="1735.27,-349.63 1745.8,-348.43 1736.82,-342.8 1735.27,-349.63"/>
</g>
<!-- Node117 -->
<g id="node27" class="node">
<title>Node117</title>
<g id="a_node27"><a xlink:href="temperature_2source__terms_2_body_force_8cpp.html" target="_top" xlink:title=" ">
<polygon fill="white" stroke="black" points="1622,-291.5 1622,-310.5 1710,-310.5 1710,-291.5 1622,-291.5"/>
<text text-anchor="middle" x="1666" y="-298.5" font-family="Helvetica,sans-Serif" font-size="10.00">BodyForce.cpp</text>
</a>
</g>
</g>
<!-- Node1&#45;&gt;Node117 -->
<g id="edge32" class="edge">
<title>Node1&#45;&gt;Node117</title>
<path fill="none" stroke="midnightblue" d="M1752,-343.1C1730.89,-333.01 1702.14,-319.27 1683.82,-310.52"/>
<polygon fill="midnightblue" stroke="midnightblue" points="1750.56,-346.29 1761.09,-347.44 1753.58,-339.97 1750.56,-346.29"/>
</g>
<!-- Node118 -->
<g id="node28" class="node">
<title>Node118</title>
<g id="a_node28"><a xlink:href="_burggraf_flow_8cpp.html" target="_top" xlink:title=" ">
<polygon fill="white" stroke="black" points="1728.5,-291.5 1728.5,-310.5 1829.5,-310.5 1829.5,-291.5 1728.5,-291.5"/>
<text text-anchor="middle" x="1779" y="-298.5" font-family="Helvetica,sans-Serif" font-size="10.00">BurggrafFlow.cpp</text>
</a>
</g>
</g>
<!-- Node1&#45;&gt;Node118 -->
<g id="edge34" class="edge">
<title>Node1&#45;&gt;Node118</title>
<path fill="none" stroke="midnightblue" d="M1779,-336.8C1779,-327.91 1779,-317.78 1779,-310.75"/>
<polygon fill="midnightblue" stroke="midnightblue" points="1775.5,-337.08 1779,-347.08 1782.5,-337.08 1775.5,-337.08"/>
</g>
<!-- Node119 -->
<g id="node29" class="node">
<title>Node119</title>
<g id="a_node29"><a xlink:href="_channel_flow_8cpp.html" target="_top" xlink:title=" ">
<polygon fill="white" stroke="black" points="1847.5,-291.5 1847.5,-310.5 1946.5,-310.5 1946.5,-291.5 1847.5,-291.5"/>
<text text-anchor="middle" x="1897" y="-298.5" font-family="Helvetica,sans-Serif" font-size="10.00">ChannelFlow.cpp</text>
</a>
</g>
</g>
<!-- Node1&#45;&gt;Node119 -->
<g id="edge35" class="edge">
<title>Node1&#45;&gt;Node119</title>
<path fill="none" stroke="midnightblue" d="M1806.9,-343.23C1828.97,-333.13 1859.18,-319.31 1878.39,-310.52"/>
<polygon fill="midnightblue" stroke="midnightblue" points="1805.33,-340.1 1797.7,-347.44 1808.25,-346.46 1805.33,-340.1"/>
</g>
<!-- Node120 -->
<g id="node30" class="node">
<title>Node120</title>
<g id="a_node30"><a xlink:href="_convecting_taylor_vortex_8cpp.html" target="_top" xlink:title=" ">
<polygon fill="white" stroke="black" points="1965,-291.5 1965,-310.5 2117,-310.5 2117,-291.5 1965,-291.5"/>
<text text-anchor="middle" x="2041" y="-298.5" font-family="Helvetica,sans-Serif" font-size="10.00">ConvectingTaylorVortex.cpp</text>
</a>
</g>
</g>
<!-- Node1&#45;&gt;Node120 -->
<g id="edge36" class="edge">
<title>Node1&#45;&gt;Node120</title>
<path fill="none" stroke="midnightblue" d="M1822.18,-347.1C1871.32,-336.97 1951.02,-320.55 1999.46,-310.56"/>
<polygon fill="midnightblue" stroke="midnightblue" points="1821.27,-343.71 1812.18,-349.16 1822.68,-350.57 1821.27,-343.71"/>
</g>
<!-- Node121 -->
<g id="node31" class="node">
<title>Node121</title>
<g id="a_node31"><a xlink:href="_ekman_spiral_8cpp.html" target="_top" xlink:title=" ">
<polygon fill="white" stroke="black" points="2135,-291.5 2135,-310.5 2233,-310.5 2233,-291.5 2135,-291.5"/>
<text text-anchor="middle" x="2184" y="-298.5" font-family="Helvetica,sans-Serif" font-size="10.00">EkmanSpiral.cpp</text>
</a>
</g>
</g>
<!-- Node1&#45;&gt;Node121 -->
<g id="edge37" class="edge">
<title>Node1&#45;&gt;Node121</title>
<path fill="none" stroke="midnightblue" d="M1822.03,-350.77C1887.65,-342.72 2016.68,-326.57 2126,-311 2128.93,-310.58 2131.93,-310.15 2134.97,-309.7"/>
<polygon fill="midnightblue" stroke="midnightblue" points="1821.55,-347.3 1812.05,-351.99 1822.4,-354.25 1821.55,-347.3"/>
</g>
<!-- Node122 -->
<g id="node32" class="node">
<title>Node122</title>
<g id="a_node32"><a xlink:href="_free_stream_8cpp.html" target="_top" xlink:title=" ">
<polygon fill="white" stroke="black" points="2251.5,-291.5 2251.5,-310.5 2344.5,-310.5 2344.5,-291.5 2251.5,-291.5"/>
<text text-anchor="middle" x="2298" y="-298.5" font-family="Helvetica,sans-Serif" font-size="10.00">FreeStream.cpp</text>
</a>
</g>
</g>
<!-- Node1&#45;&gt;Node122 -->
<g id="edge38" class="edge">
<title>Node1&#45;&gt;Node122</title>
<path fill="none" stroke="midnightblue" d="M1822.4,-352.69C1904.51,-346.23 2088.15,-330.82 2242,-311 2245.03,-310.61 2248.14,-310.18 2251.28,-309.73"/>
<polygon fill="midnightblue" stroke="midnightblue" points="1821.9,-349.22 1812.2,-353.49 1822.45,-356.2 1821.9,-349.22"/>
</g>
<!-- Node123 -->
<g id="node33" class="node">
<title>Node123</title>
<g id="a_node33"><a xlink:href="_breaking_waves_8cpp.html" target="_top" xlink:title=" ">
<polygon fill="white" stroke="black" points="2362.5,-291.5 2362.5,-310.5 2475.5,-310.5 2475.5,-291.5 2362.5,-291.5"/>
<text text-anchor="middle" x="2419" y="-298.5" font-family="Helvetica,sans-Serif" font-size="10.00">BreakingWaves.cpp</text>
</a>
</g>
</g>
<!-- Node1&#45;&gt;Node123 -->
<g id="edge39" class="edge">
<title>Node1&#45;&gt;Node123</title>
<path fill="none" stroke="midnightblue" d="M1822.23,-353.46C1917.99,-347.65 2155.18,-332.22 2353,-311 2355.99,-310.68 2359.05,-310.33 2362.14,-309.96"/>
<polygon fill="midnightblue" stroke="midnightblue" points="1821.83,-349.98 1812.06,-354.07 1822.26,-356.96 1821.83,-349.98"/>
</g>
<!-- Node124 -->
<g id="node34" class="node">
<title>Node124</title>
<g id="a_node34"><a xlink:href="_scalar_advection_8_h.html" target="_top" xlink:title=" ">
<polygon fill="white" stroke="black" points="2494,-291.5 2494,-310.5 2600,-310.5 2600,-291.5 2494,-291.5"/>
<text text-anchor="middle" x="2547" y="-298.5" font-family="Helvetica,sans-Serif" font-size="10.00">ScalarAdvection.H</text>
</a>
</g>
</g>
<!-- Node1&#45;&gt;Node124 -->
<g id="edge40" class="edge">
<title>Node1&#45;&gt;Node124</title>
<path fill="none" stroke="midnightblue" d="M1822.19,-354.42C1932.59,-350.12 2234.04,-336.79 2484,-311 2487.19,-310.67 2490.46,-310.3 2493.76,-309.9"/>
<polygon fill="midnightblue" stroke="midnightblue" points="1821.97,-350.93 1812.11,-354.81 1822.24,-357.92 1821.97,-350.93"/>
</g>
<!-- Node67 -->
<g id="node36" class="node">
<title>Node67</title>
<g id="a_node36"><a xlink:href="_synthetic_turbulence_8cpp.html" target="_top" xlink:title=" ">
<polygon fill="white" stroke="black" points="2618.5,-291.5 2618.5,-310.5 2753.5,-310.5 2753.5,-291.5 2618.5,-291.5"/>
<text text-anchor="middle" x="2686" y="-298.5" font-family="Helvetica,sans-Serif" font-size="10.00">SyntheticTurbulence.cpp</text>
</a>
</g>
</g>
<!-- Node1&#45;&gt;Node67 -->
<g id="edge42" class="edge">
<title>Node1&#45;&gt;Node67</title>
<path fill="none" stroke="midnightblue" d="M1822.43,-354.6C1945.75,-350.41 2308.62,-336.67 2609,-311 2612.08,-310.74 2615.24,-310.45 2618.42,-310.14"/>
<polygon fill="midnightblue" stroke="midnightblue" points="1822.14,-351.11 1812.26,-354.94 1822.37,-358.1 1822.14,-351.11"/>
</g>
<!-- Node126 -->
<g id="node37" class="node">
<title>Node126</title>
<g id="a_node37"><a xlink:href="_taylor_green_vortex_8cpp.html" target="_top" xlink:title=" ">
<polygon fill="white" stroke="black" points="2771.5,-291.5 2771.5,-310.5 2898.5,-310.5 2898.5,-291.5 2771.5,-291.5"/>
<text text-anchor="middle" x="2835" y="-298.5" font-family="Helvetica,sans-Serif" font-size="10.00">TaylorGreenVortex.cpp</text>
</a>
</g>
</g>
<!-- Node1&#45;&gt;Node126 -->
<g id="edge43" class="edge">
<title>Node1&#45;&gt;Node126</title>
<path fill="none" stroke="midnightblue" d="M1822.29,-355.21C1959.88,-352.43 2399.48,-341.6 2762,-311 2765.05,-310.74 2768.18,-310.45 2771.33,-310.14"/>
<polygon fill="midnightblue" stroke="midnightblue" points="1822.08,-351.71 1812.15,-355.41 1822.22,-358.71 1822.08,-351.71"/>
</g>
<!-- Node127 -->
<g id="node38" class="node">
<title>Node127</title>
<g id="a_node38"><a xlink:href="_vortex_dipole_8cpp.html" target="_top" xlink:title=" ">
<polygon fill="white" stroke="black" points="2917,-291.5 2917,-310.5 3017,-310.5 3017,-291.5 2917,-291.5"/>
<text text-anchor="middle" x="2967" y="-298.5" font-family="Helvetica,sans-Serif" font-size="10.00">VortexDipole.cpp</text>
</a>
</g>
</g>
<!-- Node1&#45;&gt;Node127 -->
<g id="edge44" class="edge">
<title>Node1&#45;&gt;Node127</title>
<path fill="none" stroke="midnightblue" d="M1822.52,-355.97C1973.11,-355.5 2485.9,-350.86 2907,-311 2910.25,-310.69 2913.59,-310.33 2916.96,-309.92"/>
<polygon fill="midnightblue" stroke="midnightblue" points="1822.3,-352.47 1812.31,-356 1822.32,-359.47 1822.3,-352.47"/>
</g>
<!-- Node128 -->
<g id="node39" class="node">
<title>Node128</title>
<g id="a_node39"><a xlink:href="_vortex_ring_8cpp.html" target="_top" xlink:title=" ">
<polygon fill="white" stroke="black" points="3035,-291.5 3035,-310.5 3125,-310.5 3125,-291.5 3035,-291.5"/>
<text text-anchor="middle" x="3080" y="-298.5" font-family="Helvetica,sans-Serif" font-size="10.00">VortexRing.cpp</text>
</a>
</g>
</g>
<!-- Node1&#45;&gt;Node128 -->
<g id="edge45" class="edge">
<title>Node1&#45;&gt;Node128</title>
<path fill="none" stroke="midnightblue" d="M1822.77,-356.46C1983.57,-357.72 2556.67,-358.38 3026,-311 3028.93,-310.7 3031.94,-310.35 3034.98,-309.95"/>
<polygon fill="midnightblue" stroke="midnightblue" points="1822.38,-352.96 1812.35,-356.37 1822.32,-359.96 1822.38,-352.96"/>
</g>
<!-- Node129 -->
<g id="node40" class="node">
<title>Node129</title>
<g id="a_node40"><a xlink:href="_a_b_l_field_init_8cpp.html" target="_top" xlink:title=" ">
<polygon fill="white" stroke="black" points="3143.5,-291.5 3143.5,-310.5 3238.5,-310.5 3238.5,-291.5 3143.5,-291.5"/>
<text text-anchor="middle" x="3191" y="-298.5" font-family="Helvetica,sans-Serif" font-size="10.00">ABLFieldInit.cpp</text>
</a>
</g>
</g>
<!-- Node1&#45;&gt;Node129 -->
<g id="edge46" class="edge">
<title>Node1&#45;&gt;Node129</title>
<path fill="none" stroke="midnightblue" d="M1822.27,-355.28C2023.64,-351.83 2870.43,-336.09 3134,-311 3137.09,-310.71 3140.27,-310.35 3143.47,-309.95"/>
<polygon fill="midnightblue" stroke="midnightblue" points="1822.02,-351.79 1812.09,-355.46 1822.14,-358.79 1822.02,-351.79"/>
</g>
<!-- Node130 -->
<g id="node41" class="node">
<title>Node130</title>
<g id="a_node41"><a xlink:href="_a_b_l_field_init_file_8cpp.html" target="_top" xlink:title=" ">
<polygon fill="white" stroke="black" points="3257,-291.5 3257,-310.5 3369,-310.5 3369,-291.5 3257,-291.5"/>
<text text-anchor="middle" x="3313" y="-298.5" font-family="Helvetica,sans-Serif" font-size="10.00">ABLFieldInitFile.cpp</text>
</a>
</g>
</g>
<!-- Node1&#45;&gt;Node130 -->
<g id="edge47" class="edge">
<title>Node1&#45;&gt;Node130</title>
<path fill="none" stroke="midnightblue" d="M1822.36,-356.33C1999.5,-357.32 2685.47,-357.76 3247,-311 3250.23,-310.73 3253.54,-310.41 3256.87,-310.06"/>
<polygon fill="midnightblue" stroke="midnightblue" points="1822.17,-352.83 1812.15,-356.27 1822.13,-359.83 1822.17,-352.83"/>
</g>
<!-- Node40 -->
<g id="node42" class="node">
<title>Node40</title>
<g id="a_node42"><a xlink:href="_joukowsky__ops_8_h.html" target="_top" xlink:title=" ">
<polygon fill="white" stroke="black" points="3507.5,-291.5 3507.5,-310.5 3608.5,-310.5 3608.5,-291.5 3507.5,-291.5"/>
<text text-anchor="middle" x="3558" y="-298.5" font-family="Helvetica,sans-Serif" font-size="10.00">Joukowsky_ops.H</text>
</a>
</g>
</g>
<!-- Node1&#45;&gt;Node40 -->
<g id="edge50" class="edge">
<title>Node1&#45;&gt;Node40</title>
<path fill="none" stroke="midnightblue" d="M1822.14,-355.59C2054.41,-353.27 3158.06,-340.83 3498,-311 3501.04,-310.73 3504.17,-310.41 3507.31,-310.05"/>
<polygon fill="midnightblue" stroke="midnightblue" points="1822.02,-352.09 1812.06,-355.69 1822.09,-359.09 1822.02,-352.09"/>
</g>
<!-- Node41 -->
<g id="node45" class="node">
<title>Node41</title>
<g id="a_node45"><a xlink:href="uniform__ct__ops_8_h.html" target="_top" xlink:title=" ">
<polygon fill="white" stroke="black" points="3387,-291.5 3387,-310.5 3489,-310.5 3489,-291.5 3387,-291.5"/>
<text text-anchor="middle" x="3438" y="-298.5" font-family="Helvetica,sans-Serif" font-size="10.00">uniform_ct_ops.H</text>
</a>
</g>
</g>
<!-- Node1&#45;&gt;Node41 -->
<g id="edge53" class="edge">
<title>Node1&#45;&gt;Node41</title>
<path fill="none" stroke="midnightblue" d="M1822.63,-355.49C2046.04,-352.74 3063.47,-338.91 3378,-311 3380.94,-310.74 3383.95,-310.43 3386.99,-310.08"/>
<polygon fill="midnightblue" stroke="midnightblue" points="1822.26,-351.99 1812.3,-355.61 1822.34,-358.99 1822.26,-351.99"/>
</g>
<!-- Node131 -->
<g id="node47" class="node">
<title>Node131</title>
<g id="a_node47"><a xlink:href="_m_o_data_8_h.html" target="_top" xlink:title=" ">
<polygon fill="white" stroke="black" points="1068.5,-179.5 1068.5,-198.5 1135.5,-198.5 1135.5,-179.5 1068.5,-179.5"/>
<text text-anchor="middle" x="1102" y="-186.5" font-family="Helvetica,sans-Serif" font-size="10.00">MOData.H</text>
</a>
</g>
</g>
<!-- Node1&#45;&gt;Node131 -->
<g id="edge56" class="edge">
<title>Node1&#45;&gt;Node131</title>
<path fill="none" stroke="midnightblue" d="M1735.43,-354.92C1582.53,-350.92 1078.4,-335.9 1055,-311 1023.52,-277.5 1072.06,-220.55 1093.07,-198.8"/>
<polygon fill="midnightblue" stroke="midnightblue" points="1735.73,-358.43 1745.82,-355.19 1735.91,-351.43 1735.73,-358.43"/>
</g>
<!-- Node4 -->
<g id="node4" class="node">
<title>Node4</title>
<g id="a_node4"><a xlink:href="tensor_8_h.html" target="_top" xlink:title=" ">
<polygon fill="white" stroke="black" points="421.5,-235.5 421.5,-254.5 478.5,-254.5 478.5,-235.5 421.5,-235.5"/>
<text text-anchor="middle" x="450" y="-242.5" font-family="Helvetica,sans-Serif" font-size="10.00">tensor.H</text>
</a>
</g>
</g>
<!-- Node3&#45;&gt;Node4 -->
<g id="edge3" class="edge">
<title>Node3&#45;&gt;Node4</title>
<path fill="none" stroke="midnightblue" d="M443.53,-281.1C442.9,-272.14 443.34,-261.86 444.87,-254.75"/>
<polygon fill="midnightblue" stroke="midnightblue" points="440.07,-281.62 444.83,-291.08 447.01,-280.71 440.07,-281.62"/>
</g>
<!-- Node4&#45;&gt;Node3 -->
<g id="edge4" class="edge">
<title>Node4&#45;&gt;Node3</title>
<path fill="none" stroke="midnightblue" d="M456.46,-264.69C457.11,-273.64 456.68,-283.93 455.17,-291.08"/>
<polygon fill="midnightblue" stroke="midnightblue" points="459.92,-264.2 455.13,-254.75 452.98,-265.13 459.92,-264.2"/>
</g>
<!-- Node5 -->
<g id="node5" class="node">
<title>Node5</title>
<g id="a_node5"><a xlink:href="vector__space_8_h.html" target="_top" xlink:title=" ">
<polygon fill="white" stroke="red" points="389,-179.5 389,-198.5 481,-198.5 481,-179.5 389,-179.5"/>
<text text-anchor="middle" x="435" y="-186.5" font-family="Helvetica,sans-Serif" font-size="10.00">vector_space.H</text>
</a>
</g>
</g>
<!-- Node4&#45;&gt;Node5 -->
<g id="edge5" class="edge">
<title>Node4&#45;&gt;Node5</title>
<path fill="none" stroke="midnightblue" d="M444.83,-225.4C442.32,-216.36 439.43,-205.94 437.43,-198.75"/>
<polygon fill="midnightblue" stroke="midnightblue" points="441.47,-226.38 447.52,-235.08 448.22,-224.51 441.47,-226.38"/>
</g>
<!-- Node5&#45;&gt;Node76 -->
<g id="edge6" class="edge">
<title>Node5&#45;&gt;Node76</title>
<path fill="none" stroke="midnightblue" d="M435,-168.8C435,-159.91 435,-149.78 435,-142.75"/>
<polygon fill="midnightblue" stroke="midnightblue" points="431.5,-169.08 435,-179.08 438.5,-169.08 431.5,-169.08"/>
</g>
<!-- Node77 -->
<g id="node7" class="node">
<title>Node77</title>
<g id="a_node7"><a xlink:href="_a_b_l_8_h.html" target="_top" xlink:title=" ">
<polygon fill="white" stroke="black" points="881,-67.5 881,-86.5 927,-86.5 927,-67.5 881,-67.5"/>
<text text-anchor="middle" x="904" y="-74.5" font-family="Helvetica,sans-Serif" font-size="10.00">ABL.H</text>
</a>
</g>
</g>
<!-- Node76&#45;&gt;Node77 -->
<g id="edge7" class="edge">
<title>Node76&#45;&gt;Node77</title>
<path fill="none" stroke="midnightblue" d="M518.08,-122.43C627.98,-109.78 815.38,-88.2 880.71,-80.68"/>
<polygon fill="midnightblue" stroke="midnightblue" points="517.56,-118.97 508.02,-123.59 518.36,-125.93 517.56,-118.97"/>
</g>
<!-- Node89 -->
<g id="node19" class="node">
<title>Node89</title>
<g id="a_node19"><a xlink:href="_a_b_l_fill_m_p_l_8_h.html" target="_top" xlink:title=" ">
<polygon fill="white" stroke="red" points="168,-67.5 168,-86.5 248,-86.5 248,-67.5 168,-67.5"/>
<text text-anchor="middle" x="208" y="-74.5" font-family="Helvetica,sans-Serif" font-size="10.00">ABLFillMPL.H</text>
</a>
</g>
</g>
<!-- Node76&#45;&gt;Node89 -->
<g id="edge19" class="edge">
<title>Node76&#45;&gt;Node89</title>
<path fill="none" stroke="midnightblue" d="M389.13,-121.09C346.25,-110.89 283.08,-95.86 243.8,-86.52"/>
<polygon fill="midnightblue" stroke="midnightblue" points="388.49,-124.53 399.03,-123.44 390.11,-117.72 388.49,-124.53"/>
</g>
<!-- Node91 -->
<g id="node20" class="node">
<title>Node91</title>
<g id="a_node20"><a xlink:href="_a_b_l_modulated_power_law_8cpp.html" target="_top" xlink:title=" ">
<polygon fill="white" stroke="black" points="0,-6 0,-25 156,-25 156,-6 0,-6"/>
<text text-anchor="middle" x="78" y="-13" font-family="Helvetica,sans-Serif" font-size="10.00">ABLModulatedPowerLaw.cpp</text>
</a>
</g>
</g>
<!-- Node76&#45;&gt;Node91 -->
<g id="edge21" class="edge">
<title>Node76&#45;&gt;Node91</title>
<path fill="none" stroke="midnightblue" d="M351.75,-130.28C295.08,-126.32 219.63,-115.46 159,-87 126.94,-71.95 97.85,-40.4 84.98,-25.14"/>
<polygon fill="midnightblue" stroke="midnightblue" points="351.55,-133.77 361.75,-130.92 352,-126.78 351.55,-133.77"/>
</g>
<!-- Node77&#45;&gt;Node78 -->
<g id="edge8" class="edge">
<title>Node77&#45;&gt;Node78</title>
<path fill="none" stroke="midnightblue" d="M870.56,-75.17C786.4,-72.66 559.25,-63.19 373,-31 364.34,-29.5 355.05,-27.29 346.62,-25.05"/>
<polygon fill="midnightblue" stroke="midnightblue" points="870.69,-78.68 880.79,-75.47 870.89,-71.68 870.69,-78.68"/>
</g>
<!-- Node79 -->
<g id="node9" class="node">
<title>Node79</title>
<g id="a_node9"><a xlink:href="_a_b_l_mean_boussinesq_8cpp.html" target="_top" xlink:title=" ">
<polygon fill="white" stroke="black" points="456,-6 456,-25 594,-25 594,-6 456,-6"/>
<text text-anchor="middle" x="525" y="-13" font-family="Helvetica,sans-Serif" font-size="10.00">ABLMeanBoussinesq.cpp</text>
</a>
</g>
</g>
<!-- Node77&#45;&gt;Node79 -->
<g id="edge9" class="edge">
<title>Node77&#45;&gt;Node79</title>
<path fill="none" stroke="midnightblue" d="M870.96,-71.45C815.5,-63.73 700.18,-47.29 603,-31 592.13,-29.18 580.44,-27.08 569.5,-25.05"/>
<polygon fill="midnightblue" stroke="midnightblue" points="870.53,-74.93 880.92,-72.83 871.5,-67.99 870.53,-74.93"/>
</g>
<!-- Node80 -->
<g id="node10" class="node">
<title>Node80</title>
<g id="a_node10"><a xlink:href="_a_b_l_meso_forcing_mom_8cpp.html" target="_top" xlink:title=" ">
<polygon fill="white" stroke="black" points="612,-6 612,-25 754,-25 754,-6 612,-6"/>
<text text-anchor="middle" x="683" y="-13" font-family="Helvetica,sans-Serif" font-size="10.00">ABLMesoForcingMom.cpp</text>
</a>
</g>
</g>
<!-- Node77&#45;&gt;Node80 -->
<g id="edge10" class="edge">
<title>Node77&#45;&gt;Node80</title>
<path fill="none" stroke="midnightblue" d="M870.99,-67.11C828.82,-55.76 756.33,-36.24 714.77,-25.05"/>
<polygon fill="midnightblue" stroke="midnightblue" points="870.2,-70.52 880.77,-69.74 872.02,-63.77 870.2,-70.52"/>
</g>
<!-- Node77&#45;&gt;Node81 -->
<g id="edge11" class="edge">
<title>Node77&#45;&gt;Node81</title>
<path fill="none" stroke="midnightblue" d="M937.11,-67.77C938.42,-67.5 939.72,-67.24 941,-67 1055.6,-45.19 1086.07,-51.01 1201,-31 1211.01,-29.26 1221.78,-27.12 1231.77,-25.03"/>
<polygon fill="midnightblue" stroke="midnightblue" points="936.01,-64.43 927.01,-70.02 937.54,-71.26 936.01,-64.43"/>
</g>
<!-- Node82 -->
<g id="node12" class="node">
<title>Node82</title>
<g id="a_node12"><a xlink:href="_a_b_l_meso_forcing_temp_8cpp.html" target="_top" xlink:title=" ">
<polygon fill="white" stroke="black" points="772.5,-6 772.5,-25 915.5,-25 915.5,-6 772.5,-6"/>
<text text-anchor="middle" x="844" y="-13" font-family="Helvetica,sans-Serif" font-size="10.00">ABLMesoForcingTemp.cpp</text>
</a>
</g>
</g>
<!-- Node77&#45;&gt;Node82 -->
<g id="edge12" class="edge">
<title>Node77&#45;&gt;Node82</title>
<path fill="none" stroke="midnightblue" d="M888.19,-60.32C876.79,-49.02 861.84,-34.19 852.58,-25.01"/>
<polygon fill="midnightblue" stroke="midnightblue" points="885.84,-62.92 895.4,-67.48 890.77,-57.95 885.84,-62.92"/>
</g>
<!-- Node77&#45;&gt;Node83 -->
<g id="edge13" class="edge">
<title>Node77&#45;&gt;Node83</title>
<path fill="none" stroke="midnightblue" d="M937.23,-71.87C950.25,-70.29 965.32,-68.51 979,-67 1138.39,-49.45 1181.38,-65.4 1338,-31 1344.78,-29.51 1351.99,-27.28 1358.48,-25.01"/>
<polygon fill="midnightblue" stroke="midnightblue" points="936.8,-68.4 927.3,-73.09 937.65,-75.35 936.8,-68.4"/>
</g>
<!-- Node84 -->
<g id="node14" class="node">
<title>Node84</title>
<g id="a_node14"><a xlink:href="incflo_8cpp.html" target="_top" xlink:title=" ">
<polygon fill="white" stroke="black" points="933.5,-6 933.5,-25 996.5,-25 996.5,-6 933.5,-6"/>
<text text-anchor="middle" x="965" y="-13" font-family="Helvetica,sans-Serif" font-size="10.00">incflo.cpp</text>
</a>
</g>
</g>
<!-- Node77&#45;&gt;Node84 -->
<g id="edge14" class="edge">
<title>Node77&#45;&gt;Node84</title>
<path fill="none" stroke="midnightblue" d="M920.07,-60.32C931.66,-49.02 946.86,-34.19 956.28,-25.01"/>
<polygon fill="midnightblue" stroke="midnightblue" points="917.45,-57.99 912.74,-67.48 922.34,-63 917.45,-57.99"/>
</g>
<!-- Node85 -->
<g id="node15" class="node">
<title>Node85</title>
<g id="a_node15"><a xlink:href="incflo__apply__nodal__projection_8cpp.html" target="_top" xlink:title=" ">
<polygon fill="white" stroke="black" points="1014.5,-0.5 1014.5,-30.5 1121.5,-30.5 1121.5,-0.5 1014.5,-0.5"/>
<text text-anchor="start" x="1022.5" y="-18.5" font-family="Helvetica,sans-Serif" font-size="10.00">incflo_apply_nodal</text>
<text text-anchor="middle" x="1068" y="-7.5" font-family="Helvetica,sans-Serif" font-size="10.00">_projection.cpp</text>
</a>
</g>
</g>
<!-- Node77&#45;&gt;Node85 -->
<g id="edge15" class="edge">
<title>Node77&#45;&gt;Node85</title>
<path fill="none" stroke="midnightblue" d="M936.78,-64.11C963.41,-54.45 1001.04,-40.79 1029.18,-30.59"/>
<polygon fill="midnightblue" stroke="midnightblue" points="935.36,-60.9 927.15,-67.6 937.74,-67.48 935.36,-60.9"/>
</g>
<!-- Node86 -->
<g id="node16" class="node">
<title>Node86</title>
<g id="a_node16"><a xlink:href="init_8cpp.html" target="_top" xlink:title=" ">
<polygon fill="white" stroke="black" points="1139.5,-6 1139.5,-25 1192.5,-25 1192.5,-6 1139.5,-6"/>
<text text-anchor="middle" x="1166" y="-13" font-family="Helvetica,sans-Serif" font-size="10.00">init.cpp</text>
</a>
</g>
</g>
<!-- Node77&#45;&gt;Node86 -->
<g id="edge16" class="edge">
<title>Node77&#45;&gt;Node86</title>
<path fill="none" stroke="midnightblue" d="M937.13,-67.86C938.43,-67.56 939.73,-67.28 941,-67 1024.57,-48.89 1047.95,-55.09 1130,-31 1135.56,-29.37 1141.45,-27.2 1146.81,-25.03"/>
<polygon fill="midnightblue" stroke="midnightblue" points="936,-64.53 927.05,-70.2 937.58,-71.34 936,-64.53"/>
</g>
<!-- Node87 -->
<g id="node17" class="node">
<title>Node87</title>
<g id="a_node17"><a xlink:href="_a_b_l_8cpp.html" target="_top" xlink:title=" ">
<polygon fill="white" stroke="black" points="382,-6 382,-25 438,-25 438,-6 382,-6"/>
<text text-anchor="middle" x="410" y="-13" font-family="Helvetica,sans-Serif" font-size="10.00">ABL.cpp</text>
</a>
</g>
</g>
<!-- Node77&#45;&gt;Node87 -->
<g id="edge17" class="edge">
<title>Node77&#45;&gt;Node87</title>
<path fill="none" stroke="midnightblue" d="M870.4,-75.83C794.06,-74.77 602.16,-68.28 447,-31 440.96,-29.55 434.6,-27.33 428.88,-25.05"/>
<polygon fill="midnightblue" stroke="midnightblue" points="870.76,-79.34 880.8,-75.95 870.85,-72.34 870.76,-79.34"/>
</g>
<!-- Node77&#45;&gt;Node88 -->
<g id="edge18" class="edge">
<title>Node77&#45;&gt;Node88</title>
<path fill="none" stroke="midnightblue" d="M937.05,-74.54C1019.25,-70.6 1239.39,-58.16 1421,-31 1431.51,-29.43 1442.82,-27.22 1453.15,-25.01"/>
<polygon fill="midnightblue" stroke="midnightblue" points="936.88,-71.04 927.05,-75.01 937.2,-78.04 936.88,-71.04"/>
</g>
<!-- Node89&#45;&gt;Node91 -->
<g id="edge20" class="edge">
<title>Node89&#45;&gt;Node91</title>
<path fill="none" stroke="midnightblue" d="M179.98,-63.17C154.75,-51.63 118.39,-34.99 96.59,-25.01"/>
<polygon fill="midnightblue" stroke="midnightblue" points="178.82,-66.5 189.37,-67.48 181.74,-60.13 178.82,-66.5"/>
</g>
<!-- Node111&#45;&gt;Node78 -->
<g id="edge24" class="edge">
<title>Node111&#45;&gt;Node78</title>
<path fill="none" stroke="midnightblue" d="M565.37,-67.08C505.31,-56.43 408.82,-39.03 373,-31 365.1,-29.23 356.62,-27.11 348.74,-25.04"/>
<polygon fill="midnightblue" stroke="midnightblue" points="564.95,-70.56 575.41,-68.86 566.17,-63.67 564.95,-70.56"/>
</g>
<!-- Node111&#45;&gt;Node87 -->
<g id="edge25" class="edge">
<title>Node111&#45;&gt;Node87</title>
<path fill="none" stroke="midnightblue" d="M568.9,-64.98C534.76,-56.62 487.66,-44.33 447,-31 441.62,-29.24 435.9,-27.12 430.59,-25.05"/>
<polygon fill="midnightblue" stroke="midnightblue" points="568.51,-68.49 579.06,-67.44 570.16,-61.68 568.51,-68.49"/>
</g>
<!-- Node112 -->
<g id="node22" class="node">
<title>Node112</title>
<g id="a_node22"><a xlink:href="_a_b_l_stats_8cpp.html" target="_top" xlink:title=" ">
<polygon fill="white" stroke="black" points="174,-6 174,-25 254,-25 254,-6 174,-6"/>
<text text-anchor="middle" x="214" y="-13" font-family="Helvetica,sans-Serif" font-size="10.00">ABLStats.cpp</text>
</a>
</g>
</g>
<!-- Node111&#45;&gt;Node112 -->
<g id="edge26" class="edge">
<title>Node111&#45;&gt;Node112</title>
<path fill="none" stroke="midnightblue" d="M565.26,-72.11C496.3,-66.25 369.39,-53.37 263,-31 255.45,-29.41 247.37,-27.23 239.99,-25.04"/>
<polygon fill="midnightblue" stroke="midnightblue" points="565.16,-75.62 575.41,-72.96 565.74,-68.64 565.16,-75.62"/>
</g>
<!-- Node125 -->
<g id="node35" class="node">
<title>Node125</title>
<g id="a_node35"><a xlink:href="_scalar_advection_8cpp.html" target="_top" xlink:title=" ">
<polygon fill="white" stroke="black" points="2489,-235.5 2489,-254.5 2605,-254.5 2605,-235.5 2489,-235.5"/>
<text text-anchor="middle" x="2547" y="-242.5" font-family="Helvetica,sans-Serif" font-size="10.00">ScalarAdvection.cpp</text>
</a>
</g>
</g>
<!-- Node124&#45;&gt;Node125 -->
<g id="edge41" class="edge">
<title>Node124&#45;&gt;Node125</title>
<path fill="none" stroke="midnightblue" d="M2547,-280.8C2547,-271.91 2547,-261.78 2547,-254.75"/>
<polygon fill="midnightblue" stroke="midnightblue" points="2543.5,-281.08 2547,-291.08 2550.5,-281.08 2543.5,-281.08"/>
</g>
<!-- Node32 -->
<g id="node43" class="node">
<title>Node32</title>
<g id="a_node43"><a xlink:href="_actuator_disk_8cpp.html" target="_top" xlink:title=" ">
<polygon fill="white" stroke="black" points="3448,-235.5 3448,-254.5 3548,-254.5 3548,-235.5 3448,-235.5"/>
<text text-anchor="middle" x="3498" y="-242.5" font-family="Helvetica,sans-Serif" font-size="10.00">ActuatorDisk.cpp</text>
</a>
</g>
</g>
<!-- Node40&#45;&gt;Node32 -->
<g id="edge51" class="edge">
<title>Node40&#45;&gt;Node32</title>
<path fill="none" stroke="midnightblue" d="M3540.82,-284.54C3530.12,-274.91 3516.74,-262.87 3507.82,-254.83"/>
<polygon fill="midnightblue" stroke="midnightblue" points="3538.59,-287.24 3548.36,-291.32 3543.27,-282.03 3538.59,-287.24"/>
</g>
<!-- Node39 -->
<g id="node44" class="node">
<title>Node39</title>
<g id="a_node44"><a xlink:href="_joukowsky__ops_8cpp.html" target="_top" xlink:title=" ">
<polygon fill="white" stroke="black" points="3566,-235.5 3566,-254.5 3676,-254.5 3676,-235.5 3566,-235.5"/>
<text text-anchor="middle" x="3621" y="-242.5" font-family="Helvetica,sans-Serif" font-size="10.00">Joukowsky_ops.cpp</text>
</a>
</g>
</g>
<!-- Node40&#45;&gt;Node39 -->
<g id="edge52" class="edge">
<title>Node40&#45;&gt;Node39</title>
<path fill="none" stroke="midnightblue" d="M3576.04,-284.54C3587.27,-274.91 3601.32,-262.87 3610.69,-254.83"/>
<polygon fill="midnightblue" stroke="midnightblue" points="3573.44,-282.16 3568.12,-291.32 3577.99,-287.47 3573.44,-282.16"/>
</g>
<!-- Node41&#45;&gt;Node32 -->
<g id="edge54" class="edge">
<title>Node41&#45;&gt;Node32</title>
<path fill="none" stroke="midnightblue" d="M3455.18,-284.54C3465.88,-274.91 3479.26,-262.87 3488.18,-254.83"/>
<polygon fill="midnightblue" stroke="midnightblue" points="3452.73,-282.03 3447.64,-291.32 3457.41,-287.24 3452.73,-282.03"/>
</g>
<!-- Node42 -->
<g id="node46" class="node">
<title>Node42</title>
<g id="a_node46"><a xlink:href="uniform__ct__ops_8cpp.html" target="_top" xlink:title=" ">
<polygon fill="white" stroke="black" points="3318,-235.5 3318,-254.5 3430,-254.5 3430,-235.5 3318,-235.5"/>
<text text-anchor="middle" x="3374" y="-242.5" font-family="Helvetica,sans-Serif" font-size="10.00">uniform_ct_ops.cpp</text>
</a>
</g>
</g>
<!-- Node41&#45;&gt;Node42 -->
<g id="edge55" class="edge">
<title>Node41&#45;&gt;Node42</title>
<path fill="none" stroke="midnightblue" d="M3420.01,-284.82C3408.54,-275.15 3394.09,-262.95 3384.47,-254.83"/>
<polygon fill="midnightblue" stroke="midnightblue" points="3417.82,-287.55 3427.72,-291.32 3422.33,-282.2 3417.82,-287.55"/>
</g>
<!-- Node132 -->
<g id="node48" class="node">
<title>Node132</title>
<g id="a_node48"><a xlink:href="_a_b_l_wall_function_8_h.html" target="_top" xlink:title=" ">
<polygon fill="white" stroke="red" points="1116.5,-123.5 1116.5,-142.5 1223.5,-142.5 1223.5,-123.5 1116.5,-123.5"/>
<text text-anchor="middle" x="1170" y="-130.5" font-family="Helvetica,sans-Serif" font-size="10.00">ABLWallFunction.H</text>
</a>
</g>
</g>
<!-- Node131&#45;&gt;Node132 -->
<g id="edge57" class="edge">
<title>Node131&#45;&gt;Node132</title>
<path fill="none" stroke="midnightblue" d="M1120.76,-173.1C1133,-163.38 1148.56,-151.03 1158.88,-142.83"/>
<polygon fill="midnightblue" stroke="midnightblue" points="1118.58,-170.36 1112.93,-179.32 1122.93,-175.85 1118.58,-170.36"/>
</g>
<!-- Node136 -->
<g id="node49" class="node">
<title>Node136</title>
<g id="a_node49"><a xlink:href="_m_o_data_8cpp.html" target="_top" xlink:title=" ">
<polygon fill="white" stroke="black" points="1021.5,-123.5 1021.5,-142.5 1098.5,-142.5 1098.5,-123.5 1021.5,-123.5"/>
<text text-anchor="middle" x="1060" y="-130.5" font-family="Helvetica,sans-Serif" font-size="10.00">MOData.cpp</text>
</a>
</g>
</g>
<!-- Node131&#45;&gt;Node136 -->
<g id="edge60" class="edge">
<title>Node131&#45;&gt;Node136</title>
<path fill="none" stroke="midnightblue" d="M1088.89,-171.14C1081.57,-161.74 1072.76,-150.4 1066.81,-142.75"/>
<polygon fill="midnightblue" stroke="midnightblue" points="1086.16,-173.34 1095.06,-179.08 1091.69,-169.04 1086.16,-173.34"/>
</g>
<!-- Node137 -->
<g id="node50" class="node">
<title>Node137</title>
<g id="a_node50"><a xlink:href="_shear_stress_8_h.html" target="_top" xlink:title=" ">
<polygon fill="white" stroke="red" points="1198.5,-67.5 1198.5,-86.5 1283.5,-86.5 1283.5,-67.5 1198.5,-67.5"/>
<text text-anchor="middle" x="1241" y="-74.5" font-family="Helvetica,sans-Serif" font-size="10.00">ShearStress.H</text>
</a>
</g>
</g>
<!-- Node131&#45;&gt;Node137 -->
<g id="edge61" class="edge">
<title>Node131&#45;&gt;Node137</title>
<path fill="none" stroke="midnightblue" d="M1146.04,-184.37C1174.92,-179.56 1211.08,-168.48 1232,-143 1245.3,-126.8 1244.13,-100.31 1242.42,-86.69"/>
<polygon fill="midnightblue" stroke="midnightblue" points="1145.16,-180.96 1135.77,-185.87 1146.17,-187.89 1145.16,-180.96"/>
</g>
<!-- Node132&#45;&gt;Node77 -->
<g id="edge58" class="edge">
<title>Node132&#45;&gt;Node77</title>
<path fill="none" stroke="midnightblue" d="M1117.8,-121.4C1059.94,-109.66 969.23,-91.24 927.03,-82.67"/>
<polygon fill="midnightblue" stroke="midnightblue" points="1117.36,-124.88 1127.85,-123.44 1118.75,-118.02 1117.36,-124.88"/>
</g>
<!-- Node132&#45;&gt;Node88 -->
<g id="edge59" class="edge">
<title>Node132&#45;&gt;Node88</title>
<path fill="none" stroke="midnightblue" d="M1170.3,-113.25C1171.6,-98.47 1175.9,-78.49 1189,-67 1228.22,-32.59 1369.69,-40.44 1421,-31 1430.73,-29.21 1441.21,-27.08 1450.95,-25.01"/>
<polygon fill="midnightblue" stroke="midnightblue" points="1166.8,-113.15 1169.8,-123.31 1173.79,-113.5 1166.8,-113.15"/>
</g>
<!-- Node137&#45;&gt;Node88 -->
<g id="edge62" class="edge">
<title>Node137&#45;&gt;Node88</title>
<path fill="none" stroke="midnightblue" d="M1286.37,-65.11C1334.51,-53.57 1409.55,-35.56 1453.53,-25.01"/>
<polygon fill="midnightblue" stroke="midnightblue" points="1285.44,-61.74 1276.53,-67.48 1287.07,-68.55 1285.44,-61.74"/>
</g>
</g>
</svg>
